G04 #@! TF.FileFunction,Paste,Top*
%FSLAX46Y46*%
G04 Gerber Fmt 4.6, Leading zero omitted, Abs format (unit mm)*
G04 Created by KiCad (PCBNEW 4.0.2-stable) date 2016/09/19 18:56:50*
%MOMM*%
G01*
G04 APERTURE LIST*
%ADD10C,0.100000*%
%ADD11R,0.450000X1.450000*%
%ADD12R,1.350000X0.400000*%
%ADD13R,1.900000X1.900000*%
%ADD14R,1.400000X1.600000*%
%ADD15R,5.600700X2.100580*%
%ADD16R,1.201420X1.249680*%
%ADD17R,1.060000X0.650000*%
%ADD18R,0.800100X1.000760*%
%ADD19R,1.249680X1.201420*%
%ADD20R,1.000760X0.800100*%
%ADD21R,0.800100X0.800100*%
%ADD22R,2.032000X3.657600*%
%ADD23R,2.032000X1.016000*%
%ADD24R,0.599440X0.599440*%
%ADD25R,0.450000X1.500000*%
%ADD26R,0.200000X0.700000*%
%ADD27R,0.800000X0.800100*%
%ADD28R,0.480000X0.400000*%
%ADD29R,0.600000X0.600000*%
%ADD30R,0.600000X0.400000*%
%ADD31R,0.600000X1.300000*%
%ADD32R,1.450000X0.450000*%
%ADD33R,1.500000X1.000000*%
%ADD34R,1.700000X0.650000*%
%ADD35C,0.400000*%
G04 APERTURE END LIST*
D10*
D11*
X39350000Y25850000D03*
X38700000Y25850000D03*
X38050000Y25850000D03*
X37400000Y25850000D03*
X36750000Y25850000D03*
X36100000Y25850000D03*
X35450000Y25850000D03*
X35450000Y19950000D03*
X36100000Y19950000D03*
X36750000Y19950000D03*
X37400000Y19950000D03*
X38050000Y19950000D03*
X38700000Y19950000D03*
X39350000Y19950000D03*
D12*
X5100000Y22800000D03*
X5100000Y22150000D03*
X5100000Y21500000D03*
X5100000Y20850000D03*
X5100000Y20200000D03*
D13*
X2450000Y22700000D03*
X2450000Y20300000D03*
D14*
X4900000Y24700000D03*
X4900000Y18300000D03*
D15*
X3551140Y32400000D03*
X13248860Y32400000D03*
D16*
X7699820Y15400000D03*
X5500180Y15400000D03*
X53699820Y21500000D03*
X51500180Y21500000D03*
D17*
X50600000Y3350000D03*
X50600000Y4300000D03*
X50600000Y5250000D03*
X48400000Y5250000D03*
X48400000Y3350000D03*
X48400000Y4300000D03*
X27000000Y7150000D03*
X27000000Y6200000D03*
X27000000Y5250000D03*
X29200000Y5250000D03*
X29200000Y7150000D03*
X29200000Y6200000D03*
D16*
X12699820Y4200000D03*
X10500180Y4200000D03*
D18*
X22500000Y13500100D03*
X22500000Y11899900D03*
D19*
X11500000Y10599820D03*
X11500000Y8400180D03*
D18*
X46500000Y4000100D03*
X46500000Y2399900D03*
D20*
X48699900Y1400000D03*
X50300100Y1400000D03*
D19*
X53700000Y3999820D03*
X53700000Y1800180D03*
D16*
X53799820Y7000000D03*
X51600180Y7000000D03*
D20*
X3200100Y27400000D03*
X1599900Y27400000D03*
X12800100Y18000000D03*
X11199900Y18000000D03*
X13000100Y27200000D03*
X11399900Y27200000D03*
D16*
X10500180Y1500000D03*
X12699820Y1500000D03*
D19*
X57000000Y1800180D03*
X57000000Y3999820D03*
D17*
X9300000Y22750000D03*
X9300000Y21800000D03*
X9300000Y20850000D03*
X11500000Y20850000D03*
X11500000Y22750000D03*
X11500000Y21800000D03*
D21*
X39050000Y4600760D03*
X37150000Y4600760D03*
X38100000Y2601780D03*
X40550000Y8799240D03*
X42450000Y8799240D03*
X41500000Y10798220D03*
D22*
X1898000Y10600000D03*
D23*
X8502000Y10600000D03*
X8502000Y12886000D03*
X8502000Y8314000D03*
D24*
X13551180Y13000000D03*
X12448820Y13000000D03*
X28448820Y24300000D03*
X29551180Y24300000D03*
X16900000Y12648820D03*
X16900000Y13751180D03*
X54500000Y24948820D03*
X54500000Y26051180D03*
X13251180Y19700000D03*
X12148820Y19700000D03*
X35051180Y16400000D03*
X33948820Y16400000D03*
X43600000Y41451180D03*
X43600000Y40348820D03*
X37500000Y12948820D03*
X37500000Y14051180D03*
X39951180Y16800000D03*
X38848820Y16800000D03*
X44900000Y3751180D03*
X44900000Y2648820D03*
X20300000Y13751180D03*
X20300000Y12648820D03*
X15400000Y13751180D03*
X15400000Y12648820D03*
X51551180Y29200000D03*
X50448820Y29200000D03*
X45200000Y20351180D03*
X45200000Y19248820D03*
X49000000Y27848820D03*
X49000000Y28951180D03*
X8251180Y17400000D03*
X7148820Y17400000D03*
X13700000Y9951180D03*
X13700000Y8848820D03*
X47951180Y20600000D03*
X46848820Y20600000D03*
X18600000Y13751180D03*
X18600000Y12648820D03*
X24300000Y14051180D03*
X24300000Y12948820D03*
X38848820Y29300000D03*
X39951180Y29300000D03*
X37500000Y27948820D03*
X37500000Y29051180D03*
X37500000Y16448820D03*
X37500000Y17551180D03*
X37500000Y30448820D03*
X37500000Y31551180D03*
X34800000Y30351180D03*
X34800000Y29248820D03*
X42548820Y32700000D03*
X43651180Y32700000D03*
X26551180Y41700000D03*
X25448820Y41700000D03*
X33300000Y31348820D03*
X33300000Y32451180D03*
X17000000Y29048820D03*
X17000000Y30151180D03*
X8551180Y36200000D03*
X7448820Y36200000D03*
X7800000Y25748820D03*
X7800000Y26851180D03*
X10448820Y36200000D03*
X11551180Y36200000D03*
X18548820Y29400000D03*
X19651180Y29400000D03*
X35351180Y3200000D03*
X34248820Y3200000D03*
X37851180Y6900000D03*
X36748820Y6900000D03*
X40448820Y7200000D03*
X41551180Y7200000D03*
X13251180Y25500000D03*
X12148820Y25500000D03*
X13251180Y23900000D03*
X12148820Y23900000D03*
X49848820Y10800000D03*
X50951180Y10800000D03*
X50448820Y27600000D03*
X51551180Y27600000D03*
X47400000Y28951180D03*
X47400000Y27848820D03*
X47951180Y19200000D03*
X46848820Y19200000D03*
X43600000Y20351180D03*
X43600000Y19248820D03*
X38848820Y30500000D03*
X39951180Y30500000D03*
X38848820Y15600000D03*
X39951180Y15600000D03*
X47000000Y31848820D03*
X47000000Y32951180D03*
X38848820Y18000000D03*
X39951180Y18000000D03*
X39951180Y28100000D03*
X38848820Y28100000D03*
X14751180Y39500000D03*
X13648820Y39500000D03*
X27048820Y13900000D03*
X28151180Y13900000D03*
X33300000Y30351180D03*
X33300000Y29248820D03*
X42548820Y33900000D03*
X43651180Y33900000D03*
X42200000Y41451180D03*
X42200000Y40348820D03*
X34800000Y31348820D03*
X34800000Y32451180D03*
X33948820Y15200000D03*
X35051180Y15200000D03*
X47300000Y36548820D03*
X47300000Y37651180D03*
X31000000Y35251180D03*
X31000000Y34148820D03*
X33051180Y5400000D03*
X31948820Y5400000D03*
X33051180Y6900000D03*
X31948820Y6900000D03*
X5048820Y27400000D03*
X6151180Y27400000D03*
X34000000Y21248820D03*
X34000000Y22351180D03*
X16948820Y4300000D03*
X18051180Y4300000D03*
X21000000Y30251180D03*
X21000000Y29148820D03*
X9351180Y24200000D03*
X8248820Y24200000D03*
X9351180Y19500000D03*
X8248820Y19500000D03*
X13451180Y16200000D03*
X12348820Y16200000D03*
X18600000Y31851180D03*
X18600000Y30748820D03*
X13451180Y14600000D03*
X12348820Y14600000D03*
X31800000Y10051180D03*
X31800000Y8948820D03*
X34348820Y6900000D03*
X35451180Y6900000D03*
X35400000Y5551180D03*
X35400000Y4448820D03*
X40700000Y3648820D03*
X40700000Y4751180D03*
X39000000Y12051180D03*
X39000000Y10948820D03*
X39000000Y8648820D03*
X39000000Y9751180D03*
X37500000Y9751180D03*
X37500000Y8648820D03*
X2148820Y15300000D03*
X3251180Y15300000D03*
X34848820Y17900000D03*
X35951180Y17900000D03*
X29200000Y10051180D03*
X29200000Y8948820D03*
X28548820Y21700000D03*
X29651180Y21700000D03*
D25*
X39675000Y40950000D03*
X39025000Y40950000D03*
X38375000Y40950000D03*
X37725000Y40950000D03*
X37075000Y40950000D03*
X36425000Y40950000D03*
X35775000Y40950000D03*
X35125000Y40950000D03*
X35125000Y35050000D03*
X35775000Y35050000D03*
X36425000Y35050000D03*
X37075000Y35050000D03*
X37725000Y35050000D03*
X38375000Y35050000D03*
X39025000Y35050000D03*
X39675000Y35050000D03*
D26*
X45650000Y38600000D03*
X45150000Y38600000D03*
X44650000Y38600000D03*
X44150000Y38600000D03*
X44150000Y35400000D03*
X45150000Y35400000D03*
X45650000Y35400000D03*
X44650000Y35400000D03*
D27*
X29800000Y13900000D03*
X31600000Y13900000D03*
D28*
X32550000Y23700000D03*
X33850000Y23700000D03*
D29*
X32100000Y26650000D03*
D30*
X32100000Y25900000D03*
D29*
X32100000Y25150000D03*
X33900000Y25150000D03*
D30*
X33900000Y25900000D03*
D29*
X33900000Y26650000D03*
D31*
X41830000Y30600000D03*
X44370000Y30600000D03*
X44370000Y30600000D03*
X41830000Y30600000D03*
X41830000Y30600000D03*
X44370000Y30600000D03*
X44370000Y30600000D03*
X41830000Y30600000D03*
X44370000Y25000000D03*
X41830000Y25000000D03*
X53770000Y13000000D03*
X51230000Y13000000D03*
X51230000Y13000000D03*
X53770000Y13000000D03*
X53770000Y13000000D03*
X51230000Y13000000D03*
X51230000Y13000000D03*
X53770000Y13000000D03*
X51230000Y18600000D03*
X53770000Y18600000D03*
D32*
X16350000Y8875000D03*
X16350000Y8225000D03*
X16350000Y7575000D03*
X16350000Y6925000D03*
X22250000Y6925000D03*
X22250000Y7575000D03*
X22250000Y8225000D03*
X22250000Y8875000D03*
D33*
X48250000Y16600000D03*
X43750000Y16600000D03*
X51050000Y24800000D03*
X46550000Y24800000D03*
D34*
X18750000Y39605000D03*
X18750000Y38335000D03*
X18750000Y37065000D03*
X18750000Y35795000D03*
X26050000Y35795000D03*
X26050000Y37065000D03*
X26050000Y38335000D03*
X26050000Y39605000D03*
D35*
X17300000Y25100000D03*
X17300000Y24300000D03*
X17300000Y23500000D03*
X17300000Y22700000D03*
X17300000Y21900000D03*
X17300000Y21100000D03*
X17300000Y20300000D03*
X17300000Y19500000D03*
X17300000Y18700000D03*
X17300000Y17900000D03*
X18100000Y25100000D03*
X18100000Y24300000D03*
X18100000Y23500000D03*
X18100000Y22700000D03*
X18100000Y21900000D03*
X18100000Y21100000D03*
X18100000Y20300000D03*
X18100000Y19500000D03*
X18100000Y18700000D03*
X18100000Y17900000D03*
X18900000Y25100000D03*
X18900000Y24300000D03*
X18900000Y23500000D03*
X18900000Y22700000D03*
X18900000Y21900000D03*
X18900000Y21100000D03*
X18900000Y20300000D03*
X18900000Y19500000D03*
X18900000Y18700000D03*
X18900000Y17900000D03*
X19700000Y25100000D03*
X19700000Y24300000D03*
X19700000Y23500000D03*
X19700000Y22700000D03*
X19700000Y21900000D03*
X19700000Y21100000D03*
X19700000Y20300000D03*
X19700000Y19500000D03*
X19700000Y18700000D03*
X19700000Y17900000D03*
X20500000Y25100000D03*
X20500000Y24300000D03*
X20500000Y23500000D03*
X20500000Y22700000D03*
X20500000Y21900000D03*
X20500000Y21100000D03*
X20500000Y20300000D03*
X20500000Y19500000D03*
X20500000Y18700000D03*
X20500000Y17900000D03*
X21300000Y25100000D03*
X21300000Y24300000D03*
X21300000Y23500000D03*
X21300000Y22700000D03*
X21300000Y21900000D03*
X21300000Y21100000D03*
X21300000Y20300000D03*
X21300000Y19500000D03*
X21300000Y18700000D03*
X21300000Y17900000D03*
X22100000Y25100000D03*
X22100000Y24300000D03*
X22100000Y23500000D03*
X22100000Y22700000D03*
X22100000Y21900000D03*
X22100000Y21100000D03*
X22100000Y20300000D03*
X22100000Y19500000D03*
X22100000Y18700000D03*
X22100000Y17900000D03*
X22900000Y25100000D03*
X22900000Y24300000D03*
X22900000Y23500000D03*
X22900000Y22700000D03*
X22900000Y21900000D03*
X22900000Y21100000D03*
X22900000Y20300000D03*
X22900000Y19500000D03*
X22900000Y18700000D03*
X22900000Y17900000D03*
X23700000Y25100000D03*
X23700000Y24300000D03*
X23700000Y23500000D03*
X23700000Y22700000D03*
X23700000Y21900000D03*
X23700000Y21100000D03*
X23700000Y20300000D03*
X23700000Y19500000D03*
X23700000Y18700000D03*
X23700000Y17900000D03*
X24500000Y25100000D03*
X24500000Y24300000D03*
X24500000Y23500000D03*
X24500000Y22700000D03*
X24500000Y21900000D03*
X24500000Y21100000D03*
X24500000Y20300000D03*
X24500000Y19500000D03*
X24500000Y18700000D03*
X24500000Y17900000D03*
M02*
