G04 #@! TF.FileFunction,Copper,L4,Bot,Signal*
%FSLAX46Y46*%
G04 Gerber Fmt 4.6, Leading zero omitted, Abs format (unit mm)*
G04 Created by KiCad (PCBNEW 4.0.2-stable) date 2016/09/19 18:56:50*
%MOMM*%
G01*
G04 APERTURE LIST*
%ADD10C,0.100000*%
%ADD11O,1.600000X0.900000*%
%ADD12C,1.800000*%
%ADD13C,3.500000*%
%ADD14R,1.000000X1.000000*%
%ADD15C,1.000000*%
%ADD16R,2.000000X2.000000*%
%ADD17R,5.000000X5.000000*%
%ADD18C,0.500000*%
%ADD19C,0.600000*%
%ADD20C,0.900000*%
%ADD21C,0.150000*%
%ADD22C,0.200000*%
G04 APERTURE END LIST*
D10*
D11*
X2450000Y24800000D03*
X2450000Y18200000D03*
D12*
X56700000Y21500000D03*
X56700000Y24040000D03*
D13*
X61780000Y16420000D03*
X61780000Y26580000D03*
D14*
X13565000Y41500000D03*
D15*
X14835000Y41500000D03*
D14*
X24490000Y1600000D03*
D15*
X23140000Y1600000D03*
X21870000Y1600000D03*
X20600000Y1600000D03*
X19330000Y1600000D03*
X18060000Y1600000D03*
X16790000Y1600000D03*
D16*
X31000000Y41500000D03*
D17*
X56000000Y40000000D03*
D18*
X54500000Y41500000D03*
X57500000Y41500000D03*
X54500000Y38500000D03*
X57500000Y38500000D03*
X56000000Y40000000D03*
D19*
X17700000Y30100000D03*
X32000000Y24200000D03*
X33300000Y27000000D03*
X31700000Y12600000D03*
X55100000Y26600000D03*
D20*
X30600000Y21700000D03*
D19*
X29200000Y10700000D03*
D20*
X25400000Y13100000D03*
D19*
X15200000Y8600000D03*
X36900000Y31500000D03*
X41900000Y29600000D03*
X34100000Y41000000D03*
X12900000Y39500000D03*
D20*
X51600000Y2600000D03*
X52400000Y1800000D03*
X50400000Y7000000D03*
D19*
X34300000Y2300000D03*
X11500000Y23900000D03*
X11400000Y19700000D03*
X8300000Y24900000D03*
D20*
X5500000Y16700000D03*
X6700000Y19600000D03*
X6700000Y18500000D03*
X6600000Y20700000D03*
X8300000Y21800000D03*
D19*
X36900000Y8700000D03*
X38024410Y29575590D03*
X41551180Y7900000D03*
X39000000Y5800000D03*
D20*
X45600000Y2700000D03*
D19*
X36500000Y13000000D03*
X36500000Y16100000D03*
X28100000Y6700000D03*
X13900000Y11600000D03*
X33300000Y16400000D03*
X44000000Y39400000D03*
X54600000Y13000000D03*
X11800000Y14600000D03*
X19600000Y30100000D03*
X25400000Y41000000D03*
X18800000Y35100000D03*
X9900000Y36200000D03*
X9100000Y36200000D03*
X30300000Y24300000D03*
D20*
X22500000Y11000000D03*
D18*
X39900000Y31200000D03*
D19*
X11800000Y13000000D03*
D18*
X20100000Y23100000D03*
X19300000Y23100000D03*
X18500000Y23100000D03*
X23300000Y23900000D03*
X17700000Y21500000D03*
X22500000Y19900000D03*
D19*
X18600000Y12100000D03*
X20300000Y12100000D03*
X44400000Y19248820D03*
X48200000Y28951180D03*
X40700000Y15600000D03*
D18*
X19300000Y19100000D03*
X21700000Y18300000D03*
D19*
X10200000Y18000000D03*
X6900000Y27400000D03*
X1600000Y28200000D03*
X7800000Y27500000D03*
X11500000Y25500000D03*
X10400000Y27200000D03*
D20*
X10500000Y5400000D03*
X8502000Y9298000D03*
X8500000Y7200000D03*
D19*
X34800000Y12100000D03*
D20*
X36700000Y29700000D03*
D19*
X45700000Y34600000D03*
X39628755Y33971245D03*
D20*
X36700000Y28000000D03*
D19*
X26100000Y5300000D03*
D20*
X14500000Y5000000D03*
D19*
X35800000Y39500000D03*
X44700000Y37500000D03*
D20*
X44200000Y9400000D03*
X37400000Y18400000D03*
X37400000Y15200000D03*
D19*
X36100000Y6900000D03*
X36000000Y8700000D03*
X11800000Y15800000D03*
X8900000Y15400000D03*
D20*
X27100000Y21100000D03*
D18*
X17700000Y23900000D03*
D19*
X23400000Y9000000D03*
D20*
X24200000Y15200000D03*
D19*
X20300000Y34600000D03*
X24700000Y39600000D03*
D20*
X10200000Y9900000D03*
X10200000Y11400000D03*
D19*
X16600000Y22900000D03*
X13900000Y18000000D03*
X13900000Y19700000D03*
D18*
X17700000Y23100000D03*
D19*
X13800000Y23900000D03*
X13800000Y25500000D03*
X13800000Y27200000D03*
X16200000Y29100000D03*
X35900000Y9700000D03*
X41100000Y36200000D03*
X43700000Y36300000D03*
D18*
X19300000Y23900000D03*
X19300000Y24700000D03*
D19*
X49100000Y10800000D03*
X26100000Y22700000D03*
X31100000Y23500000D03*
X48100000Y33000000D03*
X36400000Y22400000D03*
X44900000Y32900000D03*
D18*
X21700000Y23900000D03*
D19*
X28300000Y31900000D03*
X25400000Y23700000D03*
X24600000Y6100000D03*
X23400000Y6300000D03*
D18*
X20900000Y21500000D03*
X20300000Y11100000D03*
D19*
X23375000Y7575000D03*
X30500000Y6200000D03*
D18*
X20900000Y22300000D03*
D19*
X22400000Y27500000D03*
D18*
X21700000Y22300000D03*
D19*
X27100000Y27900000D03*
X43700000Y35400000D03*
X15600000Y20600000D03*
D18*
X19300000Y22300000D03*
D19*
X15800000Y14500000D03*
D20*
X22500000Y14400000D03*
D19*
X20300000Y14500000D03*
X18600000Y14500000D03*
X16900000Y14500000D03*
D18*
X20100000Y22300000D03*
X20100000Y20700000D03*
X20100000Y21500000D03*
D19*
X43700000Y31900000D03*
X39700000Y18600000D03*
X38700000Y18600000D03*
X42500000Y28700000D03*
X35900000Y30800000D03*
X38400000Y33500000D03*
X38600000Y32700000D03*
X36400000Y33400000D03*
D20*
X10500000Y21800000D03*
X6800000Y25400000D03*
X6800000Y24400000D03*
X2200000Y16500000D03*
X1300000Y14000000D03*
X6800000Y23300000D03*
X800000Y15300000D03*
D19*
X19200000Y31900000D03*
X28900000Y29200000D03*
D18*
X18500000Y21500000D03*
D19*
X16500000Y20500000D03*
D21*
X36100000Y8600000D02*
X36100000Y6900000D01*
X36000000Y8700000D02*
X36100000Y8600000D01*
X11500000Y15500000D02*
X11800000Y15800000D01*
X9000000Y15500000D02*
X11500000Y15500000D01*
X8900000Y15400000D02*
X9000000Y15500000D01*
D22*
X11600000Y11800000D02*
X11600000Y10900000D01*
X11600000Y11800000D02*
X10600000Y12800000D01*
X10600000Y12800000D02*
X9700000Y12800000D01*
X9700000Y12800000D02*
X8100000Y14400000D01*
X8100000Y14400000D02*
X8100000Y18900000D01*
X8100000Y18900000D02*
X9300000Y20100000D01*
X9300000Y20100000D02*
X9300000Y24500000D01*
X9300000Y24500000D02*
X13900000Y29100000D01*
X13900000Y29100000D02*
X16200000Y29100000D01*
X35900000Y9700000D02*
X26900000Y700000D01*
X26900000Y700000D02*
X16400000Y700000D01*
X16400000Y700000D02*
X15700000Y1400000D01*
X15700000Y6800000D02*
X15700000Y1400000D01*
X11600000Y10900000D02*
X15700000Y6800000D01*
D21*
X43700000Y36300000D02*
X41200000Y36300000D01*
X41200000Y36300000D02*
X41100000Y36200000D01*
X23140000Y1600000D02*
X23140000Y4160000D01*
X19300000Y23900000D02*
X17800000Y25400000D01*
X17800000Y25400000D02*
X16400000Y25400000D01*
X16400000Y25400000D02*
X12900000Y21900000D01*
X12900000Y21900000D02*
X12900000Y14400000D01*
X12900000Y14400000D02*
X23140000Y4160000D01*
X18050000Y8350000D02*
X18050000Y1610000D01*
X18050000Y1610000D02*
X18060000Y1600000D01*
X17900000Y26100000D02*
X19300000Y24700000D01*
X16200000Y26100000D02*
X17900000Y26100000D01*
X14900000Y24800000D02*
X16200000Y26100000D01*
X13500000Y24800000D02*
X14900000Y24800000D01*
X12300000Y23600000D02*
X13500000Y24800000D01*
X12300000Y17600000D02*
X12300000Y23600000D01*
X12500000Y17400000D02*
X12300000Y17600000D01*
X12500000Y13900000D02*
X12500000Y17400000D01*
X18050000Y8350000D02*
X12500000Y13900000D01*
X32500000Y17300000D02*
X37900000Y17300000D01*
X27500000Y22300000D02*
X32500000Y17300000D01*
X44400000Y10800000D02*
X49100000Y10800000D01*
X37900000Y17300000D02*
X44400000Y10800000D01*
X26500000Y22300000D02*
X27500000Y22300000D01*
X26100000Y22700000D02*
X26500000Y22300000D01*
X38500000Y28700000D02*
X40800000Y31000000D01*
X40800000Y31000000D02*
X40800000Y31900000D01*
X32900000Y28700000D02*
X38500000Y28700000D01*
X42600000Y33700000D02*
X40800000Y31900000D01*
X31100000Y26900000D02*
X32900000Y28700000D01*
X31100000Y23500000D02*
X31100000Y26900000D01*
X42600000Y33700000D02*
X47400000Y33700000D01*
X47400000Y33700000D02*
X48100000Y33000000D01*
X36600000Y25200000D02*
X41900000Y30500000D01*
X36600000Y22600000D02*
X36600000Y25200000D01*
X36400000Y22400000D02*
X36600000Y22600000D01*
X44100000Y32900000D02*
X44900000Y32900000D01*
X44000000Y33000000D02*
X44100000Y32900000D01*
X43400000Y33000000D02*
X44000000Y33000000D01*
X43400000Y33000000D02*
X41900000Y31500000D01*
X41900000Y31500000D02*
X41900000Y30500000D01*
X17200000Y40500000D02*
X16200000Y41500000D01*
X23600000Y26600000D02*
X23600000Y29800000D01*
X17200000Y32900000D02*
X17200000Y40500000D01*
X19000000Y31100000D02*
X17200000Y32900000D01*
X22300000Y31100000D02*
X19000000Y31100000D01*
X23600000Y29800000D02*
X22300000Y31100000D01*
X16200000Y41500000D02*
X14835000Y41500000D01*
X21700000Y24700000D02*
X23600000Y26600000D01*
X21700000Y23900000D02*
X21700000Y24700000D01*
D22*
X23600000Y6100000D02*
X24600000Y6100000D01*
X23400000Y6300000D02*
X23600000Y6100000D01*
D21*
X20900000Y11500000D02*
X20900000Y21500000D01*
X20700000Y11300000D02*
X20900000Y11500000D01*
X20500000Y11300000D02*
X20700000Y11300000D01*
X20300000Y11100000D02*
X20500000Y11300000D01*
D22*
X23375000Y7575000D02*
X23400000Y7600000D01*
D21*
X25600000Y6100000D02*
X30400000Y6100000D01*
X30400000Y6100000D02*
X30500000Y6200000D01*
X23400000Y7600000D02*
X24100000Y7600000D01*
X24100000Y7600000D02*
X25600000Y6100000D01*
X23400000Y7600000D02*
X21400000Y9600000D01*
X21400000Y9600000D02*
X21400000Y16800000D01*
X21400000Y16800000D02*
X22300000Y17700000D01*
X22300000Y17700000D02*
X22300000Y18800000D01*
X22300000Y18800000D02*
X21600000Y19500000D01*
X21600000Y19500000D02*
X21600000Y21600000D01*
X21600000Y21600000D02*
X20900000Y22300000D01*
X21000000Y23000000D02*
X21000000Y26100000D01*
X22400000Y27500000D02*
X21000000Y26100000D01*
X21000000Y23000000D02*
X21700000Y22300000D01*
X33900000Y33000000D02*
X36300000Y35400000D01*
X29000000Y28200000D02*
X33800000Y33000000D01*
X27400000Y28200000D02*
X29000000Y28200000D01*
X27100000Y27900000D02*
X27400000Y28200000D01*
X33800000Y33000000D02*
X33900000Y33000000D01*
X36300000Y35400000D02*
X43700000Y35400000D01*
X15600000Y20600000D02*
X17300000Y22300000D01*
X17300000Y22300000D02*
X19300000Y22300000D01*
X43700000Y31900000D02*
X43700000Y23600000D01*
X40000000Y19900000D02*
X40000000Y18900000D01*
X39700000Y18600000D02*
X40000000Y18900000D01*
X40000000Y19900000D02*
X43700000Y23600000D01*
X38700000Y24900000D02*
X42500000Y28700000D01*
X38700000Y18600000D02*
X38700000Y24900000D01*
X38600000Y32700000D02*
X38300000Y32700000D01*
X38300000Y32700000D02*
X37600000Y33400000D01*
X37600000Y33400000D02*
X37500000Y33400000D01*
X37600000Y33400000D02*
X37500000Y33400000D01*
X37500000Y33400000D02*
X36400000Y33400000D01*
X26200000Y31900000D02*
X19200000Y31900000D01*
X28900000Y29200000D02*
X26200000Y31900000D01*
X16500000Y20500000D02*
X17900000Y20500000D01*
X17900000Y20500000D02*
X18500000Y21100000D01*
X18500000Y21100000D02*
X18500000Y21500000D01*
M02*
