M48
;DRILL file {KiCad 4.0.2-stable} date 2016/09/19 18:56:55
;FORMAT={-:-/ absolute / metric / decimal}
FMAT,2
METRIC,TZ
T1C0.300
T2C0.500
T3C0.600
T4C0.900
T5C1.000
T6C2.000
%
G90
G05
M71
T1
X1.6Y28.2
X6.9Y27.4
X7.8Y27.5
X8.3Y24.9
X8.9Y15.4
X9.1Y36.2
X9.9Y36.2
X10.2Y18.
X10.4Y27.2
X11.4Y19.7
X11.5Y25.5
X11.5Y23.9
X11.8Y15.8
X11.8Y14.6
X11.8Y13.
X12.9Y39.5
X13.8Y27.2
X13.8Y25.5
X13.8Y23.9
X13.9Y19.7
X13.9Y18.
X13.9Y11.6
X15.2Y8.6
X15.6Y20.6
X15.8Y14.5
X16.2Y29.1
X16.5Y20.5
X16.6Y22.9
X16.9Y14.5
X17.7Y30.1
X17.7Y23.9
X17.7Y23.1
X17.7Y21.5
X18.5Y23.1
X18.5Y21.5
X18.6Y14.5
X18.6Y12.1
X18.8Y35.1
X19.2Y31.9
X19.3Y24.7
X19.3Y23.9
X19.3Y23.1
X19.3Y22.3
X19.3Y19.1
X19.6Y30.1
X20.1Y23.1
X20.1Y22.3
X20.1Y21.5
X20.1Y20.7
X20.3Y34.6
X20.3Y14.5
X20.3Y12.1
X20.3Y11.1
X20.9Y22.3
X20.9Y21.5
X21.7Y23.9
X21.7Y22.3
X21.7Y18.3
X22.4Y27.5
X22.5Y19.9
X23.3Y23.9
X23.375Y7.575
X23.4Y9.
X23.4Y6.3
X24.6Y6.1
X24.7Y39.6
X25.4Y41.
X25.4Y23.7
X26.1Y22.7
X26.1Y5.3
X27.1Y27.9
X28.1Y6.7
X28.3Y31.9
X28.9Y29.2
X29.2Y10.7
X30.3Y24.3
X30.5Y6.2
X31.1Y23.5
X31.7Y12.6
X32.Y24.2
X33.3Y27.
X33.3Y16.4
X34.1Y41.
X34.3Y2.3
X34.8Y12.1
X35.8Y39.5
X35.9Y30.8
X35.9Y9.7
X36.Y8.7
X36.1Y6.9
X36.4Y33.4
X36.4Y22.4
X36.5Y16.1
X36.5Y13.
X36.9Y31.5
X36.9Y8.7
X38.024Y29.576
X38.4Y33.5
X38.6Y32.7
X38.7Y18.6
X39.Y5.8
X39.629Y33.971
X39.7Y18.6
X39.9Y31.2
X40.7Y15.6
X41.1Y36.2
X41.551Y7.9
X41.9Y29.6
X42.5Y28.7
X43.7Y36.3
X43.7Y35.4
X43.7Y31.9
X44.Y39.4
X44.4Y19.249
X44.7Y37.5
X44.9Y32.9
X45.7Y34.6
X48.1Y33.
X48.2Y28.951
X49.1Y10.8
X54.5Y41.5
X54.5Y38.5
X54.6Y13.
X55.1Y26.6
X56.Y40.
X57.5Y41.5
X57.5Y38.5
T2
X0.8Y15.3
X1.3Y14.
X2.2Y16.5
X5.5Y16.7
X6.6Y20.7
X6.7Y19.6
X6.7Y18.5
X6.8Y25.4
X6.8Y24.4
X6.8Y23.3
X8.3Y21.8
X8.5Y7.2
X8.502Y9.298
X10.2Y11.4
X10.2Y9.9
X10.5Y21.8
X10.5Y5.4
X14.5Y5.
X22.5Y14.4
X22.5Y11.
X24.2Y15.2
X25.4Y13.1
X27.1Y21.1
X30.6Y21.7
X36.7Y29.7
X36.7Y28.
X37.4Y18.4
X37.4Y15.2
X44.2Y9.4
X45.6Y2.7
X50.4Y7.
X51.6Y2.6
X52.4Y1.8
T3
X13.565Y41.5
X14.835Y41.5
X16.79Y1.6
X18.06Y1.6
X19.33Y1.6
X20.6Y1.6
X21.87Y1.6
X23.14Y1.6
X24.49Y1.6
T4
X56.7Y24.04
X56.7Y21.5
T5
X31.Y41.5
T6
X61.78Y26.58
X61.78Y16.42
T2
X2.8Y24.8G85X2.1Y24.8
G05
X2.8Y18.2G85X2.1Y18.2
G05
T0
M30
