G04 #@! TF.FileFunction,Legend,Bot*
%FSLAX46Y46*%
G04 Gerber Fmt 4.6, Leading zero omitted, Abs format (unit mm)*
G04 Created by KiCad (PCBNEW 4.0.2-stable) date 2016/09/19 18:56:50*
%MOMM*%
G01*
G04 APERTURE LIST*
%ADD10C,0.100000*%
%ADD11C,0.200000*%
%ADD12C,0.010000*%
G04 APERTURE END LIST*
D10*
D11*
X61600000Y9852381D02*
X61695238Y9900000D01*
X61790476Y9995238D01*
X61933333Y10138095D01*
X62028572Y10185714D01*
X62123810Y10185714D01*
X62076191Y9947619D02*
X62171429Y9995238D01*
X62266667Y10090476D01*
X62314286Y10280952D01*
X62314286Y10614286D01*
X62266667Y10804762D01*
X62171429Y10900000D01*
X62076191Y10947619D01*
X61885714Y10947619D01*
X61790476Y10900000D01*
X61695238Y10804762D01*
X61647619Y10614286D01*
X61647619Y10280952D01*
X61695238Y10090476D01*
X61790476Y9995238D01*
X61885714Y9947619D01*
X62076191Y9947619D01*
X60647619Y9947619D02*
X60980953Y10423810D01*
X61219048Y9947619D02*
X61219048Y10947619D01*
X60838095Y10947619D01*
X60742857Y10900000D01*
X60695238Y10852381D01*
X60647619Y10757143D01*
X60647619Y10614286D01*
X60695238Y10519048D01*
X60742857Y10471429D01*
X60838095Y10423810D01*
X61219048Y10423810D01*
X59647619Y10042857D02*
X59695238Y9995238D01*
X59838095Y9947619D01*
X59933333Y9947619D01*
X60076191Y9995238D01*
X60171429Y10090476D01*
X60219048Y10185714D01*
X60266667Y10376190D01*
X60266667Y10519048D01*
X60219048Y10709524D01*
X60171429Y10804762D01*
X60076191Y10900000D01*
X59933333Y10947619D01*
X59838095Y10947619D01*
X59695238Y10900000D01*
X59647619Y10852381D01*
X59076191Y9947619D02*
X59171429Y9995238D01*
X59219048Y10042857D01*
X59266667Y10138095D01*
X59266667Y10423810D01*
X59219048Y10519048D01*
X59171429Y10566667D01*
X59076191Y10614286D01*
X58933333Y10614286D01*
X58838095Y10566667D01*
X58790476Y10519048D01*
X58742857Y10423810D01*
X58742857Y10138095D01*
X58790476Y10042857D01*
X58838095Y9995238D01*
X58933333Y9947619D01*
X59076191Y9947619D01*
X57885714Y9947619D02*
X57885714Y10947619D01*
X57885714Y9995238D02*
X57980952Y9947619D01*
X58171429Y9947619D01*
X58266667Y9995238D01*
X58314286Y10042857D01*
X58361905Y10138095D01*
X58361905Y10423810D01*
X58314286Y10519048D01*
X58266667Y10566667D01*
X58171429Y10614286D01*
X57980952Y10614286D01*
X57885714Y10566667D01*
X57028571Y9995238D02*
X57123809Y9947619D01*
X57314286Y9947619D01*
X57409524Y9995238D01*
X57457143Y10090476D01*
X57457143Y10471429D01*
X57409524Y10566667D01*
X57314286Y10614286D01*
X57123809Y10614286D01*
X57028571Y10566667D01*
X56980952Y10471429D01*
X56980952Y10376190D01*
X57457143Y10280952D01*
X55361904Y9995238D02*
X55457142Y9947619D01*
X55647619Y9947619D01*
X55742857Y9995238D01*
X55790476Y10042857D01*
X55838095Y10138095D01*
X55838095Y10423810D01*
X55790476Y10519048D01*
X55742857Y10566667D01*
X55647619Y10614286D01*
X55457142Y10614286D01*
X55361904Y10566667D01*
X54790476Y9947619D02*
X54885714Y9995238D01*
X54933333Y10042857D01*
X54980952Y10138095D01*
X54980952Y10423810D01*
X54933333Y10519048D01*
X54885714Y10566667D01*
X54790476Y10614286D01*
X54647618Y10614286D01*
X54552380Y10566667D01*
X54504761Y10519048D01*
X54457142Y10423810D01*
X54457142Y10138095D01*
X54504761Y10042857D01*
X54552380Y9995238D01*
X54647618Y9947619D01*
X54790476Y9947619D01*
X54028571Y10614286D02*
X54028571Y9947619D01*
X54028571Y10519048D02*
X53980952Y10566667D01*
X53885714Y10614286D01*
X53742856Y10614286D01*
X53647618Y10566667D01*
X53599999Y10471429D01*
X53599999Y9947619D01*
X53266666Y10614286D02*
X52885714Y10614286D01*
X53123809Y10947619D02*
X53123809Y10090476D01*
X53076190Y9995238D01*
X52980952Y9947619D01*
X52885714Y9947619D01*
X52123808Y9947619D02*
X52123808Y10471429D01*
X52171427Y10566667D01*
X52266665Y10614286D01*
X52457142Y10614286D01*
X52552380Y10566667D01*
X52123808Y9995238D02*
X52219046Y9947619D01*
X52457142Y9947619D01*
X52552380Y9995238D01*
X52599999Y10090476D01*
X52599999Y10185714D01*
X52552380Y10280952D01*
X52457142Y10328571D01*
X52219046Y10328571D01*
X52123808Y10376190D01*
X51647618Y9947619D02*
X51647618Y10614286D01*
X51647618Y10947619D02*
X51695237Y10900000D01*
X51647618Y10852381D01*
X51599999Y10900000D01*
X51647618Y10947619D01*
X51647618Y10852381D01*
X51171428Y10614286D02*
X51171428Y9947619D01*
X51171428Y10519048D02*
X51123809Y10566667D01*
X51028571Y10614286D01*
X50885713Y10614286D01*
X50790475Y10566667D01*
X50742856Y10471429D01*
X50742856Y9947619D01*
X50314285Y9995238D02*
X50219047Y9947619D01*
X50028571Y9947619D01*
X49933332Y9995238D01*
X49885713Y10090476D01*
X49885713Y10138095D01*
X49933332Y10233333D01*
X50028571Y10280952D01*
X50171428Y10280952D01*
X50266666Y10328571D01*
X50314285Y10423810D01*
X50314285Y10471429D01*
X50266666Y10566667D01*
X50171428Y10614286D01*
X50028571Y10614286D01*
X49933332Y10566667D01*
X58409524Y9347619D02*
X58409524Y8538095D01*
X58361905Y8442857D01*
X58314286Y8395238D01*
X58219048Y8347619D01*
X58028571Y8347619D01*
X57933333Y8395238D01*
X57885714Y8442857D01*
X57838095Y8538095D01*
X57838095Y9347619D01*
X56790476Y8347619D02*
X57123810Y8823810D01*
X57361905Y8347619D02*
X57361905Y9347619D01*
X56980952Y9347619D01*
X56885714Y9300000D01*
X56838095Y9252381D01*
X56790476Y9157143D01*
X56790476Y9014286D01*
X56838095Y8919048D01*
X56885714Y8871429D01*
X56980952Y8823810D01*
X57361905Y8823810D01*
X55885714Y8347619D02*
X56361905Y8347619D01*
X56361905Y9347619D01*
X54647619Y8347619D02*
X54742857Y8395238D01*
X54790476Y8442857D01*
X54838095Y8538095D01*
X54838095Y8823810D01*
X54790476Y8919048D01*
X54742857Y8966667D01*
X54647619Y9014286D01*
X54504761Y9014286D01*
X54409523Y8966667D01*
X54361904Y8919048D01*
X54314285Y8823810D01*
X54314285Y8538095D01*
X54361904Y8442857D01*
X54409523Y8395238D01*
X54504761Y8347619D01*
X54647619Y8347619D01*
X54028571Y9014286D02*
X53647619Y9014286D01*
X53885714Y8347619D02*
X53885714Y9204762D01*
X53838095Y9300000D01*
X53742857Y9347619D01*
X53647619Y9347619D01*
X62004763Y6747619D02*
X62004763Y7747619D01*
X61576191Y6747619D02*
X61576191Y7271429D01*
X61623810Y7366667D01*
X61719048Y7414286D01*
X61861906Y7414286D01*
X61957144Y7366667D01*
X62004763Y7319048D01*
X60957144Y6747619D02*
X61052382Y6795238D01*
X61100001Y6842857D01*
X61147620Y6938095D01*
X61147620Y7223810D01*
X61100001Y7319048D01*
X61052382Y7366667D01*
X60957144Y7414286D01*
X60814286Y7414286D01*
X60719048Y7366667D01*
X60671429Y7319048D01*
X60623810Y7223810D01*
X60623810Y6938095D01*
X60671429Y6842857D01*
X60719048Y6795238D01*
X60814286Y6747619D01*
X60957144Y6747619D01*
X60242858Y6795238D02*
X60147620Y6747619D01*
X59957144Y6747619D01*
X59861905Y6795238D01*
X59814286Y6890476D01*
X59814286Y6938095D01*
X59861905Y7033333D01*
X59957144Y7080952D01*
X60100001Y7080952D01*
X60195239Y7128571D01*
X60242858Y7223810D01*
X60242858Y7271429D01*
X60195239Y7366667D01*
X60100001Y7414286D01*
X59957144Y7414286D01*
X59861905Y7366667D01*
X59528572Y7414286D02*
X59147620Y7414286D01*
X59385715Y7747619D02*
X59385715Y6890476D01*
X59338096Y6795238D01*
X59242858Y6747619D01*
X59147620Y6747619D01*
X57623809Y6747619D02*
X57623809Y7271429D01*
X57671428Y7366667D01*
X57766666Y7414286D01*
X57957143Y7414286D01*
X58052381Y7366667D01*
X57623809Y6795238D02*
X57719047Y6747619D01*
X57957143Y6747619D01*
X58052381Y6795238D01*
X58100000Y6890476D01*
X58100000Y6985714D01*
X58052381Y7080952D01*
X57957143Y7128571D01*
X57719047Y7128571D01*
X57623809Y7176190D01*
X57147619Y7414286D02*
X57147619Y6414286D01*
X57147619Y7366667D02*
X57052381Y7414286D01*
X56861904Y7414286D01*
X56766666Y7366667D01*
X56719047Y7319048D01*
X56671428Y7223810D01*
X56671428Y6938095D01*
X56719047Y6842857D01*
X56766666Y6795238D01*
X56861904Y6747619D01*
X57052381Y6747619D01*
X57147619Y6795238D01*
X56242857Y7414286D02*
X56242857Y6414286D01*
X56242857Y7366667D02*
X56147619Y7414286D01*
X55957142Y7414286D01*
X55861904Y7366667D01*
X55814285Y7319048D01*
X55766666Y7223810D01*
X55766666Y6938095D01*
X55814285Y6842857D01*
X55861904Y6795238D01*
X55957142Y6747619D01*
X56147619Y6747619D01*
X56242857Y6795238D01*
X55195238Y6747619D02*
X55290476Y6795238D01*
X55338095Y6890476D01*
X55338095Y7747619D01*
X54814285Y6747619D02*
X54814285Y7414286D01*
X54814285Y7747619D02*
X54861904Y7700000D01*
X54814285Y7652381D01*
X54766666Y7700000D01*
X54814285Y7747619D01*
X54814285Y7652381D01*
X53909523Y6795238D02*
X54004761Y6747619D01*
X54195238Y6747619D01*
X54290476Y6795238D01*
X54338095Y6842857D01*
X54385714Y6938095D01*
X54385714Y7223810D01*
X54338095Y7319048D01*
X54290476Y7366667D01*
X54195238Y7414286D01*
X54004761Y7414286D01*
X53909523Y7366667D01*
X53052380Y6747619D02*
X53052380Y7271429D01*
X53099999Y7366667D01*
X53195237Y7414286D01*
X53385714Y7414286D01*
X53480952Y7366667D01*
X53052380Y6795238D02*
X53147618Y6747619D01*
X53385714Y6747619D01*
X53480952Y6795238D01*
X53528571Y6890476D01*
X53528571Y6985714D01*
X53480952Y7080952D01*
X53385714Y7128571D01*
X53147618Y7128571D01*
X53052380Y7176190D01*
X52719047Y7414286D02*
X52338095Y7414286D01*
X52576190Y7747619D02*
X52576190Y6890476D01*
X52528571Y6795238D01*
X52433333Y6747619D01*
X52338095Y6747619D01*
X52004761Y6747619D02*
X52004761Y7414286D01*
X52004761Y7747619D02*
X52052380Y7700000D01*
X52004761Y7652381D01*
X51957142Y7700000D01*
X52004761Y7747619D01*
X52004761Y7652381D01*
X51385714Y6747619D02*
X51480952Y6795238D01*
X51528571Y6842857D01*
X51576190Y6938095D01*
X51576190Y7223810D01*
X51528571Y7319048D01*
X51480952Y7366667D01*
X51385714Y7414286D01*
X51242856Y7414286D01*
X51147618Y7366667D01*
X51099999Y7319048D01*
X51052380Y7223810D01*
X51052380Y6938095D01*
X51099999Y6842857D01*
X51147618Y6795238D01*
X51242856Y6747619D01*
X51385714Y6747619D01*
X50623809Y7414286D02*
X50623809Y6747619D01*
X50623809Y7319048D02*
X50576190Y7366667D01*
X50480952Y7414286D01*
X50338094Y7414286D01*
X50242856Y7366667D01*
X50195237Y7271429D01*
X50195237Y6747619D01*
D12*
G36*
X48132778Y39632778D02*
X11937778Y39632778D01*
X11937778Y32647778D01*
X14477778Y32647778D01*
X14477778Y37092778D01*
X18922778Y37092778D01*
X18922778Y34552778D01*
X19557778Y34552778D01*
X19557778Y35822778D01*
X20827778Y35822778D01*
X20827778Y37092778D01*
X21462778Y37092778D01*
X21462778Y36457778D01*
X22097778Y36457778D01*
X22097778Y37092778D01*
X22732778Y37092778D01*
X22732778Y36457778D01*
X22097778Y36457778D01*
X21462778Y36457778D01*
X21462778Y35187778D01*
X20827778Y35187778D01*
X20827778Y34552778D01*
X19557778Y34552778D01*
X18922778Y34552778D01*
X18922778Y32647778D01*
X14477778Y32647778D01*
X11937778Y32647778D01*
X11937778Y31377778D01*
X14477778Y31377778D01*
X14477778Y32012778D01*
X16382778Y32012778D01*
X16382778Y31377778D01*
X17017778Y31377778D01*
X18287778Y31377778D01*
X18287778Y32012778D01*
X18922778Y32012778D01*
X18922778Y31377778D01*
X18287778Y31377778D01*
X17017778Y31377778D01*
X17017778Y30742778D01*
X15747778Y30742778D01*
X15747778Y30107778D01*
X15112778Y30107778D01*
X15112778Y31377778D01*
X14477778Y31377778D01*
X11937778Y31377778D01*
X11937778Y27567778D01*
X14477778Y27567778D01*
X14477778Y28202778D01*
X15112778Y28202778D01*
X15112778Y28837778D01*
X15747778Y28837778D01*
X15747778Y30107778D01*
X17017778Y30107778D01*
X17017778Y29472778D01*
X16382778Y29472778D01*
X16382778Y28202778D01*
X15112778Y28202778D01*
X15112778Y27567778D01*
X14477778Y27567778D01*
X11937778Y27567778D01*
X11937778Y25027778D01*
X14477778Y25027778D01*
X14477778Y26297778D01*
X15112778Y26297778D01*
X15112778Y27567778D01*
X16382778Y27567778D01*
X16382778Y26932778D01*
X15747778Y26932778D01*
X15747778Y26297778D01*
X17017778Y26297778D01*
X17017778Y26932778D01*
X17652778Y26932778D01*
X17652778Y26297778D01*
X17017778Y26297778D01*
X15747778Y26297778D01*
X15747778Y25662778D01*
X15112778Y25662778D01*
X15112778Y25027778D01*
X14477778Y25027778D01*
X11937778Y25027778D01*
X11937778Y22487778D01*
X14477778Y22487778D01*
X14477778Y23122778D01*
X15112778Y23122778D01*
X15112778Y22487778D01*
X14477778Y22487778D01*
X11937778Y22487778D01*
X11937778Y11692778D01*
X14477778Y11692778D01*
X14477778Y12962778D01*
X15112778Y12962778D01*
X15112778Y13597778D01*
X14477778Y13597778D01*
X14477778Y15502778D01*
X15112778Y15502778D01*
X15112778Y16137778D01*
X14477778Y16137778D01*
X14477778Y16772778D01*
X15747778Y16772778D01*
X15747778Y17407778D01*
X15112778Y17407778D01*
X15112778Y19312778D01*
X14477778Y19312778D01*
X14477778Y19947778D01*
X15747778Y19947778D01*
X15747778Y20582778D01*
X15112778Y20582778D01*
X15112778Y21217778D01*
X14477778Y21217778D01*
X14477778Y21852778D01*
X15112778Y21852778D01*
X15112778Y22487778D01*
X15747778Y22487778D01*
X15747778Y21852778D01*
X16382778Y21852778D01*
X16382778Y23122778D01*
X15747778Y23122778D01*
X15747778Y23757778D01*
X15112778Y23757778D01*
X15112778Y24392778D01*
X15747778Y24392778D01*
X15747778Y25027778D01*
X16382778Y25027778D01*
X16382778Y25662778D01*
X17652778Y25662778D01*
X17652778Y26297778D01*
X18287778Y26297778D01*
X18287778Y26932778D01*
X18922778Y26932778D01*
X18922778Y26297778D01*
X18287778Y26297778D01*
X18287778Y25662778D01*
X18922778Y25662778D01*
X18922778Y25027778D01*
X19557778Y25027778D01*
X19557778Y25662778D01*
X20192778Y25662778D01*
X20192778Y23757778D01*
X19557778Y23757778D01*
X19557778Y23122778D01*
X20827778Y23122778D01*
X20827778Y24392778D01*
X21462778Y24392778D01*
X21462778Y25662778D01*
X22097778Y25662778D01*
X22097778Y26297778D01*
X21462778Y26297778D01*
X21462778Y26932778D01*
X19557778Y26932778D01*
X19557778Y27567778D01*
X17017778Y27567778D01*
X17017778Y28202778D01*
X17652778Y28202778D01*
X17652778Y28837778D01*
X18287778Y28837778D01*
X18287778Y29472778D01*
X17652778Y29472778D01*
X17652778Y30742778D01*
X18922778Y30742778D01*
X18922778Y31377778D01*
X19557778Y31377778D01*
X19557778Y33282778D01*
X22097778Y33282778D01*
X22097778Y33917778D01*
X21462778Y33917778D01*
X21462778Y35187778D01*
X22097778Y35187778D01*
X22097778Y35822778D01*
X22732778Y35822778D01*
X22732778Y36457778D01*
X23367778Y36457778D01*
X24002778Y36457778D01*
X24002778Y37092778D01*
X24637778Y37092778D01*
X24637778Y36457778D01*
X24002778Y36457778D01*
X23367778Y36457778D01*
X23367778Y35822778D01*
X24637778Y35822778D01*
X24637778Y36457778D01*
X26542778Y36457778D01*
X26542778Y37092778D01*
X27177778Y37092778D01*
X27177778Y36457778D01*
X27812778Y36457778D01*
X27812778Y37092778D01*
X28447778Y37092778D01*
X28447778Y36457778D01*
X27812778Y36457778D01*
X27177778Y36457778D01*
X26542778Y36457778D01*
X26542778Y35187778D01*
X25907778Y35187778D01*
X25907778Y35822778D01*
X24637778Y35822778D01*
X23367778Y35822778D01*
X23367778Y35187778D01*
X25907778Y35187778D01*
X25907778Y34552778D01*
X25272778Y34552778D01*
X25272778Y33917778D01*
X25907778Y33917778D01*
X25907778Y34552778D01*
X26542778Y34552778D01*
X26542778Y33917778D01*
X25907778Y33917778D01*
X25272778Y33917778D01*
X25272778Y33282778D01*
X24637778Y33282778D01*
X24637778Y31377778D01*
X24002778Y31377778D01*
X24002778Y30742778D01*
X24637778Y30742778D01*
X24637778Y28837778D01*
X25907778Y28837778D01*
X25907778Y29472778D01*
X26542778Y29472778D01*
X26542778Y28837778D01*
X27177778Y28837778D01*
X27177778Y30107778D01*
X27812778Y30107778D01*
X27812778Y31377778D01*
X27177778Y31377778D01*
X27177778Y30742778D01*
X26542778Y30742778D01*
X26542778Y31377778D01*
X25907778Y31377778D01*
X25907778Y32012778D01*
X26542778Y32012778D01*
X26542778Y33282778D01*
X27177778Y33282778D01*
X27177778Y32647778D01*
X28447778Y32647778D01*
X28447778Y33282778D01*
X27812778Y33282778D01*
X27812778Y33917778D01*
X27177778Y33917778D01*
X27177778Y34552778D01*
X29082778Y34552778D01*
X29082778Y35187778D01*
X27177778Y35187778D01*
X27177778Y35822778D01*
X28447778Y35822778D01*
X28447778Y36457778D01*
X29082778Y36457778D01*
X29082778Y37092778D01*
X29717778Y37092778D01*
X29717778Y36457778D01*
X30352778Y36457778D01*
X30352778Y37092778D01*
X30987778Y37092778D01*
X30987778Y36457778D01*
X31622778Y36457778D01*
X31622778Y34552778D01*
X32257778Y34552778D01*
X32257778Y35187778D01*
X32892778Y35187778D01*
X32892778Y36457778D01*
X33527778Y36457778D01*
X33527778Y37092778D01*
X34797778Y37092778D01*
X34797778Y36457778D01*
X35432778Y36457778D01*
X35432778Y37092778D01*
X36067778Y37092778D01*
X36067778Y36457778D01*
X36702778Y36457778D01*
X36702778Y37092778D01*
X45592778Y37092778D01*
X45592778Y36457778D01*
X44322778Y36457778D01*
X44322778Y34552778D01*
X44957778Y34552778D01*
X44957778Y35187778D01*
X45592778Y35187778D01*
X45592778Y31377778D01*
X44957778Y31377778D01*
X44957778Y30107778D01*
X45592778Y30107778D01*
X45592778Y29472778D01*
X44957778Y29472778D01*
X44957778Y28837778D01*
X44322778Y28837778D01*
X44322778Y27567778D01*
X43687778Y27567778D01*
X43687778Y26932778D01*
X43052778Y26932778D01*
X43052778Y26297778D01*
X43687778Y26297778D01*
X44322778Y26297778D01*
X44322778Y27567778D01*
X44957778Y27567778D01*
X44957778Y26297778D01*
X44322778Y26297778D01*
X43687778Y26297778D01*
X43687778Y25662778D01*
X45592778Y25662778D01*
X45592778Y24392778D01*
X44957778Y24392778D01*
X44957778Y22487778D01*
X45592778Y22487778D01*
X45592778Y21852778D01*
X44957778Y21852778D01*
X44957778Y21217778D01*
X44322778Y21217778D01*
X44322778Y20582778D01*
X44957778Y20582778D01*
X44957778Y21217778D01*
X45592778Y21217778D01*
X45592778Y20582778D01*
X44957778Y20582778D01*
X44322778Y20582778D01*
X44322778Y19312778D01*
X43687778Y19312778D01*
X43687778Y18677778D01*
X44322778Y18677778D01*
X44322778Y19312778D01*
X44957778Y19312778D01*
X44957778Y18677778D01*
X44322778Y18677778D01*
X43687778Y18677778D01*
X43687778Y17407778D01*
X44322778Y17407778D01*
X44322778Y18042778D01*
X44957778Y18042778D01*
X44957778Y18677778D01*
X45592778Y18677778D01*
X45592778Y16772778D01*
X44957778Y16772778D01*
X44957778Y17407778D01*
X44322778Y17407778D01*
X43687778Y17407778D01*
X43052778Y17407778D01*
X43052778Y16137778D01*
X43687778Y16137778D01*
X43687778Y16772778D01*
X44957778Y16772778D01*
X44957778Y16137778D01*
X43687778Y16137778D01*
X43052778Y16137778D01*
X43052778Y15502778D01*
X43687778Y15502778D01*
X43687778Y14867778D01*
X43052778Y14867778D01*
X43052778Y14232778D01*
X42417778Y14232778D01*
X42417778Y13597778D01*
X43687778Y13597778D01*
X43687778Y14232778D01*
X44322778Y14232778D01*
X44322778Y15502778D01*
X44957778Y15502778D01*
X44957778Y14867778D01*
X45592778Y14867778D01*
X45592778Y12962778D01*
X44957778Y12962778D01*
X44957778Y11692778D01*
X43687778Y11692778D01*
X43687778Y12327778D01*
X44322778Y12327778D01*
X44322778Y12962778D01*
X43052778Y12962778D01*
X43052778Y12327778D01*
X41782778Y12327778D01*
X41782778Y11057778D01*
X42417778Y11057778D01*
X42417778Y11692778D01*
X43052778Y11692778D01*
X43052778Y11057778D01*
X42417778Y11057778D01*
X41782778Y11057778D01*
X40512778Y11057778D01*
X40512778Y11692778D01*
X41147778Y11692778D01*
X41147778Y12962778D01*
X40512778Y12962778D01*
X40512778Y12327778D01*
X39877778Y12327778D01*
X39877778Y12962778D01*
X39242778Y12962778D01*
X39242778Y13597778D01*
X38607778Y13597778D01*
X38607778Y12962778D01*
X37337778Y12962778D01*
X37337778Y12327778D01*
X37972778Y12327778D01*
X37972778Y11692778D01*
X38607778Y11692778D01*
X38607778Y11057778D01*
X39242778Y11057778D01*
X39242778Y9787778D01*
X39877778Y9787778D01*
X39877778Y10422778D01*
X40512778Y10422778D01*
X40512778Y9787778D01*
X39877778Y9787778D01*
X39242778Y9787778D01*
X39242778Y9152778D01*
X38607778Y9152778D01*
X38607778Y8517778D01*
X37972778Y8517778D01*
X37972778Y7882778D01*
X38607778Y7882778D01*
X38607778Y7247778D01*
X39242778Y7247778D01*
X39242778Y8517778D01*
X39877778Y8517778D01*
X39877778Y7882778D01*
X40512778Y7882778D01*
X40512778Y5977778D01*
X41147778Y5977778D01*
X41147778Y10422778D01*
X45592778Y10422778D01*
X45592778Y5977778D01*
X41147778Y5977778D01*
X40512778Y5977778D01*
X39877778Y5977778D01*
X39877778Y6612778D01*
X38607778Y6612778D01*
X38607778Y5977778D01*
X37972778Y5977778D01*
X37972778Y6612778D01*
X37337778Y6612778D01*
X37337778Y5977778D01*
X36702778Y5977778D01*
X36702778Y6612778D01*
X35432778Y6612778D01*
X35432778Y7882778D01*
X34797778Y7882778D01*
X34797778Y7247778D01*
X33527778Y7247778D01*
X33527778Y6612778D01*
X34162778Y6612778D01*
X34162778Y5977778D01*
X32892778Y5977778D01*
X32892778Y6612778D01*
X30987778Y6612778D01*
X30987778Y7247778D01*
X30352778Y7247778D01*
X30352778Y8517778D01*
X29717778Y8517778D01*
X29717778Y7882778D01*
X29082778Y7882778D01*
X29082778Y8517778D01*
X26542778Y8517778D01*
X26542778Y7247778D01*
X25907778Y7247778D01*
X25907778Y7882778D01*
X25272778Y7882778D01*
X25272778Y7247778D01*
X24637778Y7247778D01*
X24637778Y6612778D01*
X23367778Y6612778D01*
X23367778Y5977778D01*
X25907778Y5977778D01*
X25907778Y6612778D01*
X27177778Y6612778D01*
X27177778Y7882778D01*
X27812778Y7882778D01*
X27812778Y7247778D01*
X30352778Y7247778D01*
X30352778Y5977778D01*
X28447778Y5977778D01*
X28447778Y6612778D01*
X27177778Y6612778D01*
X27177778Y5977778D01*
X25907778Y5977778D01*
X23367778Y5977778D01*
X22097778Y5977778D01*
X22097778Y6612778D01*
X20827778Y6612778D01*
X20827778Y7247778D01*
X20192778Y7247778D01*
X20192778Y7882778D01*
X20827778Y7882778D01*
X20827778Y8517778D01*
X21462778Y8517778D01*
X21462778Y9787778D01*
X20827778Y9787778D01*
X20827778Y10422778D01*
X20192778Y10422778D01*
X20192778Y9787778D01*
X19557778Y9787778D01*
X19557778Y11057778D01*
X18287778Y11057778D01*
X18287778Y11692778D01*
X17652778Y11692778D01*
X17652778Y12327778D01*
X17017778Y12327778D01*
X17017778Y12962778D01*
X15747778Y12962778D01*
X15747778Y12327778D01*
X16382778Y12327778D01*
X16382778Y11692778D01*
X17017778Y11692778D01*
X17017778Y11057778D01*
X15747778Y11057778D01*
X15747778Y11692778D01*
X14477778Y11692778D01*
X11937778Y11692778D01*
X11937778Y5977778D01*
X14477778Y5977778D01*
X14477778Y10422778D01*
X18922778Y10422778D01*
X18922778Y8517778D01*
X19557778Y8517778D01*
X19557778Y9152778D01*
X20827778Y9152778D01*
X20827778Y8517778D01*
X19557778Y8517778D01*
X18922778Y8517778D01*
X18922778Y5977778D01*
X20192778Y5977778D01*
X20192778Y6612778D01*
X20827778Y6612778D01*
X20827778Y5977778D01*
X20192778Y5977778D01*
X18922778Y5977778D01*
X14477778Y5977778D01*
X11937778Y5977778D01*
X11937778Y3437778D01*
X48132778Y3437778D01*
X48132778Y39632778D01*
X48132778Y39632778D01*
G37*
X48132778Y39632778D02*
X11937778Y39632778D01*
X11937778Y32647778D01*
X14477778Y32647778D01*
X14477778Y37092778D01*
X18922778Y37092778D01*
X18922778Y34552778D01*
X19557778Y34552778D01*
X19557778Y35822778D01*
X20827778Y35822778D01*
X20827778Y37092778D01*
X21462778Y37092778D01*
X21462778Y36457778D01*
X22097778Y36457778D01*
X22097778Y37092778D01*
X22732778Y37092778D01*
X22732778Y36457778D01*
X22097778Y36457778D01*
X21462778Y36457778D01*
X21462778Y35187778D01*
X20827778Y35187778D01*
X20827778Y34552778D01*
X19557778Y34552778D01*
X18922778Y34552778D01*
X18922778Y32647778D01*
X14477778Y32647778D01*
X11937778Y32647778D01*
X11937778Y31377778D01*
X14477778Y31377778D01*
X14477778Y32012778D01*
X16382778Y32012778D01*
X16382778Y31377778D01*
X17017778Y31377778D01*
X18287778Y31377778D01*
X18287778Y32012778D01*
X18922778Y32012778D01*
X18922778Y31377778D01*
X18287778Y31377778D01*
X17017778Y31377778D01*
X17017778Y30742778D01*
X15747778Y30742778D01*
X15747778Y30107778D01*
X15112778Y30107778D01*
X15112778Y31377778D01*
X14477778Y31377778D01*
X11937778Y31377778D01*
X11937778Y27567778D01*
X14477778Y27567778D01*
X14477778Y28202778D01*
X15112778Y28202778D01*
X15112778Y28837778D01*
X15747778Y28837778D01*
X15747778Y30107778D01*
X17017778Y30107778D01*
X17017778Y29472778D01*
X16382778Y29472778D01*
X16382778Y28202778D01*
X15112778Y28202778D01*
X15112778Y27567778D01*
X14477778Y27567778D01*
X11937778Y27567778D01*
X11937778Y25027778D01*
X14477778Y25027778D01*
X14477778Y26297778D01*
X15112778Y26297778D01*
X15112778Y27567778D01*
X16382778Y27567778D01*
X16382778Y26932778D01*
X15747778Y26932778D01*
X15747778Y26297778D01*
X17017778Y26297778D01*
X17017778Y26932778D01*
X17652778Y26932778D01*
X17652778Y26297778D01*
X17017778Y26297778D01*
X15747778Y26297778D01*
X15747778Y25662778D01*
X15112778Y25662778D01*
X15112778Y25027778D01*
X14477778Y25027778D01*
X11937778Y25027778D01*
X11937778Y22487778D01*
X14477778Y22487778D01*
X14477778Y23122778D01*
X15112778Y23122778D01*
X15112778Y22487778D01*
X14477778Y22487778D01*
X11937778Y22487778D01*
X11937778Y11692778D01*
X14477778Y11692778D01*
X14477778Y12962778D01*
X15112778Y12962778D01*
X15112778Y13597778D01*
X14477778Y13597778D01*
X14477778Y15502778D01*
X15112778Y15502778D01*
X15112778Y16137778D01*
X14477778Y16137778D01*
X14477778Y16772778D01*
X15747778Y16772778D01*
X15747778Y17407778D01*
X15112778Y17407778D01*
X15112778Y19312778D01*
X14477778Y19312778D01*
X14477778Y19947778D01*
X15747778Y19947778D01*
X15747778Y20582778D01*
X15112778Y20582778D01*
X15112778Y21217778D01*
X14477778Y21217778D01*
X14477778Y21852778D01*
X15112778Y21852778D01*
X15112778Y22487778D01*
X15747778Y22487778D01*
X15747778Y21852778D01*
X16382778Y21852778D01*
X16382778Y23122778D01*
X15747778Y23122778D01*
X15747778Y23757778D01*
X15112778Y23757778D01*
X15112778Y24392778D01*
X15747778Y24392778D01*
X15747778Y25027778D01*
X16382778Y25027778D01*
X16382778Y25662778D01*
X17652778Y25662778D01*
X17652778Y26297778D01*
X18287778Y26297778D01*
X18287778Y26932778D01*
X18922778Y26932778D01*
X18922778Y26297778D01*
X18287778Y26297778D01*
X18287778Y25662778D01*
X18922778Y25662778D01*
X18922778Y25027778D01*
X19557778Y25027778D01*
X19557778Y25662778D01*
X20192778Y25662778D01*
X20192778Y23757778D01*
X19557778Y23757778D01*
X19557778Y23122778D01*
X20827778Y23122778D01*
X20827778Y24392778D01*
X21462778Y24392778D01*
X21462778Y25662778D01*
X22097778Y25662778D01*
X22097778Y26297778D01*
X21462778Y26297778D01*
X21462778Y26932778D01*
X19557778Y26932778D01*
X19557778Y27567778D01*
X17017778Y27567778D01*
X17017778Y28202778D01*
X17652778Y28202778D01*
X17652778Y28837778D01*
X18287778Y28837778D01*
X18287778Y29472778D01*
X17652778Y29472778D01*
X17652778Y30742778D01*
X18922778Y30742778D01*
X18922778Y31377778D01*
X19557778Y31377778D01*
X19557778Y33282778D01*
X22097778Y33282778D01*
X22097778Y33917778D01*
X21462778Y33917778D01*
X21462778Y35187778D01*
X22097778Y35187778D01*
X22097778Y35822778D01*
X22732778Y35822778D01*
X22732778Y36457778D01*
X23367778Y36457778D01*
X24002778Y36457778D01*
X24002778Y37092778D01*
X24637778Y37092778D01*
X24637778Y36457778D01*
X24002778Y36457778D01*
X23367778Y36457778D01*
X23367778Y35822778D01*
X24637778Y35822778D01*
X24637778Y36457778D01*
X26542778Y36457778D01*
X26542778Y37092778D01*
X27177778Y37092778D01*
X27177778Y36457778D01*
X27812778Y36457778D01*
X27812778Y37092778D01*
X28447778Y37092778D01*
X28447778Y36457778D01*
X27812778Y36457778D01*
X27177778Y36457778D01*
X26542778Y36457778D01*
X26542778Y35187778D01*
X25907778Y35187778D01*
X25907778Y35822778D01*
X24637778Y35822778D01*
X23367778Y35822778D01*
X23367778Y35187778D01*
X25907778Y35187778D01*
X25907778Y34552778D01*
X25272778Y34552778D01*
X25272778Y33917778D01*
X25907778Y33917778D01*
X25907778Y34552778D01*
X26542778Y34552778D01*
X26542778Y33917778D01*
X25907778Y33917778D01*
X25272778Y33917778D01*
X25272778Y33282778D01*
X24637778Y33282778D01*
X24637778Y31377778D01*
X24002778Y31377778D01*
X24002778Y30742778D01*
X24637778Y30742778D01*
X24637778Y28837778D01*
X25907778Y28837778D01*
X25907778Y29472778D01*
X26542778Y29472778D01*
X26542778Y28837778D01*
X27177778Y28837778D01*
X27177778Y30107778D01*
X27812778Y30107778D01*
X27812778Y31377778D01*
X27177778Y31377778D01*
X27177778Y30742778D01*
X26542778Y30742778D01*
X26542778Y31377778D01*
X25907778Y31377778D01*
X25907778Y32012778D01*
X26542778Y32012778D01*
X26542778Y33282778D01*
X27177778Y33282778D01*
X27177778Y32647778D01*
X28447778Y32647778D01*
X28447778Y33282778D01*
X27812778Y33282778D01*
X27812778Y33917778D01*
X27177778Y33917778D01*
X27177778Y34552778D01*
X29082778Y34552778D01*
X29082778Y35187778D01*
X27177778Y35187778D01*
X27177778Y35822778D01*
X28447778Y35822778D01*
X28447778Y36457778D01*
X29082778Y36457778D01*
X29082778Y37092778D01*
X29717778Y37092778D01*
X29717778Y36457778D01*
X30352778Y36457778D01*
X30352778Y37092778D01*
X30987778Y37092778D01*
X30987778Y36457778D01*
X31622778Y36457778D01*
X31622778Y34552778D01*
X32257778Y34552778D01*
X32257778Y35187778D01*
X32892778Y35187778D01*
X32892778Y36457778D01*
X33527778Y36457778D01*
X33527778Y37092778D01*
X34797778Y37092778D01*
X34797778Y36457778D01*
X35432778Y36457778D01*
X35432778Y37092778D01*
X36067778Y37092778D01*
X36067778Y36457778D01*
X36702778Y36457778D01*
X36702778Y37092778D01*
X45592778Y37092778D01*
X45592778Y36457778D01*
X44322778Y36457778D01*
X44322778Y34552778D01*
X44957778Y34552778D01*
X44957778Y35187778D01*
X45592778Y35187778D01*
X45592778Y31377778D01*
X44957778Y31377778D01*
X44957778Y30107778D01*
X45592778Y30107778D01*
X45592778Y29472778D01*
X44957778Y29472778D01*
X44957778Y28837778D01*
X44322778Y28837778D01*
X44322778Y27567778D01*
X43687778Y27567778D01*
X43687778Y26932778D01*
X43052778Y26932778D01*
X43052778Y26297778D01*
X43687778Y26297778D01*
X44322778Y26297778D01*
X44322778Y27567778D01*
X44957778Y27567778D01*
X44957778Y26297778D01*
X44322778Y26297778D01*
X43687778Y26297778D01*
X43687778Y25662778D01*
X45592778Y25662778D01*
X45592778Y24392778D01*
X44957778Y24392778D01*
X44957778Y22487778D01*
X45592778Y22487778D01*
X45592778Y21852778D01*
X44957778Y21852778D01*
X44957778Y21217778D01*
X44322778Y21217778D01*
X44322778Y20582778D01*
X44957778Y20582778D01*
X44957778Y21217778D01*
X45592778Y21217778D01*
X45592778Y20582778D01*
X44957778Y20582778D01*
X44322778Y20582778D01*
X44322778Y19312778D01*
X43687778Y19312778D01*
X43687778Y18677778D01*
X44322778Y18677778D01*
X44322778Y19312778D01*
X44957778Y19312778D01*
X44957778Y18677778D01*
X44322778Y18677778D01*
X43687778Y18677778D01*
X43687778Y17407778D01*
X44322778Y17407778D01*
X44322778Y18042778D01*
X44957778Y18042778D01*
X44957778Y18677778D01*
X45592778Y18677778D01*
X45592778Y16772778D01*
X44957778Y16772778D01*
X44957778Y17407778D01*
X44322778Y17407778D01*
X43687778Y17407778D01*
X43052778Y17407778D01*
X43052778Y16137778D01*
X43687778Y16137778D01*
X43687778Y16772778D01*
X44957778Y16772778D01*
X44957778Y16137778D01*
X43687778Y16137778D01*
X43052778Y16137778D01*
X43052778Y15502778D01*
X43687778Y15502778D01*
X43687778Y14867778D01*
X43052778Y14867778D01*
X43052778Y14232778D01*
X42417778Y14232778D01*
X42417778Y13597778D01*
X43687778Y13597778D01*
X43687778Y14232778D01*
X44322778Y14232778D01*
X44322778Y15502778D01*
X44957778Y15502778D01*
X44957778Y14867778D01*
X45592778Y14867778D01*
X45592778Y12962778D01*
X44957778Y12962778D01*
X44957778Y11692778D01*
X43687778Y11692778D01*
X43687778Y12327778D01*
X44322778Y12327778D01*
X44322778Y12962778D01*
X43052778Y12962778D01*
X43052778Y12327778D01*
X41782778Y12327778D01*
X41782778Y11057778D01*
X42417778Y11057778D01*
X42417778Y11692778D01*
X43052778Y11692778D01*
X43052778Y11057778D01*
X42417778Y11057778D01*
X41782778Y11057778D01*
X40512778Y11057778D01*
X40512778Y11692778D01*
X41147778Y11692778D01*
X41147778Y12962778D01*
X40512778Y12962778D01*
X40512778Y12327778D01*
X39877778Y12327778D01*
X39877778Y12962778D01*
X39242778Y12962778D01*
X39242778Y13597778D01*
X38607778Y13597778D01*
X38607778Y12962778D01*
X37337778Y12962778D01*
X37337778Y12327778D01*
X37972778Y12327778D01*
X37972778Y11692778D01*
X38607778Y11692778D01*
X38607778Y11057778D01*
X39242778Y11057778D01*
X39242778Y9787778D01*
X39877778Y9787778D01*
X39877778Y10422778D01*
X40512778Y10422778D01*
X40512778Y9787778D01*
X39877778Y9787778D01*
X39242778Y9787778D01*
X39242778Y9152778D01*
X38607778Y9152778D01*
X38607778Y8517778D01*
X37972778Y8517778D01*
X37972778Y7882778D01*
X38607778Y7882778D01*
X38607778Y7247778D01*
X39242778Y7247778D01*
X39242778Y8517778D01*
X39877778Y8517778D01*
X39877778Y7882778D01*
X40512778Y7882778D01*
X40512778Y5977778D01*
X41147778Y5977778D01*
X41147778Y10422778D01*
X45592778Y10422778D01*
X45592778Y5977778D01*
X41147778Y5977778D01*
X40512778Y5977778D01*
X39877778Y5977778D01*
X39877778Y6612778D01*
X38607778Y6612778D01*
X38607778Y5977778D01*
X37972778Y5977778D01*
X37972778Y6612778D01*
X37337778Y6612778D01*
X37337778Y5977778D01*
X36702778Y5977778D01*
X36702778Y6612778D01*
X35432778Y6612778D01*
X35432778Y7882778D01*
X34797778Y7882778D01*
X34797778Y7247778D01*
X33527778Y7247778D01*
X33527778Y6612778D01*
X34162778Y6612778D01*
X34162778Y5977778D01*
X32892778Y5977778D01*
X32892778Y6612778D01*
X30987778Y6612778D01*
X30987778Y7247778D01*
X30352778Y7247778D01*
X30352778Y8517778D01*
X29717778Y8517778D01*
X29717778Y7882778D01*
X29082778Y7882778D01*
X29082778Y8517778D01*
X26542778Y8517778D01*
X26542778Y7247778D01*
X25907778Y7247778D01*
X25907778Y7882778D01*
X25272778Y7882778D01*
X25272778Y7247778D01*
X24637778Y7247778D01*
X24637778Y6612778D01*
X23367778Y6612778D01*
X23367778Y5977778D01*
X25907778Y5977778D01*
X25907778Y6612778D01*
X27177778Y6612778D01*
X27177778Y7882778D01*
X27812778Y7882778D01*
X27812778Y7247778D01*
X30352778Y7247778D01*
X30352778Y5977778D01*
X28447778Y5977778D01*
X28447778Y6612778D01*
X27177778Y6612778D01*
X27177778Y5977778D01*
X25907778Y5977778D01*
X23367778Y5977778D01*
X22097778Y5977778D01*
X22097778Y6612778D01*
X20827778Y6612778D01*
X20827778Y7247778D01*
X20192778Y7247778D01*
X20192778Y7882778D01*
X20827778Y7882778D01*
X20827778Y8517778D01*
X21462778Y8517778D01*
X21462778Y9787778D01*
X20827778Y9787778D01*
X20827778Y10422778D01*
X20192778Y10422778D01*
X20192778Y9787778D01*
X19557778Y9787778D01*
X19557778Y11057778D01*
X18287778Y11057778D01*
X18287778Y11692778D01*
X17652778Y11692778D01*
X17652778Y12327778D01*
X17017778Y12327778D01*
X17017778Y12962778D01*
X15747778Y12962778D01*
X15747778Y12327778D01*
X16382778Y12327778D01*
X16382778Y11692778D01*
X17017778Y11692778D01*
X17017778Y11057778D01*
X15747778Y11057778D01*
X15747778Y11692778D01*
X14477778Y11692778D01*
X11937778Y11692778D01*
X11937778Y5977778D01*
X14477778Y5977778D01*
X14477778Y10422778D01*
X18922778Y10422778D01*
X18922778Y8517778D01*
X19557778Y8517778D01*
X19557778Y9152778D01*
X20827778Y9152778D01*
X20827778Y8517778D01*
X19557778Y8517778D01*
X18922778Y8517778D01*
X18922778Y5977778D01*
X20192778Y5977778D01*
X20192778Y6612778D01*
X20827778Y6612778D01*
X20827778Y5977778D01*
X20192778Y5977778D01*
X18922778Y5977778D01*
X14477778Y5977778D01*
X11937778Y5977778D01*
X11937778Y3437778D01*
X48132778Y3437778D01*
X48132778Y39632778D01*
G36*
X18287778Y36457778D02*
X15112778Y36457778D01*
X15112778Y33917778D01*
X15747778Y33917778D01*
X15747778Y35822778D01*
X17652778Y35822778D01*
X17652778Y33917778D01*
X15747778Y33917778D01*
X15112778Y33917778D01*
X15112778Y33282778D01*
X18287778Y33282778D01*
X18287778Y36457778D01*
X18287778Y36457778D01*
G37*
X18287778Y36457778D02*
X15112778Y36457778D01*
X15112778Y33917778D01*
X15747778Y33917778D01*
X15747778Y35822778D01*
X17652778Y35822778D01*
X17652778Y33917778D01*
X15747778Y33917778D01*
X15112778Y33917778D01*
X15112778Y33282778D01*
X18287778Y33282778D01*
X18287778Y36457778D01*
G36*
X29717778Y36457778D02*
X29082778Y36457778D01*
X29082778Y35822778D01*
X29717778Y35822778D01*
X29717778Y36457778D01*
X29717778Y36457778D01*
G37*
X29717778Y36457778D02*
X29082778Y36457778D01*
X29082778Y35822778D01*
X29717778Y35822778D01*
X29717778Y36457778D01*
G36*
X30987778Y36457778D02*
X30352778Y36457778D01*
X30352778Y35187778D01*
X30987778Y35187778D01*
X30987778Y36457778D01*
X30987778Y36457778D01*
G37*
X30987778Y36457778D02*
X30352778Y36457778D01*
X30352778Y35187778D01*
X30987778Y35187778D01*
X30987778Y36457778D01*
G36*
X30352778Y35187778D02*
X29717778Y35187778D01*
X29717778Y34552778D01*
X30352778Y34552778D01*
X30352778Y35187778D01*
X30352778Y35187778D01*
G37*
X30352778Y35187778D02*
X29717778Y35187778D01*
X29717778Y34552778D01*
X30352778Y34552778D01*
X30352778Y35187778D01*
G36*
X39877778Y35187778D02*
X41782778Y35187778D01*
X41782778Y35822778D01*
X42417778Y35822778D01*
X42417778Y36457778D01*
X41147778Y36457778D01*
X41147778Y35822778D01*
X39877778Y35822778D01*
X39877778Y35187778D01*
X39877778Y35187778D01*
G37*
X39877778Y35187778D02*
X41782778Y35187778D01*
X41782778Y35822778D01*
X42417778Y35822778D01*
X42417778Y36457778D01*
X41147778Y36457778D01*
X41147778Y35822778D01*
X39877778Y35822778D01*
X39877778Y35187778D01*
G36*
X43687778Y35187778D02*
X43052778Y35187778D01*
X43052778Y34552778D01*
X43687778Y34552778D01*
X43687778Y35187778D01*
X43687778Y35187778D01*
G37*
X43687778Y35187778D02*
X43052778Y35187778D01*
X43052778Y34552778D01*
X43687778Y34552778D01*
X43687778Y35187778D01*
G36*
X42417778Y35187778D02*
X41782778Y35187778D01*
X41782778Y34552778D01*
X42417778Y34552778D01*
X42417778Y35187778D01*
X42417778Y35187778D01*
G37*
X42417778Y35187778D02*
X41782778Y35187778D01*
X41782778Y34552778D01*
X42417778Y34552778D01*
X42417778Y35187778D01*
G36*
X44322778Y34552778D02*
X43687778Y34552778D01*
X43687778Y32647778D01*
X44322778Y32647778D01*
X44322778Y34552778D01*
X44322778Y34552778D01*
G37*
X44322778Y34552778D02*
X43687778Y34552778D01*
X43687778Y32647778D01*
X44322778Y32647778D01*
X44322778Y34552778D01*
G36*
X44957778Y32647778D02*
X44322778Y32647778D01*
X44322778Y31377778D01*
X44957778Y31377778D01*
X44957778Y32647778D01*
X44957778Y32647778D01*
G37*
X44957778Y32647778D02*
X44322778Y32647778D01*
X44322778Y31377778D01*
X44957778Y31377778D01*
X44957778Y32647778D01*
G36*
X44322778Y31377778D02*
X43052778Y31377778D01*
X43052778Y30742778D01*
X43687778Y30742778D01*
X43687778Y30107778D01*
X44322778Y30107778D01*
X44322778Y31377778D01*
X44322778Y31377778D01*
G37*
X44322778Y31377778D02*
X43052778Y31377778D01*
X43052778Y30742778D01*
X43687778Y30742778D01*
X43687778Y30107778D01*
X44322778Y30107778D01*
X44322778Y31377778D01*
G36*
X44957778Y30107778D02*
X44322778Y30107778D01*
X44322778Y29472778D01*
X44957778Y29472778D01*
X44957778Y30107778D01*
X44957778Y30107778D01*
G37*
X44957778Y30107778D02*
X44322778Y30107778D01*
X44322778Y29472778D01*
X44957778Y29472778D01*
X44957778Y30107778D01*
G36*
X25907778Y27567778D02*
X26542778Y27567778D01*
X26542778Y28202778D01*
X25272778Y28202778D01*
X25272778Y26932778D01*
X25907778Y26932778D01*
X25907778Y27567778D01*
X25907778Y27567778D01*
G37*
X25907778Y27567778D02*
X26542778Y27567778D01*
X26542778Y28202778D01*
X25272778Y28202778D01*
X25272778Y26932778D01*
X25907778Y26932778D01*
X25907778Y27567778D01*
G36*
X43052778Y27567778D02*
X41782778Y27567778D01*
X41782778Y26932778D01*
X43052778Y26932778D01*
X43052778Y27567778D01*
X43052778Y27567778D01*
G37*
X43052778Y27567778D02*
X41782778Y27567778D01*
X41782778Y26932778D01*
X43052778Y26932778D01*
X43052778Y27567778D01*
G36*
X44957778Y25027778D02*
X43687778Y25027778D01*
X43687778Y24392778D01*
X44957778Y24392778D01*
X44957778Y25027778D01*
X44957778Y25027778D01*
G37*
X44957778Y25027778D02*
X43687778Y25027778D01*
X43687778Y24392778D01*
X44957778Y24392778D01*
X44957778Y25027778D01*
G36*
X44322778Y23757778D02*
X43687778Y23757778D01*
X43687778Y23122778D01*
X44322778Y23122778D01*
X44322778Y23757778D01*
X44322778Y23757778D01*
G37*
X44322778Y23757778D02*
X43687778Y23757778D01*
X43687778Y23122778D01*
X44322778Y23122778D01*
X44322778Y23757778D01*
G36*
X19557778Y19947778D02*
X17017778Y19947778D01*
X17017778Y19312778D01*
X18922778Y19312778D01*
X18922778Y18677778D01*
X18287778Y18677778D01*
X18287778Y18042778D01*
X19557778Y18042778D01*
X19557778Y19947778D01*
X19557778Y19947778D01*
G37*
X19557778Y19947778D02*
X17017778Y19947778D01*
X17017778Y19312778D01*
X18922778Y19312778D01*
X18922778Y18677778D01*
X18287778Y18677778D01*
X18287778Y18042778D01*
X19557778Y18042778D01*
X19557778Y19947778D01*
G36*
X17017778Y18042778D02*
X17652778Y18042778D01*
X17652778Y18677778D01*
X15747778Y18677778D01*
X15747778Y18042778D01*
X16382778Y18042778D01*
X16382778Y17407778D01*
X17017778Y17407778D01*
X17017778Y18042778D01*
X17017778Y18042778D01*
G37*
X17017778Y18042778D02*
X17652778Y18042778D01*
X17652778Y18677778D01*
X15747778Y18677778D01*
X15747778Y18042778D01*
X16382778Y18042778D01*
X16382778Y17407778D01*
X17017778Y17407778D01*
X17017778Y18042778D01*
G36*
X21462778Y17407778D02*
X20827778Y17407778D01*
X20827778Y16772778D01*
X21462778Y16772778D01*
X21462778Y17407778D01*
X22097778Y17407778D01*
X22097778Y16772778D01*
X21462778Y16772778D01*
X21462778Y16137778D01*
X20192778Y16137778D01*
X20192778Y16772778D01*
X19557778Y16772778D01*
X19557778Y17407778D01*
X18287778Y17407778D01*
X18287778Y18042778D01*
X17652778Y18042778D01*
X17652778Y16772778D01*
X16382778Y16772778D01*
X16382778Y16137778D01*
X15747778Y16137778D01*
X15747778Y15502778D01*
X17017778Y15502778D01*
X17017778Y16137778D01*
X17652778Y16137778D01*
X18287778Y16137778D01*
X18287778Y16772778D01*
X18922778Y16772778D01*
X18922778Y16137778D01*
X18287778Y16137778D01*
X17652778Y16137778D01*
X17652778Y15502778D01*
X17017778Y15502778D01*
X15747778Y15502778D01*
X15112778Y15502778D01*
X15112778Y14867778D01*
X15747778Y14867778D01*
X15747778Y14232778D01*
X16382778Y14232778D01*
X16382778Y14867778D01*
X17017778Y14867778D01*
X17017778Y14232778D01*
X17652778Y14232778D01*
X17652778Y14867778D01*
X18287778Y14867778D01*
X18287778Y15502778D01*
X18922778Y15502778D01*
X18922778Y16137778D01*
X20192778Y16137778D01*
X20192778Y15502778D01*
X21462778Y15502778D01*
X21462778Y16137778D01*
X22097778Y16137778D01*
X22097778Y15502778D01*
X21462778Y15502778D01*
X21462778Y14232778D01*
X22097778Y14232778D01*
X22097778Y14867778D01*
X22732778Y14867778D01*
X22732778Y16137778D01*
X22097778Y16137778D01*
X22097778Y16772778D01*
X23367778Y16772778D01*
X23367778Y16137778D01*
X24002778Y16137778D01*
X24002778Y15502778D01*
X23367778Y15502778D01*
X23367778Y14232778D01*
X22097778Y14232778D01*
X21462778Y14232778D01*
X21462778Y13597778D01*
X20827778Y13597778D01*
X20827778Y14867778D01*
X20192778Y14867778D01*
X20192778Y14232778D01*
X19557778Y14232778D01*
X19557778Y14867778D01*
X18287778Y14867778D01*
X18287778Y14232778D01*
X17652778Y14232778D01*
X17652778Y12327778D01*
X18287778Y12327778D01*
X18287778Y12962778D01*
X18922778Y12962778D01*
X18922778Y13597778D01*
X18287778Y13597778D01*
X18287778Y14232778D01*
X19557778Y14232778D01*
X19557778Y12327778D01*
X20192778Y12327778D01*
X20192778Y13597778D01*
X20827778Y13597778D01*
X20827778Y12327778D01*
X20192778Y12327778D01*
X20192778Y11692778D01*
X20827778Y11692778D01*
X20827778Y12327778D01*
X21462778Y12327778D01*
X21462778Y12962778D01*
X22097778Y12962778D01*
X22097778Y12327778D01*
X23367778Y12327778D01*
X23367778Y14232778D01*
X24002778Y14232778D01*
X24002778Y12327778D01*
X23367778Y12327778D01*
X22097778Y12327778D01*
X22097778Y11692778D01*
X20827778Y11692778D01*
X20827778Y10422778D01*
X21462778Y10422778D01*
X21462778Y11057778D01*
X22732778Y11057778D01*
X22732778Y9787778D01*
X22097778Y9787778D01*
X22097778Y10422778D01*
X21462778Y10422778D01*
X21462778Y9787778D01*
X22097778Y9787778D01*
X22097778Y9152778D01*
X23367778Y9152778D01*
X23367778Y10422778D01*
X24002778Y10422778D01*
X24002778Y11057778D01*
X25272778Y11057778D01*
X25272778Y9152778D01*
X24637778Y9152778D01*
X24637778Y10422778D01*
X24002778Y10422778D01*
X24002778Y9152778D01*
X24637778Y9152778D01*
X24637778Y8517778D01*
X26542778Y8517778D01*
X26542778Y9787778D01*
X25907778Y9787778D01*
X25907778Y11692778D01*
X25272778Y11692778D01*
X25272778Y12327778D01*
X24637778Y12327778D01*
X24637778Y12962778D01*
X25272778Y12962778D01*
X25272778Y13597778D01*
X25907778Y13597778D01*
X25907778Y14867778D01*
X25272778Y14867778D01*
X25272778Y14232778D01*
X24637778Y14232778D01*
X24637778Y15502778D01*
X25272778Y15502778D01*
X25272778Y16137778D01*
X24637778Y16137778D01*
X24637778Y16772778D01*
X24002778Y16772778D01*
X24002778Y17407778D01*
X22732778Y17407778D01*
X22732778Y18677778D01*
X22097778Y18677778D01*
X22097778Y18042778D01*
X21462778Y18042778D01*
X21462778Y17407778D01*
X21462778Y17407778D01*
G37*
X21462778Y17407778D02*
X20827778Y17407778D01*
X20827778Y16772778D01*
X21462778Y16772778D01*
X21462778Y17407778D01*
X22097778Y17407778D01*
X22097778Y16772778D01*
X21462778Y16772778D01*
X21462778Y16137778D01*
X20192778Y16137778D01*
X20192778Y16772778D01*
X19557778Y16772778D01*
X19557778Y17407778D01*
X18287778Y17407778D01*
X18287778Y18042778D01*
X17652778Y18042778D01*
X17652778Y16772778D01*
X16382778Y16772778D01*
X16382778Y16137778D01*
X15747778Y16137778D01*
X15747778Y15502778D01*
X17017778Y15502778D01*
X17017778Y16137778D01*
X17652778Y16137778D01*
X18287778Y16137778D01*
X18287778Y16772778D01*
X18922778Y16772778D01*
X18922778Y16137778D01*
X18287778Y16137778D01*
X17652778Y16137778D01*
X17652778Y15502778D01*
X17017778Y15502778D01*
X15747778Y15502778D01*
X15112778Y15502778D01*
X15112778Y14867778D01*
X15747778Y14867778D01*
X15747778Y14232778D01*
X16382778Y14232778D01*
X16382778Y14867778D01*
X17017778Y14867778D01*
X17017778Y14232778D01*
X17652778Y14232778D01*
X17652778Y14867778D01*
X18287778Y14867778D01*
X18287778Y15502778D01*
X18922778Y15502778D01*
X18922778Y16137778D01*
X20192778Y16137778D01*
X20192778Y15502778D01*
X21462778Y15502778D01*
X21462778Y16137778D01*
X22097778Y16137778D01*
X22097778Y15502778D01*
X21462778Y15502778D01*
X21462778Y14232778D01*
X22097778Y14232778D01*
X22097778Y14867778D01*
X22732778Y14867778D01*
X22732778Y16137778D01*
X22097778Y16137778D01*
X22097778Y16772778D01*
X23367778Y16772778D01*
X23367778Y16137778D01*
X24002778Y16137778D01*
X24002778Y15502778D01*
X23367778Y15502778D01*
X23367778Y14232778D01*
X22097778Y14232778D01*
X21462778Y14232778D01*
X21462778Y13597778D01*
X20827778Y13597778D01*
X20827778Y14867778D01*
X20192778Y14867778D01*
X20192778Y14232778D01*
X19557778Y14232778D01*
X19557778Y14867778D01*
X18287778Y14867778D01*
X18287778Y14232778D01*
X17652778Y14232778D01*
X17652778Y12327778D01*
X18287778Y12327778D01*
X18287778Y12962778D01*
X18922778Y12962778D01*
X18922778Y13597778D01*
X18287778Y13597778D01*
X18287778Y14232778D01*
X19557778Y14232778D01*
X19557778Y12327778D01*
X20192778Y12327778D01*
X20192778Y13597778D01*
X20827778Y13597778D01*
X20827778Y12327778D01*
X20192778Y12327778D01*
X20192778Y11692778D01*
X20827778Y11692778D01*
X20827778Y12327778D01*
X21462778Y12327778D01*
X21462778Y12962778D01*
X22097778Y12962778D01*
X22097778Y12327778D01*
X23367778Y12327778D01*
X23367778Y14232778D01*
X24002778Y14232778D01*
X24002778Y12327778D01*
X23367778Y12327778D01*
X22097778Y12327778D01*
X22097778Y11692778D01*
X20827778Y11692778D01*
X20827778Y10422778D01*
X21462778Y10422778D01*
X21462778Y11057778D01*
X22732778Y11057778D01*
X22732778Y9787778D01*
X22097778Y9787778D01*
X22097778Y10422778D01*
X21462778Y10422778D01*
X21462778Y9787778D01*
X22097778Y9787778D01*
X22097778Y9152778D01*
X23367778Y9152778D01*
X23367778Y10422778D01*
X24002778Y10422778D01*
X24002778Y11057778D01*
X25272778Y11057778D01*
X25272778Y9152778D01*
X24637778Y9152778D01*
X24637778Y10422778D01*
X24002778Y10422778D01*
X24002778Y9152778D01*
X24637778Y9152778D01*
X24637778Y8517778D01*
X26542778Y8517778D01*
X26542778Y9787778D01*
X25907778Y9787778D01*
X25907778Y11692778D01*
X25272778Y11692778D01*
X25272778Y12327778D01*
X24637778Y12327778D01*
X24637778Y12962778D01*
X25272778Y12962778D01*
X25272778Y13597778D01*
X25907778Y13597778D01*
X25907778Y14867778D01*
X25272778Y14867778D01*
X25272778Y14232778D01*
X24637778Y14232778D01*
X24637778Y15502778D01*
X25272778Y15502778D01*
X25272778Y16137778D01*
X24637778Y16137778D01*
X24637778Y16772778D01*
X24002778Y16772778D01*
X24002778Y17407778D01*
X22732778Y17407778D01*
X22732778Y18677778D01*
X22097778Y18677778D01*
X22097778Y18042778D01*
X21462778Y18042778D01*
X21462778Y17407778D01*
G36*
X20192778Y18042778D02*
X19557778Y18042778D01*
X19557778Y17407778D01*
X20192778Y17407778D01*
X20192778Y18042778D01*
X20192778Y18042778D01*
G37*
X20192778Y18042778D02*
X19557778Y18042778D01*
X19557778Y17407778D01*
X20192778Y17407778D01*
X20192778Y18042778D01*
G36*
X43052778Y15502778D02*
X42417778Y15502778D01*
X42417778Y14867778D01*
X43052778Y14867778D01*
X43052778Y15502778D01*
X43052778Y15502778D01*
G37*
X43052778Y15502778D02*
X42417778Y15502778D01*
X42417778Y14867778D01*
X43052778Y14867778D01*
X43052778Y15502778D01*
G36*
X15747778Y14232778D02*
X15112778Y14232778D01*
X15112778Y13597778D01*
X15747778Y13597778D01*
X15747778Y14232778D01*
X15747778Y14232778D01*
G37*
X15747778Y14232778D02*
X15112778Y14232778D01*
X15112778Y13597778D01*
X15747778Y13597778D01*
X15747778Y14232778D01*
G36*
X42417778Y13597778D02*
X41782778Y13597778D01*
X41782778Y12962778D01*
X42417778Y12962778D01*
X42417778Y13597778D01*
X42417778Y13597778D01*
G37*
X42417778Y13597778D02*
X41782778Y13597778D01*
X41782778Y12962778D01*
X42417778Y12962778D01*
X42417778Y13597778D01*
G36*
X40512778Y13597778D02*
X39877778Y13597778D01*
X39877778Y12962778D01*
X40512778Y12962778D01*
X40512778Y13597778D01*
X40512778Y13597778D01*
G37*
X40512778Y13597778D02*
X39877778Y13597778D01*
X39877778Y12962778D01*
X40512778Y12962778D01*
X40512778Y13597778D01*
G36*
X18922778Y12327778D02*
X18287778Y12327778D01*
X18287778Y11692778D01*
X18922778Y11692778D01*
X18922778Y12327778D01*
X18922778Y12327778D01*
G37*
X18922778Y12327778D02*
X18287778Y12327778D01*
X18287778Y11692778D01*
X18922778Y11692778D01*
X18922778Y12327778D01*
G36*
X37337778Y10422778D02*
X37972778Y10422778D01*
X37972778Y9787778D01*
X38607778Y9787778D01*
X38607778Y11057778D01*
X37972778Y11057778D01*
X37972778Y11692778D01*
X36702778Y11692778D01*
X36702778Y9787778D01*
X37337778Y9787778D01*
X37337778Y10422778D01*
X37337778Y10422778D01*
G37*
X37337778Y10422778D02*
X37972778Y10422778D01*
X37972778Y9787778D01*
X38607778Y9787778D01*
X38607778Y11057778D01*
X37972778Y11057778D01*
X37972778Y11692778D01*
X36702778Y11692778D01*
X36702778Y9787778D01*
X37337778Y9787778D01*
X37337778Y10422778D01*
G36*
X34162778Y11692778D02*
X33527778Y11692778D01*
X33527778Y11057778D01*
X34162778Y11057778D01*
X34162778Y11692778D01*
X34162778Y11692778D01*
G37*
X34162778Y11692778D02*
X33527778Y11692778D01*
X33527778Y11057778D01*
X34162778Y11057778D01*
X34162778Y11692778D01*
G36*
X28447778Y11057778D02*
X27177778Y11057778D01*
X27177778Y10422778D01*
X27812778Y10422778D01*
X27812778Y9787778D01*
X28447778Y9787778D01*
X28447778Y11057778D01*
X28447778Y11057778D01*
G37*
X28447778Y11057778D02*
X27177778Y11057778D01*
X27177778Y10422778D01*
X27812778Y10422778D01*
X27812778Y9787778D01*
X28447778Y9787778D01*
X28447778Y11057778D01*
G36*
X32257778Y7247778D02*
X32892778Y7247778D01*
X32892778Y7882778D01*
X33527778Y7882778D01*
X33527778Y9152778D01*
X34162778Y9152778D01*
X34162778Y7882778D01*
X34797778Y7882778D01*
X34797778Y9152778D01*
X36067778Y9152778D01*
X36067778Y7882778D01*
X36702778Y7882778D01*
X36702778Y9787778D01*
X36067778Y9787778D01*
X36067778Y10422778D01*
X35432778Y10422778D01*
X35432778Y11057778D01*
X34162778Y11057778D01*
X34162778Y9787778D01*
X34797778Y9787778D01*
X34797778Y10422778D01*
X35432778Y10422778D01*
X35432778Y9787778D01*
X34797778Y9787778D01*
X34162778Y9787778D01*
X33527778Y9787778D01*
X33527778Y10422778D01*
X32892778Y10422778D01*
X32892778Y8517778D01*
X32257778Y8517778D01*
X32257778Y7247778D01*
X32257778Y7247778D01*
G37*
X32257778Y7247778D02*
X32892778Y7247778D01*
X32892778Y7882778D01*
X33527778Y7882778D01*
X33527778Y9152778D01*
X34162778Y9152778D01*
X34162778Y7882778D01*
X34797778Y7882778D01*
X34797778Y9152778D01*
X36067778Y9152778D01*
X36067778Y7882778D01*
X36702778Y7882778D01*
X36702778Y9787778D01*
X36067778Y9787778D01*
X36067778Y10422778D01*
X35432778Y10422778D01*
X35432778Y11057778D01*
X34162778Y11057778D01*
X34162778Y9787778D01*
X34797778Y9787778D01*
X34797778Y10422778D01*
X35432778Y10422778D01*
X35432778Y9787778D01*
X34797778Y9787778D01*
X34162778Y9787778D01*
X33527778Y9787778D01*
X33527778Y10422778D01*
X32892778Y10422778D01*
X32892778Y8517778D01*
X32257778Y8517778D01*
X32257778Y7247778D01*
G36*
X27177778Y10422778D02*
X26542778Y10422778D01*
X26542778Y9787778D01*
X27177778Y9787778D01*
X27177778Y10422778D01*
X27177778Y10422778D01*
G37*
X27177778Y10422778D02*
X26542778Y10422778D01*
X26542778Y9787778D01*
X27177778Y9787778D01*
X27177778Y10422778D01*
G36*
X37337778Y7882778D02*
X36702778Y7882778D01*
X36702778Y6612778D01*
X37337778Y6612778D01*
X37337778Y7882778D01*
X37337778Y7882778D01*
G37*
X37337778Y7882778D02*
X36702778Y7882778D01*
X36702778Y6612778D01*
X37337778Y6612778D01*
X37337778Y7882778D01*
G36*
X26542778Y15502778D02*
X25907778Y15502778D01*
X25907778Y14867778D01*
X26542778Y14867778D01*
X26542778Y15502778D01*
X26542778Y15502778D01*
G37*
X26542778Y15502778D02*
X25907778Y15502778D01*
X25907778Y14867778D01*
X26542778Y14867778D01*
X26542778Y15502778D01*
G36*
X39877778Y36457778D02*
X39242778Y36457778D01*
X39242778Y35822778D01*
X39877778Y35822778D01*
X39877778Y36457778D01*
X39877778Y36457778D01*
G37*
X39877778Y36457778D02*
X39242778Y36457778D01*
X39242778Y35822778D01*
X39877778Y35822778D01*
X39877778Y36457778D01*
G36*
X21462778Y18677778D02*
X20827778Y18677778D01*
X20827778Y18042778D01*
X21462778Y18042778D01*
X21462778Y18677778D01*
X21462778Y18677778D01*
G37*
X21462778Y18677778D02*
X20827778Y18677778D01*
X20827778Y18042778D01*
X21462778Y18042778D01*
X21462778Y18677778D01*
G36*
X32257778Y9152778D02*
X31622778Y9152778D01*
X31622778Y8517778D01*
X32257778Y8517778D01*
X32257778Y9152778D01*
X32257778Y9152778D01*
G37*
X32257778Y9152778D02*
X31622778Y9152778D01*
X31622778Y8517778D01*
X32257778Y8517778D01*
X32257778Y9152778D01*
G36*
X43052778Y28202778D02*
X43052778Y28837778D01*
X42417778Y28837778D01*
X42417778Y29472778D01*
X41782778Y29472778D01*
X41782778Y30107778D01*
X43052778Y30107778D01*
X43052778Y30742778D01*
X42417778Y30742778D01*
X42417778Y31377778D01*
X39877778Y31377778D01*
X39877778Y32012778D01*
X39242778Y32012778D01*
X39242778Y32647778D01*
X39877778Y32647778D01*
X39877778Y34552778D01*
X39242778Y34552778D01*
X39242778Y35822778D01*
X38607778Y35822778D01*
X38607778Y36457778D01*
X37972778Y36457778D01*
X37972778Y35822778D01*
X37337778Y35822778D01*
X37337778Y36457778D01*
X36702778Y36457778D01*
X36702778Y35187778D01*
X36067778Y35187778D01*
X36067778Y35822778D01*
X33527778Y35822778D01*
X33527778Y35187778D01*
X32892778Y35187778D01*
X32892778Y34552778D01*
X33527778Y34552778D01*
X34162778Y34552778D01*
X34162778Y35187778D01*
X34797778Y35187778D01*
X34797778Y34552778D01*
X34162778Y34552778D01*
X33527778Y34552778D01*
X33527778Y33917778D01*
X34162778Y33917778D01*
X35432778Y33917778D01*
X35432778Y35187778D01*
X36067778Y35187778D01*
X36067778Y34552778D01*
X37337778Y34552778D01*
X37337778Y35187778D01*
X37972778Y35187778D01*
X37972778Y35822778D01*
X38607778Y35822778D01*
X38607778Y34552778D01*
X39242778Y34552778D01*
X39242778Y33917778D01*
X38607778Y33917778D01*
X38607778Y33282778D01*
X37337778Y33282778D01*
X37337778Y32647778D01*
X36702778Y32647778D01*
X36702778Y33282778D01*
X36067778Y33282778D01*
X36067778Y33917778D01*
X35432778Y33917778D01*
X34162778Y33917778D01*
X34162778Y33282778D01*
X32257778Y33282778D01*
X32257778Y33917778D01*
X31622778Y33917778D01*
X31622778Y31377778D01*
X30352778Y31377778D01*
X30352778Y30742778D01*
X31622778Y30742778D01*
X31622778Y31377778D01*
X32257778Y31377778D01*
X32257778Y30742778D01*
X31622778Y30742778D01*
X30352778Y30742778D01*
X29717778Y30742778D01*
X29717778Y31377778D01*
X29082778Y31377778D01*
X29082778Y30742778D01*
X28447778Y30742778D01*
X28447778Y29472778D01*
X29082778Y29472778D01*
X29082778Y30107778D01*
X30352778Y30107778D01*
X30352778Y29472778D01*
X29717778Y29472778D01*
X29717778Y28837778D01*
X30352778Y28837778D01*
X30352778Y29472778D01*
X30987778Y29472778D01*
X30987778Y30107778D01*
X31622778Y30107778D01*
X31622778Y29472778D01*
X30987778Y29472778D01*
X30987778Y28837778D01*
X30352778Y28837778D01*
X30352778Y27567778D01*
X29717778Y27567778D01*
X29717778Y26932778D01*
X27812778Y26932778D01*
X27812778Y26297778D01*
X27177778Y26297778D01*
X27177778Y26932778D01*
X25907778Y26932778D01*
X25907778Y26297778D01*
X24637778Y26297778D01*
X24637778Y25662778D01*
X22732778Y25662778D01*
X22732778Y25027778D01*
X22097778Y25027778D01*
X22097778Y24392778D01*
X22732778Y24392778D01*
X22732778Y25027778D01*
X23367778Y25027778D01*
X23367778Y24392778D01*
X24002778Y24392778D01*
X24002778Y25027778D01*
X25272778Y25027778D01*
X25272778Y25662778D01*
X26542778Y25662778D01*
X26542778Y26297778D01*
X27177778Y26297778D01*
X27177778Y25662778D01*
X26542778Y25662778D01*
X26542778Y25027778D01*
X27177778Y25027778D01*
X27177778Y25662778D01*
X28447778Y25662778D01*
X28447778Y25027778D01*
X27177778Y25027778D01*
X26542778Y25027778D01*
X25272778Y25027778D01*
X25272778Y24392778D01*
X24002778Y24392778D01*
X23367778Y24392778D01*
X22732778Y24392778D01*
X22732778Y23757778D01*
X22097778Y23757778D01*
X22097778Y23122778D01*
X22732778Y23122778D01*
X22732778Y23757778D01*
X23367778Y23757778D01*
X23367778Y23122778D01*
X25272778Y23122778D01*
X25272778Y24392778D01*
X26542778Y24392778D01*
X26542778Y23757778D01*
X27812778Y23757778D01*
X27812778Y24392778D01*
X28447778Y24392778D01*
X28447778Y23757778D01*
X27812778Y23757778D01*
X26542778Y23757778D01*
X25907778Y23757778D01*
X25907778Y23122778D01*
X25272778Y23122778D01*
X23367778Y23122778D01*
X22732778Y23122778D01*
X22097778Y23122778D01*
X20827778Y23122778D01*
X20827778Y22487778D01*
X20192778Y22487778D01*
X20192778Y21217778D01*
X20827778Y21217778D01*
X20827778Y22487778D01*
X21462778Y22487778D01*
X21462778Y21852778D01*
X22097778Y21852778D01*
X22097778Y21217778D01*
X20827778Y21217778D01*
X20827778Y20582778D01*
X21462778Y20582778D01*
X21462778Y19947778D01*
X22097778Y19947778D01*
X22097778Y21217778D01*
X22732778Y21217778D01*
X22732778Y22487778D01*
X23367778Y22487778D01*
X23367778Y20582778D01*
X22732778Y20582778D01*
X22732778Y19947778D01*
X22097778Y19947778D01*
X21462778Y19947778D01*
X20827778Y19947778D01*
X20827778Y19312778D01*
X22732778Y19312778D01*
X22732778Y19947778D01*
X23367778Y19947778D01*
X23367778Y19312778D01*
X24002778Y19312778D01*
X24002778Y21217778D01*
X24637778Y21217778D01*
X24637778Y22487778D01*
X25272778Y22487778D01*
X25907778Y22487778D01*
X25907778Y23122778D01*
X26542778Y23122778D01*
X26542778Y22487778D01*
X25907778Y22487778D01*
X25272778Y22487778D01*
X25272778Y21217778D01*
X24637778Y21217778D01*
X24637778Y19947778D01*
X25907778Y19947778D01*
X25907778Y19312778D01*
X26542778Y19312778D01*
X26542778Y19947778D01*
X27177778Y19947778D01*
X27177778Y20582778D01*
X26542778Y20582778D01*
X26542778Y22487778D01*
X27177778Y22487778D01*
X27177778Y23122778D01*
X27812778Y23122778D01*
X27812778Y22487778D01*
X28447778Y22487778D01*
X28447778Y23122778D01*
X29082778Y23122778D01*
X29082778Y23757778D01*
X29717778Y23757778D01*
X29717778Y24392778D01*
X29082778Y24392778D01*
X29082778Y26297778D01*
X29717778Y26297778D01*
X29717778Y25662778D01*
X30987778Y25662778D01*
X30987778Y26932778D01*
X31622778Y26932778D01*
X31622778Y27567778D01*
X30987778Y27567778D01*
X30987778Y28837778D01*
X32892778Y28837778D01*
X32892778Y30107778D01*
X33527778Y30107778D01*
X33527778Y30742778D01*
X34162778Y30742778D01*
X34162778Y32012778D01*
X33527778Y32012778D01*
X33527778Y31377778D01*
X32257778Y31377778D01*
X32257778Y32647778D01*
X34797778Y32647778D01*
X34797778Y32012778D01*
X36067778Y32012778D01*
X36067778Y32647778D01*
X36702778Y32647778D01*
X36702778Y32012778D01*
X37972778Y32012778D01*
X37972778Y32647778D01*
X38607778Y32647778D01*
X38607778Y32012778D01*
X37972778Y32012778D01*
X36702778Y32012778D01*
X36067778Y32012778D01*
X36067778Y30742778D01*
X37972778Y30742778D01*
X37972778Y31377778D01*
X38607778Y31377778D01*
X38607778Y32012778D01*
X39242778Y32012778D01*
X39242778Y31377778D01*
X38607778Y31377778D01*
X38607778Y30742778D01*
X37972778Y30742778D01*
X36067778Y30742778D01*
X35432778Y30742778D01*
X35432778Y30107778D01*
X36067778Y30107778D01*
X36067778Y28837778D01*
X36702778Y28837778D01*
X36702778Y29472778D01*
X37337778Y29472778D01*
X37337778Y30107778D01*
X38607778Y30107778D01*
X38607778Y30742778D01*
X39242778Y30742778D01*
X39242778Y29472778D01*
X39877778Y29472778D01*
X39877778Y30107778D01*
X40512778Y30107778D01*
X40512778Y30742778D01*
X41147778Y30742778D01*
X41147778Y30107778D01*
X40512778Y30107778D01*
X40512778Y29472778D01*
X41147778Y29472778D01*
X41147778Y28837778D01*
X41782778Y28837778D01*
X41782778Y28202778D01*
X38607778Y28202778D01*
X38607778Y28837778D01*
X37972778Y28837778D01*
X37972778Y27567778D01*
X37337778Y27567778D01*
X37337778Y28837778D01*
X36702778Y28837778D01*
X36067778Y28837778D01*
X36067778Y28202778D01*
X36702778Y28202778D01*
X36702778Y27567778D01*
X35432778Y27567778D01*
X35432778Y26932778D01*
X37972778Y26932778D01*
X37972778Y27567778D01*
X38607778Y27567778D01*
X38607778Y26932778D01*
X39242778Y26932778D01*
X39242778Y27567778D01*
X39877778Y27567778D01*
X39877778Y26932778D01*
X40512778Y26932778D01*
X40512778Y26297778D01*
X41782778Y26297778D01*
X41782778Y25027778D01*
X40512778Y25027778D01*
X40512778Y24392778D01*
X39242778Y24392778D01*
X39242778Y25027778D01*
X38607778Y25027778D01*
X38607778Y25662778D01*
X37972778Y25662778D01*
X37972778Y25027778D01*
X37337778Y25027778D01*
X37337778Y25662778D01*
X36702778Y25662778D01*
X36702778Y24392778D01*
X36067778Y24392778D01*
X36067778Y21852778D01*
X36702778Y21852778D01*
X36702778Y19947778D01*
X37972778Y19947778D01*
X37972778Y19312778D01*
X37337778Y19312778D01*
X37337778Y18677778D01*
X35432778Y18677778D01*
X35432778Y18042778D01*
X36067778Y18042778D01*
X37337778Y18042778D01*
X37337778Y18677778D01*
X38607778Y18677778D01*
X38607778Y19312778D01*
X39242778Y19312778D01*
X39242778Y18677778D01*
X39877778Y18677778D01*
X39877778Y19312778D01*
X40512778Y19312778D01*
X40512778Y18677778D01*
X41147778Y18677778D01*
X41147778Y18042778D01*
X41782778Y18042778D01*
X41782778Y18677778D01*
X42417778Y18677778D01*
X42417778Y17407778D01*
X41147778Y17407778D01*
X41147778Y16772778D01*
X40512778Y16772778D01*
X40512778Y16137778D01*
X41782778Y16137778D01*
X41782778Y15502778D01*
X41147778Y15502778D01*
X41147778Y14867778D01*
X40512778Y14867778D01*
X40512778Y15502778D01*
X39242778Y15502778D01*
X39242778Y17407778D01*
X37972778Y17407778D01*
X37972778Y18042778D01*
X37337778Y18042778D01*
X36067778Y18042778D01*
X36067778Y16772778D01*
X35432778Y16772778D01*
X35432778Y15502778D01*
X36067778Y15502778D01*
X36067778Y16772778D01*
X36702778Y16772778D01*
X36702778Y17407778D01*
X37337778Y17407778D01*
X37337778Y16772778D01*
X36702778Y16772778D01*
X36702778Y16137778D01*
X37972778Y16137778D01*
X37972778Y16772778D01*
X38607778Y16772778D01*
X38607778Y16137778D01*
X37972778Y16137778D01*
X36702778Y16137778D01*
X36702778Y15502778D01*
X36067778Y15502778D01*
X35432778Y15502778D01*
X35432778Y14867778D01*
X36067778Y14867778D01*
X36067778Y14232778D01*
X34797778Y14232778D01*
X34797778Y13597778D01*
X34162778Y13597778D01*
X34162778Y14232778D01*
X33527778Y14232778D01*
X33527778Y14867778D01*
X34162778Y14867778D01*
X34162778Y15502778D01*
X34797778Y15502778D01*
X34797778Y16137778D01*
X34162778Y16137778D01*
X34162778Y16772778D01*
X34797778Y16772778D01*
X34797778Y17407778D01*
X34162778Y17407778D01*
X34162778Y18042778D01*
X34797778Y18042778D01*
X34797778Y19312778D01*
X34162778Y19312778D01*
X34162778Y18677778D01*
X33527778Y18677778D01*
X33527778Y18042778D01*
X32892778Y18042778D01*
X32892778Y17407778D01*
X32257778Y17407778D01*
X32257778Y16772778D01*
X31622778Y16772778D01*
X31622778Y16137778D01*
X32257778Y16137778D01*
X32257778Y16772778D01*
X33527778Y16772778D01*
X33527778Y15502778D01*
X32892778Y15502778D01*
X32892778Y16137778D01*
X32257778Y16137778D01*
X31622778Y16137778D01*
X31622778Y15502778D01*
X30987778Y15502778D01*
X30987778Y14867778D01*
X30352778Y14867778D01*
X30352778Y14232778D01*
X29717778Y14232778D01*
X29717778Y14867778D01*
X28447778Y14867778D01*
X28447778Y15502778D01*
X27812778Y15502778D01*
X27812778Y17407778D01*
X27177778Y17407778D01*
X27177778Y19312778D01*
X26542778Y19312778D01*
X25907778Y19312778D01*
X24002778Y19312778D01*
X24002778Y18677778D01*
X23367778Y18677778D01*
X23367778Y18042778D01*
X24002778Y18042778D01*
X24002778Y17407778D01*
X24637778Y17407778D01*
X24637778Y18677778D01*
X25907778Y18677778D01*
X25907778Y18042778D01*
X26542778Y18042778D01*
X26542778Y17407778D01*
X25907778Y17407778D01*
X25907778Y16137778D01*
X26542778Y16137778D01*
X26542778Y16772778D01*
X27177778Y16772778D01*
X27177778Y14867778D01*
X26542778Y14867778D01*
X26542778Y14232778D01*
X27177778Y14232778D01*
X27177778Y13597778D01*
X26542778Y13597778D01*
X26542778Y12962778D01*
X25907778Y12962778D01*
X25907778Y12327778D01*
X27177778Y12327778D01*
X27177778Y12962778D01*
X27812778Y12962778D01*
X27812778Y14867778D01*
X28447778Y14867778D01*
X28447778Y13597778D01*
X29082778Y13597778D01*
X29082778Y14232778D01*
X29717778Y14232778D01*
X29717778Y13597778D01*
X29082778Y13597778D01*
X28447778Y13597778D01*
X28447778Y12327778D01*
X27177778Y12327778D01*
X27177778Y11692778D01*
X29717778Y11692778D01*
X29717778Y13597778D01*
X30352778Y13597778D01*
X30352778Y14232778D01*
X30987778Y14232778D01*
X30987778Y14867778D01*
X31622778Y14867778D01*
X31622778Y14232778D01*
X30987778Y14232778D01*
X30987778Y13597778D01*
X31622778Y13597778D01*
X31622778Y14232778D01*
X32257778Y14232778D01*
X32257778Y14867778D01*
X32892778Y14867778D01*
X32892778Y14232778D01*
X32257778Y14232778D01*
X32257778Y13597778D01*
X33527778Y13597778D01*
X33527778Y12962778D01*
X34797778Y12962778D01*
X34797778Y13597778D01*
X35432778Y13597778D01*
X35432778Y12962778D01*
X34797778Y12962778D01*
X33527778Y12962778D01*
X33527778Y12327778D01*
X34797778Y12327778D01*
X34797778Y11692778D01*
X36702778Y11692778D01*
X36702778Y12327778D01*
X36067778Y12327778D01*
X36067778Y12962778D01*
X37337778Y12962778D01*
X37337778Y13597778D01*
X36702778Y13597778D01*
X36702778Y14232778D01*
X37337778Y14232778D01*
X37337778Y14867778D01*
X37972778Y14867778D01*
X37972778Y15502778D01*
X38607778Y15502778D01*
X38607778Y14867778D01*
X39242778Y14867778D01*
X39242778Y14232778D01*
X40512778Y14232778D01*
X40512778Y13597778D01*
X41782778Y13597778D01*
X41782778Y15502778D01*
X42417778Y15502778D01*
X42417778Y16137778D01*
X41782778Y16137778D01*
X41782778Y16772778D01*
X42417778Y16772778D01*
X42417778Y17407778D01*
X43052778Y17407778D01*
X43052778Y19312778D01*
X43687778Y19312778D01*
X43687778Y19947778D01*
X41782778Y19947778D01*
X41782778Y19312778D01*
X40512778Y19312778D01*
X40512778Y19947778D01*
X39242778Y19947778D01*
X39242778Y21217778D01*
X38607778Y21217778D01*
X38607778Y20582778D01*
X37337778Y20582778D01*
X37337778Y21852778D01*
X37972778Y21852778D01*
X37972778Y22487778D01*
X36702778Y22487778D01*
X36702778Y23122778D01*
X37972778Y23122778D01*
X37972778Y24392778D01*
X38607778Y24392778D01*
X38607778Y23757778D01*
X39242778Y23757778D01*
X39242778Y23122778D01*
X39877778Y23122778D01*
X39877778Y23757778D01*
X41147778Y23757778D01*
X41147778Y24392778D01*
X41782778Y24392778D01*
X41782778Y23757778D01*
X41147778Y23757778D01*
X41147778Y23122778D01*
X41782778Y23122778D01*
X41782778Y23757778D01*
X42417778Y23757778D01*
X42417778Y23122778D01*
X43052778Y23122778D01*
X43052778Y23757778D01*
X43687778Y23757778D01*
X43687778Y24392778D01*
X43052778Y24392778D01*
X43052778Y25027778D01*
X43687778Y25027778D01*
X43687778Y25662778D01*
X42417778Y25662778D01*
X42417778Y26297778D01*
X41782778Y26297778D01*
X41782778Y26932778D01*
X41147778Y26932778D01*
X41147778Y27567778D01*
X41782778Y27567778D01*
X41782778Y28202778D01*
X43052778Y28202778D01*
X43052778Y28202778D01*
G37*
X43052778Y28202778D02*
X43052778Y28837778D01*
X42417778Y28837778D01*
X42417778Y29472778D01*
X41782778Y29472778D01*
X41782778Y30107778D01*
X43052778Y30107778D01*
X43052778Y30742778D01*
X42417778Y30742778D01*
X42417778Y31377778D01*
X39877778Y31377778D01*
X39877778Y32012778D01*
X39242778Y32012778D01*
X39242778Y32647778D01*
X39877778Y32647778D01*
X39877778Y34552778D01*
X39242778Y34552778D01*
X39242778Y35822778D01*
X38607778Y35822778D01*
X38607778Y36457778D01*
X37972778Y36457778D01*
X37972778Y35822778D01*
X37337778Y35822778D01*
X37337778Y36457778D01*
X36702778Y36457778D01*
X36702778Y35187778D01*
X36067778Y35187778D01*
X36067778Y35822778D01*
X33527778Y35822778D01*
X33527778Y35187778D01*
X32892778Y35187778D01*
X32892778Y34552778D01*
X33527778Y34552778D01*
X34162778Y34552778D01*
X34162778Y35187778D01*
X34797778Y35187778D01*
X34797778Y34552778D01*
X34162778Y34552778D01*
X33527778Y34552778D01*
X33527778Y33917778D01*
X34162778Y33917778D01*
X35432778Y33917778D01*
X35432778Y35187778D01*
X36067778Y35187778D01*
X36067778Y34552778D01*
X37337778Y34552778D01*
X37337778Y35187778D01*
X37972778Y35187778D01*
X37972778Y35822778D01*
X38607778Y35822778D01*
X38607778Y34552778D01*
X39242778Y34552778D01*
X39242778Y33917778D01*
X38607778Y33917778D01*
X38607778Y33282778D01*
X37337778Y33282778D01*
X37337778Y32647778D01*
X36702778Y32647778D01*
X36702778Y33282778D01*
X36067778Y33282778D01*
X36067778Y33917778D01*
X35432778Y33917778D01*
X34162778Y33917778D01*
X34162778Y33282778D01*
X32257778Y33282778D01*
X32257778Y33917778D01*
X31622778Y33917778D01*
X31622778Y31377778D01*
X30352778Y31377778D01*
X30352778Y30742778D01*
X31622778Y30742778D01*
X31622778Y31377778D01*
X32257778Y31377778D01*
X32257778Y30742778D01*
X31622778Y30742778D01*
X30352778Y30742778D01*
X29717778Y30742778D01*
X29717778Y31377778D01*
X29082778Y31377778D01*
X29082778Y30742778D01*
X28447778Y30742778D01*
X28447778Y29472778D01*
X29082778Y29472778D01*
X29082778Y30107778D01*
X30352778Y30107778D01*
X30352778Y29472778D01*
X29717778Y29472778D01*
X29717778Y28837778D01*
X30352778Y28837778D01*
X30352778Y29472778D01*
X30987778Y29472778D01*
X30987778Y30107778D01*
X31622778Y30107778D01*
X31622778Y29472778D01*
X30987778Y29472778D01*
X30987778Y28837778D01*
X30352778Y28837778D01*
X30352778Y27567778D01*
X29717778Y27567778D01*
X29717778Y26932778D01*
X27812778Y26932778D01*
X27812778Y26297778D01*
X27177778Y26297778D01*
X27177778Y26932778D01*
X25907778Y26932778D01*
X25907778Y26297778D01*
X24637778Y26297778D01*
X24637778Y25662778D01*
X22732778Y25662778D01*
X22732778Y25027778D01*
X22097778Y25027778D01*
X22097778Y24392778D01*
X22732778Y24392778D01*
X22732778Y25027778D01*
X23367778Y25027778D01*
X23367778Y24392778D01*
X24002778Y24392778D01*
X24002778Y25027778D01*
X25272778Y25027778D01*
X25272778Y25662778D01*
X26542778Y25662778D01*
X26542778Y26297778D01*
X27177778Y26297778D01*
X27177778Y25662778D01*
X26542778Y25662778D01*
X26542778Y25027778D01*
X27177778Y25027778D01*
X27177778Y25662778D01*
X28447778Y25662778D01*
X28447778Y25027778D01*
X27177778Y25027778D01*
X26542778Y25027778D01*
X25272778Y25027778D01*
X25272778Y24392778D01*
X24002778Y24392778D01*
X23367778Y24392778D01*
X22732778Y24392778D01*
X22732778Y23757778D01*
X22097778Y23757778D01*
X22097778Y23122778D01*
X22732778Y23122778D01*
X22732778Y23757778D01*
X23367778Y23757778D01*
X23367778Y23122778D01*
X25272778Y23122778D01*
X25272778Y24392778D01*
X26542778Y24392778D01*
X26542778Y23757778D01*
X27812778Y23757778D01*
X27812778Y24392778D01*
X28447778Y24392778D01*
X28447778Y23757778D01*
X27812778Y23757778D01*
X26542778Y23757778D01*
X25907778Y23757778D01*
X25907778Y23122778D01*
X25272778Y23122778D01*
X23367778Y23122778D01*
X22732778Y23122778D01*
X22097778Y23122778D01*
X20827778Y23122778D01*
X20827778Y22487778D01*
X20192778Y22487778D01*
X20192778Y21217778D01*
X20827778Y21217778D01*
X20827778Y22487778D01*
X21462778Y22487778D01*
X21462778Y21852778D01*
X22097778Y21852778D01*
X22097778Y21217778D01*
X20827778Y21217778D01*
X20827778Y20582778D01*
X21462778Y20582778D01*
X21462778Y19947778D01*
X22097778Y19947778D01*
X22097778Y21217778D01*
X22732778Y21217778D01*
X22732778Y22487778D01*
X23367778Y22487778D01*
X23367778Y20582778D01*
X22732778Y20582778D01*
X22732778Y19947778D01*
X22097778Y19947778D01*
X21462778Y19947778D01*
X20827778Y19947778D01*
X20827778Y19312778D01*
X22732778Y19312778D01*
X22732778Y19947778D01*
X23367778Y19947778D01*
X23367778Y19312778D01*
X24002778Y19312778D01*
X24002778Y21217778D01*
X24637778Y21217778D01*
X24637778Y22487778D01*
X25272778Y22487778D01*
X25907778Y22487778D01*
X25907778Y23122778D01*
X26542778Y23122778D01*
X26542778Y22487778D01*
X25907778Y22487778D01*
X25272778Y22487778D01*
X25272778Y21217778D01*
X24637778Y21217778D01*
X24637778Y19947778D01*
X25907778Y19947778D01*
X25907778Y19312778D01*
X26542778Y19312778D01*
X26542778Y19947778D01*
X27177778Y19947778D01*
X27177778Y20582778D01*
X26542778Y20582778D01*
X26542778Y22487778D01*
X27177778Y22487778D01*
X27177778Y23122778D01*
X27812778Y23122778D01*
X27812778Y22487778D01*
X28447778Y22487778D01*
X28447778Y23122778D01*
X29082778Y23122778D01*
X29082778Y23757778D01*
X29717778Y23757778D01*
X29717778Y24392778D01*
X29082778Y24392778D01*
X29082778Y26297778D01*
X29717778Y26297778D01*
X29717778Y25662778D01*
X30987778Y25662778D01*
X30987778Y26932778D01*
X31622778Y26932778D01*
X31622778Y27567778D01*
X30987778Y27567778D01*
X30987778Y28837778D01*
X32892778Y28837778D01*
X32892778Y30107778D01*
X33527778Y30107778D01*
X33527778Y30742778D01*
X34162778Y30742778D01*
X34162778Y32012778D01*
X33527778Y32012778D01*
X33527778Y31377778D01*
X32257778Y31377778D01*
X32257778Y32647778D01*
X34797778Y32647778D01*
X34797778Y32012778D01*
X36067778Y32012778D01*
X36067778Y32647778D01*
X36702778Y32647778D01*
X36702778Y32012778D01*
X37972778Y32012778D01*
X37972778Y32647778D01*
X38607778Y32647778D01*
X38607778Y32012778D01*
X37972778Y32012778D01*
X36702778Y32012778D01*
X36067778Y32012778D01*
X36067778Y30742778D01*
X37972778Y30742778D01*
X37972778Y31377778D01*
X38607778Y31377778D01*
X38607778Y32012778D01*
X39242778Y32012778D01*
X39242778Y31377778D01*
X38607778Y31377778D01*
X38607778Y30742778D01*
X37972778Y30742778D01*
X36067778Y30742778D01*
X35432778Y30742778D01*
X35432778Y30107778D01*
X36067778Y30107778D01*
X36067778Y28837778D01*
X36702778Y28837778D01*
X36702778Y29472778D01*
X37337778Y29472778D01*
X37337778Y30107778D01*
X38607778Y30107778D01*
X38607778Y30742778D01*
X39242778Y30742778D01*
X39242778Y29472778D01*
X39877778Y29472778D01*
X39877778Y30107778D01*
X40512778Y30107778D01*
X40512778Y30742778D01*
X41147778Y30742778D01*
X41147778Y30107778D01*
X40512778Y30107778D01*
X40512778Y29472778D01*
X41147778Y29472778D01*
X41147778Y28837778D01*
X41782778Y28837778D01*
X41782778Y28202778D01*
X38607778Y28202778D01*
X38607778Y28837778D01*
X37972778Y28837778D01*
X37972778Y27567778D01*
X37337778Y27567778D01*
X37337778Y28837778D01*
X36702778Y28837778D01*
X36067778Y28837778D01*
X36067778Y28202778D01*
X36702778Y28202778D01*
X36702778Y27567778D01*
X35432778Y27567778D01*
X35432778Y26932778D01*
X37972778Y26932778D01*
X37972778Y27567778D01*
X38607778Y27567778D01*
X38607778Y26932778D01*
X39242778Y26932778D01*
X39242778Y27567778D01*
X39877778Y27567778D01*
X39877778Y26932778D01*
X40512778Y26932778D01*
X40512778Y26297778D01*
X41782778Y26297778D01*
X41782778Y25027778D01*
X40512778Y25027778D01*
X40512778Y24392778D01*
X39242778Y24392778D01*
X39242778Y25027778D01*
X38607778Y25027778D01*
X38607778Y25662778D01*
X37972778Y25662778D01*
X37972778Y25027778D01*
X37337778Y25027778D01*
X37337778Y25662778D01*
X36702778Y25662778D01*
X36702778Y24392778D01*
X36067778Y24392778D01*
X36067778Y21852778D01*
X36702778Y21852778D01*
X36702778Y19947778D01*
X37972778Y19947778D01*
X37972778Y19312778D01*
X37337778Y19312778D01*
X37337778Y18677778D01*
X35432778Y18677778D01*
X35432778Y18042778D01*
X36067778Y18042778D01*
X37337778Y18042778D01*
X37337778Y18677778D01*
X38607778Y18677778D01*
X38607778Y19312778D01*
X39242778Y19312778D01*
X39242778Y18677778D01*
X39877778Y18677778D01*
X39877778Y19312778D01*
X40512778Y19312778D01*
X40512778Y18677778D01*
X41147778Y18677778D01*
X41147778Y18042778D01*
X41782778Y18042778D01*
X41782778Y18677778D01*
X42417778Y18677778D01*
X42417778Y17407778D01*
X41147778Y17407778D01*
X41147778Y16772778D01*
X40512778Y16772778D01*
X40512778Y16137778D01*
X41782778Y16137778D01*
X41782778Y15502778D01*
X41147778Y15502778D01*
X41147778Y14867778D01*
X40512778Y14867778D01*
X40512778Y15502778D01*
X39242778Y15502778D01*
X39242778Y17407778D01*
X37972778Y17407778D01*
X37972778Y18042778D01*
X37337778Y18042778D01*
X36067778Y18042778D01*
X36067778Y16772778D01*
X35432778Y16772778D01*
X35432778Y15502778D01*
X36067778Y15502778D01*
X36067778Y16772778D01*
X36702778Y16772778D01*
X36702778Y17407778D01*
X37337778Y17407778D01*
X37337778Y16772778D01*
X36702778Y16772778D01*
X36702778Y16137778D01*
X37972778Y16137778D01*
X37972778Y16772778D01*
X38607778Y16772778D01*
X38607778Y16137778D01*
X37972778Y16137778D01*
X36702778Y16137778D01*
X36702778Y15502778D01*
X36067778Y15502778D01*
X35432778Y15502778D01*
X35432778Y14867778D01*
X36067778Y14867778D01*
X36067778Y14232778D01*
X34797778Y14232778D01*
X34797778Y13597778D01*
X34162778Y13597778D01*
X34162778Y14232778D01*
X33527778Y14232778D01*
X33527778Y14867778D01*
X34162778Y14867778D01*
X34162778Y15502778D01*
X34797778Y15502778D01*
X34797778Y16137778D01*
X34162778Y16137778D01*
X34162778Y16772778D01*
X34797778Y16772778D01*
X34797778Y17407778D01*
X34162778Y17407778D01*
X34162778Y18042778D01*
X34797778Y18042778D01*
X34797778Y19312778D01*
X34162778Y19312778D01*
X34162778Y18677778D01*
X33527778Y18677778D01*
X33527778Y18042778D01*
X32892778Y18042778D01*
X32892778Y17407778D01*
X32257778Y17407778D01*
X32257778Y16772778D01*
X31622778Y16772778D01*
X31622778Y16137778D01*
X32257778Y16137778D01*
X32257778Y16772778D01*
X33527778Y16772778D01*
X33527778Y15502778D01*
X32892778Y15502778D01*
X32892778Y16137778D01*
X32257778Y16137778D01*
X31622778Y16137778D01*
X31622778Y15502778D01*
X30987778Y15502778D01*
X30987778Y14867778D01*
X30352778Y14867778D01*
X30352778Y14232778D01*
X29717778Y14232778D01*
X29717778Y14867778D01*
X28447778Y14867778D01*
X28447778Y15502778D01*
X27812778Y15502778D01*
X27812778Y17407778D01*
X27177778Y17407778D01*
X27177778Y19312778D01*
X26542778Y19312778D01*
X25907778Y19312778D01*
X24002778Y19312778D01*
X24002778Y18677778D01*
X23367778Y18677778D01*
X23367778Y18042778D01*
X24002778Y18042778D01*
X24002778Y17407778D01*
X24637778Y17407778D01*
X24637778Y18677778D01*
X25907778Y18677778D01*
X25907778Y18042778D01*
X26542778Y18042778D01*
X26542778Y17407778D01*
X25907778Y17407778D01*
X25907778Y16137778D01*
X26542778Y16137778D01*
X26542778Y16772778D01*
X27177778Y16772778D01*
X27177778Y14867778D01*
X26542778Y14867778D01*
X26542778Y14232778D01*
X27177778Y14232778D01*
X27177778Y13597778D01*
X26542778Y13597778D01*
X26542778Y12962778D01*
X25907778Y12962778D01*
X25907778Y12327778D01*
X27177778Y12327778D01*
X27177778Y12962778D01*
X27812778Y12962778D01*
X27812778Y14867778D01*
X28447778Y14867778D01*
X28447778Y13597778D01*
X29082778Y13597778D01*
X29082778Y14232778D01*
X29717778Y14232778D01*
X29717778Y13597778D01*
X29082778Y13597778D01*
X28447778Y13597778D01*
X28447778Y12327778D01*
X27177778Y12327778D01*
X27177778Y11692778D01*
X29717778Y11692778D01*
X29717778Y13597778D01*
X30352778Y13597778D01*
X30352778Y14232778D01*
X30987778Y14232778D01*
X30987778Y14867778D01*
X31622778Y14867778D01*
X31622778Y14232778D01*
X30987778Y14232778D01*
X30987778Y13597778D01*
X31622778Y13597778D01*
X31622778Y14232778D01*
X32257778Y14232778D01*
X32257778Y14867778D01*
X32892778Y14867778D01*
X32892778Y14232778D01*
X32257778Y14232778D01*
X32257778Y13597778D01*
X33527778Y13597778D01*
X33527778Y12962778D01*
X34797778Y12962778D01*
X34797778Y13597778D01*
X35432778Y13597778D01*
X35432778Y12962778D01*
X34797778Y12962778D01*
X33527778Y12962778D01*
X33527778Y12327778D01*
X34797778Y12327778D01*
X34797778Y11692778D01*
X36702778Y11692778D01*
X36702778Y12327778D01*
X36067778Y12327778D01*
X36067778Y12962778D01*
X37337778Y12962778D01*
X37337778Y13597778D01*
X36702778Y13597778D01*
X36702778Y14232778D01*
X37337778Y14232778D01*
X37337778Y14867778D01*
X37972778Y14867778D01*
X37972778Y15502778D01*
X38607778Y15502778D01*
X38607778Y14867778D01*
X39242778Y14867778D01*
X39242778Y14232778D01*
X40512778Y14232778D01*
X40512778Y13597778D01*
X41782778Y13597778D01*
X41782778Y15502778D01*
X42417778Y15502778D01*
X42417778Y16137778D01*
X41782778Y16137778D01*
X41782778Y16772778D01*
X42417778Y16772778D01*
X42417778Y17407778D01*
X43052778Y17407778D01*
X43052778Y19312778D01*
X43687778Y19312778D01*
X43687778Y19947778D01*
X41782778Y19947778D01*
X41782778Y19312778D01*
X40512778Y19312778D01*
X40512778Y19947778D01*
X39242778Y19947778D01*
X39242778Y21217778D01*
X38607778Y21217778D01*
X38607778Y20582778D01*
X37337778Y20582778D01*
X37337778Y21852778D01*
X37972778Y21852778D01*
X37972778Y22487778D01*
X36702778Y22487778D01*
X36702778Y23122778D01*
X37972778Y23122778D01*
X37972778Y24392778D01*
X38607778Y24392778D01*
X38607778Y23757778D01*
X39242778Y23757778D01*
X39242778Y23122778D01*
X39877778Y23122778D01*
X39877778Y23757778D01*
X41147778Y23757778D01*
X41147778Y24392778D01*
X41782778Y24392778D01*
X41782778Y23757778D01*
X41147778Y23757778D01*
X41147778Y23122778D01*
X41782778Y23122778D01*
X41782778Y23757778D01*
X42417778Y23757778D01*
X42417778Y23122778D01*
X43052778Y23122778D01*
X43052778Y23757778D01*
X43687778Y23757778D01*
X43687778Y24392778D01*
X43052778Y24392778D01*
X43052778Y25027778D01*
X43687778Y25027778D01*
X43687778Y25662778D01*
X42417778Y25662778D01*
X42417778Y26297778D01*
X41782778Y26297778D01*
X41782778Y26932778D01*
X41147778Y26932778D01*
X41147778Y27567778D01*
X41782778Y27567778D01*
X41782778Y28202778D01*
X43052778Y28202778D01*
G36*
X23367778Y35187778D02*
X22097778Y35187778D01*
X22097778Y34552778D01*
X23367778Y34552778D01*
X23367778Y35187778D01*
X23367778Y35187778D01*
G37*
X23367778Y35187778D02*
X22097778Y35187778D01*
X22097778Y34552778D01*
X23367778Y34552778D01*
X23367778Y35187778D01*
G36*
X23367778Y33282778D02*
X24637778Y33282778D01*
X24637778Y34552778D01*
X23367778Y34552778D01*
X23367778Y33917778D01*
X22732778Y33917778D01*
X22732778Y32647778D01*
X23367778Y32647778D01*
X23367778Y33282778D01*
X23367778Y33282778D01*
G37*
X23367778Y33282778D02*
X24637778Y33282778D01*
X24637778Y34552778D01*
X23367778Y34552778D01*
X23367778Y33917778D01*
X22732778Y33917778D01*
X22732778Y32647778D01*
X23367778Y32647778D01*
X23367778Y33282778D01*
G36*
X30987778Y33917778D02*
X29082778Y33917778D01*
X29082778Y32647778D01*
X29717778Y32647778D01*
X29717778Y33282778D01*
X30352778Y33282778D01*
X30352778Y32647778D01*
X29717778Y32647778D01*
X29082778Y32647778D01*
X29082778Y32012778D01*
X30987778Y32012778D01*
X30987778Y33917778D01*
X30987778Y33917778D01*
G37*
X30987778Y33917778D02*
X29082778Y33917778D01*
X29082778Y32647778D01*
X29717778Y32647778D01*
X29717778Y33282778D01*
X30352778Y33282778D01*
X30352778Y32647778D01*
X29717778Y32647778D01*
X29082778Y32647778D01*
X29082778Y32012778D01*
X30987778Y32012778D01*
X30987778Y33917778D01*
G36*
X42417778Y33917778D02*
X40512778Y33917778D01*
X40512778Y32647778D01*
X41147778Y32647778D01*
X41147778Y33282778D01*
X41782778Y33282778D01*
X41782778Y32647778D01*
X41147778Y32647778D01*
X40512778Y32647778D01*
X40512778Y32012778D01*
X42417778Y32012778D01*
X42417778Y33917778D01*
X42417778Y33917778D01*
G37*
X42417778Y33917778D02*
X40512778Y33917778D01*
X40512778Y32647778D01*
X41147778Y32647778D01*
X41147778Y33282778D01*
X41782778Y33282778D01*
X41782778Y32647778D01*
X41147778Y32647778D01*
X40512778Y32647778D01*
X40512778Y32012778D01*
X42417778Y32012778D01*
X42417778Y33917778D01*
G36*
X23367778Y26932778D02*
X22732778Y26932778D01*
X22732778Y28202778D01*
X24637778Y28202778D01*
X24637778Y28837778D01*
X24002778Y28837778D01*
X24002778Y29472778D01*
X22732778Y29472778D01*
X22732778Y32012778D01*
X22097778Y32012778D01*
X22097778Y32647778D01*
X20827778Y32647778D01*
X20827778Y32012778D01*
X20192778Y32012778D01*
X20192778Y31377778D01*
X19557778Y31377778D01*
X19557778Y30107778D01*
X20192778Y30107778D01*
X20192778Y30742778D01*
X20827778Y30742778D01*
X20827778Y32012778D01*
X21462778Y32012778D01*
X21462778Y31377778D01*
X22097778Y31377778D01*
X22097778Y30742778D01*
X20827778Y30742778D01*
X20827778Y30107778D01*
X20192778Y30107778D01*
X20192778Y29472778D01*
X19557778Y29472778D01*
X19557778Y28837778D01*
X18287778Y28837778D01*
X18287778Y28202778D01*
X20827778Y28202778D01*
X20827778Y28837778D01*
X21462778Y28837778D01*
X21462778Y29472778D01*
X20827778Y29472778D01*
X20827778Y30107778D01*
X22097778Y30107778D01*
X22097778Y28837778D01*
X22732778Y28837778D01*
X22732778Y28202778D01*
X22097778Y28202778D01*
X22097778Y27567778D01*
X21462778Y27567778D01*
X21462778Y28202778D01*
X20827778Y28202778D01*
X20827778Y27567778D01*
X21462778Y27567778D01*
X21462778Y26932778D01*
X22097778Y26932778D01*
X22097778Y26297778D01*
X23367778Y26297778D01*
X23367778Y26932778D01*
X23367778Y26932778D01*
G37*
X23367778Y26932778D02*
X22732778Y26932778D01*
X22732778Y28202778D01*
X24637778Y28202778D01*
X24637778Y28837778D01*
X24002778Y28837778D01*
X24002778Y29472778D01*
X22732778Y29472778D01*
X22732778Y32012778D01*
X22097778Y32012778D01*
X22097778Y32647778D01*
X20827778Y32647778D01*
X20827778Y32012778D01*
X20192778Y32012778D01*
X20192778Y31377778D01*
X19557778Y31377778D01*
X19557778Y30107778D01*
X20192778Y30107778D01*
X20192778Y30742778D01*
X20827778Y30742778D01*
X20827778Y32012778D01*
X21462778Y32012778D01*
X21462778Y31377778D01*
X22097778Y31377778D01*
X22097778Y30742778D01*
X20827778Y30742778D01*
X20827778Y30107778D01*
X20192778Y30107778D01*
X20192778Y29472778D01*
X19557778Y29472778D01*
X19557778Y28837778D01*
X18287778Y28837778D01*
X18287778Y28202778D01*
X20827778Y28202778D01*
X20827778Y28837778D01*
X21462778Y28837778D01*
X21462778Y29472778D01*
X20827778Y29472778D01*
X20827778Y30107778D01*
X22097778Y30107778D01*
X22097778Y28837778D01*
X22732778Y28837778D01*
X22732778Y28202778D01*
X22097778Y28202778D01*
X22097778Y27567778D01*
X21462778Y27567778D01*
X21462778Y28202778D01*
X20827778Y28202778D01*
X20827778Y27567778D01*
X21462778Y27567778D01*
X21462778Y26932778D01*
X22097778Y26932778D01*
X22097778Y26297778D01*
X23367778Y26297778D01*
X23367778Y26932778D01*
G36*
X24002778Y32012778D02*
X23367778Y32012778D01*
X23367778Y31377778D01*
X24002778Y31377778D01*
X24002778Y32012778D01*
X24002778Y32012778D01*
G37*
X24002778Y32012778D02*
X23367778Y32012778D01*
X23367778Y31377778D01*
X24002778Y31377778D01*
X24002778Y32012778D01*
G36*
X18922778Y30107778D02*
X18287778Y30107778D01*
X18287778Y29472778D01*
X18922778Y29472778D01*
X18922778Y30107778D01*
X18922778Y30107778D01*
G37*
X18922778Y30107778D02*
X18287778Y30107778D01*
X18287778Y29472778D01*
X18922778Y29472778D01*
X18922778Y30107778D01*
G36*
X27812778Y28837778D02*
X27177778Y28837778D01*
X27177778Y27567778D01*
X27812778Y27567778D01*
X27812778Y28837778D01*
X27812778Y28837778D01*
G37*
X27812778Y28837778D02*
X27177778Y28837778D01*
X27177778Y27567778D01*
X27812778Y27567778D01*
X27812778Y28837778D01*
G36*
X29082778Y28837778D02*
X28447778Y28837778D01*
X28447778Y28202778D01*
X29082778Y28202778D01*
X29082778Y28837778D01*
X29082778Y28837778D01*
G37*
X29082778Y28837778D02*
X28447778Y28837778D01*
X28447778Y28202778D01*
X29082778Y28202778D01*
X29082778Y28837778D01*
G36*
X24637778Y27567778D02*
X24002778Y27567778D01*
X24002778Y26932778D01*
X24637778Y26932778D01*
X24637778Y27567778D01*
X24637778Y27567778D01*
G37*
X24637778Y27567778D02*
X24002778Y27567778D01*
X24002778Y26932778D01*
X24637778Y26932778D01*
X24637778Y27567778D01*
G36*
X18922778Y25027778D02*
X18287778Y25027778D01*
X18287778Y24392778D01*
X18922778Y24392778D01*
X18922778Y25027778D01*
X18922778Y25027778D01*
G37*
X18922778Y25027778D02*
X18287778Y25027778D01*
X18287778Y24392778D01*
X18922778Y24392778D01*
X18922778Y25027778D01*
G36*
X18922778Y23757778D02*
X18287778Y23757778D01*
X18287778Y23122778D01*
X18922778Y23122778D01*
X18922778Y23757778D01*
X18922778Y23757778D01*
G37*
X18922778Y23757778D02*
X18287778Y23757778D01*
X18287778Y23122778D01*
X18922778Y23122778D01*
X18922778Y23757778D01*
G36*
X18287778Y23757778D02*
X18287778Y24392778D01*
X17017778Y24392778D01*
X17017778Y25027778D01*
X16382778Y25027778D01*
X16382778Y24392778D01*
X15747778Y24392778D01*
X15747778Y23757778D01*
X16382778Y23757778D01*
X16382778Y24392778D01*
X17017778Y24392778D01*
X17017778Y23757778D01*
X16382778Y23757778D01*
X16382778Y23122778D01*
X17017778Y23122778D01*
X17017778Y23757778D01*
X18287778Y23757778D01*
X18287778Y23757778D01*
G37*
X18287778Y23757778D02*
X18287778Y24392778D01*
X17017778Y24392778D01*
X17017778Y25027778D01*
X16382778Y25027778D01*
X16382778Y24392778D01*
X15747778Y24392778D01*
X15747778Y23757778D01*
X16382778Y23757778D01*
X16382778Y24392778D01*
X17017778Y24392778D01*
X17017778Y23757778D01*
X16382778Y23757778D01*
X16382778Y23122778D01*
X17017778Y23122778D01*
X17017778Y23757778D01*
X18287778Y23757778D01*
G36*
X19557778Y22487778D02*
X17652778Y22487778D01*
X17652778Y21217778D01*
X18287778Y21217778D01*
X18287778Y21852778D01*
X18922778Y21852778D01*
X18922778Y21217778D01*
X18287778Y21217778D01*
X17652778Y21217778D01*
X17652778Y20582778D01*
X19557778Y20582778D01*
X19557778Y22487778D01*
X19557778Y22487778D01*
G37*
X19557778Y22487778D02*
X17652778Y22487778D01*
X17652778Y21217778D01*
X18287778Y21217778D01*
X18287778Y21852778D01*
X18922778Y21852778D01*
X18922778Y21217778D01*
X18287778Y21217778D01*
X17652778Y21217778D01*
X17652778Y20582778D01*
X19557778Y20582778D01*
X19557778Y22487778D01*
G36*
X39877778Y22487778D02*
X39242778Y22487778D01*
X39242778Y21852778D01*
X39877778Y21852778D01*
X39877778Y22487778D01*
X39877778Y22487778D01*
G37*
X39877778Y22487778D02*
X39242778Y22487778D01*
X39242778Y21852778D01*
X39877778Y21852778D01*
X39877778Y22487778D01*
G36*
X42417778Y22487778D02*
X40512778Y22487778D01*
X40512778Y21217778D01*
X41147778Y21217778D01*
X41147778Y21852778D01*
X41782778Y21852778D01*
X41782778Y21217778D01*
X41147778Y21217778D01*
X40512778Y21217778D01*
X40512778Y20582778D01*
X42417778Y20582778D01*
X42417778Y22487778D01*
X42417778Y22487778D01*
G37*
X42417778Y22487778D02*
X40512778Y22487778D01*
X40512778Y21217778D01*
X41147778Y21217778D01*
X41147778Y21852778D01*
X41782778Y21852778D01*
X41782778Y21217778D01*
X41147778Y21217778D01*
X40512778Y21217778D01*
X40512778Y20582778D01*
X42417778Y20582778D01*
X42417778Y22487778D01*
G36*
X44322778Y22487778D02*
X43687778Y22487778D01*
X43687778Y21852778D01*
X44322778Y21852778D01*
X44322778Y22487778D01*
X44322778Y22487778D01*
G37*
X44322778Y22487778D02*
X43687778Y22487778D01*
X43687778Y21852778D01*
X44322778Y21852778D01*
X44322778Y22487778D01*
G36*
X17017778Y21852778D02*
X16382778Y21852778D01*
X16382778Y21217778D01*
X17017778Y21217778D01*
X17017778Y21852778D01*
X17017778Y21852778D01*
G37*
X17017778Y21852778D02*
X16382778Y21852778D01*
X16382778Y21217778D01*
X17017778Y21217778D01*
X17017778Y21852778D01*
G36*
X16382778Y21217778D02*
X15747778Y21217778D01*
X15747778Y20582778D01*
X16382778Y20582778D01*
X16382778Y21217778D01*
X16382778Y21217778D01*
G37*
X16382778Y21217778D02*
X15747778Y21217778D01*
X15747778Y20582778D01*
X16382778Y20582778D01*
X16382778Y21217778D01*
G36*
X38607778Y14232778D02*
X37972778Y14232778D01*
X37972778Y13597778D01*
X38607778Y13597778D01*
X38607778Y14232778D01*
X38607778Y14232778D01*
G37*
X38607778Y14232778D02*
X37972778Y14232778D01*
X37972778Y13597778D01*
X38607778Y13597778D01*
X38607778Y14232778D01*
G36*
X44957778Y14232778D02*
X44322778Y14232778D01*
X44322778Y13597778D01*
X44957778Y13597778D01*
X44957778Y14232778D01*
X44957778Y14232778D01*
G37*
X44957778Y14232778D02*
X44322778Y14232778D01*
X44322778Y13597778D01*
X44957778Y13597778D01*
X44957778Y14232778D01*
G36*
X31622778Y12327778D02*
X30987778Y12327778D01*
X30987778Y12962778D01*
X30352778Y12962778D01*
X30352778Y11692778D01*
X31622778Y11692778D01*
X31622778Y12327778D01*
X31622778Y12327778D01*
G37*
X31622778Y12327778D02*
X30987778Y12327778D01*
X30987778Y12962778D01*
X30352778Y12962778D01*
X30352778Y11692778D01*
X31622778Y11692778D01*
X31622778Y12327778D01*
G36*
X32892778Y12962778D02*
X32257778Y12962778D01*
X32257778Y12327778D01*
X32892778Y12327778D01*
X32892778Y12962778D01*
X32892778Y12962778D01*
G37*
X32892778Y12962778D02*
X32257778Y12962778D01*
X32257778Y12327778D01*
X32892778Y12327778D01*
X32892778Y12962778D01*
G36*
X30987778Y11057778D02*
X29082778Y11057778D01*
X29082778Y9787778D01*
X29717778Y9787778D01*
X29717778Y10422778D01*
X30352778Y10422778D01*
X30352778Y9787778D01*
X29717778Y9787778D01*
X29082778Y9787778D01*
X29082778Y9152778D01*
X30987778Y9152778D01*
X30987778Y11057778D01*
X30987778Y11057778D01*
G37*
X30987778Y11057778D02*
X29082778Y11057778D01*
X29082778Y9787778D01*
X29717778Y9787778D01*
X29717778Y10422778D01*
X30352778Y10422778D01*
X30352778Y9787778D01*
X29717778Y9787778D01*
X29082778Y9787778D01*
X29082778Y9152778D01*
X30987778Y9152778D01*
X30987778Y11057778D01*
G36*
X32257778Y10422778D02*
X31622778Y10422778D01*
X31622778Y9787778D01*
X32257778Y9787778D01*
X32257778Y10422778D01*
X32257778Y10422778D01*
G37*
X32257778Y10422778D02*
X31622778Y10422778D01*
X31622778Y9787778D01*
X32257778Y9787778D01*
X32257778Y10422778D01*
G36*
X37972778Y9152778D02*
X37337778Y9152778D01*
X37337778Y8517778D01*
X37972778Y8517778D01*
X37972778Y9152778D01*
X37972778Y9152778D01*
G37*
X37972778Y9152778D02*
X37337778Y9152778D01*
X37337778Y8517778D01*
X37972778Y8517778D01*
X37972778Y9152778D01*
G36*
X24002778Y8517778D02*
X23367778Y8517778D01*
X23367778Y7882778D01*
X24002778Y7882778D01*
X24002778Y8517778D01*
X24002778Y8517778D01*
G37*
X24002778Y8517778D02*
X23367778Y8517778D01*
X23367778Y7882778D01*
X24002778Y7882778D01*
X24002778Y8517778D01*
G36*
X24637778Y7882778D02*
X24002778Y7882778D01*
X24002778Y7247778D01*
X24637778Y7247778D01*
X24637778Y7882778D01*
X24637778Y7882778D01*
G37*
X24637778Y7882778D02*
X24002778Y7882778D01*
X24002778Y7247778D01*
X24637778Y7247778D01*
X24637778Y7882778D01*
G36*
X21462778Y7882778D02*
X20827778Y7882778D01*
X20827778Y7247778D01*
X21462778Y7247778D01*
X21462778Y7882778D01*
X21462778Y7882778D01*
G37*
X21462778Y7882778D02*
X20827778Y7882778D01*
X20827778Y7247778D01*
X21462778Y7247778D01*
X21462778Y7882778D01*
G36*
X31622778Y7882778D02*
X30987778Y7882778D01*
X30987778Y7247778D01*
X31622778Y7247778D01*
X31622778Y7882778D01*
X31622778Y7882778D01*
G37*
X31622778Y7882778D02*
X30987778Y7882778D01*
X30987778Y7247778D01*
X31622778Y7247778D01*
X31622778Y7882778D01*
G36*
X18287778Y9787778D02*
X15112778Y9787778D01*
X15112778Y7247778D01*
X15747778Y7247778D01*
X15747778Y9152778D01*
X17652778Y9152778D01*
X17652778Y7247778D01*
X15747778Y7247778D01*
X15112778Y7247778D01*
X15112778Y6612778D01*
X18287778Y6612778D01*
X18287778Y9787778D01*
X18287778Y9787778D01*
G37*
X18287778Y9787778D02*
X15112778Y9787778D01*
X15112778Y7247778D01*
X15747778Y7247778D01*
X15747778Y9152778D01*
X17652778Y9152778D01*
X17652778Y7247778D01*
X15747778Y7247778D01*
X15112778Y7247778D01*
X15112778Y6612778D01*
X18287778Y6612778D01*
X18287778Y9787778D01*
G36*
X44957778Y9787778D02*
X41782778Y9787778D01*
X41782778Y7247778D01*
X42417778Y7247778D01*
X42417778Y9152778D01*
X44322778Y9152778D01*
X44322778Y7247778D01*
X42417778Y7247778D01*
X41782778Y7247778D01*
X41782778Y6612778D01*
X44957778Y6612778D01*
X44957778Y9787778D01*
X44957778Y9787778D01*
G37*
X44957778Y9787778D02*
X41782778Y9787778D01*
X41782778Y7247778D01*
X42417778Y7247778D01*
X42417778Y9152778D01*
X44322778Y9152778D01*
X44322778Y7247778D01*
X42417778Y7247778D01*
X41782778Y7247778D01*
X41782778Y6612778D01*
X44957778Y6612778D01*
X44957778Y9787778D01*
G36*
X38607778Y34552778D02*
X37337778Y34552778D01*
X37337778Y33917778D01*
X38607778Y33917778D01*
X38607778Y34552778D01*
X38607778Y34552778D01*
G37*
X38607778Y34552778D02*
X37337778Y34552778D01*
X37337778Y33917778D01*
X38607778Y33917778D01*
X38607778Y34552778D01*
G36*
X34797778Y30742778D02*
X34162778Y30742778D01*
X34162778Y29472778D01*
X34797778Y29472778D01*
X34797778Y30742778D01*
X34797778Y30742778D01*
G37*
X34797778Y30742778D02*
X34162778Y30742778D01*
X34162778Y29472778D01*
X34797778Y29472778D01*
X34797778Y30742778D01*
G36*
X35432778Y29472778D02*
X34797778Y29472778D01*
X34797778Y28837778D01*
X35432778Y28837778D01*
X35432778Y29472778D01*
X35432778Y29472778D01*
G37*
X35432778Y29472778D02*
X34797778Y29472778D01*
X34797778Y28837778D01*
X35432778Y28837778D01*
X35432778Y29472778D01*
G36*
X32892778Y22487778D02*
X34162778Y22487778D01*
X34162778Y24392778D01*
X34797778Y24392778D01*
X34797778Y25027778D01*
X34162778Y25027778D01*
X34162778Y25662778D01*
X34797778Y25662778D01*
X34797778Y27567778D01*
X33527778Y27567778D01*
X33527778Y28202778D01*
X34162778Y28202778D01*
X34162778Y29472778D01*
X33527778Y29472778D01*
X33527778Y28837778D01*
X32892778Y28837778D01*
X32892778Y28202778D01*
X31622778Y28202778D01*
X31622778Y27567778D01*
X32892778Y27567778D01*
X32892778Y26932778D01*
X31622778Y26932778D01*
X31622778Y26297778D01*
X32892778Y26297778D01*
X32892778Y26932778D01*
X33527778Y26932778D01*
X33527778Y26297778D01*
X32892778Y26297778D01*
X31622778Y26297778D01*
X31622778Y25027778D01*
X32892778Y25027778D01*
X32892778Y25662778D01*
X33527778Y25662778D01*
X33527778Y23757778D01*
X32892778Y23757778D01*
X32892778Y22487778D01*
X32892778Y22487778D01*
G37*
X32892778Y22487778D02*
X34162778Y22487778D01*
X34162778Y24392778D01*
X34797778Y24392778D01*
X34797778Y25027778D01*
X34162778Y25027778D01*
X34162778Y25662778D01*
X34797778Y25662778D01*
X34797778Y27567778D01*
X33527778Y27567778D01*
X33527778Y28202778D01*
X34162778Y28202778D01*
X34162778Y29472778D01*
X33527778Y29472778D01*
X33527778Y28837778D01*
X32892778Y28837778D01*
X32892778Y28202778D01*
X31622778Y28202778D01*
X31622778Y27567778D01*
X32892778Y27567778D01*
X32892778Y26932778D01*
X31622778Y26932778D01*
X31622778Y26297778D01*
X32892778Y26297778D01*
X32892778Y26932778D01*
X33527778Y26932778D01*
X33527778Y26297778D01*
X32892778Y26297778D01*
X31622778Y26297778D01*
X31622778Y25027778D01*
X32892778Y25027778D01*
X32892778Y25662778D01*
X33527778Y25662778D01*
X33527778Y23757778D01*
X32892778Y23757778D01*
X32892778Y22487778D01*
G36*
X35432778Y28202778D02*
X34797778Y28202778D01*
X34797778Y27567778D01*
X35432778Y27567778D01*
X35432778Y28202778D01*
X35432778Y28202778D01*
G37*
X35432778Y28202778D02*
X34797778Y28202778D01*
X34797778Y27567778D01*
X35432778Y27567778D01*
X35432778Y28202778D01*
G36*
X30987778Y24392778D02*
X31622778Y24392778D01*
X31622778Y25027778D01*
X30352778Y25027778D01*
X30352778Y23757778D01*
X30987778Y23757778D01*
X30987778Y24392778D01*
X30987778Y24392778D01*
G37*
X30987778Y24392778D02*
X31622778Y24392778D01*
X31622778Y25027778D01*
X30352778Y25027778D01*
X30352778Y23757778D01*
X30987778Y23757778D01*
X30987778Y24392778D01*
G36*
X31622778Y23757778D02*
X30987778Y23757778D01*
X30987778Y23122778D01*
X31622778Y23122778D01*
X31622778Y23757778D01*
X31622778Y23757778D01*
G37*
X31622778Y23757778D02*
X30987778Y23757778D01*
X30987778Y23122778D01*
X31622778Y23122778D01*
X31622778Y23757778D01*
G36*
X30352778Y23757778D02*
X29717778Y23757778D01*
X29717778Y23122778D01*
X30352778Y23122778D01*
X30352778Y23757778D01*
X30352778Y23757778D01*
G37*
X30352778Y23757778D02*
X29717778Y23757778D01*
X29717778Y23122778D01*
X30352778Y23122778D01*
X30352778Y23757778D01*
G36*
X32892778Y24392778D02*
X32257778Y24392778D01*
X32257778Y23757778D01*
X32892778Y23757778D01*
X32892778Y24392778D01*
X32892778Y24392778D01*
G37*
X32892778Y24392778D02*
X32257778Y24392778D01*
X32257778Y23757778D01*
X32892778Y23757778D01*
X32892778Y24392778D01*
G36*
X32892778Y22487778D02*
X32257778Y22487778D01*
X32257778Y21217778D01*
X32892778Y21217778D01*
X32892778Y22487778D01*
X32892778Y22487778D01*
G37*
X32892778Y22487778D02*
X32257778Y22487778D01*
X32257778Y21217778D01*
X32892778Y21217778D01*
X32892778Y22487778D01*
G36*
X32892778Y20582778D02*
X33527778Y20582778D01*
X33527778Y21217778D01*
X34162778Y21217778D01*
X34162778Y20582778D01*
X33527778Y20582778D01*
X33527778Y19947778D01*
X32892778Y19947778D01*
X32892778Y19312778D01*
X34162778Y19312778D01*
X34162778Y20582778D01*
X36067778Y20582778D01*
X36067778Y21852778D01*
X33527778Y21852778D01*
X33527778Y21217778D01*
X32892778Y21217778D01*
X32892778Y20582778D01*
X32892778Y20582778D01*
G37*
X32892778Y20582778D02*
X33527778Y20582778D01*
X33527778Y21217778D01*
X34162778Y21217778D01*
X34162778Y20582778D01*
X33527778Y20582778D01*
X33527778Y19947778D01*
X32892778Y19947778D01*
X32892778Y19312778D01*
X34162778Y19312778D01*
X34162778Y20582778D01*
X36067778Y20582778D01*
X36067778Y21852778D01*
X33527778Y21852778D01*
X33527778Y21217778D01*
X32892778Y21217778D01*
X32892778Y20582778D01*
G36*
X39877778Y26932778D02*
X39242778Y26932778D01*
X39242778Y26297778D01*
X39877778Y26297778D01*
X39877778Y26932778D01*
X39877778Y26932778D01*
G37*
X39877778Y26932778D02*
X39242778Y26932778D01*
X39242778Y26297778D01*
X39877778Y26297778D01*
X39877778Y26932778D01*
G36*
X39242778Y26297778D02*
X38607778Y26297778D01*
X38607778Y25662778D01*
X39242778Y25662778D01*
X39242778Y26297778D01*
X39242778Y26297778D01*
G37*
X39242778Y26297778D02*
X38607778Y26297778D01*
X38607778Y25662778D01*
X39242778Y25662778D01*
X39242778Y26297778D01*
G36*
X39877778Y25662778D02*
X39242778Y25662778D01*
X39242778Y25027778D01*
X39877778Y25027778D01*
X39877778Y25662778D01*
X39877778Y25662778D01*
G37*
X39877778Y25662778D02*
X39242778Y25662778D01*
X39242778Y25027778D01*
X39877778Y25027778D01*
X39877778Y25662778D01*
G36*
X36702778Y26297778D02*
X36067778Y26297778D01*
X36067778Y25662778D01*
X36702778Y25662778D01*
X36702778Y26297778D01*
X36702778Y26297778D01*
G37*
X36702778Y26297778D02*
X36067778Y26297778D01*
X36067778Y25662778D01*
X36702778Y25662778D01*
X36702778Y26297778D01*
G36*
X37972778Y26297778D02*
X37337778Y26297778D01*
X37337778Y25662778D01*
X37972778Y25662778D01*
X37972778Y26297778D01*
X37972778Y26297778D01*
G37*
X37972778Y26297778D02*
X37337778Y26297778D01*
X37337778Y25662778D01*
X37972778Y25662778D01*
X37972778Y26297778D01*
G36*
X35432778Y23122778D02*
X34797778Y23122778D01*
X34797778Y22487778D01*
X35432778Y22487778D01*
X35432778Y23122778D01*
X35432778Y23122778D01*
G37*
X35432778Y23122778D02*
X34797778Y23122778D01*
X34797778Y22487778D01*
X35432778Y22487778D01*
X35432778Y23122778D01*
G36*
X30987778Y22487778D02*
X29082778Y22487778D01*
X29082778Y21217778D01*
X29717778Y21217778D01*
X29717778Y21852778D01*
X30352778Y21852778D01*
X30352778Y21217778D01*
X29717778Y21217778D01*
X29082778Y21217778D01*
X29082778Y20582778D01*
X30987778Y20582778D01*
X30987778Y22487778D01*
X30987778Y22487778D01*
G37*
X30987778Y22487778D02*
X29082778Y22487778D01*
X29082778Y21217778D01*
X29717778Y21217778D01*
X29717778Y21852778D01*
X30352778Y21852778D01*
X30352778Y21217778D01*
X29717778Y21217778D01*
X29082778Y21217778D01*
X29082778Y20582778D01*
X30987778Y20582778D01*
X30987778Y22487778D01*
G36*
X28447778Y20582778D02*
X27812778Y20582778D01*
X27812778Y19947778D01*
X28447778Y19947778D01*
X28447778Y20582778D01*
X28447778Y20582778D01*
G37*
X28447778Y20582778D02*
X27812778Y20582778D01*
X27812778Y19947778D01*
X28447778Y19947778D01*
X28447778Y20582778D01*
G36*
X29082778Y18042778D02*
X28447778Y18042778D01*
X28447778Y19312778D01*
X27812778Y19312778D01*
X27812778Y17407778D01*
X29082778Y17407778D01*
X29082778Y18042778D01*
X29082778Y18042778D01*
G37*
X29082778Y18042778D02*
X28447778Y18042778D01*
X28447778Y19312778D01*
X27812778Y19312778D01*
X27812778Y17407778D01*
X29082778Y17407778D01*
X29082778Y18042778D01*
G36*
X29717778Y18677778D02*
X29082778Y18677778D01*
X29082778Y18042778D01*
X29717778Y18042778D01*
X29717778Y18677778D01*
X29717778Y18677778D01*
G37*
X29717778Y18677778D02*
X29082778Y18677778D01*
X29082778Y18042778D01*
X29717778Y18042778D01*
X29717778Y18677778D01*
G36*
X31622778Y17407778D02*
X30987778Y17407778D01*
X30987778Y16772778D01*
X31622778Y16772778D01*
X31622778Y17407778D01*
X31622778Y17407778D01*
G37*
X31622778Y17407778D02*
X30987778Y17407778D01*
X30987778Y16772778D01*
X31622778Y16772778D01*
X31622778Y17407778D01*
G36*
X29717778Y19947778D02*
X29082778Y19947778D01*
X29082778Y19312778D01*
X29717778Y19312778D01*
X29717778Y19947778D01*
X29717778Y19947778D01*
G37*
X29717778Y19947778D02*
X29082778Y19947778D01*
X29082778Y19312778D01*
X29717778Y19312778D01*
X29717778Y19947778D01*
G36*
X29717778Y18677778D02*
X30352778Y18677778D01*
X30352778Y19312778D01*
X30987778Y19312778D01*
X30987778Y18677778D01*
X30352778Y18677778D01*
X30352778Y18042778D01*
X31622778Y18042778D01*
X31622778Y18677778D01*
X32257778Y18677778D01*
X32257778Y18042778D01*
X31622778Y18042778D01*
X31622778Y17407778D01*
X32257778Y17407778D01*
X32257778Y18042778D01*
X32892778Y18042778D01*
X32892778Y18677778D01*
X32257778Y18677778D01*
X32257778Y20582778D01*
X31622778Y20582778D01*
X31622778Y19947778D01*
X30352778Y19947778D01*
X30352778Y19312778D01*
X29717778Y19312778D01*
X29717778Y18677778D01*
X29717778Y18677778D01*
G37*
X29717778Y18677778D02*
X30352778Y18677778D01*
X30352778Y19312778D01*
X30987778Y19312778D01*
X30987778Y18677778D01*
X30352778Y18677778D01*
X30352778Y18042778D01*
X31622778Y18042778D01*
X31622778Y18677778D01*
X32257778Y18677778D01*
X32257778Y18042778D01*
X31622778Y18042778D01*
X31622778Y17407778D01*
X32257778Y17407778D01*
X32257778Y18042778D01*
X32892778Y18042778D01*
X32892778Y18677778D01*
X32257778Y18677778D01*
X32257778Y20582778D01*
X31622778Y20582778D01*
X31622778Y19947778D01*
X30352778Y19947778D01*
X30352778Y19312778D01*
X29717778Y19312778D01*
X29717778Y18677778D01*
G36*
X36702778Y19947778D02*
X35432778Y19947778D01*
X35432778Y19312778D01*
X36702778Y19312778D01*
X36702778Y19947778D01*
X36702778Y19947778D01*
G37*
X36702778Y19947778D02*
X35432778Y19947778D01*
X35432778Y19312778D01*
X36702778Y19312778D01*
X36702778Y19947778D01*
G36*
X39242778Y18677778D02*
X38607778Y18677778D01*
X38607778Y18042778D01*
X39242778Y18042778D01*
X39242778Y18677778D01*
X39242778Y18677778D01*
G37*
X39242778Y18677778D02*
X38607778Y18677778D01*
X38607778Y18042778D01*
X39242778Y18042778D01*
X39242778Y18677778D01*
G36*
X39877778Y18042778D02*
X39242778Y18042778D01*
X39242778Y17407778D01*
X39877778Y17407778D01*
X39877778Y18042778D01*
X39877778Y18042778D01*
G37*
X39877778Y18042778D02*
X39242778Y18042778D01*
X39242778Y17407778D01*
X39877778Y17407778D01*
X39877778Y18042778D01*
G36*
X41147778Y18042778D02*
X40512778Y18042778D01*
X40512778Y17407778D01*
X41147778Y17407778D01*
X41147778Y18042778D01*
X41147778Y18042778D01*
G37*
X41147778Y18042778D02*
X40512778Y18042778D01*
X40512778Y17407778D01*
X41147778Y17407778D01*
X41147778Y18042778D01*
G36*
X29082778Y16137778D02*
X28447778Y16137778D01*
X28447778Y15502778D01*
X29082778Y15502778D01*
X29082778Y16137778D01*
X29082778Y16137778D01*
G37*
X29082778Y16137778D02*
X28447778Y16137778D01*
X28447778Y15502778D01*
X29082778Y15502778D01*
X29082778Y16137778D01*
G36*
X30987778Y16137778D02*
X30352778Y16137778D01*
X30352778Y15502778D01*
X30987778Y15502778D01*
X30987778Y16137778D01*
X30987778Y16137778D01*
G37*
X30987778Y16137778D02*
X30352778Y16137778D01*
X30352778Y15502778D01*
X30987778Y15502778D01*
X30987778Y16137778D01*
G36*
X30352778Y15502778D02*
X29717778Y15502778D01*
X29717778Y14867778D01*
X30352778Y14867778D01*
X30352778Y15502778D01*
X30352778Y15502778D01*
G37*
X30352778Y15502778D02*
X29717778Y15502778D01*
X29717778Y14867778D01*
X30352778Y14867778D01*
X30352778Y15502778D01*
G36*
X34797778Y14867778D02*
X34162778Y14867778D01*
X34162778Y14232778D01*
X34797778Y14232778D01*
X34797778Y14867778D01*
X34797778Y14867778D01*
G37*
X34797778Y14867778D02*
X34162778Y14867778D01*
X34162778Y14232778D01*
X34797778Y14232778D01*
X34797778Y14867778D01*
G36*
X25907778Y18042778D02*
X25272778Y18042778D01*
X25272778Y17407778D01*
X25907778Y17407778D01*
X25907778Y18042778D01*
X25907778Y18042778D01*
G37*
X25907778Y18042778D02*
X25272778Y18042778D01*
X25272778Y17407778D01*
X25907778Y17407778D01*
X25907778Y18042778D01*
G36*
X20192778Y15502778D02*
X19557778Y15502778D01*
X19557778Y14867778D01*
X20192778Y14867778D01*
X20192778Y15502778D01*
X20192778Y15502778D01*
G37*
X20192778Y15502778D02*
X19557778Y15502778D01*
X19557778Y14867778D01*
X20192778Y14867778D01*
X20192778Y15502778D01*
G36*
X22097778Y28837778D02*
X21462778Y28837778D01*
X21462778Y28202778D01*
X22097778Y28202778D01*
X22097778Y28837778D01*
X22097778Y28837778D01*
G37*
X22097778Y28837778D02*
X21462778Y28837778D01*
X21462778Y28202778D01*
X22097778Y28202778D01*
X22097778Y28837778D01*
M02*
