G04 #@! TF.FileFunction,Copper,L1,Top,Mixed*
%FSLAX46Y46*%
G04 Gerber Fmt 4.6, Leading zero omitted, Abs format (unit mm)*
G04 Created by KiCad (PCBNEW 4.0.2-stable) date 2016/09/19 18:56:50*
%MOMM*%
G01*
G04 APERTURE LIST*
%ADD10C,0.100000*%
%ADD11R,0.450000X1.450000*%
%ADD12R,1.350000X0.400000*%
%ADD13R,1.900000X1.900000*%
%ADD14O,1.600000X0.900000*%
%ADD15R,1.400000X1.600000*%
%ADD16R,5.600700X2.100580*%
%ADD17R,1.201420X1.249680*%
%ADD18R,1.060000X0.650000*%
%ADD19C,1.000000*%
%ADD20C,1.800000*%
%ADD21C,3.500000*%
%ADD22R,0.800100X1.000760*%
%ADD23R,1.249680X1.201420*%
%ADD24R,1.000760X0.800100*%
%ADD25R,1.000000X1.000000*%
%ADD26R,0.800100X0.800100*%
%ADD27R,2.000000X2.000000*%
%ADD28R,5.000000X5.000000*%
%ADD29C,0.500000*%
%ADD30R,2.032000X3.657600*%
%ADD31R,2.032000X1.016000*%
%ADD32R,0.599440X0.599440*%
%ADD33R,0.450000X1.500000*%
%ADD34R,0.200000X0.700000*%
%ADD35R,0.800000X0.800100*%
%ADD36R,0.480000X0.400000*%
%ADD37R,0.600000X0.600000*%
%ADD38R,0.600000X0.400000*%
%ADD39R,0.600000X1.300000*%
%ADD40R,1.450000X0.450000*%
%ADD41R,1.500000X1.000000*%
%ADD42R,1.700000X0.650000*%
%ADD43C,1.000760*%
%ADD44C,0.330000*%
%ADD45C,0.600000*%
%ADD46C,0.900000*%
%ADD47C,0.200000*%
%ADD48C,0.400000*%
%ADD49C,0.150000*%
%ADD50C,0.500000*%
%ADD51C,0.300000*%
%ADD52C,0.800000*%
G04 APERTURE END LIST*
D10*
D11*
X39350000Y25850000D03*
X38700000Y25850000D03*
X38050000Y25850000D03*
X37400000Y25850000D03*
X36750000Y25850000D03*
X36100000Y25850000D03*
X35450000Y25850000D03*
X35450000Y19950000D03*
X36100000Y19950000D03*
X36750000Y19950000D03*
X37400000Y19950000D03*
X38050000Y19950000D03*
X38700000Y19950000D03*
X39350000Y19950000D03*
D12*
X5100000Y22800000D03*
X5100000Y22150000D03*
X5100000Y21500000D03*
X5100000Y20850000D03*
X5100000Y20200000D03*
D13*
X2450000Y22700000D03*
X2450000Y20300000D03*
D14*
X2450000Y24800000D03*
D15*
X4900000Y24700000D03*
X4900000Y18300000D03*
D14*
X2450000Y18200000D03*
D16*
X3551140Y32400000D03*
X13248860Y32400000D03*
D17*
X7699820Y15400000D03*
X5500180Y15400000D03*
X53699820Y21500000D03*
X51500180Y21500000D03*
D18*
X50600000Y3350000D03*
X50600000Y4300000D03*
X50600000Y5250000D03*
X48400000Y5250000D03*
X48400000Y3350000D03*
X48400000Y4300000D03*
X27000000Y7150000D03*
X27000000Y6200000D03*
X27000000Y5250000D03*
X29200000Y5250000D03*
X29200000Y7150000D03*
X29200000Y6200000D03*
D19*
X8200000Y41000000D03*
X62000000Y41000000D03*
X62000000Y2000000D03*
D20*
X56700000Y21500000D03*
X56700000Y24040000D03*
D21*
X61780000Y16420000D03*
X61780000Y26580000D03*
D17*
X12699820Y4200000D03*
X10500180Y4200000D03*
D22*
X22500000Y13500100D03*
X22500000Y11899900D03*
D23*
X11500000Y10599820D03*
X11500000Y8400180D03*
D22*
X46500000Y4000100D03*
X46500000Y2399900D03*
D24*
X48699900Y1400000D03*
X50300100Y1400000D03*
D23*
X53700000Y3999820D03*
X53700000Y1800180D03*
D17*
X53799820Y7000000D03*
X51600180Y7000000D03*
D24*
X3200100Y27400000D03*
X1599900Y27400000D03*
X12800100Y18000000D03*
X11199900Y18000000D03*
X13000100Y27200000D03*
X11399900Y27200000D03*
D17*
X10500180Y1500000D03*
X12699820Y1500000D03*
D23*
X57000000Y1800180D03*
X57000000Y3999820D03*
D25*
X13565000Y41500000D03*
D19*
X14835000Y41500000D03*
D25*
X24490000Y1600000D03*
D19*
X23140000Y1600000D03*
X21870000Y1600000D03*
X20600000Y1600000D03*
X19330000Y1600000D03*
X18060000Y1600000D03*
X16790000Y1600000D03*
D18*
X9300000Y22750000D03*
X9300000Y21800000D03*
X9300000Y20850000D03*
X11500000Y20850000D03*
X11500000Y22750000D03*
X11500000Y21800000D03*
D26*
X39050000Y4600760D03*
X37150000Y4600760D03*
X38100000Y2601780D03*
X40550000Y8799240D03*
X42450000Y8799240D03*
X41500000Y10798220D03*
D27*
X31000000Y41500000D03*
D28*
X56000000Y40000000D03*
D29*
X54500000Y41500000D03*
X57500000Y41500000D03*
X54500000Y38500000D03*
X57500000Y38500000D03*
X56000000Y40000000D03*
D30*
X1898000Y10600000D03*
D31*
X8502000Y10600000D03*
X8502000Y12886000D03*
X8502000Y8314000D03*
D32*
X13551180Y13000000D03*
X12448820Y13000000D03*
X28448820Y24300000D03*
X29551180Y24300000D03*
X16900000Y12648820D03*
X16900000Y13751180D03*
X54500000Y24948820D03*
X54500000Y26051180D03*
X13251180Y19700000D03*
X12148820Y19700000D03*
X35051180Y16400000D03*
X33948820Y16400000D03*
X43600000Y41451180D03*
X43600000Y40348820D03*
X37500000Y12948820D03*
X37500000Y14051180D03*
X39951180Y16800000D03*
X38848820Y16800000D03*
X44900000Y3751180D03*
X44900000Y2648820D03*
X20300000Y13751180D03*
X20300000Y12648820D03*
X15400000Y13751180D03*
X15400000Y12648820D03*
X51551180Y29200000D03*
X50448820Y29200000D03*
X45200000Y20351180D03*
X45200000Y19248820D03*
X49000000Y27848820D03*
X49000000Y28951180D03*
X8251180Y17400000D03*
X7148820Y17400000D03*
X13700000Y9951180D03*
X13700000Y8848820D03*
X47951180Y20600000D03*
X46848820Y20600000D03*
X18600000Y13751180D03*
X18600000Y12648820D03*
X24300000Y14051180D03*
X24300000Y12948820D03*
X38848820Y29300000D03*
X39951180Y29300000D03*
X37500000Y27948820D03*
X37500000Y29051180D03*
X37500000Y16448820D03*
X37500000Y17551180D03*
X37500000Y30448820D03*
X37500000Y31551180D03*
X34800000Y30351180D03*
X34800000Y29248820D03*
X42548820Y32700000D03*
X43651180Y32700000D03*
X26551180Y41700000D03*
X25448820Y41700000D03*
X33300000Y31348820D03*
X33300000Y32451180D03*
X17000000Y29048820D03*
X17000000Y30151180D03*
X8551180Y36200000D03*
X7448820Y36200000D03*
X7800000Y25748820D03*
X7800000Y26851180D03*
X10448820Y36200000D03*
X11551180Y36200000D03*
X18548820Y29400000D03*
X19651180Y29400000D03*
X35351180Y3200000D03*
X34248820Y3200000D03*
X37851180Y6900000D03*
X36748820Y6900000D03*
X40448820Y7200000D03*
X41551180Y7200000D03*
X13251180Y25500000D03*
X12148820Y25500000D03*
X13251180Y23900000D03*
X12148820Y23900000D03*
X49848820Y10800000D03*
X50951180Y10800000D03*
X50448820Y27600000D03*
X51551180Y27600000D03*
X47400000Y28951180D03*
X47400000Y27848820D03*
X47951180Y19200000D03*
X46848820Y19200000D03*
X43600000Y20351180D03*
X43600000Y19248820D03*
X38848820Y30500000D03*
X39951180Y30500000D03*
X38848820Y15600000D03*
X39951180Y15600000D03*
X47000000Y31848820D03*
X47000000Y32951180D03*
X38848820Y18000000D03*
X39951180Y18000000D03*
X39951180Y28100000D03*
X38848820Y28100000D03*
X14751180Y39500000D03*
X13648820Y39500000D03*
X27048820Y13900000D03*
X28151180Y13900000D03*
X33300000Y30351180D03*
X33300000Y29248820D03*
X42548820Y33900000D03*
X43651180Y33900000D03*
X42200000Y41451180D03*
X42200000Y40348820D03*
X34800000Y31348820D03*
X34800000Y32451180D03*
X33948820Y15200000D03*
X35051180Y15200000D03*
X47300000Y36548820D03*
X47300000Y37651180D03*
X31000000Y35251180D03*
X31000000Y34148820D03*
X33051180Y5400000D03*
X31948820Y5400000D03*
X33051180Y6900000D03*
X31948820Y6900000D03*
X5048820Y27400000D03*
X6151180Y27400000D03*
X34000000Y21248820D03*
X34000000Y22351180D03*
X16948820Y4300000D03*
X18051180Y4300000D03*
X21000000Y30251180D03*
X21000000Y29148820D03*
X9351180Y24200000D03*
X8248820Y24200000D03*
X9351180Y19500000D03*
X8248820Y19500000D03*
X13451180Y16200000D03*
X12348820Y16200000D03*
X18600000Y31851180D03*
X18600000Y30748820D03*
X13451180Y14600000D03*
X12348820Y14600000D03*
X31800000Y10051180D03*
X31800000Y8948820D03*
X34348820Y6900000D03*
X35451180Y6900000D03*
X35400000Y5551180D03*
X35400000Y4448820D03*
X40700000Y3648820D03*
X40700000Y4751180D03*
X39000000Y12051180D03*
X39000000Y10948820D03*
X39000000Y8648820D03*
X39000000Y9751180D03*
X37500000Y9751180D03*
X37500000Y8648820D03*
X2148820Y15300000D03*
X3251180Y15300000D03*
X34848820Y17900000D03*
X35951180Y17900000D03*
X29200000Y10051180D03*
X29200000Y8948820D03*
X28548820Y21700000D03*
X29651180Y21700000D03*
D33*
X39675000Y40950000D03*
X39025000Y40950000D03*
X38375000Y40950000D03*
X37725000Y40950000D03*
X37075000Y40950000D03*
X36425000Y40950000D03*
X35775000Y40950000D03*
X35125000Y40950000D03*
X35125000Y35050000D03*
X35775000Y35050000D03*
X36425000Y35050000D03*
X37075000Y35050000D03*
X37725000Y35050000D03*
X38375000Y35050000D03*
X39025000Y35050000D03*
X39675000Y35050000D03*
D34*
X45650000Y38600000D03*
X45150000Y38600000D03*
X44650000Y38600000D03*
X44150000Y38600000D03*
X44150000Y35400000D03*
X45150000Y35400000D03*
X45650000Y35400000D03*
X44650000Y35400000D03*
D35*
X29800000Y13900000D03*
X31600000Y13900000D03*
D36*
X32550000Y23700000D03*
X33850000Y23700000D03*
D37*
X32100000Y26650000D03*
D38*
X32100000Y25900000D03*
D37*
X32100000Y25150000D03*
X33900000Y25150000D03*
D38*
X33900000Y25900000D03*
D37*
X33900000Y26650000D03*
D39*
X41830000Y30600000D03*
X44370000Y30600000D03*
X44370000Y30600000D03*
X41830000Y30600000D03*
X41830000Y30600000D03*
X44370000Y30600000D03*
X44370000Y30600000D03*
X41830000Y30600000D03*
X44370000Y25000000D03*
X41830000Y25000000D03*
X53770000Y13000000D03*
X51230000Y13000000D03*
X51230000Y13000000D03*
X53770000Y13000000D03*
X53770000Y13000000D03*
X51230000Y13000000D03*
X51230000Y13000000D03*
X53770000Y13000000D03*
X51230000Y18600000D03*
X53770000Y18600000D03*
D40*
X16350000Y8875000D03*
X16350000Y8225000D03*
X16350000Y7575000D03*
X16350000Y6925000D03*
X22250000Y6925000D03*
X22250000Y7575000D03*
X22250000Y8225000D03*
X22250000Y8875000D03*
D41*
X48250000Y16600000D03*
X43750000Y16600000D03*
X51050000Y24800000D03*
X46550000Y24800000D03*
D42*
X18750000Y39605000D03*
X18750000Y38335000D03*
X18750000Y37065000D03*
X18750000Y35795000D03*
X26050000Y35795000D03*
X26050000Y37065000D03*
X26050000Y38335000D03*
X26050000Y39605000D03*
D43*
X17300000Y27000000D03*
X26900000Y23500000D03*
X34000000Y10700000D03*
X21000000Y27800000D03*
X29200000Y3900000D03*
X30700000Y7100000D03*
D44*
X17300000Y25100000D03*
X17300000Y24300000D03*
X17300000Y23500000D03*
X17300000Y22700000D03*
X17300000Y21900000D03*
X17300000Y21100000D03*
X17300000Y20300000D03*
X17300000Y19500000D03*
X17300000Y18700000D03*
X17300000Y17900000D03*
X18100000Y25100000D03*
X18100000Y24300000D03*
X18100000Y23500000D03*
X18100000Y22700000D03*
X18100000Y21900000D03*
X18100000Y21100000D03*
X18100000Y20300000D03*
X18100000Y19500000D03*
X18100000Y18700000D03*
X18100000Y17900000D03*
X18900000Y25100000D03*
X18900000Y24300000D03*
X18900000Y23500000D03*
X18900000Y22700000D03*
X18900000Y21900000D03*
X18900000Y21100000D03*
X18900000Y20300000D03*
X18900000Y19500000D03*
X18900000Y18700000D03*
X18900000Y17900000D03*
X19700000Y25100000D03*
X19700000Y24300000D03*
X19700000Y23500000D03*
X19700000Y22700000D03*
X19700000Y21900000D03*
X19700000Y21100000D03*
X19700000Y20300000D03*
X19700000Y19500000D03*
X19700000Y18700000D03*
X19700000Y17900000D03*
X20500000Y25100000D03*
X20500000Y24300000D03*
X20500000Y23500000D03*
X20500000Y22700000D03*
X20500000Y21900000D03*
X20500000Y21100000D03*
X20500000Y20300000D03*
X20500000Y19500000D03*
X20500000Y18700000D03*
X20500000Y17900000D03*
X21300000Y25100000D03*
X21300000Y24300000D03*
X21300000Y23500000D03*
X21300000Y22700000D03*
X21300000Y21900000D03*
X21300000Y21100000D03*
X21300000Y20300000D03*
X21300000Y19500000D03*
X21300000Y18700000D03*
X21300000Y17900000D03*
X22100000Y25100000D03*
X22100000Y24300000D03*
X22100000Y23500000D03*
X22100000Y22700000D03*
X22100000Y21900000D03*
X22100000Y21100000D03*
X22100000Y20300000D03*
X22100000Y19500000D03*
X22100000Y18700000D03*
X22100000Y17900000D03*
X22900000Y25100000D03*
X22900000Y24300000D03*
X22900000Y23500000D03*
X22900000Y22700000D03*
X22900000Y21900000D03*
X22900000Y21100000D03*
X22900000Y20300000D03*
X22900000Y19500000D03*
X22900000Y18700000D03*
X22900000Y17900000D03*
X23700000Y25100000D03*
X23700000Y24300000D03*
X23700000Y23500000D03*
X23700000Y22700000D03*
X23700000Y21900000D03*
X23700000Y21100000D03*
X23700000Y20300000D03*
X23700000Y19500000D03*
X23700000Y18700000D03*
X23700000Y17900000D03*
X24500000Y25100000D03*
X24500000Y24300000D03*
X24500000Y23500000D03*
X24500000Y22700000D03*
X24500000Y21900000D03*
X24500000Y21100000D03*
X24500000Y20300000D03*
X24500000Y19500000D03*
X24500000Y18700000D03*
X24500000Y17900000D03*
D10*
G36*
X25393938Y26418195D02*
X25818195Y25993938D01*
X25393938Y25993930D01*
X25393930Y25993938D01*
X25393938Y26418195D01*
X25393938Y26418195D01*
G37*
G36*
X16406062Y16581805D02*
X15981805Y17006062D01*
X16406062Y17006070D01*
X16406070Y17006062D01*
X16406062Y16581805D01*
X16406062Y16581805D01*
G37*
G36*
X25818195Y17006062D02*
X25393938Y16581805D01*
X25393930Y17006062D01*
X25393938Y17006070D01*
X25818195Y17006062D01*
X25818195Y17006062D01*
G37*
D45*
X17700000Y30100000D03*
X32000000Y24200000D03*
X33300000Y27000000D03*
X31700000Y12600000D03*
X55100000Y26600000D03*
D46*
X30600000Y21700000D03*
D45*
X29200000Y10700000D03*
D46*
X25400000Y13100000D03*
D45*
X15200000Y8600000D03*
X36900000Y31500000D03*
X41900000Y29600000D03*
X34100000Y41000000D03*
X12900000Y39500000D03*
D46*
X51600000Y2600000D03*
X52400000Y1800000D03*
X50400000Y7000000D03*
D45*
X34300000Y2300000D03*
X11500000Y23900000D03*
X11400000Y19700000D03*
X8300000Y24900000D03*
D46*
X5500000Y16700000D03*
X6700000Y19600000D03*
X6700000Y18500000D03*
X6600000Y20700000D03*
X8300000Y21800000D03*
D45*
X36900000Y8700000D03*
X38024410Y29575590D03*
X41551180Y7900000D03*
X39000000Y5800000D03*
D46*
X45600000Y2700000D03*
D45*
X36500000Y13000000D03*
X36500000Y16100000D03*
X28100000Y6700000D03*
X13900000Y11600000D03*
X33300000Y16400000D03*
X44000000Y39400000D03*
X54600000Y13000000D03*
X11800000Y14600000D03*
X19600000Y30100000D03*
X25400000Y41000000D03*
X18800000Y35100000D03*
X9900000Y36200000D03*
X9100000Y36200000D03*
X30300000Y24300000D03*
D46*
X22500000Y11000000D03*
D29*
X39900000Y31200000D03*
D45*
X11800000Y13000000D03*
D29*
X20100000Y23100000D03*
X19300000Y23100000D03*
X18500000Y23100000D03*
X23300000Y23900000D03*
X17700000Y21500000D03*
X22500000Y19900000D03*
D45*
X18600000Y12100000D03*
X20300000Y12100000D03*
X44400000Y19248820D03*
X48200000Y28951180D03*
X40700000Y15600000D03*
D29*
X19300000Y19100000D03*
X21700000Y18300000D03*
D45*
X10200000Y18000000D03*
X6900000Y27400000D03*
X1600000Y28200000D03*
X7800000Y27500000D03*
X11500000Y25500000D03*
X10400000Y27200000D03*
D46*
X10500000Y5400000D03*
X8502000Y9298000D03*
X8500000Y7200000D03*
D45*
X34800000Y12100000D03*
D46*
X36700000Y29700000D03*
D45*
X45700000Y34600000D03*
X39628755Y33971245D03*
D46*
X36700000Y28000000D03*
D45*
X26100000Y5300000D03*
D46*
X14500000Y5000000D03*
D45*
X35800000Y39500000D03*
X44700000Y37500000D03*
D46*
X44200000Y9400000D03*
X37400000Y18400000D03*
X37400000Y15200000D03*
D45*
X36100000Y6900000D03*
X36000000Y8700000D03*
X11800000Y15800000D03*
X8900000Y15400000D03*
D46*
X27100000Y21100000D03*
D29*
X17700000Y23900000D03*
D45*
X23400000Y9000000D03*
D46*
X24200000Y15200000D03*
D45*
X20300000Y34600000D03*
X24700000Y39600000D03*
D46*
X10200000Y9900000D03*
X10200000Y11400000D03*
D45*
X16600000Y22900000D03*
X13900000Y18000000D03*
X13900000Y19700000D03*
D29*
X17700000Y23100000D03*
D45*
X13800000Y23900000D03*
X13800000Y25500000D03*
X13800000Y27200000D03*
X16200000Y29100000D03*
X35900000Y9700000D03*
X41100000Y36200000D03*
X43700000Y36300000D03*
D29*
X19300000Y23900000D03*
X19300000Y24700000D03*
D45*
X49100000Y10800000D03*
X26100000Y22700000D03*
X31100000Y23500000D03*
X48100000Y33000000D03*
X36400000Y22400000D03*
X44900000Y32900000D03*
D29*
X21700000Y23900000D03*
D45*
X28300000Y31900000D03*
X25400000Y23700000D03*
X24600000Y6100000D03*
X23400000Y6300000D03*
D29*
X20900000Y21500000D03*
X20300000Y11100000D03*
D45*
X23375000Y7575000D03*
X30500000Y6200000D03*
D29*
X20900000Y22300000D03*
D45*
X22400000Y27500000D03*
D29*
X21700000Y22300000D03*
D45*
X27100000Y27900000D03*
X43700000Y35400000D03*
X15600000Y20600000D03*
D29*
X19300000Y22300000D03*
D45*
X15800000Y14500000D03*
D46*
X22500000Y14400000D03*
D45*
X20300000Y14500000D03*
X18600000Y14500000D03*
X16900000Y14500000D03*
D29*
X20100000Y22300000D03*
X20100000Y20700000D03*
X20100000Y21500000D03*
D45*
X43700000Y31900000D03*
X39700000Y18600000D03*
X38700000Y18600000D03*
X42500000Y28700000D03*
X35900000Y30800000D03*
X38400000Y33500000D03*
X38600000Y32700000D03*
X36400000Y33400000D03*
D46*
X10500000Y21800000D03*
X6800000Y25400000D03*
X6800000Y24400000D03*
X2200000Y16500000D03*
X1300000Y14000000D03*
X6800000Y23300000D03*
X800000Y15300000D03*
D45*
X19200000Y31900000D03*
X28900000Y29200000D03*
D29*
X18500000Y21500000D03*
D45*
X16500000Y20500000D03*
D47*
X17000000Y30151180D02*
X17648820Y30151180D01*
X17648820Y30151180D02*
X17700000Y30100000D01*
X32550000Y23700000D02*
X32500000Y23700000D01*
X32500000Y23700000D02*
X32000000Y24200000D01*
X33900000Y26650000D02*
X33650000Y26650000D01*
X33650000Y26650000D02*
X33300000Y27000000D01*
X31600000Y13900000D02*
X31600000Y12700000D01*
X31600000Y12700000D02*
X31700000Y12600000D01*
X54500000Y26051180D02*
X54551180Y26051180D01*
X54551180Y26051180D02*
X55100000Y26600000D01*
D48*
X29651180Y21700000D02*
X30600000Y21700000D01*
D49*
X29200000Y10051180D02*
X29200000Y10700000D01*
D50*
X25400000Y13100000D02*
X25248820Y12948820D01*
X25248820Y12948820D02*
X24300000Y12948820D01*
D51*
X37500000Y31551180D02*
X36951180Y31551180D01*
X36951180Y31551180D02*
X36900000Y31500000D01*
D49*
X41830000Y30600000D02*
X41830000Y29670000D01*
X41830000Y29670000D02*
X41900000Y29600000D01*
X35125000Y40950000D02*
X35125000Y42025000D01*
X36425000Y42075000D02*
X36425000Y40950000D01*
X36100000Y42400000D02*
X36425000Y42075000D01*
X35500000Y42400000D02*
X36100000Y42400000D01*
X35125000Y42025000D02*
X35500000Y42400000D01*
X35125000Y40950000D02*
X34150000Y40950000D01*
X34150000Y40950000D02*
X34100000Y41000000D01*
X13648820Y39500000D02*
X12900000Y39500000D01*
D52*
X51600000Y2600000D02*
X52400000Y1800000D01*
D50*
X50850000Y3350000D02*
X51600000Y2600000D01*
X52400180Y1800180D02*
X52400000Y1800000D01*
X52400180Y1800180D02*
X53700000Y1800180D01*
D49*
X34248820Y3200000D02*
X34248820Y2351180D01*
X34248820Y2351180D02*
X34300000Y2300000D01*
X12148820Y23900000D02*
X11500000Y23900000D01*
X12148820Y19700000D02*
X11400000Y19700000D01*
D47*
X8248820Y24200000D02*
X8248820Y24848820D01*
X8248820Y24848820D02*
X8300000Y24900000D01*
D50*
X5500180Y15400000D02*
X5500180Y16699820D01*
X5500180Y16699820D02*
X5500000Y16700000D01*
X5500180Y15400000D02*
X5500180Y15751360D01*
X5500180Y15751360D02*
X7148820Y17400000D01*
D52*
X6700000Y19600000D02*
X6600000Y19700000D01*
D47*
X6700000Y19200000D02*
X7948820Y19200000D01*
X7948820Y19200000D02*
X8248820Y19500000D01*
D52*
X6700000Y18500000D02*
X6700000Y19200000D01*
X6700000Y19200000D02*
X6700000Y19600000D01*
D48*
X7148820Y17400000D02*
X6700000Y17848820D01*
X6700000Y18500000D02*
X6700000Y17848820D01*
X5100000Y20200000D02*
X6100000Y20200000D01*
X6100000Y20200000D02*
X6600000Y19700000D01*
D52*
X6600000Y20700000D02*
X6600000Y19700000D01*
D48*
X6100000Y20200000D02*
X6600000Y20700000D01*
D49*
X37500000Y8648820D02*
X36951180Y8648820D01*
X36951180Y8648820D02*
X36900000Y8700000D01*
D51*
X37500000Y31551180D02*
X37500000Y31700000D01*
X38024410Y29575590D02*
X37500000Y29051180D01*
D49*
X41551180Y7200000D02*
X41551180Y7900000D01*
X41551180Y7900000D02*
X41551180Y7900420D01*
X41551180Y7900420D02*
X42450000Y8799240D01*
D50*
X44900000Y2648820D02*
X45548820Y2648820D01*
X45900100Y2399900D02*
X45600000Y2700000D01*
X45900100Y2399900D02*
X46500000Y2399900D01*
X45548820Y2648820D02*
X45600000Y2700000D01*
D51*
X37500000Y12948820D02*
X36551180Y12948820D01*
X36551180Y12948820D02*
X36500000Y13000000D01*
X37500000Y16448820D02*
X36848820Y16448820D01*
X36848820Y16448820D02*
X36500000Y16100000D01*
X27000000Y6200000D02*
X27600000Y6200000D01*
X27600000Y6200000D02*
X28100000Y6700000D01*
X15400000Y12648820D02*
X14948820Y12648820D01*
X14948820Y12648820D02*
X13900000Y11600000D01*
D49*
X15200000Y7600000D02*
X16325000Y7600000D01*
X16325000Y7600000D02*
X16350000Y7575000D01*
X15200000Y8200000D02*
X16325000Y8200000D01*
X16325000Y8200000D02*
X16350000Y8225000D01*
X16350000Y6925000D02*
X15375000Y6925000D01*
X15475000Y8875000D02*
X16350000Y8875000D01*
X15200000Y8600000D02*
X15475000Y8875000D01*
X15200000Y7100000D02*
X15200000Y7600000D01*
X15200000Y7600000D02*
X15200000Y8200000D01*
X15200000Y8200000D02*
X15200000Y8600000D01*
X15375000Y6925000D02*
X15200000Y7100000D01*
X33948820Y16400000D02*
X33300000Y16400000D01*
X44000000Y39400000D02*
X45100000Y39400000D01*
X44150000Y39250000D02*
X44000000Y39400000D01*
X44150000Y38600000D02*
X44150000Y39250000D01*
X45150000Y39350000D02*
X45150000Y38600000D01*
X45100000Y39400000D02*
X45150000Y39350000D01*
X53770000Y13000000D02*
X54600000Y13000000D01*
D50*
X53700000Y1900000D02*
X53700000Y1800180D01*
D49*
X12348820Y14600000D02*
X11800000Y14600000D01*
X19651180Y29400000D02*
X19651180Y30048820D01*
X19651180Y30048820D02*
X19600000Y30100000D01*
X25448820Y41700000D02*
X25448820Y41048820D01*
X25448820Y41048820D02*
X25400000Y41000000D01*
X18750000Y35795000D02*
X18750000Y35150000D01*
X18750000Y35150000D02*
X18800000Y35100000D01*
X10448820Y36200000D02*
X9900000Y36200000D01*
X8551180Y36200000D02*
X9100000Y36200000D01*
X29551180Y24300000D02*
X30300000Y24300000D01*
D52*
X22500000Y11899900D02*
X22500000Y11000000D01*
D50*
X51600180Y7000000D02*
X50400000Y7000000D01*
X50600000Y3350000D02*
X50850000Y3350000D01*
D49*
X37851180Y6900000D02*
X37900000Y6900000D01*
X37900000Y6900000D02*
X39000000Y5800000D01*
X39000000Y5800000D02*
X39050000Y5750000D01*
X39050000Y5750000D02*
X39050000Y4600760D01*
X39951180Y30500000D02*
X39951180Y31148820D01*
X39951180Y31148820D02*
X39900000Y31200000D01*
X12448820Y13000000D02*
X11800000Y13000000D01*
D51*
X19700000Y22700000D02*
X20100000Y23100000D01*
X20100000Y23100000D02*
X20500000Y22700000D01*
X18900000Y22700000D02*
X19300000Y23100000D01*
X19300000Y23100000D02*
X19700000Y22700000D01*
X18100000Y23500000D02*
X18500000Y23100000D01*
X18500000Y23100000D02*
X18900000Y22700000D01*
X22900000Y23500000D02*
X23300000Y23900000D01*
X18100000Y21100000D02*
X17700000Y21500000D01*
X22500000Y19900000D02*
X22900000Y20300000D01*
D47*
X18600000Y12648820D02*
X18600000Y12100000D01*
X20300000Y12648820D02*
X20300000Y12100000D01*
D49*
X43600000Y19248820D02*
X44400000Y19248820D01*
X44400000Y19248820D02*
X45200000Y19248820D01*
D47*
X43750000Y19098820D02*
X43600000Y19248820D01*
D49*
X47400000Y28951180D02*
X48200000Y28951180D01*
X48200000Y28951180D02*
X49000000Y28951180D01*
D51*
X39951180Y15600000D02*
X40700000Y15600000D01*
X18900000Y18700000D02*
X19300000Y19100000D01*
X21300000Y18700000D02*
X21700000Y18300000D01*
X11199900Y18000000D02*
X10200000Y18000000D01*
X6151180Y27400000D02*
X6900000Y27400000D01*
X1599900Y27400000D02*
X1599900Y28199900D01*
X1599900Y28199900D02*
X1600000Y28200000D01*
X7800000Y26851180D02*
X7800000Y27500000D01*
X12148820Y25500000D02*
X11500000Y25500000D01*
X11399900Y27200000D02*
X10400000Y27200000D01*
X12148820Y25500000D02*
X12148820Y23900000D01*
X11399900Y27200000D02*
X11399900Y27000100D01*
X11399900Y27000100D02*
X12148820Y26251180D01*
X12148820Y26251180D02*
X12148820Y25500000D01*
D52*
X10500180Y4200000D02*
X10500180Y5399820D01*
X10500180Y5399820D02*
X10500000Y5400000D01*
X8502000Y8314000D02*
X8502000Y9298000D01*
D51*
X9300000Y21800000D02*
X8300000Y21800000D01*
X11500000Y8400180D02*
X13251360Y8400180D01*
X13251360Y8400180D02*
X13700000Y8848820D01*
D52*
X8502000Y8314000D02*
X11413820Y8314000D01*
X11413820Y8314000D02*
X11500000Y8400180D01*
X8502000Y8314000D02*
X8502000Y7202000D01*
X8502000Y7202000D02*
X8500000Y7200000D01*
D50*
X5599820Y15300000D02*
X5599820Y15599820D01*
D49*
X39000000Y12051180D02*
X34848820Y12051180D01*
X34848820Y12051180D02*
X34800000Y12100000D01*
D50*
X36700000Y29700000D02*
X36751180Y29700000D01*
X36751180Y29700000D02*
X37500000Y30448820D01*
D51*
X39646245Y33971245D02*
X39628755Y33971245D01*
X39675000Y35050000D02*
X39675000Y34000000D01*
X39675000Y34000000D02*
X39646245Y33971245D01*
D47*
X39675000Y33925000D02*
X39700000Y33900000D01*
X45650000Y35400000D02*
X45650000Y34650000D01*
X45650000Y34650000D02*
X45700000Y34600000D01*
D51*
X45650000Y34650000D02*
X45700000Y34600000D01*
D48*
X37400000Y25850000D02*
X37400000Y27848820D01*
X37400000Y27848820D02*
X37500000Y27948820D01*
D50*
X36700000Y28000000D02*
X37448820Y28000000D01*
X37448820Y28000000D02*
X37500000Y27948820D01*
D51*
X39675000Y33925000D02*
X39700000Y33900000D01*
D48*
X37400000Y27848820D02*
X37500000Y27948820D01*
D51*
X26100000Y5300000D02*
X26150000Y5250000D01*
X26150000Y5250000D02*
X27000000Y5250000D01*
D52*
X12699820Y4200000D02*
X13700000Y4200000D01*
X13700000Y4200000D02*
X14500000Y5000000D01*
D51*
X37500000Y30448820D02*
X37448820Y30448820D01*
D52*
X12699820Y1500000D02*
X12699820Y4200000D01*
D49*
X31800000Y10051180D02*
X32848820Y10051180D01*
X38351180Y8000000D02*
X39000000Y8648820D01*
X34900000Y8000000D02*
X38351180Y8000000D01*
X32848820Y10051180D02*
X34900000Y8000000D01*
X39000000Y10948820D02*
X39551180Y10948820D01*
X40550000Y9950000D02*
X40550000Y8799240D01*
X39551180Y10948820D02*
X40550000Y9950000D01*
X39000000Y8648820D02*
X40399580Y8648820D01*
X40399580Y8648820D02*
X40550000Y8799240D01*
X40448820Y7200000D02*
X40448820Y8698060D01*
X40448820Y8698060D02*
X40550000Y8799240D01*
X44650000Y38600000D02*
X44650000Y37550000D01*
X44650000Y37550000D02*
X44700000Y37500000D01*
D52*
X53799820Y7000000D02*
X53999820Y7000000D01*
X53999820Y7000000D02*
X57000000Y3999820D01*
X44200000Y9400000D02*
X52500000Y9400000D01*
D49*
X41451180Y4751180D02*
X44200000Y7500000D01*
X44200000Y7500000D02*
X44200000Y9400000D01*
X40700000Y4751180D02*
X41451180Y4751180D01*
D52*
X53799820Y8100180D02*
X53799820Y7000000D01*
X52500000Y9400000D02*
X53799820Y8100180D01*
D50*
X57000000Y3999820D02*
X56800000Y3999820D01*
D48*
X37500000Y17551180D02*
X37500000Y18300000D01*
X37500000Y18300000D02*
X37400000Y18400000D01*
X37400000Y19950000D02*
X37400000Y18400000D01*
X35775000Y40950000D02*
X35775000Y39525000D01*
X35775000Y39525000D02*
X35800000Y39500000D01*
D50*
X35800000Y39500000D02*
X35775000Y39525000D01*
D51*
X37500000Y15100000D02*
X37500000Y14051180D01*
X37400000Y15200000D02*
X37500000Y15100000D01*
X37400000Y17651180D02*
X37500000Y17551180D01*
D49*
X34000000Y10700000D02*
X36000000Y8700000D01*
X33948820Y15200000D02*
X33948820Y10751180D01*
X33948820Y10751180D02*
X34000000Y10700000D01*
X35451180Y6900000D02*
X36100000Y6900000D01*
X36100000Y6900000D02*
X36748820Y6900000D01*
X35451180Y6900000D02*
X35451180Y5602360D01*
X35451180Y5602360D02*
X35400000Y5551180D01*
D48*
X7699820Y15400000D02*
X7699820Y15799820D01*
X7699820Y15799820D02*
X8251180Y16351180D01*
X8251180Y16351180D02*
X8251180Y17400000D01*
D49*
X7699820Y15400000D02*
X8900000Y15400000D01*
X11800000Y15800000D02*
X12200000Y16200000D01*
X12200000Y16200000D02*
X12348820Y16200000D01*
D52*
X7699820Y15400000D02*
X7699820Y13688180D01*
X7699820Y13688180D02*
X8502000Y12886000D01*
D48*
X7551180Y15548640D02*
X7699820Y15400000D01*
D51*
X7551180Y15348640D02*
X7699820Y15200000D01*
X7251180Y15648640D02*
X7699820Y15200000D01*
D52*
X3251180Y15300000D02*
X3251180Y14248820D01*
X3251180Y14248820D02*
X4614000Y12886000D01*
X4614000Y12886000D02*
X8502000Y12886000D01*
D51*
X27100000Y21100000D02*
X27948820Y21100000D01*
X27948820Y21100000D02*
X28548820Y21700000D01*
X24500000Y21100000D02*
X27100000Y21100000D01*
X17700000Y23900000D02*
X18100000Y24300000D01*
D49*
X33051180Y5400000D02*
X33051180Y1851180D01*
X32400000Y1200000D02*
X32200000Y1200000D01*
X33051180Y1851180D02*
X32400000Y1200000D01*
D52*
X24490000Y1600000D02*
X27300000Y1600000D01*
X27300000Y1600000D02*
X27700000Y1200000D01*
X27700000Y1200000D02*
X32200000Y1200000D01*
X44000000Y3800000D02*
X44851180Y3800000D01*
X32200000Y1200000D02*
X41400000Y1200000D01*
X41400000Y1200000D02*
X44000000Y3800000D01*
D49*
X14600000Y10599820D02*
X14600000Y6648820D01*
X14600000Y6648820D02*
X16948820Y4300000D01*
D50*
X24200000Y15200000D02*
X24200000Y14151180D01*
X24200000Y14151180D02*
X24300000Y14051180D01*
D51*
X23275000Y8875000D02*
X22250000Y8875000D01*
X23400000Y9000000D02*
X23275000Y8875000D01*
X21600000Y16300000D02*
X23100000Y16300000D01*
X20500000Y17400000D02*
X21600000Y16300000D01*
X20500000Y17900000D02*
X20500000Y17400000D01*
X23100000Y16300000D02*
X24200000Y15200000D01*
D49*
X21000000Y30251180D02*
X21000000Y33900000D01*
X21000000Y33900000D02*
X20300000Y34600000D01*
D51*
X24705000Y39605000D02*
X26050000Y39605000D01*
X24700000Y39600000D02*
X24705000Y39605000D01*
D52*
X44851180Y3800000D02*
X44900000Y3751180D01*
X44900000Y3751180D02*
X46251080Y3751180D01*
X46251080Y3751180D02*
X46500000Y4000100D01*
D49*
X46500000Y4000100D02*
X46500000Y4900000D01*
X46850000Y5250000D02*
X48400000Y5250000D01*
X46500000Y4900000D02*
X46850000Y5250000D01*
D50*
X46500000Y4000100D02*
X47000100Y4000100D01*
X47300000Y4300000D02*
X48400000Y4300000D01*
X47000100Y4000100D02*
X47300000Y4300000D01*
D49*
X33051180Y5400000D02*
X33051180Y6900000D01*
D51*
X26551180Y41700000D02*
X26551180Y40106180D01*
X26551180Y40106180D02*
X26050000Y39605000D01*
X18100000Y22700000D02*
X17700000Y23100000D01*
D52*
X8502000Y10600000D02*
X6800000Y10600000D01*
X6800000Y10600000D02*
X6300000Y10100000D01*
X6300000Y10100000D02*
X6300000Y6600000D01*
X6300000Y6600000D02*
X8500000Y4400000D01*
X8500000Y4400000D02*
X8500000Y1800000D01*
X8500000Y1800000D02*
X8800000Y1500000D01*
X8800000Y1500000D02*
X10500180Y1500000D01*
X11500000Y10599820D02*
X14600000Y10599820D01*
X14600000Y10599820D02*
X14851000Y10599820D01*
X14851000Y10599820D02*
X16900000Y12648820D01*
X10200000Y10600000D02*
X10200000Y9900000D01*
X10200000Y10600000D02*
X10200000Y11400000D01*
D50*
X11500000Y10599820D02*
X11500000Y12200000D01*
X11500000Y12200000D02*
X11000000Y12700000D01*
X11000000Y12700000D02*
X11000000Y16200000D01*
X11000000Y16200000D02*
X11800000Y17000000D01*
X11800000Y17000000D02*
X12300000Y17000000D01*
X12300000Y17000000D02*
X12800100Y17500100D01*
X12800100Y17500100D02*
X12800100Y18000000D01*
D51*
X16600000Y22900000D02*
X17100000Y22900000D01*
X17100000Y22900000D02*
X17300000Y22700000D01*
D50*
X12800100Y18000000D02*
X13900000Y18000000D01*
X13251180Y19700000D02*
X13900000Y19700000D01*
D48*
X13251180Y23900000D02*
X13800000Y23900000D01*
X13251180Y25500000D02*
X13800000Y25500000D01*
X13000100Y27200000D02*
X13800000Y27200000D01*
X12800100Y18000000D02*
X12800100Y18400100D01*
X12800100Y18400100D02*
X13251180Y18851180D01*
X13251180Y18851180D02*
X13251180Y19700000D01*
X13251180Y25500000D02*
X13251180Y23900000D01*
X13000100Y27200000D02*
X13000100Y26499900D01*
X13000100Y26499900D02*
X13251180Y26248820D01*
X13251180Y26248820D02*
X13251180Y25500000D01*
D51*
X11500000Y10599820D02*
X13051360Y10599820D01*
X13051360Y10599820D02*
X13700000Y9951180D01*
D52*
X8502000Y10600000D02*
X10200000Y10600000D01*
X10200000Y10600000D02*
X11499820Y10600000D01*
X11499820Y10600000D02*
X11500000Y10599820D01*
X8502000Y10600000D02*
X9100180Y10600000D01*
D47*
X16200000Y29100000D02*
X16251180Y29048820D01*
X17000000Y29048820D02*
X16251180Y29048820D01*
X35951180Y9751180D02*
X35900000Y9700000D01*
X35951180Y9751180D02*
X37500000Y9751180D01*
D49*
X17000000Y29048820D02*
X17000000Y28600000D01*
X17000000Y28600000D02*
X18100000Y27500000D01*
X18100000Y27500000D02*
X18100000Y25100000D01*
X37500000Y9751180D02*
X39000000Y9751180D01*
X39951180Y29300000D02*
X40200000Y29300000D01*
X40200000Y29300000D02*
X40600000Y29700000D01*
X40600000Y29700000D02*
X40600000Y31800000D01*
X40600000Y31800000D02*
X41200000Y32400000D01*
X41200000Y32400000D02*
X41200000Y36100000D01*
X41200000Y36100000D02*
X41100000Y36200000D01*
X37075000Y36675000D02*
X37075000Y35050000D01*
X41100000Y36200000D02*
X39900000Y37400000D01*
X39900000Y37400000D02*
X37800000Y37400000D01*
X37800000Y37400000D02*
X37075000Y36675000D01*
X34800000Y31348820D02*
X35548820Y31348820D01*
X37075000Y32875000D02*
X37075000Y35050000D01*
X35548820Y31348820D02*
X37075000Y32875000D01*
X39951180Y28100000D02*
X39951180Y29300000D01*
X34800000Y31348820D02*
X33300000Y31348820D01*
X34800000Y30351180D02*
X34800000Y31348820D01*
X33300000Y30351180D02*
X33300000Y31348820D01*
X44650000Y35400000D02*
X44650000Y36050000D01*
X44400000Y36300000D02*
X43700000Y36300000D01*
X44650000Y36050000D02*
X44400000Y36300000D01*
D47*
X39350000Y25850000D02*
X39350000Y26750000D01*
X39350000Y26750000D02*
X39951180Y27351180D01*
X39951180Y27351180D02*
X39951180Y28100000D01*
D49*
X43600000Y41451180D02*
X42200000Y41451180D01*
X42200000Y41451180D02*
X42200000Y41900000D01*
X42200000Y41900000D02*
X41700000Y42400000D01*
X41700000Y42400000D02*
X37600000Y42400000D01*
X37600000Y42400000D02*
X37075000Y41875000D01*
X37075000Y41875000D02*
X37075000Y40950000D01*
X18548820Y29400000D02*
X18548820Y28751180D01*
X18900000Y28400000D02*
X18900000Y25100000D01*
X18548820Y28751180D02*
X18900000Y28400000D01*
X18548820Y29400000D02*
X18548820Y30697640D01*
X18548820Y30697640D02*
X18600000Y30748820D01*
D47*
X28151180Y13900000D02*
X29800000Y13900000D01*
X54500000Y24948820D02*
X55791180Y24948820D01*
X55791180Y24948820D02*
X56700000Y24040000D01*
X56640000Y24100000D02*
X56700000Y24040000D01*
D49*
X19300000Y23900000D02*
X19700000Y23500000D01*
X21870000Y1600000D02*
X21870000Y2970000D01*
X20100000Y17200000D02*
X21500000Y15800000D01*
X21500000Y15800000D02*
X21500000Y10600000D01*
X21500000Y10600000D02*
X22300000Y9800000D01*
X22300000Y9800000D02*
X23700000Y9800000D01*
X23700000Y9800000D02*
X24000000Y9500000D01*
X24000000Y9500000D02*
X24000000Y5100000D01*
X24000000Y5100000D02*
X21870000Y2970000D01*
X18500000Y19900000D02*
X19900000Y19900000D01*
X19900000Y19900000D02*
X20100000Y19700000D01*
X18500000Y19900000D02*
X18100000Y19500000D01*
X20100000Y19700000D02*
X20100000Y17200000D01*
X18100000Y19500000D02*
X18100000Y19400000D01*
X20600000Y1600000D02*
X20600000Y2500000D01*
X19400000Y14900000D02*
X19400000Y6000000D01*
X18500000Y15800000D02*
X19400000Y14900000D01*
X18500000Y19000000D02*
X18500000Y15800000D01*
X18500000Y19000000D02*
X18900000Y19400000D01*
X20400000Y2700000D02*
X20600000Y2500000D01*
X20400000Y5000000D02*
X20400000Y2700000D01*
X19400000Y6000000D02*
X20400000Y5000000D01*
X18900000Y19500000D02*
X18900000Y19400000D01*
X19330000Y1600000D02*
X19330000Y5170000D01*
X17800000Y6700000D02*
X19330000Y5170000D01*
X17800000Y17500000D02*
X17800000Y6700000D01*
X17700000Y17600000D02*
X17800000Y17500000D01*
X17700000Y20600000D02*
X17700000Y17600000D01*
X17800000Y20700000D02*
X17700000Y20600000D01*
X18500000Y20700000D02*
X17800000Y20700000D01*
X18500000Y20700000D02*
X18900000Y20300000D01*
X18060000Y4291180D02*
X18060000Y1200000D01*
X18060000Y4291180D02*
X18051180Y4300000D01*
X19300000Y24700000D02*
X19700000Y24300000D01*
X24500000Y22700000D02*
X26100000Y22700000D01*
X49100000Y10800000D02*
X49848820Y10800000D01*
X51230000Y13000000D02*
X51230000Y11078820D01*
X51230000Y11078820D02*
X50951180Y10800000D01*
X28448820Y24300000D02*
X24500000Y24300000D01*
X30600000Y23000000D02*
X31100000Y23500000D01*
X24100000Y20700000D02*
X24100000Y21300000D01*
X24100000Y21300000D02*
X24300000Y21500000D01*
X24300000Y21500000D02*
X26000000Y21500000D01*
X26000000Y21500000D02*
X26700000Y22200000D01*
X26700000Y22200000D02*
X27400000Y22200000D01*
X27400000Y22200000D02*
X28200000Y23000000D01*
X28200000Y23000000D02*
X30600000Y23000000D01*
X24100000Y20700000D02*
X23700000Y20300000D01*
X48051180Y32951180D02*
X47000000Y32951180D01*
X48100000Y33000000D02*
X48051180Y32951180D01*
X27000000Y7150000D02*
X27000000Y8500000D01*
X34348820Y7551180D02*
X34348820Y6900000D01*
X32400000Y9500000D02*
X34348820Y7551180D01*
X28000000Y9500000D02*
X32400000Y9500000D01*
X27000000Y8500000D02*
X28000000Y9500000D01*
X36100000Y19950000D02*
X36100000Y22100000D01*
X36100000Y22100000D02*
X36400000Y22400000D01*
X44900000Y32900000D02*
X47300000Y35300000D01*
X47300000Y35300000D02*
X47300000Y36548820D01*
X35951180Y17900000D02*
X35951180Y18851180D01*
X36100000Y19000000D02*
X36100000Y19950000D01*
X35951180Y18851180D02*
X36100000Y19000000D01*
X14835000Y41500000D02*
X14835000Y39583820D01*
X14835000Y39583820D02*
X14751180Y39500000D01*
X21300000Y23500000D02*
X21700000Y23900000D01*
D47*
X25900000Y17900000D02*
X26800000Y17000000D01*
X24500000Y17900000D02*
X25900000Y17900000D01*
X26800000Y17000000D02*
X26800000Y14148820D01*
X26800000Y14148820D02*
X27048820Y13900000D01*
D49*
X13551180Y13000000D02*
X13700000Y13000000D01*
X13700000Y13000000D02*
X14400000Y13700000D01*
X14400000Y13700000D02*
X14400000Y14400000D01*
X14400000Y14400000D02*
X15700000Y15700000D01*
X15700000Y15700000D02*
X16900000Y15700000D01*
X16900000Y15700000D02*
X17100000Y15900000D01*
X17100000Y15900000D02*
X17100000Y17700000D01*
X17100000Y17700000D02*
X17300000Y17900000D01*
X17300000Y17900000D02*
X17200000Y17900000D01*
X28300000Y31900000D02*
X28300000Y33200000D01*
X22900000Y22700000D02*
X23300000Y23100000D01*
X25200000Y23900000D02*
X25400000Y23700000D01*
X24300000Y23900000D02*
X25200000Y23900000D01*
X24100000Y23700000D02*
X24300000Y23900000D01*
X24100000Y23300000D02*
X24100000Y23700000D01*
X23900000Y23100000D02*
X24100000Y23300000D01*
X23300000Y23100000D02*
X23900000Y23100000D01*
X29248820Y34148820D02*
X31000000Y34148820D01*
X28300000Y33200000D02*
X29248820Y34148820D01*
X24600000Y6100000D02*
X24600000Y5700000D01*
X26400000Y3900000D02*
X29200000Y3900000D01*
X24600000Y5700000D02*
X26400000Y3900000D01*
D47*
X23400000Y6300000D02*
X22775000Y6925000D01*
X29200000Y3900000D02*
X29200000Y5250000D01*
X22250000Y6925000D02*
X22775000Y6925000D01*
D49*
X29200000Y5250000D02*
X31798820Y5250000D01*
X31798820Y5250000D02*
X31948820Y5400000D01*
X22250000Y6925000D02*
X20975000Y6925000D01*
X20900000Y21500000D02*
X21300000Y21900000D01*
X20300000Y7600000D02*
X20300000Y11100000D01*
X20975000Y6925000D02*
X20300000Y7600000D01*
X30500000Y6200000D02*
X30500000Y6900000D01*
X30500000Y6900000D02*
X30700000Y7100000D01*
X29200000Y6200000D02*
X30500000Y6200000D01*
X30500000Y6200000D02*
X31248820Y6200000D01*
X31248820Y6200000D02*
X31948820Y6900000D01*
X22250000Y7575000D02*
X23375000Y7575000D01*
X20900000Y22300000D02*
X21300000Y22700000D01*
X24200000Y28400000D02*
X24200000Y36200000D01*
X25065000Y37065000D02*
X26050000Y37065000D01*
X24200000Y36200000D02*
X25065000Y37065000D01*
X22100000Y26300000D02*
X24200000Y28400000D01*
X22100000Y25100000D02*
X22100000Y26300000D01*
X21800000Y26600000D02*
X21700000Y26500000D01*
X21700000Y26500000D02*
X21700000Y24700000D01*
X22100000Y24300000D02*
X21700000Y24700000D01*
X21800000Y34700000D02*
X19435000Y37065000D01*
X21800000Y34700000D02*
X21800000Y26600000D01*
X18750000Y37065000D02*
X19435000Y37065000D01*
X27700000Y33700000D02*
X27200000Y33200000D01*
X23300000Y26100000D02*
X26600000Y29400000D01*
X27700000Y33700000D02*
X27700000Y37800000D01*
X26050000Y38335000D02*
X27165000Y38335000D01*
X27165000Y38335000D02*
X27700000Y37800000D01*
X23300000Y26100000D02*
X23300000Y24700000D01*
X23300000Y24700000D02*
X22900000Y24300000D01*
X26600000Y30200000D02*
X26600000Y29400000D01*
X27200000Y30800000D02*
X26600000Y30200000D01*
X27200000Y33200000D02*
X27200000Y30800000D01*
X20100000Y24100000D02*
X20100000Y28600000D01*
X22100000Y23500000D02*
X21700000Y23100000D01*
X21100000Y23100000D02*
X21700000Y23100000D01*
X17835000Y38335000D02*
X17300000Y37800000D01*
X17835000Y38335000D02*
X18750000Y38335000D01*
X20900000Y23300000D02*
X21100000Y23100000D01*
X20900000Y23700000D02*
X20900000Y23300000D01*
X20700000Y23900000D02*
X20900000Y23700000D01*
X20300000Y23900000D02*
X20700000Y23900000D01*
X20100000Y24100000D02*
X20300000Y23900000D01*
X19600000Y34300000D02*
X20300000Y33600000D01*
X17700000Y34300000D02*
X19600000Y34300000D01*
X17300000Y34700000D02*
X17700000Y34300000D01*
X17300000Y37800000D02*
X17300000Y34700000D01*
X20300000Y28800000D02*
X20300000Y33600000D01*
X20100000Y28600000D02*
X20300000Y28800000D01*
X26050000Y35795000D02*
X26050000Y29550000D01*
X26050000Y29550000D02*
X22500000Y26000000D01*
X22500000Y26000000D02*
X22500000Y23100000D01*
X22500000Y23100000D02*
X22100000Y22700000D01*
X19895000Y39605000D02*
X23000000Y36500000D01*
X18750000Y39605000D02*
X19895000Y39605000D01*
X23000000Y28100000D02*
X22400000Y27500000D01*
X23000000Y36500000D02*
X23000000Y28100000D01*
X21700000Y22300000D02*
X22100000Y21900000D01*
X18750000Y39605000D02*
X19095000Y39605000D01*
X24500000Y25100000D02*
X24500000Y26000000D01*
X26400000Y27900000D02*
X27100000Y27900000D01*
X24500000Y26000000D02*
X26400000Y27900000D01*
X43700000Y35400000D02*
X44150000Y35400000D01*
X19700000Y17900000D02*
X19700000Y16900000D01*
X19700000Y16900000D02*
X21000000Y15600000D01*
X21000000Y15600000D02*
X21000000Y8400000D01*
X21000000Y8400000D02*
X21175000Y8225000D01*
X21175000Y8225000D02*
X22250000Y8225000D01*
X25700000Y24700000D02*
X28100000Y27100000D01*
X29600000Y30900000D02*
X33700000Y35000000D01*
X35075000Y35000000D02*
X33700000Y35000000D01*
X25700000Y24700000D02*
X24100000Y24700000D01*
X24100000Y24700000D02*
X23700000Y24300000D01*
X29500000Y30900000D02*
X29600000Y30900000D01*
X28100000Y29500000D02*
X29500000Y30900000D01*
X28100000Y27100000D02*
X28100000Y29500000D01*
X35075000Y35000000D02*
X35125000Y35050000D01*
X35125000Y35050000D02*
X35125000Y34925000D01*
X23700000Y24300000D02*
X23700000Y24400000D01*
X23700000Y25900000D02*
X27300000Y29500000D01*
X30200000Y32800000D02*
X31000000Y32800000D01*
X31000000Y32800000D02*
X34600000Y36400000D01*
X34600000Y36400000D02*
X35300000Y36400000D01*
X35300000Y36400000D02*
X35775000Y35925000D01*
X35775000Y35050000D02*
X35775000Y35925000D01*
X23700000Y25900000D02*
X23700000Y25100000D01*
X27300000Y29900000D02*
X30200000Y32800000D01*
X27300000Y29500000D02*
X27300000Y29900000D01*
X13451180Y16200000D02*
X14100000Y16200000D01*
X14800000Y19800000D02*
X15600000Y20600000D01*
X14800000Y16900000D02*
X14800000Y19800000D01*
X14100000Y16200000D02*
X14800000Y16900000D01*
X18900000Y21900000D02*
X19300000Y22300000D01*
X13551180Y16000000D02*
X13551180Y16151180D01*
X11500000Y22750000D02*
X12950000Y22750000D01*
X12950000Y22750000D02*
X13800000Y21900000D01*
X9351180Y24200000D02*
X9351180Y22801180D01*
X9351180Y22801180D02*
X9300000Y22750000D01*
X5100000Y22150000D02*
X7150000Y22150000D01*
X7750000Y22750000D02*
X9300000Y22750000D01*
X7150000Y22150000D02*
X7750000Y22750000D01*
X9300000Y24248820D02*
X9148820Y24400000D01*
X9300000Y22750000D02*
X11500000Y22750000D01*
X17700000Y22300000D02*
X18100000Y21900000D01*
X13800000Y21900000D02*
X16200000Y21900000D01*
X16200000Y21900000D02*
X16600000Y22300000D01*
X16600000Y22300000D02*
X17700000Y22300000D01*
D47*
X9250000Y22800000D02*
X9300000Y22750000D01*
D49*
X11500000Y20850000D02*
X13150000Y20850000D01*
X16400000Y21500000D02*
X16800000Y21900000D01*
X16800000Y21900000D02*
X17300000Y21900000D01*
X13800000Y21500000D02*
X16400000Y21500000D01*
X13150000Y20850000D02*
X13800000Y21500000D01*
X9351180Y19500000D02*
X9351180Y20798820D01*
X9351180Y20798820D02*
X9300000Y20850000D01*
X5100000Y21500000D02*
X7100000Y21500000D01*
X7750000Y20850000D02*
X9300000Y20850000D01*
X7100000Y21500000D02*
X7750000Y20850000D01*
X9300000Y20850000D02*
X11500000Y20850000D01*
D47*
X56700000Y21500000D02*
X53699820Y21500000D01*
X53770000Y18600000D02*
X53770000Y21429820D01*
X53770000Y21429820D02*
X53699820Y21500000D01*
X53699820Y18670180D02*
X53770000Y18600000D01*
X51050000Y24800000D02*
X51050000Y25650000D01*
X51050000Y25650000D02*
X51551180Y26151180D01*
X51551180Y26151180D02*
X51551180Y27600000D01*
X51050000Y24800000D02*
X51050000Y21950180D01*
X51050000Y21950180D02*
X51500180Y21500000D01*
X47951180Y20600000D02*
X50600180Y20600000D01*
X50600180Y20600000D02*
X51500180Y21500000D01*
X51230000Y18600000D02*
X51230000Y21229820D01*
X51230000Y21229820D02*
X51500180Y21500000D01*
X51000180Y21000000D02*
X51500180Y21500000D01*
X48250000Y16600000D02*
X48250000Y16350180D01*
X47951180Y19200000D02*
X47951180Y16898820D01*
X47951180Y16898820D02*
X48250000Y16600000D01*
X47951180Y19200000D02*
X47951180Y20600000D01*
X51400180Y21400000D02*
X51500180Y21500000D01*
X50751180Y25098820D02*
X51050000Y24800000D01*
X51551180Y27600000D02*
X51551180Y29200000D01*
X51230000Y21229820D02*
X51500180Y21500000D01*
D49*
X44370000Y25000000D02*
X46350000Y25000000D01*
X46350000Y25000000D02*
X46550000Y24800000D01*
D47*
X46551180Y27000000D02*
X46551180Y24801180D01*
X46551180Y24801180D02*
X46550000Y24800000D01*
X46551180Y27000000D02*
X47400000Y27848820D01*
X47400000Y27848820D02*
X49000000Y27848820D01*
X46600000Y24850000D02*
X46550000Y24800000D01*
X49000000Y27848820D02*
X50200000Y27848820D01*
X50200000Y27848820D02*
X50448820Y27600000D01*
X50448820Y27600000D02*
X50448820Y29200000D01*
D49*
X43600000Y20351180D02*
X42648820Y20351180D01*
X42648820Y20351180D02*
X41200000Y21800000D01*
X41200000Y21800000D02*
X38600000Y21800000D01*
X38600000Y21800000D02*
X38050000Y21250000D01*
X38050000Y21250000D02*
X38050000Y19950000D01*
X43750000Y16600000D02*
X44900000Y16600000D01*
X44900000Y16600000D02*
X46848820Y18548820D01*
X46848820Y18548820D02*
X46848820Y19200000D01*
X43600000Y20351180D02*
X45200000Y20351180D01*
X45200000Y20351180D02*
X46600000Y20351180D01*
X46600000Y20351180D02*
X46848820Y20600000D01*
D47*
X43750000Y16600000D02*
X43400000Y16600000D01*
X43750000Y16550000D02*
X43750000Y16600000D01*
X46848820Y19200000D02*
X46848820Y20600000D01*
X46800000Y19248820D02*
X46848820Y19200000D01*
D51*
X20100000Y21500000D02*
X19700000Y21500000D01*
X20100000Y21500000D02*
X20100000Y21900000D01*
X20100000Y22300000D02*
X20100000Y21900000D01*
X20100000Y21900000D02*
X20100000Y22000000D01*
X20100000Y22000000D02*
X20100000Y21900000D01*
X20100000Y21500000D02*
X20500000Y21900000D01*
X15400000Y13751180D02*
X15400000Y14100000D01*
X15400000Y14100000D02*
X15800000Y14500000D01*
D50*
X15400000Y13751180D02*
X16900000Y13751180D01*
X22500000Y13500100D02*
X22500000Y14400000D01*
D51*
X20300000Y13751180D02*
X20300000Y14500000D01*
X18600000Y13751180D02*
X18600000Y14500000D01*
X16900000Y13751180D02*
X16900000Y14500000D01*
X19700000Y21100000D02*
X20100000Y21500000D01*
X19700000Y21900000D02*
X20100000Y22300000D01*
X19700000Y21900000D02*
X19700000Y21500000D01*
X19700000Y21500000D02*
X19700000Y21100000D01*
X19700000Y21900000D02*
X20100000Y21900000D01*
X20100000Y21900000D02*
X20500000Y21900000D01*
X20500000Y21900000D02*
X20100000Y22300000D01*
X19700000Y21100000D02*
X20100000Y20700000D01*
X19700000Y21900000D02*
X20100000Y21500000D01*
D49*
X43651180Y31948820D02*
X43700000Y31900000D01*
X43651180Y31948820D02*
X43651180Y32700000D01*
X43651180Y33900000D02*
X43651180Y34348820D01*
X43051180Y40348820D02*
X43100000Y40348820D01*
X43051180Y34948820D02*
X43051180Y40348820D01*
X43651180Y34348820D02*
X43051180Y34948820D01*
X43651180Y33900000D02*
X44500000Y33900000D01*
X45150000Y34550000D02*
X45150000Y35400000D01*
X44500000Y33900000D02*
X45150000Y34550000D01*
X43651180Y32548820D02*
X43651180Y32700000D01*
X43600000Y40348820D02*
X43600000Y40300000D01*
X43651180Y32700000D02*
X43651180Y33900000D01*
X42200000Y40348820D02*
X43100000Y40348820D01*
X43100000Y40348820D02*
X43600000Y40348820D01*
X39675000Y40950000D02*
X40750000Y40950000D01*
X40750000Y40950000D02*
X41351180Y40348820D01*
X41351180Y40348820D02*
X42200000Y40348820D01*
D47*
X39951180Y16800000D02*
X39951180Y18000000D01*
X39350000Y19950000D02*
X39350000Y18950000D01*
X39350000Y18950000D02*
X39700000Y18600000D01*
X39700000Y18600000D02*
X39951180Y18348820D01*
X39951180Y18348820D02*
X39951180Y18000000D01*
D49*
X42800000Y31200000D02*
X41800000Y32200000D01*
X42800000Y29000000D02*
X42800000Y31200000D01*
X42500000Y28700000D02*
X42800000Y29000000D01*
X39000000Y38500000D02*
X39600000Y38500000D01*
X38375000Y39125000D02*
X39000000Y38500000D01*
X38375000Y40950000D02*
X38375000Y39125000D01*
X41800000Y36300000D02*
X41800000Y32200000D01*
X39600000Y38500000D02*
X41800000Y36300000D01*
D47*
X38848820Y16800000D02*
X38848820Y15600000D01*
X38848820Y16800000D02*
X38848820Y18000000D01*
X38700000Y19950000D02*
X38700000Y18600000D01*
X38700000Y18600000D02*
X38700000Y18148820D01*
X38700000Y18148820D02*
X38848820Y18000000D01*
D49*
X37725000Y35050000D02*
X37725000Y32575000D01*
X38848820Y31451180D02*
X38848820Y30500000D01*
X37725000Y32575000D02*
X38848820Y31451180D01*
X37800000Y34975000D02*
X37725000Y35050000D01*
D47*
X38848820Y29300000D02*
X38848820Y30500000D01*
X38848820Y28100000D02*
X38848820Y29300000D01*
X38700000Y25850000D02*
X38700000Y27951180D01*
X38700000Y27951180D02*
X38848820Y28100000D01*
D50*
X48699900Y1400000D02*
X48699900Y3050100D01*
X48699900Y3050100D02*
X48400000Y3350000D01*
X50300100Y1400000D02*
X50300100Y1799900D01*
X50300100Y1799900D02*
X49500000Y2600000D01*
X49500000Y2600000D02*
X49500000Y4900000D01*
X49500000Y4900000D02*
X49850000Y5250000D01*
X49850000Y5250000D02*
X50600000Y5250000D01*
D52*
X53700000Y3999820D02*
X54200180Y3999820D01*
X54200180Y3999820D02*
X56399820Y1800180D01*
X56399820Y1800180D02*
X57000000Y1800180D01*
D50*
X50600000Y4300000D02*
X53399820Y4300000D01*
X53399820Y4300000D02*
X53700000Y3999820D01*
D49*
X35148820Y29248820D02*
X35900000Y30000000D01*
X35900000Y30000000D02*
X35900000Y30800000D01*
X34800000Y29248820D02*
X35148820Y29248820D01*
X38400000Y33500000D02*
X38375000Y33525000D01*
X38375000Y33525000D02*
X38375000Y35050000D01*
X35048820Y29248820D02*
X34800000Y29248820D01*
X33300000Y29248820D02*
X34800000Y29248820D01*
X42500000Y33948820D02*
X42500000Y36700000D01*
X39025000Y39675000D02*
X39025000Y40950000D01*
X39400000Y39300000D02*
X39900000Y39300000D01*
X39900000Y39300000D02*
X42500000Y36700000D01*
X39025000Y39675000D02*
X39400000Y39300000D01*
X42500000Y33948820D02*
X42548820Y33900000D01*
X42548820Y32700000D02*
X42548820Y33900000D01*
X39025000Y35050000D02*
X39025000Y33125000D01*
X39025000Y33125000D02*
X38600000Y32700000D01*
X34800000Y32451180D02*
X35451180Y32451180D01*
X35451180Y32451180D02*
X36400000Y33400000D01*
X33300000Y32451180D02*
X34800000Y32451180D01*
X35051180Y15200000D02*
X35051180Y16400000D01*
X35051180Y16400000D02*
X35900000Y16400000D01*
X35900000Y16400000D02*
X36600000Y17100000D01*
X36600000Y17100000D02*
X36600000Y18700000D01*
X36600000Y18700000D02*
X36750000Y18850000D01*
X36750000Y18850000D02*
X36750000Y19950000D01*
X2450000Y24800000D02*
X2450000Y25450000D01*
X3200100Y26200100D02*
X3200100Y27400000D01*
X2450000Y25450000D02*
X3200100Y26200100D01*
X2450000Y18200000D02*
X4800000Y18200000D01*
X4800000Y18200000D02*
X4900000Y18300000D01*
X2450000Y20300000D02*
X2450000Y18200000D01*
X2450000Y20300000D02*
X2450000Y22700000D01*
X2450000Y24800000D02*
X4800000Y24800000D01*
X4800000Y24800000D02*
X4900000Y24700000D01*
X2450000Y24800000D02*
X2450000Y22700000D01*
D47*
X3200100Y27400000D02*
X5048820Y27400000D01*
X3551140Y32400000D02*
X5400000Y32400000D01*
X5400000Y32400000D02*
X7448820Y34448820D01*
X7448820Y34448820D02*
X7448820Y36200000D01*
X3551140Y32400000D02*
X3551140Y33302320D01*
X3551140Y32400000D02*
X7600000Y32400000D01*
X7600000Y32400000D02*
X9700000Y30300000D01*
X9700000Y30300000D02*
X12100000Y30300000D01*
X12100000Y30300000D02*
X14800000Y27600000D01*
X14800000Y27600000D02*
X14800000Y25500000D01*
X14800000Y25500000D02*
X16800000Y23500000D01*
X16800000Y23500000D02*
X17300000Y23500000D01*
X3751140Y31700000D02*
X5300000Y31700000D01*
D51*
X10500000Y21800000D02*
X11500000Y21800000D01*
D52*
X6800000Y24400000D02*
X6800000Y25400000D01*
X2200000Y16500000D02*
X1900000Y16500000D01*
X1300000Y15900000D02*
X1900000Y15300000D01*
X1900000Y16500000D02*
X1300000Y15900000D01*
X1300000Y14000000D02*
X1300000Y14700000D01*
X1300000Y14700000D02*
X1900000Y15300000D01*
D47*
X7451180Y25400000D02*
X7800000Y25748820D01*
X6800000Y25400000D02*
X7451180Y25400000D01*
D48*
X6300000Y22800000D02*
X6800000Y23300000D01*
X5100000Y22800000D02*
X6300000Y22800000D01*
D52*
X1900000Y15300000D02*
X2148820Y15300000D01*
X1900000Y15300000D02*
X2148820Y15300000D01*
X800000Y15300000D02*
X2148820Y15300000D01*
D47*
X13248860Y32400000D02*
X13700000Y32400000D01*
X13700000Y32400000D02*
X15100000Y31000000D01*
X17000000Y24300000D02*
X15900000Y25400000D01*
X15900000Y25400000D02*
X15900000Y27900000D01*
X17300000Y24300000D02*
X17000000Y24300000D01*
X15100000Y28700000D02*
X15900000Y27900000D01*
X15100000Y31000000D02*
X15100000Y28700000D01*
X11551180Y36200000D02*
X11551180Y34097680D01*
X11551180Y34097680D02*
X13248860Y32400000D01*
D49*
X29200000Y8948820D02*
X31800000Y8948820D01*
X29200000Y7150000D02*
X29200000Y8948820D01*
X35351180Y3200000D02*
X35351180Y4400000D01*
X35351180Y4400000D02*
X35400000Y4448820D01*
X37150000Y4600760D02*
X37150000Y4350000D01*
X37150000Y4350000D02*
X37851180Y3648820D01*
X37851180Y3648820D02*
X40700000Y3648820D01*
X35400000Y4448820D02*
X36998060Y4448820D01*
X36998060Y4448820D02*
X37150000Y4600760D01*
X45650000Y38600000D02*
X46351180Y38600000D01*
X46351180Y38600000D02*
X47300000Y37651180D01*
D51*
X31000000Y35251180D02*
X31000000Y41500000D01*
D47*
X34100000Y21148820D02*
X34100000Y20700000D01*
X34850000Y19950000D02*
X35450000Y19950000D01*
X34850000Y19950000D02*
X34100000Y20700000D01*
X34100000Y21148820D02*
X34000000Y21248820D01*
D49*
X34848820Y17900000D02*
X34848820Y18148820D01*
X34848820Y18148820D02*
X35450000Y18750000D01*
X35450000Y18750000D02*
X35450000Y19950000D01*
X21000000Y27800000D02*
X21000000Y25600000D01*
X20900000Y24700000D02*
X21300000Y24300000D01*
X20900000Y25500000D02*
X20900000Y24700000D01*
X21000000Y25600000D02*
X20900000Y25500000D01*
X21000000Y29148820D02*
X21000000Y27800000D01*
D47*
X31300000Y29200000D02*
X32400000Y28100000D01*
X28900000Y29200000D02*
X31300000Y29200000D01*
X35200000Y28100000D02*
X35450000Y27850000D01*
X32400000Y28100000D02*
X35200000Y28100000D01*
X35450000Y27200000D02*
X35450000Y27850000D01*
X35450000Y27200000D02*
X35900000Y27200000D01*
X36100000Y27000000D02*
X36100000Y25850000D01*
X35900000Y27200000D02*
X36100000Y27000000D01*
X35450000Y25850000D02*
X35450000Y27200000D01*
D49*
X19200000Y31900000D02*
X18648820Y31900000D01*
X18648820Y31900000D02*
X19200000Y31900000D01*
X18648820Y31900000D02*
X18600000Y31851180D01*
X13800000Y14600000D02*
X15400000Y16200000D01*
X15400000Y16200000D02*
X15400000Y19400000D01*
X15400000Y19400000D02*
X16500000Y20500000D01*
X13451180Y14600000D02*
X13800000Y14600000D01*
X18500000Y21500000D02*
X18900000Y21100000D01*
X13551180Y14500000D02*
X13600000Y14500000D01*
X17300000Y27000000D02*
X17300000Y25100000D01*
X24500000Y23500000D02*
X24900000Y23100000D01*
X26100000Y23500000D02*
X26900000Y23500000D01*
X25700000Y23100000D02*
X26100000Y23500000D01*
X24900000Y23100000D02*
X25700000Y23100000D01*
X44370000Y30600000D02*
X44400000Y30600000D01*
X44400000Y30600000D02*
X45648820Y31848820D01*
X44370000Y30600000D02*
X44370000Y31170000D01*
X45648820Y31848820D02*
X47000000Y31848820D01*
X44370000Y30600000D02*
X44370000Y30821180D01*
X41830000Y25000000D02*
X41830000Y23630000D01*
X41830000Y23630000D02*
X41600000Y23400000D01*
X41600000Y23400000D02*
X38500000Y23400000D01*
X38500000Y23400000D02*
X38050000Y23850000D01*
X38050000Y23850000D02*
X38050000Y25850000D01*
D47*
X36750000Y25850000D02*
X36750000Y24550000D01*
X35900000Y23700000D02*
X33850000Y23700000D01*
X36750000Y24550000D02*
X35900000Y23700000D01*
X33850000Y23700000D02*
X33850000Y22501180D01*
X33850000Y22501180D02*
X34000000Y22351180D01*
X33850000Y23700000D02*
X33550000Y23700000D01*
X33550000Y23700000D02*
X32100000Y25150000D01*
X33900000Y25900000D02*
X33200000Y25900000D01*
X32450000Y26650000D02*
X32100000Y26650000D01*
X33200000Y25900000D02*
X32450000Y26650000D01*
X32100000Y25900000D02*
X32400000Y25900000D01*
X32400000Y25900000D02*
X33150000Y25150000D01*
X33150000Y25150000D02*
X33900000Y25150000D01*
M02*
