G04 #@! TF.FileFunction,Legend,Top*
%FSLAX46Y46*%
G04 Gerber Fmt 4.6, Leading zero omitted, Abs format (unit mm)*
G04 Created by KiCad (PCBNEW 4.0.2-stable) date 2016/09/19 18:56:50*
%MOMM*%
G01*
G04 APERTURE LIST*
%ADD10C,0.100000*%
%ADD11C,0.180000*%
%ADD12C,0.200000*%
%ADD13C,0.300000*%
%ADD14C,0.150000*%
%ADD15C,0.010000*%
%ADD16C,0.150660*%
%ADD17C,0.160020*%
G04 APERTURE END LIST*
D10*
D11*
X59795238Y33299048D02*
X59700000Y33346667D01*
X59652381Y33394286D01*
X59604762Y33489524D01*
X59604762Y33537143D01*
X59652381Y33632381D01*
X59700000Y33680000D01*
X59795238Y33727619D01*
X59985715Y33727619D01*
X60080953Y33680000D01*
X60128572Y33632381D01*
X60176191Y33537143D01*
X60176191Y33489524D01*
X60128572Y33394286D01*
X60080953Y33346667D01*
X59985715Y33299048D01*
X59795238Y33299048D01*
X59700000Y33251429D01*
X59652381Y33203810D01*
X59604762Y33108571D01*
X59604762Y32918095D01*
X59652381Y32822857D01*
X59700000Y32775238D01*
X59795238Y32727619D01*
X59985715Y32727619D01*
X60080953Y32775238D01*
X60128572Y32822857D01*
X60176191Y32918095D01*
X60176191Y33108571D01*
X60128572Y33203810D01*
X60080953Y33251429D01*
X59985715Y33299048D01*
X60795238Y33727619D02*
X60890477Y33727619D01*
X60985715Y33680000D01*
X61033334Y33632381D01*
X61080953Y33537143D01*
X61128572Y33346667D01*
X61128572Y33108571D01*
X61080953Y32918095D01*
X61033334Y32822857D01*
X60985715Y32775238D01*
X60890477Y32727619D01*
X60795238Y32727619D01*
X60700000Y32775238D01*
X60652381Y32822857D01*
X60604762Y32918095D01*
X60557143Y33108571D01*
X60557143Y33346667D01*
X60604762Y33537143D01*
X60652381Y33632381D01*
X60700000Y33680000D01*
X60795238Y33727619D01*
X61557143Y32727619D02*
X61557143Y33727619D01*
X61890477Y33013333D01*
X62223810Y33727619D01*
X62223810Y32727619D01*
X62652381Y32775238D02*
X62747619Y32727619D01*
X62938095Y32727619D01*
X63033334Y32775238D01*
X63080953Y32870476D01*
X63080953Y32918095D01*
X63033334Y33013333D01*
X62938095Y33060952D01*
X62795238Y33060952D01*
X62700000Y33108571D01*
X62652381Y33203810D01*
X62652381Y33251429D01*
X62700000Y33346667D01*
X62795238Y33394286D01*
X62938095Y33394286D01*
X63033334Y33346667D01*
X63509524Y33394286D02*
X63509524Y32394286D01*
X63509524Y33346667D02*
X63604762Y33394286D01*
X63795239Y33394286D01*
X63890477Y33346667D01*
X63938096Y33299048D01*
X63985715Y33203810D01*
X63985715Y32918095D01*
X63938096Y32822857D01*
X63890477Y32775238D01*
X63795239Y32727619D01*
X63604762Y32727619D01*
X63509524Y32775238D01*
X64366667Y32775238D02*
X64461905Y32727619D01*
X64652381Y32727619D01*
X64747620Y32775238D01*
X64795239Y32870476D01*
X64795239Y32918095D01*
X64747620Y33013333D01*
X64652381Y33060952D01*
X64509524Y33060952D01*
X64414286Y33108571D01*
X64366667Y33203810D01*
X64366667Y33251429D01*
X64414286Y33346667D01*
X64509524Y33394286D01*
X64652381Y33394286D01*
X64747620Y33346667D01*
X57914286Y31147619D02*
X57342857Y31147619D01*
X57628571Y31147619D02*
X57628571Y32147619D01*
X57533333Y32004762D01*
X57438095Y31909524D01*
X57342857Y31861905D01*
X58771429Y32147619D02*
X58580952Y32147619D01*
X58485714Y32100000D01*
X58438095Y32052381D01*
X58342857Y31909524D01*
X58295238Y31719048D01*
X58295238Y31338095D01*
X58342857Y31242857D01*
X58390476Y31195238D01*
X58485714Y31147619D01*
X58676191Y31147619D01*
X58771429Y31195238D01*
X58819048Y31242857D01*
X58866667Y31338095D01*
X58866667Y31576190D01*
X58819048Y31671429D01*
X58771429Y31719048D01*
X58676191Y31766667D01*
X58485714Y31766667D01*
X58390476Y31719048D01*
X58342857Y31671429D01*
X58295238Y31576190D01*
X59295238Y31147619D02*
X59295238Y32147619D01*
X59628572Y31433333D01*
X59961905Y32147619D01*
X59961905Y31147619D01*
X60438095Y31147619D02*
X60438095Y32147619D01*
X60438095Y31671429D02*
X61009524Y31671429D01*
X61009524Y31147619D02*
X61009524Y32147619D01*
X61390476Y31814286D02*
X61914286Y31814286D01*
X61390476Y31147619D01*
X61914286Y31147619D01*
X62295238Y31528571D02*
X63057143Y31528571D01*
X64009524Y32147619D02*
X63533333Y32147619D01*
X63485714Y31671429D01*
X63533333Y31719048D01*
X63628571Y31766667D01*
X63866667Y31766667D01*
X63961905Y31719048D01*
X64009524Y31671429D01*
X64057143Y31576190D01*
X64057143Y31338095D01*
X64009524Y31242857D01*
X63961905Y31195238D01*
X63866667Y31147619D01*
X63628571Y31147619D01*
X63533333Y31195238D01*
X63485714Y31242857D01*
X64485714Y31147619D02*
X64485714Y32147619D01*
X64819048Y31433333D01*
X65152381Y32147619D01*
X65152381Y31147619D01*
X65628571Y31147619D02*
X65628571Y32147619D01*
X65628571Y31671429D02*
X66200000Y31671429D01*
X66200000Y31147619D02*
X66200000Y32147619D01*
X66580952Y31814286D02*
X67104762Y31814286D01*
X66580952Y31147619D01*
X67104762Y31147619D01*
X58961905Y30091429D02*
X59104762Y30043810D01*
X59152381Y29996190D01*
X59200000Y29900952D01*
X59200000Y29758095D01*
X59152381Y29662857D01*
X59104762Y29615238D01*
X59009524Y29567619D01*
X58628571Y29567619D01*
X58628571Y30567619D01*
X58961905Y30567619D01*
X59057143Y30520000D01*
X59104762Y30472381D01*
X59152381Y30377143D01*
X59152381Y30281905D01*
X59104762Y30186667D01*
X59057143Y30139048D01*
X58961905Y30091429D01*
X58628571Y30091429D01*
X60057143Y29567619D02*
X60057143Y30091429D01*
X60009524Y30186667D01*
X59914286Y30234286D01*
X59723809Y30234286D01*
X59628571Y30186667D01*
X60057143Y29615238D02*
X59961905Y29567619D01*
X59723809Y29567619D01*
X59628571Y29615238D01*
X59580952Y29710476D01*
X59580952Y29805714D01*
X59628571Y29900952D01*
X59723809Y29948571D01*
X59961905Y29948571D01*
X60057143Y29996190D01*
X60533333Y30234286D02*
X60533333Y29567619D01*
X60533333Y30139048D02*
X60580952Y30186667D01*
X60676190Y30234286D01*
X60819048Y30234286D01*
X60914286Y30186667D01*
X60961905Y30091429D01*
X60961905Y29567619D01*
X61866667Y29567619D02*
X61866667Y30567619D01*
X61866667Y29615238D02*
X61771429Y29567619D01*
X61580952Y29567619D01*
X61485714Y29615238D01*
X61438095Y29662857D01*
X61390476Y29758095D01*
X61390476Y30043810D01*
X61438095Y30139048D01*
X61485714Y30186667D01*
X61580952Y30234286D01*
X61771429Y30234286D01*
X61866667Y30186667D01*
X62247619Y30234286D02*
X62438095Y29567619D01*
X62628572Y30043810D01*
X62819048Y29567619D01*
X63009524Y30234286D01*
X63390476Y29567619D02*
X63390476Y30234286D01*
X63390476Y30567619D02*
X63342857Y30520000D01*
X63390476Y30472381D01*
X63438095Y30520000D01*
X63390476Y30567619D01*
X63390476Y30472381D01*
X64295238Y29567619D02*
X64295238Y30567619D01*
X64295238Y29615238D02*
X64200000Y29567619D01*
X64009523Y29567619D01*
X63914285Y29615238D01*
X63866666Y29662857D01*
X63819047Y29758095D01*
X63819047Y30043810D01*
X63866666Y30139048D01*
X63914285Y30186667D01*
X64009523Y30234286D01*
X64200000Y30234286D01*
X64295238Y30186667D01*
X64628571Y30234286D02*
X65009523Y30234286D01*
X64771428Y30567619D02*
X64771428Y29710476D01*
X64819047Y29615238D01*
X64914285Y29567619D01*
X65009523Y29567619D01*
X65342857Y29567619D02*
X65342857Y30567619D01*
X65771429Y29567619D02*
X65771429Y30091429D01*
X65723810Y30186667D01*
X65628572Y30234286D01*
X65485714Y30234286D01*
X65390476Y30186667D01*
X65342857Y30139048D01*
D12*
X56328572Y5347619D02*
X55852381Y5347619D01*
X55852381Y6347619D01*
X56661905Y5347619D02*
X56661905Y6014286D01*
X56661905Y6347619D02*
X56614286Y6300000D01*
X56661905Y6252381D01*
X56709524Y6300000D01*
X56661905Y6347619D01*
X56661905Y6252381D01*
X57138095Y5347619D02*
X57138095Y6014286D01*
X57138095Y5919048D02*
X57185714Y5966667D01*
X57280952Y6014286D01*
X57423810Y6014286D01*
X57519048Y5966667D01*
X57566667Y5871429D01*
X57566667Y5347619D01*
X57566667Y5871429D02*
X57614286Y5966667D01*
X57709524Y6014286D01*
X57852381Y6014286D01*
X57947619Y5966667D01*
X57995238Y5871429D01*
X57995238Y5347619D01*
X58852381Y5395238D02*
X58757143Y5347619D01*
X58566666Y5347619D01*
X58471428Y5395238D01*
X58423809Y5490476D01*
X58423809Y5871429D01*
X58471428Y5966667D01*
X58566666Y6014286D01*
X58757143Y6014286D01*
X58852381Y5966667D01*
X58900000Y5871429D01*
X58900000Y5776190D01*
X58423809Y5680952D01*
X59328571Y5347619D02*
X59328571Y6347619D01*
X59709524Y6347619D01*
X59804762Y6300000D01*
X59852381Y6252381D01*
X59900000Y6157143D01*
X59900000Y6014286D01*
X59852381Y5919048D01*
X59804762Y5871429D01*
X59709524Y5823810D01*
X59328571Y5823810D01*
X60757143Y6014286D02*
X60757143Y5347619D01*
X60328571Y6014286D02*
X60328571Y5490476D01*
X60376190Y5395238D01*
X60471428Y5347619D01*
X60614286Y5347619D01*
X60709524Y5395238D01*
X60757143Y5442857D01*
X61376190Y5347619D02*
X61280952Y5395238D01*
X61233333Y5490476D01*
X61233333Y6347619D01*
X61709524Y5395238D02*
X61804762Y5347619D01*
X61995238Y5347619D01*
X62090477Y5395238D01*
X62138096Y5490476D01*
X62138096Y5538095D01*
X62090477Y5633333D01*
X61995238Y5680952D01*
X61852381Y5680952D01*
X61757143Y5728571D01*
X61709524Y5823810D01*
X61709524Y5871429D01*
X61757143Y5966667D01*
X61852381Y6014286D01*
X61995238Y6014286D01*
X62090477Y5966667D01*
X62947620Y5395238D02*
X62852382Y5347619D01*
X62661905Y5347619D01*
X62566667Y5395238D01*
X62519048Y5490476D01*
X62519048Y5871429D01*
X62566667Y5966667D01*
X62661905Y6014286D01*
X62852382Y6014286D01*
X62947620Y5966667D01*
X62995239Y5871429D01*
X62995239Y5776190D01*
X62519048Y5680952D01*
X66052381Y35247619D02*
X66052381Y35914286D01*
X66052381Y35723810D02*
X66100000Y35819048D01*
X66147619Y35866667D01*
X66242857Y35914286D01*
X66338096Y35914286D01*
X67052382Y35295238D02*
X66957144Y35247619D01*
X66766667Y35247619D01*
X66671429Y35295238D01*
X66623810Y35390476D01*
X66623810Y35771429D01*
X66671429Y35866667D01*
X66766667Y35914286D01*
X66957144Y35914286D01*
X67052382Y35866667D01*
X67100001Y35771429D01*
X67100001Y35676190D01*
X66623810Y35580952D01*
X67433334Y35914286D02*
X67671429Y35247619D01*
X67909525Y35914286D01*
X68290477Y35342857D02*
X68338096Y35295238D01*
X68290477Y35247619D01*
X68242858Y35295238D01*
X68290477Y35342857D01*
X68290477Y35247619D01*
X68719048Y35533333D02*
X69195239Y35533333D01*
X68623810Y35247619D02*
X68957143Y36247619D01*
X69290477Y35247619D01*
D13*
X57042857Y34750000D02*
X57185714Y34678571D01*
X57400000Y34678571D01*
X57614285Y34750000D01*
X57757143Y34892857D01*
X57828571Y35035714D01*
X57900000Y35321429D01*
X57900000Y35535714D01*
X57828571Y35821429D01*
X57757143Y35964286D01*
X57614285Y36107143D01*
X57400000Y36178571D01*
X57257143Y36178571D01*
X57042857Y36107143D01*
X56971428Y36035714D01*
X56971428Y35535714D01*
X57257143Y35535714D01*
X56328571Y36178571D02*
X56328571Y34678571D01*
X55471428Y36178571D01*
X55471428Y34678571D01*
X54757142Y36178571D02*
X54757142Y34678571D01*
X54399999Y34678571D01*
X54185714Y34750000D01*
X54042856Y34892857D01*
X53971428Y35035714D01*
X53899999Y35321429D01*
X53899999Y35535714D01*
X53971428Y35821429D01*
X54042856Y35964286D01*
X54185714Y36107143D01*
X54399999Y36178571D01*
X54757142Y36178571D01*
D12*
X52800000Y36800000D02*
X52800000Y42600000D01*
X59200000Y36800000D02*
X59200000Y42600000D01*
X52800000Y36800000D02*
X59200000Y36800000D01*
D14*
X33335715Y12164286D02*
X33464286Y12121429D01*
X33507143Y12078571D01*
X33550000Y11992857D01*
X33550000Y11864286D01*
X33507143Y11778571D01*
X33464286Y11735714D01*
X33378572Y11692857D01*
X33035715Y11692857D01*
X33035715Y12592857D01*
X33335715Y12592857D01*
X33421429Y12550000D01*
X33464286Y12507143D01*
X33507143Y12421429D01*
X33507143Y12335714D01*
X33464286Y12250000D01*
X33421429Y12207143D01*
X33335715Y12164286D01*
X33035715Y12164286D01*
X33935715Y11692857D02*
X33935715Y12592857D01*
X34321429Y11950000D02*
X34750000Y11950000D01*
X34235714Y11692857D02*
X34535714Y12592857D01*
X34835714Y11692857D01*
X35092858Y11735714D02*
X35221429Y11692857D01*
X35435715Y11692857D01*
X35521429Y11735714D01*
X35564286Y11778571D01*
X35607143Y11864286D01*
X35607143Y11950000D01*
X35564286Y12035714D01*
X35521429Y12078571D01*
X35435715Y12121429D01*
X35264286Y12164286D01*
X35178572Y12207143D01*
X35135715Y12250000D01*
X35092858Y12335714D01*
X35092858Y12421429D01*
X35135715Y12507143D01*
X35178572Y12550000D01*
X35264286Y12592857D01*
X35478572Y12592857D01*
X35607143Y12550000D01*
D12*
X29400000Y40000000D02*
X29400000Y42600000D01*
X32600000Y42600000D02*
X32600000Y40000000D01*
X32600000Y40000000D02*
X29400000Y40000000D01*
D14*
X47357143Y21757143D02*
X46785714Y21757143D01*
X46785714Y22957143D01*
X47985715Y22957143D02*
X48214286Y22957143D01*
X48328572Y22900000D01*
X48442858Y22785714D01*
X48500000Y22557143D01*
X48500000Y22157143D01*
X48442858Y21928571D01*
X48328572Y21814286D01*
X48214286Y21757143D01*
X47985715Y21757143D01*
X47871429Y21814286D01*
X47757143Y21928571D01*
X47700000Y22157143D01*
X47700000Y22557143D01*
X47757143Y22785714D01*
X47871429Y22900000D01*
X47985715Y22957143D01*
X48900001Y22957143D02*
X49185715Y21757143D01*
X49414286Y22614286D01*
X49642858Y21757143D01*
X49928572Y22957143D01*
X44242857Y13457143D02*
X44242857Y14657143D01*
X44242857Y14085714D02*
X44928572Y14085714D01*
X44928572Y13457143D02*
X44928572Y14657143D01*
X45500000Y13457143D02*
X45500000Y14657143D01*
X46700001Y14600000D02*
X46585715Y14657143D01*
X46414286Y14657143D01*
X46242858Y14600000D01*
X46128572Y14485714D01*
X46071429Y14371429D01*
X46014286Y14142857D01*
X46014286Y13971429D01*
X46071429Y13742857D01*
X46128572Y13628571D01*
X46242858Y13514286D01*
X46414286Y13457143D01*
X46528572Y13457143D01*
X46700001Y13514286D01*
X46757144Y13571429D01*
X46757144Y13971429D01*
X46528572Y13971429D01*
X47271429Y13457143D02*
X47271429Y14657143D01*
X47271429Y14085714D02*
X47957144Y14085714D01*
X47957144Y13457143D02*
X47957144Y14657143D01*
X33238095Y38077381D02*
X33238095Y37077381D01*
X32857142Y37077381D01*
X32761904Y37125000D01*
X32714285Y37172619D01*
X32666666Y37267857D01*
X32666666Y37410714D01*
X32714285Y37505952D01*
X32761904Y37553571D01*
X32857142Y37601190D01*
X33238095Y37601190D01*
X31666666Y38077381D02*
X32000000Y37601190D01*
X32238095Y38077381D02*
X32238095Y37077381D01*
X31857142Y37077381D01*
X31761904Y37125000D01*
X31714285Y37172619D01*
X31666666Y37267857D01*
X31666666Y37410714D01*
X31714285Y37505952D01*
X31761904Y37553571D01*
X31857142Y37601190D01*
X32238095Y37601190D01*
X31047619Y37077381D02*
X30857142Y37077381D01*
X30761904Y37125000D01*
X30666666Y37220238D01*
X30619047Y37410714D01*
X30619047Y37744048D01*
X30666666Y37934524D01*
X30761904Y38029762D01*
X30857142Y38077381D01*
X31047619Y38077381D01*
X31142857Y38029762D01*
X31238095Y37934524D01*
X31285714Y37744048D01*
X31285714Y37410714D01*
X31238095Y37220238D01*
X31142857Y37125000D01*
X31047619Y37077381D01*
X29857142Y37553571D02*
X29714285Y37601190D01*
X29666666Y37648810D01*
X29619047Y37744048D01*
X29619047Y37886905D01*
X29666666Y37982143D01*
X29714285Y38029762D01*
X29809523Y38077381D01*
X30190476Y38077381D01*
X30190476Y37077381D01*
X29857142Y37077381D01*
X29761904Y37125000D01*
X29714285Y37172619D01*
X29666666Y37267857D01*
X29666666Y37363095D01*
X29714285Y37458333D01*
X29761904Y37505952D01*
X29857142Y37553571D01*
X30190476Y37553571D01*
X29190476Y37553571D02*
X28857142Y37553571D01*
X28714285Y38077381D02*
X29190476Y38077381D01*
X29190476Y37077381D01*
X28714285Y37077381D01*
X33500000Y39341667D02*
X33023809Y39341667D01*
X33595238Y39627381D02*
X33261905Y38627381D01*
X32928571Y39627381D01*
X32595238Y39627381D02*
X32595238Y38627381D01*
X32357143Y38627381D01*
X32214285Y38675000D01*
X32119047Y38770238D01*
X32071428Y38865476D01*
X32023809Y39055952D01*
X32023809Y39198810D01*
X32071428Y39389286D01*
X32119047Y39484524D01*
X32214285Y39579762D01*
X32357143Y39627381D01*
X32595238Y39627381D01*
X31309523Y38627381D02*
X31309523Y39341667D01*
X31357143Y39484524D01*
X31452381Y39579762D01*
X31595238Y39627381D01*
X31690476Y39627381D01*
X30833333Y38627381D02*
X30833333Y39436905D01*
X30785714Y39532143D01*
X30738095Y39579762D01*
X30642857Y39627381D01*
X30452380Y39627381D01*
X30357142Y39579762D01*
X30309523Y39532143D01*
X30261904Y39436905D01*
X30261904Y38627381D01*
X29833333Y39579762D02*
X29690476Y39627381D01*
X29452380Y39627381D01*
X29357142Y39579762D01*
X29309523Y39532143D01*
X29261904Y39436905D01*
X29261904Y39341667D01*
X29309523Y39246429D01*
X29357142Y39198810D01*
X29452380Y39151190D01*
X29642857Y39103571D01*
X29738095Y39055952D01*
X29785714Y39008333D01*
X29833333Y38913095D01*
X29833333Y38817857D01*
X29785714Y38722619D01*
X29738095Y38675000D01*
X29642857Y38627381D01*
X29404761Y38627381D01*
X29261904Y38675000D01*
X28976190Y38627381D02*
X28404761Y38627381D01*
X28690476Y39627381D02*
X28690476Y38627381D01*
X40000000Y25900000D02*
X40600000Y26500000D01*
X40600000Y26500000D02*
X40600000Y25300000D01*
X40600000Y25300000D02*
X40000000Y25900000D01*
X39686000Y24678000D02*
X39686000Y21122000D01*
X39686000Y21122000D02*
X35114000Y21122000D01*
X35114000Y21122000D02*
X35114000Y24678000D01*
X35114000Y24678000D02*
X39686000Y24678000D01*
X39432000Y23916000D02*
G75*
G03X39432000Y23916000I-508000J0D01*
G01*
X6500000Y26300000D02*
X6500000Y16700000D01*
X1500000Y16700000D02*
X6500000Y16700000D01*
X1500000Y26300000D02*
X6500000Y26300000D01*
X7000000Y23500000D02*
X6500000Y23000000D01*
X6500000Y23000000D02*
X7000000Y22500000D01*
X7000000Y22500000D02*
X7000000Y23500000D01*
X2550380Y29900640D02*
X14249620Y29900640D01*
X14249620Y34899360D02*
X2550380Y34899360D01*
X14249620Y29900640D02*
X14249620Y30749000D01*
X14249620Y34899360D02*
X14249620Y34051000D01*
X2550380Y29900640D02*
X2550380Y30749000D01*
X2550380Y34899360D02*
X2550380Y34051000D01*
X8650000Y14400000D02*
X4550000Y14400000D01*
X8650000Y16400000D02*
X4550000Y16400000D01*
X8650000Y16400000D02*
X8650000Y14400000D01*
X4550000Y14400000D02*
X4550000Y16400000D01*
X54650000Y20500000D02*
X50550000Y20500000D01*
X54650000Y22500000D02*
X50550000Y22500000D01*
X54650000Y22500000D02*
X54650000Y20500000D01*
X50550000Y20500000D02*
X50550000Y22500000D01*
X50000000Y2600000D02*
G75*
G03X50000000Y2600000I-100000J0D01*
G01*
X49250000Y2850000D02*
X49750000Y2850000D01*
X49250000Y5750000D02*
X49250000Y2850000D01*
X49750000Y5750000D02*
X49250000Y5750000D01*
X49750000Y2850000D02*
X49750000Y5750000D01*
X27800000Y7900000D02*
G75*
G03X27800000Y7900000I-100000J0D01*
G01*
X28350000Y7650000D02*
X27850000Y7650000D01*
X28350000Y4750000D02*
X28350000Y7650000D01*
X27850000Y4750000D02*
X28350000Y4750000D01*
X27850000Y7650000D02*
X27850000Y4750000D01*
X69200000Y14100000D02*
X69200000Y28900000D01*
X55700000Y25300000D02*
X55700000Y28900000D01*
X55700000Y20300000D02*
X55700000Y14100000D01*
X69200000Y14100000D02*
X55700000Y14100000D01*
X69200000Y28900000D02*
X55700000Y28900000D01*
X13650000Y3200000D02*
X9550000Y3200000D01*
X13650000Y5200000D02*
X9550000Y5200000D01*
X13650000Y5200000D02*
X13650000Y3200000D01*
X9550000Y3200000D02*
X9550000Y5200000D01*
X23250000Y14350000D02*
X21750000Y14350000D01*
X21750000Y11050000D02*
X21750000Y14350000D01*
X23250000Y11050000D02*
X21750000Y11050000D01*
X23250000Y14350000D02*
X23250000Y11050000D01*
X12500000Y11550000D02*
X12500000Y7450000D01*
X10500000Y11550000D02*
X10500000Y7450000D01*
X10500000Y11550000D02*
X12500000Y11550000D01*
X12500000Y7450000D02*
X10500000Y7450000D01*
X47250000Y4850000D02*
X45750000Y4850000D01*
X45750000Y1550000D02*
X45750000Y4850000D01*
X47250000Y1550000D02*
X45750000Y1550000D01*
X47250000Y4850000D02*
X47250000Y1550000D01*
X47850000Y2150000D02*
X47850000Y650000D01*
X51150000Y650000D02*
X47850000Y650000D01*
X51150000Y2150000D02*
X51150000Y650000D01*
X47850000Y2150000D02*
X51150000Y2150000D01*
X54700000Y4950000D02*
X54700000Y850000D01*
X52700000Y4950000D02*
X52700000Y850000D01*
X52700000Y4950000D02*
X54700000Y4950000D01*
X54700000Y850000D02*
X52700000Y850000D01*
X54750000Y6000000D02*
X50650000Y6000000D01*
X54750000Y8000000D02*
X50650000Y8000000D01*
X54750000Y8000000D02*
X54750000Y6000000D01*
X50650000Y6000000D02*
X50650000Y8000000D01*
X4050000Y26650000D02*
X4050000Y28150000D01*
X750000Y28150000D02*
X4050000Y28150000D01*
X750000Y26650000D02*
X750000Y28150000D01*
X4050000Y26650000D02*
X750000Y26650000D01*
X13650000Y17250000D02*
X13650000Y18750000D01*
X10350000Y18750000D02*
X13650000Y18750000D01*
X10350000Y17250000D02*
X10350000Y18750000D01*
X13650000Y17250000D02*
X10350000Y17250000D01*
X13850000Y26450000D02*
X13850000Y27950000D01*
X10550000Y27950000D02*
X13850000Y27950000D01*
X10550000Y26450000D02*
X10550000Y27950000D01*
X13850000Y26450000D02*
X10550000Y26450000D01*
X9550000Y2500000D02*
X13650000Y2500000D01*
X9550000Y500000D02*
X13650000Y500000D01*
X9550000Y500000D02*
X9550000Y2500000D01*
X13650000Y2500000D02*
X13650000Y500000D01*
X56000000Y850000D02*
X56000000Y4950000D01*
X58000000Y850000D02*
X58000000Y4950000D01*
X58000000Y850000D02*
X56000000Y850000D01*
X56000000Y4950000D02*
X58000000Y4950000D01*
X15700000Y42400000D02*
X15700000Y40600000D01*
X12700000Y42400000D02*
X12700000Y40600000D01*
X15700000Y40600000D02*
X12700000Y40600000D01*
X12700000Y42400000D02*
X15700000Y42400000D01*
X24600000Y2600000D02*
X25600000Y3600000D01*
X25600000Y3600000D02*
X24100000Y3600000D01*
X24100000Y3600000D02*
X23600000Y3600000D01*
X23600000Y3600000D02*
X24600000Y2600000D01*
X25600000Y1600000D02*
X25600000Y2600000D01*
X25600000Y2600000D02*
X15600000Y2600000D01*
X15600000Y2600000D02*
X15600000Y600000D01*
X15600000Y600000D02*
X25600000Y600000D01*
X25600000Y600000D02*
X25600000Y1600000D01*
X10100000Y23500000D02*
G75*
G03X10100000Y23500000I-100000J0D01*
G01*
X10650000Y23250000D02*
X10150000Y23250000D01*
X10650000Y20350000D02*
X10650000Y23250000D01*
X10150000Y20350000D02*
X10650000Y20350000D01*
X10150000Y23250000D02*
X10150000Y20350000D01*
X36800840Y2949760D02*
X36849100Y2949760D01*
X39599820Y3650800D02*
X39599820Y2949760D01*
X39599820Y2949760D02*
X39350900Y2949760D01*
X36800840Y2949760D02*
X36600180Y2949760D01*
X36600180Y2949760D02*
X36600180Y3650800D01*
X42799160Y10450240D02*
X42750900Y10450240D01*
X40000180Y9749200D02*
X40000180Y10450240D01*
X40000180Y10450240D02*
X40249100Y10450240D01*
X42799160Y10450240D02*
X42999820Y10450240D01*
X42999820Y10450240D02*
X42999820Y9749200D01*
X3400000Y13800000D02*
X7000000Y13800000D01*
X7000000Y13800000D02*
X7000000Y7200000D01*
X7000000Y7200000D02*
X3400000Y7200000D01*
X3400000Y7200000D02*
X3400000Y13800000D01*
X13800000Y13600000D02*
X12200000Y13600000D01*
X13800000Y12400000D02*
X12200000Y12400000D01*
X28200000Y23700000D02*
X29800000Y23700000D01*
X28200000Y24900000D02*
X29800000Y24900000D01*
X17500000Y12400000D02*
X17500000Y14000000D01*
X16300000Y12400000D02*
X16300000Y14000000D01*
X55100000Y24700000D02*
X55100000Y26300000D01*
X53900000Y24700000D02*
X53900000Y26300000D01*
X13500000Y20300000D02*
X11900000Y20300000D01*
X13500000Y19100000D02*
X11900000Y19100000D01*
X35300000Y17000000D02*
X33700000Y17000000D01*
X35300000Y15800000D02*
X33700000Y15800000D01*
X43000000Y41700000D02*
X43000000Y40100000D01*
X44200000Y41700000D02*
X44200000Y40100000D01*
X38100000Y12700000D02*
X38100000Y14300000D01*
X36900000Y12700000D02*
X36900000Y14300000D01*
X40200000Y17400000D02*
X38600000Y17400000D01*
X40200000Y16200000D02*
X38600000Y16200000D01*
X44300000Y4000000D02*
X44300000Y2400000D01*
X45500000Y4000000D02*
X45500000Y2400000D01*
X19700000Y14000000D02*
X19700000Y12400000D01*
X20900000Y14000000D02*
X20900000Y12400000D01*
X14800000Y14000000D02*
X14800000Y12400000D01*
X16000000Y14000000D02*
X16000000Y12400000D01*
X51800000Y29800000D02*
X50200000Y29800000D01*
X51800000Y28600000D02*
X50200000Y28600000D01*
X44600000Y20600000D02*
X44600000Y19000000D01*
X45800000Y20600000D02*
X45800000Y19000000D01*
X49600000Y27600000D02*
X49600000Y29200000D01*
X48400000Y27600000D02*
X48400000Y29200000D01*
X8500000Y18000000D02*
X6900000Y18000000D01*
X8500000Y16800000D02*
X6900000Y16800000D01*
X13100000Y10200000D02*
X13100000Y8600000D01*
X14300000Y10200000D02*
X14300000Y8600000D01*
X48200000Y21200000D02*
X46600000Y21200000D01*
X48200000Y20000000D02*
X46600000Y20000000D01*
X18000000Y14000000D02*
X18000000Y12400000D01*
X19200000Y14000000D02*
X19200000Y12400000D01*
X23700000Y14300000D02*
X23700000Y12700000D01*
X24900000Y14300000D02*
X24900000Y12700000D01*
X38600000Y28700000D02*
X40200000Y28700000D01*
X38600000Y29900000D02*
X40200000Y29900000D01*
X38100000Y27700000D02*
X38100000Y29300000D01*
X36900000Y27700000D02*
X36900000Y29300000D01*
X38100000Y16200000D02*
X38100000Y17800000D01*
X36900000Y16200000D02*
X36900000Y17800000D01*
X38100000Y30200000D02*
X38100000Y31800000D01*
X36900000Y30200000D02*
X36900000Y31800000D01*
X34200000Y30600000D02*
X34200000Y29000000D01*
X35400000Y30600000D02*
X35400000Y29000000D01*
X42300000Y32100000D02*
X43900000Y32100000D01*
X42300000Y33300000D02*
X43900000Y33300000D01*
X26800000Y42300000D02*
X25200000Y42300000D01*
X26800000Y41100000D02*
X25200000Y41100000D01*
X33900000Y31100000D02*
X33900000Y32700000D01*
X32700000Y31100000D02*
X32700000Y32700000D01*
X17600000Y28800000D02*
X17600000Y30400000D01*
X16400000Y28800000D02*
X16400000Y30400000D01*
X8800000Y36800000D02*
X7200000Y36800000D01*
X8800000Y35600000D02*
X7200000Y35600000D01*
X8400000Y25500000D02*
X8400000Y27100000D01*
X7200000Y25500000D02*
X7200000Y27100000D01*
X10200000Y35600000D02*
X11800000Y35600000D01*
X10200000Y36800000D02*
X11800000Y36800000D01*
X18300000Y28800000D02*
X19900000Y28800000D01*
X18300000Y30000000D02*
X19900000Y30000000D01*
X35600000Y3800000D02*
X34000000Y3800000D01*
X35600000Y2600000D02*
X34000000Y2600000D01*
X38100000Y7500000D02*
X36500000Y7500000D01*
X38100000Y6300000D02*
X36500000Y6300000D01*
X40200000Y6600000D02*
X41800000Y6600000D01*
X40200000Y7800000D02*
X41800000Y7800000D01*
X13500000Y26100000D02*
X11900000Y26100000D01*
X13500000Y24900000D02*
X11900000Y24900000D01*
X13500000Y24500000D02*
X11900000Y24500000D01*
X13500000Y23300000D02*
X11900000Y23300000D01*
X49600000Y10200000D02*
X51200000Y10200000D01*
X49600000Y11400000D02*
X51200000Y11400000D01*
X50200000Y27000000D02*
X51800000Y27000000D01*
X50200000Y28200000D02*
X51800000Y28200000D01*
X46800000Y29200000D02*
X46800000Y27600000D01*
X48000000Y29200000D02*
X48000000Y27600000D01*
X48200000Y19800000D02*
X46600000Y19800000D01*
X48200000Y18600000D02*
X46600000Y18600000D01*
X43000000Y20600000D02*
X43000000Y19000000D01*
X44200000Y20600000D02*
X44200000Y19000000D01*
X38600000Y29900000D02*
X40200000Y29900000D01*
X38600000Y31100000D02*
X40200000Y31100000D01*
X38600000Y15000000D02*
X40200000Y15000000D01*
X38600000Y16200000D02*
X40200000Y16200000D01*
X47600000Y31600000D02*
X47600000Y33200000D01*
X46400000Y31600000D02*
X46400000Y33200000D01*
X38600000Y17400000D02*
X40200000Y17400000D01*
X38600000Y18600000D02*
X40200000Y18600000D01*
X40200000Y28700000D02*
X38600000Y28700000D01*
X40200000Y27500000D02*
X38600000Y27500000D01*
X15000000Y40100000D02*
X13400000Y40100000D01*
X15000000Y38900000D02*
X13400000Y38900000D01*
X26800000Y13300000D02*
X28400000Y13300000D01*
X26800000Y14500000D02*
X28400000Y14500000D01*
X32700000Y30600000D02*
X32700000Y29000000D01*
X33900000Y30600000D02*
X33900000Y29000000D01*
X42300000Y33300000D02*
X43900000Y33300000D01*
X42300000Y34500000D02*
X43900000Y34500000D01*
X41600000Y41700000D02*
X41600000Y40100000D01*
X42800000Y41700000D02*
X42800000Y40100000D01*
X35400000Y31100000D02*
X35400000Y32700000D01*
X34200000Y31100000D02*
X34200000Y32700000D01*
X33700000Y14600000D02*
X35300000Y14600000D01*
X33700000Y15800000D02*
X35300000Y15800000D01*
X47900000Y36300000D02*
X47900000Y37900000D01*
X46700000Y36300000D02*
X46700000Y37900000D01*
X30400000Y35500000D02*
X30400000Y33900000D01*
X31600000Y35500000D02*
X31600000Y33900000D01*
X33300000Y6000000D02*
X31700000Y6000000D01*
X33300000Y4800000D02*
X31700000Y4800000D01*
X33300000Y7500000D02*
X31700000Y7500000D01*
X33300000Y6300000D02*
X31700000Y6300000D01*
X4800000Y26800000D02*
X6400000Y26800000D01*
X4800000Y28000000D02*
X6400000Y28000000D01*
X34600000Y21000000D02*
X34600000Y22600000D01*
X33400000Y21000000D02*
X33400000Y22600000D01*
X16700000Y3700000D02*
X18300000Y3700000D01*
X16700000Y4900000D02*
X18300000Y4900000D01*
X20400000Y30500000D02*
X20400000Y28900000D01*
X21600000Y30500000D02*
X21600000Y28900000D01*
X9600000Y24800000D02*
X8000000Y24800000D01*
X9600000Y23600000D02*
X8000000Y23600000D01*
X9600000Y20100000D02*
X8000000Y20100000D01*
X9600000Y18900000D02*
X8000000Y18900000D01*
X13700000Y16800000D02*
X12100000Y16800000D01*
X13700000Y15600000D02*
X12100000Y15600000D01*
X18000000Y32100000D02*
X18000000Y30500000D01*
X19200000Y32100000D02*
X19200000Y30500000D01*
X13700000Y15200000D02*
X12100000Y15200000D01*
X13700000Y14000000D02*
X12100000Y14000000D01*
X31200000Y10300000D02*
X31200000Y8700000D01*
X32400000Y10300000D02*
X32400000Y8700000D01*
X34100000Y6300000D02*
X35700000Y6300000D01*
X34100000Y7500000D02*
X35700000Y7500000D01*
X34800000Y5800000D02*
X34800000Y4200000D01*
X36000000Y5800000D02*
X36000000Y4200000D01*
X41300000Y3400000D02*
X41300000Y5000000D01*
X40100000Y3400000D02*
X40100000Y5000000D01*
X38400000Y12300000D02*
X38400000Y10700000D01*
X39600000Y12300000D02*
X39600000Y10700000D01*
X39600000Y8400000D02*
X39600000Y10000000D01*
X38400000Y8400000D02*
X38400000Y10000000D01*
X36900000Y10000000D02*
X36900000Y8400000D01*
X38100000Y10000000D02*
X38100000Y8400000D01*
X1900000Y14700000D02*
X3500000Y14700000D01*
X1900000Y15900000D02*
X3500000Y15900000D01*
X34600000Y17300000D02*
X36200000Y17300000D01*
X34600000Y18500000D02*
X36200000Y18500000D01*
X28600000Y10300000D02*
X28600000Y8700000D01*
X29800000Y10300000D02*
X29800000Y8700000D01*
X28300000Y21100000D02*
X29900000Y21100000D01*
X28300000Y22300000D02*
X29900000Y22300000D01*
X40400000Y41000000D02*
X41000000Y41600000D01*
X41000000Y41600000D02*
X41000000Y40400000D01*
X41000000Y40400000D02*
X40400000Y41000000D01*
X39940000Y39778000D02*
X39940000Y36222000D01*
X39940000Y36222000D02*
X34860000Y36222000D01*
X34860000Y36222000D02*
X34860000Y39778000D01*
X34860000Y39778000D02*
X39940000Y39778000D01*
X39491961Y38762000D02*
G75*
G03X39491961Y38762000I-567961J0D01*
G01*
X45700000Y37900000D02*
X44100000Y37900000D01*
X45700000Y36100000D02*
X44100000Y36100000D01*
X45700000Y37900000D02*
X45700000Y36100000D01*
X44100000Y36100000D02*
X44100000Y37900000D01*
X46500000Y38200000D02*
X46500000Y39000000D01*
X46500000Y39000000D02*
X46100000Y38600000D01*
X46100000Y38600000D02*
X46500000Y38200000D01*
X45523607Y37500000D02*
G75*
G03X45523607Y37500000I-223607J0D01*
G01*
X32600000Y13200000D02*
X32600000Y14600000D01*
X32700000Y14600000D02*
X32700000Y13200000D01*
X32700000Y13200000D02*
X29400000Y13200000D01*
X32700000Y14600000D02*
X29400000Y14600000D01*
X32400000Y14600000D02*
X32400000Y13200000D01*
X32500000Y14600000D02*
X32500000Y13200000D01*
X6500000Y3500000D02*
G75*
G03X6500000Y3500000I-3000000J0D01*
G01*
X69500000Y3500000D02*
G75*
G03X69500000Y3500000I-3000000J0D01*
G01*
X69500000Y39500000D02*
G75*
G03X69500000Y39500000I-3000000J0D01*
G01*
X6500000Y39500000D02*
G75*
G03X6500000Y39500000I-3000000J0D01*
G01*
D15*
G36*
X59292973Y7335174D02*
X59043315Y7087181D01*
X58793656Y6839189D01*
X57542433Y6839189D01*
X57542433Y9825405D01*
X58160271Y9825405D01*
X58160271Y7354054D01*
X58675135Y7354054D01*
X58675135Y9825405D01*
X58160271Y9825405D01*
X57542433Y9825405D01*
X57542433Y9832722D01*
X58034575Y10340270D01*
X59292973Y10340270D01*
X59292973Y7335174D01*
X59292973Y7335174D01*
G37*
X59292973Y7335174D02*
X59043315Y7087181D01*
X58793656Y6839189D01*
X57542433Y6839189D01*
X57542433Y9825405D01*
X58160271Y9825405D01*
X58160271Y7354054D01*
X58675135Y7354054D01*
X58675135Y9825405D01*
X58160271Y9825405D01*
X57542433Y9825405D01*
X57542433Y9832722D01*
X58034575Y10340270D01*
X59292973Y10340270D01*
X59292973Y7335174D01*
G36*
X61524054Y8830000D02*
X60906216Y8830000D01*
X60906216Y9070270D01*
X60388679Y9070270D01*
X60398596Y8769932D01*
X60408514Y8469594D01*
X61524054Y8450732D01*
X61524054Y7335174D01*
X61274396Y7087181D01*
X61024737Y6839189D01*
X59773514Y6839189D01*
X59773514Y7594324D01*
X60391352Y7594324D01*
X60391352Y7354054D01*
X60906216Y7354054D01*
X60906216Y7971892D01*
X59773514Y7971892D01*
X59773514Y9085818D01*
X60021506Y9335477D01*
X60269498Y9585135D01*
X61524054Y9585135D01*
X61524054Y8830000D01*
X61524054Y8830000D01*
G37*
X61524054Y8830000D02*
X60906216Y8830000D01*
X60906216Y9070270D01*
X60388679Y9070270D01*
X60398596Y8769932D01*
X60408514Y8469594D01*
X61524054Y8450732D01*
X61524054Y7335174D01*
X61274396Y7087181D01*
X61024737Y6839189D01*
X59773514Y6839189D01*
X59773514Y7594324D01*
X60391352Y7594324D01*
X60391352Y7354054D01*
X60906216Y7354054D01*
X60906216Y7971892D01*
X59773514Y7971892D01*
X59773514Y9085818D01*
X60021506Y9335477D01*
X60269498Y9585135D01*
X61524054Y9585135D01*
X61524054Y8830000D01*
G36*
X63755135Y8830000D02*
X63137298Y8830000D01*
X63137298Y9070270D01*
X62622433Y9070270D01*
X62622433Y7354054D01*
X63137298Y7354054D01*
X63137298Y7594324D01*
X63755135Y7594324D01*
X63755135Y7464749D01*
X63750055Y7400086D01*
X63728797Y7340894D01*
X63682340Y7273528D01*
X63601661Y7184342D01*
X63505477Y7087181D01*
X63255818Y6839189D01*
X62004595Y6839189D01*
X62004595Y9085818D01*
X62252587Y9335477D01*
X62500579Y9585135D01*
X63755135Y9585135D01*
X63755135Y8830000D01*
X63755135Y8830000D01*
G37*
X63755135Y8830000D02*
X63137298Y8830000D01*
X63137298Y9070270D01*
X62622433Y9070270D01*
X62622433Y7354054D01*
X63137298Y7354054D01*
X63137298Y7594324D01*
X63755135Y7594324D01*
X63755135Y7464749D01*
X63750055Y7400086D01*
X63728797Y7340894D01*
X63682340Y7273528D01*
X63601661Y7184342D01*
X63505477Y7087181D01*
X63255818Y6839189D01*
X62004595Y6839189D01*
X62004595Y9085818D01*
X62252587Y9335477D01*
X62500579Y9585135D01*
X63755135Y9585135D01*
X63755135Y8830000D01*
G36*
X64853514Y6839189D02*
X64235676Y6839189D01*
X64235676Y9585135D01*
X64853514Y9585135D01*
X64853514Y6839189D01*
X64853514Y6839189D01*
G37*
X64853514Y6839189D02*
X64235676Y6839189D01*
X64235676Y9585135D01*
X64853514Y9585135D01*
X64853514Y6839189D01*
G36*
X65986216Y6839189D02*
X65368379Y6839189D01*
X65368379Y10340270D01*
X65986216Y10340270D01*
X65986216Y6839189D01*
X65986216Y6839189D01*
G37*
X65986216Y6839189D02*
X65368379Y6839189D01*
X65368379Y10340270D01*
X65986216Y10340270D01*
X65986216Y6839189D01*
G36*
X67118919Y6839189D02*
X66501081Y6839189D01*
X66501081Y10340270D01*
X67118919Y10340270D01*
X67118919Y6839189D01*
X67118919Y6839189D01*
G37*
X67118919Y6839189D02*
X66501081Y6839189D01*
X66501081Y10340270D01*
X67118919Y10340270D01*
X67118919Y6839189D01*
G36*
X69384325Y7335174D02*
X69134666Y7087181D01*
X68885008Y6839189D01*
X67633784Y6839189D01*
X67633784Y9070270D01*
X68251622Y9070270D01*
X68251622Y7354054D01*
X68766487Y7354054D01*
X68766487Y9070270D01*
X68251622Y9070270D01*
X67633784Y9070270D01*
X67633784Y9085818D01*
X67881776Y9335477D01*
X68129769Y9585135D01*
X69384325Y9585135D01*
X69384325Y7335174D01*
X69384325Y7335174D01*
G37*
X69384325Y7335174D02*
X69134666Y7087181D01*
X68885008Y6839189D01*
X67633784Y6839189D01*
X67633784Y9070270D01*
X68251622Y9070270D01*
X68251622Y7354054D01*
X68766487Y7354054D01*
X68766487Y9070270D01*
X68251622Y9070270D01*
X67633784Y9070270D01*
X67633784Y9085818D01*
X67881776Y9335477D01*
X68129769Y9585135D01*
X69384325Y9585135D01*
X69384325Y7335174D01*
G36*
X64870676Y10323108D02*
X64870676Y9842567D01*
X64577294Y9832751D01*
X64441364Y9830941D01*
X64332663Y9834605D01*
X64268641Y9842956D01*
X64259794Y9847053D01*
X64247685Y9891251D01*
X64239028Y9984086D01*
X64235676Y10105562D01*
X64235676Y10342846D01*
X64870676Y10323108D01*
X64870676Y10323108D01*
G37*
X64870676Y10323108D02*
X64870676Y9842567D01*
X64577294Y9832751D01*
X64441364Y9830941D01*
X64332663Y9834605D01*
X64268641Y9842956D01*
X64259794Y9847053D01*
X64247685Y9891251D01*
X64239028Y9984086D01*
X64235676Y10105562D01*
X64235676Y10342846D01*
X64870676Y10323108D01*
G36*
X57189801Y13627683D02*
X57439460Y13379691D01*
X57439460Y10870579D01*
X57189801Y10622587D01*
X56940143Y10374594D01*
X55688919Y10374594D01*
X55688919Y13360811D01*
X56306757Y13360811D01*
X56306757Y10889459D01*
X56821622Y10889459D01*
X56821622Y13360811D01*
X56306757Y13360811D01*
X55688919Y13360811D01*
X55688919Y13875676D01*
X56940143Y13875676D01*
X57189801Y13627683D01*
X57189801Y13627683D01*
G37*
X57189801Y13627683D02*
X57439460Y13379691D01*
X57439460Y10870579D01*
X57189801Y10622587D01*
X56940143Y10374594D01*
X55688919Y10374594D01*
X55688919Y13360811D01*
X56306757Y13360811D01*
X56306757Y10889459D01*
X56821622Y10889459D01*
X56821622Y13360811D01*
X56306757Y13360811D01*
X55688919Y13360811D01*
X55688919Y13875676D01*
X56940143Y13875676D01*
X57189801Y13627683D01*
G36*
X59422548Y12870882D02*
X59536956Y12752932D01*
X59609979Y12668016D01*
X59650576Y12602496D01*
X59667706Y12542732D01*
X59670541Y12493314D01*
X59670541Y12365405D01*
X59052703Y12365405D01*
X59052703Y12605676D01*
X58537838Y12605676D01*
X58537838Y10374594D01*
X57920000Y10374594D01*
X57920000Y13120540D01*
X59174556Y13120540D01*
X59422548Y12870882D01*
X59422548Y12870882D01*
G37*
X59422548Y12870882D02*
X59536956Y12752932D01*
X59609979Y12668016D01*
X59650576Y12602496D01*
X59667706Y12542732D01*
X59670541Y12493314D01*
X59670541Y12365405D01*
X59052703Y12365405D01*
X59052703Y12605676D01*
X58537838Y12605676D01*
X58537838Y10374594D01*
X57920000Y10374594D01*
X57920000Y13120540D01*
X59174556Y13120540D01*
X59422548Y12870882D01*
G36*
X61901622Y10870579D02*
X61651963Y10622587D01*
X61402305Y10374594D01*
X60151081Y10374594D01*
X60151081Y12605676D01*
X60768919Y12605676D01*
X60768919Y10889459D01*
X61283784Y10889459D01*
X61283784Y12605676D01*
X60768919Y12605676D01*
X60151081Y12605676D01*
X60151081Y12621223D01*
X60399074Y12870882D01*
X60647066Y13120540D01*
X61901622Y13120540D01*
X61901622Y10870579D01*
X61901622Y10870579D01*
G37*
X61901622Y10870579D02*
X61651963Y10622587D01*
X61402305Y10374594D01*
X60151081Y10374594D01*
X60151081Y12605676D01*
X60768919Y12605676D01*
X60768919Y10889459D01*
X61283784Y10889459D01*
X61283784Y12605676D01*
X60768919Y12605676D01*
X60151081Y12605676D01*
X60151081Y12621223D01*
X60399074Y12870882D01*
X60647066Y13120540D01*
X61901622Y13120540D01*
X61901622Y10870579D01*
G36*
X63000000Y10374594D02*
X62382162Y10374594D01*
X62382162Y13120540D01*
X63000000Y13120540D01*
X63000000Y10374594D01*
X63000000Y10374594D01*
G37*
X63000000Y10374594D02*
X62382162Y10374594D01*
X62382162Y13120540D01*
X63000000Y13120540D01*
X63000000Y10374594D01*
G36*
X65265406Y10870579D02*
X65015747Y10622587D01*
X64766089Y10374594D01*
X63514865Y10374594D01*
X63514865Y12605676D01*
X64132703Y12605676D01*
X64132703Y10889459D01*
X64647568Y10889459D01*
X64647568Y12605676D01*
X64132703Y12605676D01*
X63514865Y12605676D01*
X63514865Y12621223D01*
X63762857Y12870882D01*
X64010850Y13120540D01*
X64647568Y13120540D01*
X64647568Y13875676D01*
X65265406Y13875676D01*
X65265406Y10870579D01*
X65265406Y10870579D01*
G37*
X65265406Y10870579D02*
X65015747Y10622587D01*
X64766089Y10374594D01*
X63514865Y10374594D01*
X63514865Y12605676D01*
X64132703Y12605676D01*
X64132703Y10889459D01*
X64647568Y10889459D01*
X64647568Y12605676D01*
X64132703Y12605676D01*
X63514865Y12605676D01*
X63514865Y12621223D01*
X63762857Y12870882D01*
X64010850Y13120540D01*
X64647568Y13120540D01*
X64647568Y13875676D01*
X65265406Y13875676D01*
X65265406Y10870579D01*
G36*
X62699662Y13868383D02*
X63017162Y13858513D01*
X63017162Y13377973D01*
X62723780Y13368157D01*
X62587851Y13366347D01*
X62479149Y13370010D01*
X62415127Y13378361D01*
X62406280Y13382459D01*
X62394172Y13426657D01*
X62385514Y13519491D01*
X62382163Y13640967D01*
X62382162Y13642414D01*
X62382162Y13878252D01*
X62699662Y13868383D01*
X62699662Y13868383D01*
G37*
X62699662Y13868383D02*
X63017162Y13858513D01*
X63017162Y13377973D01*
X62723780Y13368157D01*
X62587851Y13366347D01*
X62479149Y13370010D01*
X62415127Y13378361D01*
X62406280Y13382459D01*
X62394172Y13426657D01*
X62385514Y13519491D01*
X62382163Y13640967D01*
X62382162Y13642414D01*
X62382162Y13878252D01*
X62699662Y13868383D01*
D14*
X34500000Y23100000D02*
X33200000Y23100000D01*
X34500000Y24300000D02*
X33200000Y24300000D01*
X34500000Y24300000D02*
X34500000Y23100000D01*
X33200000Y24300000D02*
X33200000Y23100000D01*
D12*
X31541421Y27400000D02*
G75*
G03X31541421Y27400000I-141421J0D01*
G01*
D14*
X33000000Y26900000D02*
X32750000Y26650000D01*
X32750000Y24900000D02*
X33250000Y24900000D01*
X33250000Y24900000D02*
X33250000Y26900000D01*
X33250000Y26900000D02*
X32750000Y26900000D01*
X32750000Y26900000D02*
X32750000Y24900000D01*
X41100000Y26100000D02*
X41100000Y29500000D01*
X45100000Y29500000D02*
X45100000Y26100000D01*
X45100000Y29500000D02*
X41100000Y29500000D01*
X45100000Y26100000D02*
X41100000Y26100000D01*
X45900000Y30000000D02*
X45900000Y31200000D01*
X45900000Y31200000D02*
X45300000Y30600000D01*
X45300000Y30600000D02*
X45900000Y30000000D01*
X44760555Y28800000D02*
G75*
G03X44760555Y28800000I-360555J0D01*
G01*
X54500000Y17500000D02*
X54500000Y14100000D01*
X50500000Y14100000D02*
X50500000Y17500000D01*
X50500000Y14100000D02*
X54500000Y14100000D01*
X50500000Y17500000D02*
X54500000Y17500000D01*
X49700000Y13600000D02*
X49700000Y12400000D01*
X49700000Y12400000D02*
X50300000Y13000000D01*
X50300000Y13000000D02*
X49700000Y13600000D01*
X51560555Y14800000D02*
G75*
G03X51560555Y14800000I-360555J0D01*
G01*
X21100000Y9400000D02*
X17500000Y9400000D01*
X17500000Y6400000D02*
X21100000Y6400000D01*
X21100000Y9400000D02*
X21100000Y6400000D01*
X17500000Y9400000D02*
X17500000Y6400000D01*
X16300000Y9500000D02*
X15700000Y10100000D01*
X15700000Y10100000D02*
X16900000Y10100000D01*
X16900000Y10100000D02*
X16300000Y9500000D01*
X18403553Y8650000D02*
G75*
G03X18403553Y8650000I-353553J0D01*
G01*
X48250000Y15100000D02*
X48250000Y15600000D01*
X48250000Y18100000D02*
X48250000Y17600000D01*
X46000000Y15600000D02*
X46000000Y17600000D01*
X47060660Y16600000D02*
G75*
G03X47060660Y16600000I-1060660J0D01*
G01*
X43750000Y15600000D02*
X44250000Y15100000D01*
X44250000Y15100000D02*
X48250000Y15100000D01*
X43750000Y17600000D02*
X44250000Y18100000D01*
X44250000Y18100000D02*
X48250000Y18100000D01*
X51050000Y23300000D02*
X51050000Y23800000D01*
X51050000Y26300000D02*
X51050000Y25800000D01*
X48800000Y23800000D02*
X48800000Y25800000D01*
X49860660Y24800000D02*
G75*
G03X49860660Y24800000I-1060660J0D01*
G01*
X46550000Y23800000D02*
X47050000Y23300000D01*
X47050000Y23300000D02*
X51050000Y23300000D01*
X46550000Y25800000D02*
X47050000Y26300000D01*
X47050000Y26300000D02*
X51050000Y26300000D01*
X20100000Y40200000D02*
X24700000Y40200000D01*
X20100000Y35200000D02*
X24700000Y35200000D01*
X24700000Y40200000D02*
X24700000Y35200000D01*
X20100000Y40200000D02*
X20100000Y35200000D01*
X18600000Y40500000D02*
X17800000Y41300000D01*
X17800000Y41300000D02*
X19400000Y41300000D01*
X19400000Y41300000D02*
X18600000Y40500000D01*
X21400000Y39200000D02*
G75*
G03X21400000Y39200000I-500000J0D01*
G01*
X16800000Y17000000D02*
X25000000Y17000000D01*
X25400000Y25600000D02*
X25400000Y17400000D01*
X16200000Y26000000D02*
X16400000Y26200000D01*
X16000000Y26000000D02*
X16400000Y26400000D01*
X16400000Y26500000D02*
X15900000Y26000000D01*
X15800000Y26000000D02*
X16400000Y26600000D01*
X15700000Y26000000D02*
X16400000Y26700000D01*
X15600000Y26000000D02*
X16400000Y26800000D01*
X15500000Y26000000D02*
X16400000Y26900000D01*
X16400000Y17400000D02*
X16400000Y26000000D01*
X25000000Y26000000D02*
X16400000Y26000000D01*
X15400000Y26000000D02*
X16400000Y27000000D01*
X15400000Y26000000D02*
X16400000Y26000000D01*
X16400000Y26000000D02*
X16400000Y27000000D01*
X40152381Y21138095D02*
X40961905Y21138095D01*
X41057143Y21185714D01*
X41104762Y21233333D01*
X41152381Y21328571D01*
X41152381Y21519048D01*
X41104762Y21614286D01*
X41057143Y21661905D01*
X40961905Y21709524D01*
X40152381Y21709524D01*
X40152381Y22661905D02*
X40152381Y22185714D01*
X40628571Y22138095D01*
X40580952Y22185714D01*
X40533333Y22280952D01*
X40533333Y22519048D01*
X40580952Y22614286D01*
X40628571Y22661905D01*
X40723810Y22709524D01*
X40961905Y22709524D01*
X41057143Y22661905D01*
X41104762Y22614286D01*
X41152381Y22519048D01*
X41152381Y22280952D01*
X41104762Y22185714D01*
X41057143Y22138095D01*
X14923809Y35223810D02*
X14923809Y34747619D01*
X14590476Y35747619D02*
X14923809Y35223810D01*
X15257143Y35747619D01*
X16114286Y34747619D02*
X15542857Y34747619D01*
X15828571Y34747619D02*
X15828571Y35747619D01*
X15733333Y35604762D01*
X15638095Y35509524D01*
X15542857Y35461905D01*
X9650000Y14678571D02*
X9607143Y14635714D01*
X9478572Y14592857D01*
X9392858Y14592857D01*
X9264286Y14635714D01*
X9178572Y14721429D01*
X9135715Y14807143D01*
X9092858Y14978571D01*
X9092858Y15107143D01*
X9135715Y15278571D01*
X9178572Y15364286D01*
X9264286Y15450000D01*
X9392858Y15492857D01*
X9478572Y15492857D01*
X9607143Y15450000D01*
X9650000Y15407143D01*
X10507143Y14592857D02*
X9992858Y14592857D01*
X10250000Y14592857D02*
X10250000Y15492857D01*
X10164286Y15364286D01*
X10078572Y15278571D01*
X9992858Y15235714D01*
X52650000Y23078571D02*
X52607143Y23035714D01*
X52478572Y22992857D01*
X52392858Y22992857D01*
X52264286Y23035714D01*
X52178572Y23121429D01*
X52135715Y23207143D01*
X52092858Y23378571D01*
X52092858Y23507143D01*
X52135715Y23678571D01*
X52178572Y23764286D01*
X52264286Y23850000D01*
X52392858Y23892857D01*
X52478572Y23892857D01*
X52607143Y23850000D01*
X52650000Y23807143D01*
X52950000Y23892857D02*
X53507143Y23892857D01*
X53207143Y23550000D01*
X53335715Y23550000D01*
X53421429Y23507143D01*
X53464286Y23464286D01*
X53507143Y23378571D01*
X53507143Y23164286D01*
X53464286Y23078571D01*
X53421429Y23035714D01*
X53335715Y22992857D01*
X53078572Y22992857D01*
X52992858Y23035714D01*
X52950000Y23078571D01*
X47838095Y7047619D02*
X47838095Y6238095D01*
X47885714Y6142857D01*
X47933333Y6095238D01*
X48028571Y6047619D01*
X48219048Y6047619D01*
X48314286Y6095238D01*
X48361905Y6142857D01*
X48409524Y6238095D01*
X48409524Y7047619D01*
X49314286Y7047619D02*
X49123809Y7047619D01*
X49028571Y7000000D01*
X48980952Y6952381D01*
X48885714Y6809524D01*
X48838095Y6619048D01*
X48838095Y6238095D01*
X48885714Y6142857D01*
X48933333Y6095238D01*
X49028571Y6047619D01*
X49219048Y6047619D01*
X49314286Y6095238D01*
X49361905Y6142857D01*
X49409524Y6238095D01*
X49409524Y6476190D01*
X49361905Y6571429D01*
X49314286Y6619048D01*
X49219048Y6666667D01*
X49028571Y6666667D01*
X48933333Y6619048D01*
X48885714Y6571429D01*
X48838095Y6476190D01*
X25052381Y4961905D02*
X25861905Y4961905D01*
X25957143Y5009524D01*
X26004762Y5057143D01*
X26052381Y5152381D01*
X26052381Y5342858D01*
X26004762Y5438096D01*
X25957143Y5485715D01*
X25861905Y5533334D01*
X25052381Y5533334D01*
X26052381Y6533334D02*
X26052381Y5961905D01*
X26052381Y6247619D02*
X25052381Y6247619D01*
X25195238Y6152381D01*
X25290476Y6057143D01*
X25338095Y5961905D01*
X25385714Y7390477D02*
X26052381Y7390477D01*
X25004762Y7152381D02*
X25719048Y6914286D01*
X25719048Y7533334D01*
X60778571Y21100000D02*
X61850000Y21100000D01*
X62064286Y21028572D01*
X62207143Y20885715D01*
X62278571Y20671429D01*
X62278571Y20528572D01*
X62278571Y22600000D02*
X62278571Y21742857D01*
X62278571Y22171429D02*
X60778571Y22171429D01*
X60992857Y22028572D01*
X61135714Y21885714D01*
X61207143Y21742857D01*
X8250000Y3978571D02*
X8207143Y3935714D01*
X8078572Y3892857D01*
X7992858Y3892857D01*
X7864286Y3935714D01*
X7778572Y4021429D01*
X7735715Y4107143D01*
X7692858Y4278571D01*
X7692858Y4407143D01*
X7735715Y4578571D01*
X7778572Y4664286D01*
X7864286Y4750000D01*
X7992858Y4792857D01*
X8078572Y4792857D01*
X8207143Y4750000D01*
X8250000Y4707143D01*
X9021429Y4492857D02*
X9021429Y3892857D01*
X8807143Y4835714D02*
X8592858Y4192857D01*
X9150000Y4192857D01*
D16*
X22921429Y15250000D02*
X22964286Y15207143D01*
X23007143Y15078572D01*
X23007143Y14992858D01*
X22964286Y14864286D01*
X22878571Y14778572D01*
X22792857Y14735715D01*
X22621429Y14692858D01*
X22492857Y14692858D01*
X22321429Y14735715D01*
X22235714Y14778572D01*
X22150000Y14864286D01*
X22107143Y14992858D01*
X22107143Y15078572D01*
X22150000Y15207143D01*
X22192857Y15250000D01*
X22107143Y15550000D02*
X22107143Y16150000D01*
X23007143Y15764286D01*
D14*
X10821428Y6278571D02*
X10778571Y6235714D01*
X10650000Y6192857D01*
X10564286Y6192857D01*
X10435714Y6235714D01*
X10350000Y6321429D01*
X10307143Y6407143D01*
X10264286Y6578571D01*
X10264286Y6707143D01*
X10307143Y6878571D01*
X10350000Y6964286D01*
X10435714Y7050000D01*
X10564286Y7092857D01*
X10650000Y7092857D01*
X10778571Y7050000D01*
X10821428Y7007143D01*
X11678571Y6192857D02*
X11164286Y6192857D01*
X11421428Y6192857D02*
X11421428Y7092857D01*
X11335714Y6964286D01*
X11250000Y6878571D01*
X11164286Y6835714D01*
X12021429Y7007143D02*
X12064286Y7050000D01*
X12150000Y7092857D01*
X12364286Y7092857D01*
X12450000Y7050000D01*
X12492857Y7007143D01*
X12535714Y6921429D01*
X12535714Y6835714D01*
X12492857Y6707143D01*
X11978571Y6192857D01*
X12535714Y6192857D01*
D16*
X46821429Y5821428D02*
X46864286Y5778571D01*
X46907143Y5650000D01*
X46907143Y5564286D01*
X46864286Y5435714D01*
X46778571Y5350000D01*
X46692857Y5307143D01*
X46521429Y5264286D01*
X46392857Y5264286D01*
X46221429Y5307143D01*
X46135714Y5350000D01*
X46050000Y5435714D01*
X46007143Y5564286D01*
X46007143Y5650000D01*
X46050000Y5778571D01*
X46092857Y5821428D01*
X46907143Y6678571D02*
X46907143Y6164286D01*
X46907143Y6421428D02*
X46007143Y6421428D01*
X46135714Y6335714D01*
X46221429Y6250000D01*
X46264286Y6164286D01*
X46392857Y7192857D02*
X46350000Y7107143D01*
X46307143Y7064286D01*
X46221429Y7021429D01*
X46178571Y7021429D01*
X46092857Y7064286D01*
X46050000Y7107143D01*
X46007143Y7192857D01*
X46007143Y7364286D01*
X46050000Y7450000D01*
X46092857Y7492857D01*
X46178571Y7535714D01*
X46221429Y7535714D01*
X46307143Y7492857D01*
X46350000Y7450000D01*
X46392857Y7364286D01*
X46392857Y7192857D01*
X46435714Y7107143D01*
X46478571Y7064286D01*
X46564286Y7021429D01*
X46735714Y7021429D01*
X46821429Y7064286D01*
X46864286Y7107143D01*
X46907143Y7192857D01*
X46907143Y7364286D01*
X46864286Y7450000D01*
X46821429Y7492857D01*
X46735714Y7535714D01*
X46564286Y7535714D01*
X46478571Y7492857D01*
X46435714Y7450000D01*
X46392857Y7364286D01*
X45721428Y478571D02*
X45678571Y435714D01*
X45550000Y392857D01*
X45464286Y392857D01*
X45335714Y435714D01*
X45250000Y521429D01*
X45207143Y607143D01*
X45164286Y778571D01*
X45164286Y907143D01*
X45207143Y1078571D01*
X45250000Y1164286D01*
X45335714Y1250000D01*
X45464286Y1292857D01*
X45550000Y1292857D01*
X45678571Y1250000D01*
X45721428Y1207143D01*
X46064286Y1207143D02*
X46107143Y1250000D01*
X46192857Y1292857D01*
X46407143Y1292857D01*
X46492857Y1250000D01*
X46535714Y1207143D01*
X46578571Y1121429D01*
X46578571Y1035714D01*
X46535714Y907143D01*
X46021428Y392857D01*
X46578571Y392857D01*
X47392857Y1292857D02*
X46964286Y1292857D01*
X46921429Y864286D01*
X46964286Y907143D01*
X47050000Y950000D01*
X47264286Y950000D01*
X47350000Y907143D01*
X47392857Y864286D01*
X47435714Y778571D01*
X47435714Y564286D01*
X47392857Y478571D01*
X47350000Y435714D01*
X47264286Y392857D01*
X47050000Y392857D01*
X46964286Y435714D01*
X46921429Y478571D01*
D14*
X52421429Y3721428D02*
X52464286Y3678571D01*
X52507143Y3550000D01*
X52507143Y3464286D01*
X52464286Y3335714D01*
X52378571Y3250000D01*
X52292857Y3207143D01*
X52121429Y3164286D01*
X51992857Y3164286D01*
X51821429Y3207143D01*
X51735714Y3250000D01*
X51650000Y3335714D01*
X51607143Y3464286D01*
X51607143Y3550000D01*
X51650000Y3678571D01*
X51692857Y3721428D01*
X51692857Y4064286D02*
X51650000Y4107143D01*
X51607143Y4192857D01*
X51607143Y4407143D01*
X51650000Y4492857D01*
X51692857Y4535714D01*
X51778571Y4578571D01*
X51864286Y4578571D01*
X51992857Y4535714D01*
X52507143Y4021428D01*
X52507143Y4578571D01*
X51607143Y5350000D02*
X51607143Y5178571D01*
X51650000Y5092857D01*
X51692857Y5050000D01*
X51821429Y4964286D01*
X51992857Y4921429D01*
X52335714Y4921429D01*
X52421429Y4964286D01*
X52464286Y5007143D01*
X52507143Y5092857D01*
X52507143Y5264286D01*
X52464286Y5350000D01*
X52421429Y5392857D01*
X52335714Y5435714D01*
X52121429Y5435714D01*
X52035714Y5392857D01*
X51992857Y5350000D01*
X51950000Y5264286D01*
X51950000Y5092857D01*
X51992857Y5007143D01*
X52035714Y4964286D01*
X52121429Y4921429D01*
X50921428Y8278571D02*
X50878571Y8235714D01*
X50750000Y8192857D01*
X50664286Y8192857D01*
X50535714Y8235714D01*
X50450000Y8321429D01*
X50407143Y8407143D01*
X50364286Y8578571D01*
X50364286Y8707143D01*
X50407143Y8878571D01*
X50450000Y8964286D01*
X50535714Y9050000D01*
X50664286Y9092857D01*
X50750000Y9092857D01*
X50878571Y9050000D01*
X50921428Y9007143D01*
X51264286Y9007143D02*
X51307143Y9050000D01*
X51392857Y9092857D01*
X51607143Y9092857D01*
X51692857Y9050000D01*
X51735714Y9007143D01*
X51778571Y8921429D01*
X51778571Y8835714D01*
X51735714Y8707143D01*
X51221428Y8192857D01*
X51778571Y8192857D01*
X52078571Y9092857D02*
X52678571Y9092857D01*
X52292857Y8192857D01*
D16*
X1721428Y28478571D02*
X1678571Y28435714D01*
X1550000Y28392857D01*
X1464286Y28392857D01*
X1335714Y28435714D01*
X1250000Y28521429D01*
X1207143Y28607143D01*
X1164286Y28778571D01*
X1164286Y28907143D01*
X1207143Y29078571D01*
X1250000Y29164286D01*
X1335714Y29250000D01*
X1464286Y29292857D01*
X1550000Y29292857D01*
X1678571Y29250000D01*
X1721428Y29207143D01*
X2021428Y29292857D02*
X2578571Y29292857D01*
X2278571Y28950000D01*
X2407143Y28950000D01*
X2492857Y28907143D01*
X2535714Y28864286D01*
X2578571Y28778571D01*
X2578571Y28564286D01*
X2535714Y28478571D01*
X2492857Y28435714D01*
X2407143Y28392857D01*
X2150000Y28392857D01*
X2064286Y28435714D01*
X2021428Y28478571D01*
X3392857Y29292857D02*
X2964286Y29292857D01*
X2921429Y28864286D01*
X2964286Y28907143D01*
X3050000Y28950000D01*
X3264286Y28950000D01*
X3350000Y28907143D01*
X3392857Y28864286D01*
X3435714Y28778571D01*
X3435714Y28564286D01*
X3392857Y28478571D01*
X3350000Y28435714D01*
X3264286Y28392857D01*
X3050000Y28392857D01*
X2964286Y28435714D01*
X2921429Y28478571D01*
X14421428Y17678571D02*
X14378571Y17635714D01*
X14250000Y17592857D01*
X14164286Y17592857D01*
X14035714Y17635714D01*
X13950000Y17721429D01*
X13907143Y17807143D01*
X13864286Y17978571D01*
X13864286Y18107143D01*
X13907143Y18278571D01*
X13950000Y18364286D01*
X14035714Y18450000D01*
X14164286Y18492857D01*
X14250000Y18492857D01*
X14378571Y18450000D01*
X14421428Y18407143D01*
X15192857Y18192857D02*
X15192857Y17592857D01*
X14978571Y18535714D02*
X14764286Y17892857D01*
X15321428Y17892857D01*
X15621429Y18407143D02*
X15664286Y18450000D01*
X15750000Y18492857D01*
X15964286Y18492857D01*
X16050000Y18450000D01*
X16092857Y18407143D01*
X16135714Y18321429D01*
X16135714Y18235714D01*
X16092857Y18107143D01*
X15578571Y17592857D01*
X16135714Y17592857D01*
X10921428Y28378571D02*
X10878571Y28335714D01*
X10750000Y28292857D01*
X10664286Y28292857D01*
X10535714Y28335714D01*
X10450000Y28421429D01*
X10407143Y28507143D01*
X10364286Y28678571D01*
X10364286Y28807143D01*
X10407143Y28978571D01*
X10450000Y29064286D01*
X10535714Y29150000D01*
X10664286Y29192857D01*
X10750000Y29192857D01*
X10878571Y29150000D01*
X10921428Y29107143D01*
X11692857Y28892857D02*
X11692857Y28292857D01*
X11478571Y29235714D02*
X11264286Y28592857D01*
X11821428Y28592857D01*
X12550000Y29192857D02*
X12378571Y29192857D01*
X12292857Y29150000D01*
X12250000Y29107143D01*
X12164286Y28978571D01*
X12121429Y28807143D01*
X12121429Y28464286D01*
X12164286Y28378571D01*
X12207143Y28335714D01*
X12292857Y28292857D01*
X12464286Y28292857D01*
X12550000Y28335714D01*
X12592857Y28378571D01*
X12635714Y28464286D01*
X12635714Y28678571D01*
X12592857Y28764286D01*
X12550000Y28807143D01*
X12464286Y28850000D01*
X12292857Y28850000D01*
X12207143Y28807143D01*
X12164286Y28764286D01*
X12121429Y28678571D01*
D14*
X8450000Y1192857D02*
X8021429Y1192857D01*
X8021429Y2092857D01*
X8707143Y2007143D02*
X8750000Y2050000D01*
X8835714Y2092857D01*
X9050000Y2092857D01*
X9135714Y2050000D01*
X9178571Y2007143D01*
X9221428Y1921429D01*
X9221428Y1835714D01*
X9178571Y1707143D01*
X8664285Y1192857D01*
X9221428Y1192857D01*
X55807143Y1350000D02*
X55807143Y921429D01*
X54907143Y921429D01*
X55207143Y2035714D02*
X55807143Y2035714D01*
X54864286Y1821428D02*
X55507143Y1607143D01*
X55507143Y2164285D01*
X10961905Y40747619D02*
X10961905Y41747619D01*
X11342858Y41747619D01*
X11438096Y41700000D01*
X11485715Y41652381D01*
X11533334Y41557143D01*
X11533334Y41414286D01*
X11485715Y41319048D01*
X11438096Y41271429D01*
X11342858Y41223810D01*
X10961905Y41223810D01*
X12485715Y40747619D02*
X11914286Y40747619D01*
X12200000Y40747619D02*
X12200000Y41747619D01*
X12104762Y41604762D01*
X12009524Y41509524D01*
X11914286Y41461905D01*
X26061905Y1147619D02*
X26061905Y2147619D01*
X26442858Y2147619D01*
X26538096Y2100000D01*
X26585715Y2052381D01*
X26633334Y1957143D01*
X26633334Y1814286D01*
X26585715Y1719048D01*
X26538096Y1671429D01*
X26442858Y1623810D01*
X26061905Y1623810D01*
X26966667Y2147619D02*
X27585715Y2147619D01*
X27252381Y1766667D01*
X27395239Y1766667D01*
X27490477Y1719048D01*
X27538096Y1671429D01*
X27585715Y1576190D01*
X27585715Y1338095D01*
X27538096Y1242857D01*
X27490477Y1195238D01*
X27395239Y1147619D01*
X27109524Y1147619D01*
X27014286Y1195238D01*
X26966667Y1242857D01*
X12561905Y22347619D02*
X12561905Y21538095D01*
X12609524Y21442857D01*
X12657143Y21395238D01*
X12752381Y21347619D01*
X12942858Y21347619D01*
X13038096Y21395238D01*
X13085715Y21442857D01*
X13133334Y21538095D01*
X13133334Y22347619D01*
X14133334Y21347619D02*
X13561905Y21347619D01*
X13847619Y21347619D02*
X13847619Y22347619D01*
X13752381Y22204762D01*
X13657143Y22109524D01*
X13561905Y22061905D01*
X14752381Y22347619D02*
X14847620Y22347619D01*
X14942858Y22300000D01*
X14990477Y22252381D01*
X15038096Y22157143D01*
X15085715Y21966667D01*
X15085715Y21728571D01*
X15038096Y21538095D01*
X14990477Y21442857D01*
X14942858Y21395238D01*
X14847620Y21347619D01*
X14752381Y21347619D01*
X14657143Y21395238D01*
X14609524Y21442857D01*
X14561905Y21538095D01*
X14514286Y21728571D01*
X14514286Y21966667D01*
X14561905Y22157143D01*
X14609524Y22252381D01*
X14657143Y22300000D01*
X14752381Y22347619D01*
X38361905Y1647619D02*
X38361905Y838095D01*
X38409524Y742857D01*
X38457143Y695238D01*
X38552381Y647619D01*
X38742858Y647619D01*
X38838096Y695238D01*
X38885715Y742857D01*
X38933334Y838095D01*
X38933334Y1647619D01*
X39933334Y647619D02*
X39361905Y647619D01*
X39647619Y647619D02*
X39647619Y1647619D01*
X39552381Y1504762D01*
X39457143Y1409524D01*
X39361905Y1361905D01*
X40885715Y647619D02*
X40314286Y647619D01*
X40600000Y647619D02*
X40600000Y1647619D01*
X40504762Y1504762D01*
X40409524Y1409524D01*
X40314286Y1361905D01*
X43561905Y10547619D02*
X43561905Y9738095D01*
X43609524Y9642857D01*
X43657143Y9595238D01*
X43752381Y9547619D01*
X43942858Y9547619D01*
X44038096Y9595238D01*
X44085715Y9642857D01*
X44133334Y9738095D01*
X44133334Y10547619D01*
X45133334Y9547619D02*
X44561905Y9547619D01*
X44847619Y9547619D02*
X44847619Y10547619D01*
X44752381Y10404762D01*
X44657143Y10309524D01*
X44561905Y10261905D01*
X45514286Y10452381D02*
X45561905Y10500000D01*
X45657143Y10547619D01*
X45895239Y10547619D01*
X45990477Y10500000D01*
X46038096Y10452381D01*
X46085715Y10357143D01*
X46085715Y10261905D01*
X46038096Y10119048D01*
X45466667Y9547619D01*
X46085715Y9547619D01*
X652381Y6638095D02*
X1461905Y6638095D01*
X1557143Y6685714D01*
X1604762Y6733333D01*
X1652381Y6828571D01*
X1652381Y7019048D01*
X1604762Y7114286D01*
X1557143Y7161905D01*
X1461905Y7209524D01*
X652381Y7209524D01*
X652381Y7590476D02*
X652381Y8209524D01*
X1033333Y7876190D01*
X1033333Y8019048D01*
X1080952Y8114286D01*
X1128571Y8161905D01*
X1223810Y8209524D01*
X1461905Y8209524D01*
X1557143Y8161905D01*
X1604762Y8114286D01*
X1652381Y8019048D01*
X1652381Y7733333D01*
X1604762Y7638095D01*
X1557143Y7590476D01*
D17*
X10285650Y12638050D02*
X10018950Y13019050D01*
X9828450Y12638050D02*
X9828450Y13438150D01*
X10133250Y13438150D01*
X10209450Y13400050D01*
X10247550Y13361950D01*
X10285650Y13285750D01*
X10285650Y13171450D01*
X10247550Y13095250D01*
X10209450Y13057150D01*
X10133250Y13019050D01*
X9828450Y13019050D01*
X10971450Y13171450D02*
X10971450Y12638050D01*
X10780950Y13476250D02*
X10590450Y12904750D01*
X11085750Y12904750D01*
X11542950Y13438150D02*
X11619150Y13438150D01*
X11695350Y13400050D01*
X11733450Y13361950D01*
X11771550Y13285750D01*
X11809650Y13133350D01*
X11809650Y12942850D01*
X11771550Y12790450D01*
X11733450Y12714250D01*
X11695350Y12676150D01*
X11619150Y12638050D01*
X11542950Y12638050D01*
X11466750Y12676150D01*
X11428650Y12714250D01*
X11390550Y12790450D01*
X11352450Y12942850D01*
X11352450Y13133350D01*
X11390550Y13285750D01*
X11428650Y13361950D01*
X11466750Y13400050D01*
X11542950Y13438150D01*
X28485650Y25238050D02*
X28218950Y25619050D01*
X28028450Y25238050D02*
X28028450Y26038150D01*
X28333250Y26038150D01*
X28409450Y26000050D01*
X28447550Y25961950D01*
X28485650Y25885750D01*
X28485650Y25771450D01*
X28447550Y25695250D01*
X28409450Y25657150D01*
X28333250Y25619050D01*
X28028450Y25619050D01*
X28752350Y26038150D02*
X29247650Y26038150D01*
X28980950Y25733350D01*
X29095250Y25733350D01*
X29171450Y25695250D01*
X29209550Y25657150D01*
X29247650Y25580950D01*
X29247650Y25390450D01*
X29209550Y25314250D01*
X29171450Y25276150D01*
X29095250Y25238050D01*
X28866650Y25238050D01*
X28790450Y25276150D01*
X28752350Y25314250D01*
X29628650Y25238050D02*
X29781050Y25238050D01*
X29857250Y25276150D01*
X29895350Y25314250D01*
X29971550Y25428550D01*
X30009650Y25580950D01*
X30009650Y25885750D01*
X29971550Y25961950D01*
X29933450Y26000050D01*
X29857250Y26038150D01*
X29704850Y26038150D01*
X29628650Y26000050D01*
X29590550Y25961950D01*
X29552450Y25885750D01*
X29552450Y25695250D01*
X29590550Y25619050D01*
X29628650Y25580950D01*
X29704850Y25542850D01*
X29857250Y25542850D01*
X29933450Y25580950D01*
X29971550Y25619050D01*
X30009650Y25695250D01*
X17261950Y15166650D02*
X17261950Y14785650D01*
X16461850Y14785650D01*
X16461850Y15357150D02*
X16461850Y15852450D01*
X16766650Y15585750D01*
X16766650Y15700050D01*
X16804750Y15776250D01*
X16842850Y15814350D01*
X16919050Y15852450D01*
X17109550Y15852450D01*
X17185750Y15814350D01*
X17223850Y15776250D01*
X17261950Y15700050D01*
X17261950Y15471450D01*
X17223850Y15395250D01*
X17185750Y15357150D01*
X54861950Y27266650D02*
X54861950Y26885650D01*
X54061850Y26885650D01*
X54861950Y27952450D02*
X54861950Y27495250D01*
X54861950Y27723850D02*
X54061850Y27723850D01*
X54176150Y27647650D01*
X54252350Y27571450D01*
X54290450Y27495250D01*
X14585650Y19314250D02*
X14547550Y19276150D01*
X14433250Y19238050D01*
X14357050Y19238050D01*
X14242750Y19276150D01*
X14166550Y19352350D01*
X14128450Y19428550D01*
X14090350Y19580950D01*
X14090350Y19695250D01*
X14128450Y19847650D01*
X14166550Y19923850D01*
X14242750Y20000050D01*
X14357050Y20038150D01*
X14433250Y20038150D01*
X14547550Y20000050D01*
X14585650Y19961950D01*
X15271450Y19771450D02*
X15271450Y19238050D01*
X15080950Y20076250D02*
X14890450Y19504750D01*
X15385750Y19504750D01*
X16033450Y19771450D02*
X16033450Y19238050D01*
X15842950Y20076250D02*
X15652450Y19504750D01*
X16147750Y19504750D01*
X30985650Y16214250D02*
X30947550Y16176150D01*
X30833250Y16138050D01*
X30757050Y16138050D01*
X30642750Y16176150D01*
X30566550Y16252350D01*
X30528450Y16328550D01*
X30490350Y16480950D01*
X30490350Y16595250D01*
X30528450Y16747650D01*
X30566550Y16823850D01*
X30642750Y16900050D01*
X30757050Y16938150D01*
X30833250Y16938150D01*
X30947550Y16900050D01*
X30985650Y16861950D01*
X31252350Y16938150D02*
X31747650Y16938150D01*
X31480950Y16633350D01*
X31595250Y16633350D01*
X31671450Y16595250D01*
X31709550Y16557150D01*
X31747650Y16480950D01*
X31747650Y16290450D01*
X31709550Y16214250D01*
X31671450Y16176150D01*
X31595250Y16138050D01*
X31366650Y16138050D01*
X31290450Y16176150D01*
X31252350Y16214250D01*
X32014350Y16938150D02*
X32509650Y16938150D01*
X32242950Y16633350D01*
X32357250Y16633350D01*
X32433450Y16595250D01*
X32471550Y16557150D01*
X32509650Y16480950D01*
X32509650Y16290450D01*
X32471550Y16214250D01*
X32433450Y16176150D01*
X32357250Y16138050D01*
X32128650Y16138050D01*
X32052450Y16176150D01*
X32014350Y16214250D01*
X45185750Y40385650D02*
X45223850Y40347550D01*
X45261950Y40233250D01*
X45261950Y40157050D01*
X45223850Y40042750D01*
X45147650Y39966550D01*
X45071450Y39928450D01*
X44919050Y39890350D01*
X44804750Y39890350D01*
X44652350Y39928450D01*
X44576150Y39966550D01*
X44499950Y40042750D01*
X44461850Y40157050D01*
X44461850Y40233250D01*
X44499950Y40347550D01*
X44538050Y40385650D01*
X44461850Y40652350D02*
X44461850Y41147650D01*
X44766650Y40880950D01*
X44766650Y40995250D01*
X44804750Y41071450D01*
X44842850Y41109550D01*
X44919050Y41147650D01*
X45109550Y41147650D01*
X45185750Y41109550D01*
X45223850Y41071450D01*
X45261950Y40995250D01*
X45261950Y40766650D01*
X45223850Y40690450D01*
X45185750Y40652350D01*
X45261950Y41909650D02*
X45261950Y41452450D01*
X45261950Y41681050D02*
X44461850Y41681050D01*
X44576150Y41604850D01*
X44652350Y41528650D01*
X44690450Y41452450D01*
X36485750Y12985650D02*
X36523850Y12947550D01*
X36561950Y12833250D01*
X36561950Y12757050D01*
X36523850Y12642750D01*
X36447650Y12566550D01*
X36371450Y12528450D01*
X36219050Y12490350D01*
X36104750Y12490350D01*
X35952350Y12528450D01*
X35876150Y12566550D01*
X35799950Y12642750D01*
X35761850Y12757050D01*
X35761850Y12833250D01*
X35799950Y12947550D01*
X35838050Y12985650D01*
X35838050Y13290450D02*
X35799950Y13328550D01*
X35761850Y13404750D01*
X35761850Y13595250D01*
X35799950Y13671450D01*
X35838050Y13709550D01*
X35914250Y13747650D01*
X35990450Y13747650D01*
X36104750Y13709550D01*
X36561950Y13252350D01*
X36561950Y13747650D01*
X36028550Y14433450D02*
X36561950Y14433450D01*
X35723750Y14242950D02*
X36295250Y14052450D01*
X36295250Y14547750D01*
X40985650Y16514250D02*
X40947550Y16476150D01*
X40833250Y16438050D01*
X40757050Y16438050D01*
X40642750Y16476150D01*
X40566550Y16552350D01*
X40528450Y16628550D01*
X40490350Y16780950D01*
X40490350Y16895250D01*
X40528450Y17047650D01*
X40566550Y17123850D01*
X40642750Y17200050D01*
X40757050Y17238150D01*
X40833250Y17238150D01*
X40947550Y17200050D01*
X40985650Y17161950D01*
X41747650Y16438050D02*
X41290450Y16438050D01*
X41519050Y16438050D02*
X41519050Y17238150D01*
X41442850Y17123850D01*
X41366650Y17047650D01*
X41290450Y17009550D01*
X42433450Y17238150D02*
X42281050Y17238150D01*
X42204850Y17200050D01*
X42166750Y17161950D01*
X42090550Y17047650D01*
X42052450Y16895250D01*
X42052450Y16590450D01*
X42090550Y16514250D01*
X42128650Y16476150D01*
X42204850Y16438050D01*
X42357250Y16438050D01*
X42433450Y16476150D01*
X42471550Y16514250D01*
X42509650Y16590450D01*
X42509650Y16780950D01*
X42471550Y16857150D01*
X42433450Y16895250D01*
X42357250Y16933350D01*
X42204850Y16933350D01*
X42128650Y16895250D01*
X42090550Y16857150D01*
X42052450Y16780950D01*
X45185750Y4985650D02*
X45223850Y4947550D01*
X45261950Y4833250D01*
X45261950Y4757050D01*
X45223850Y4642750D01*
X45147650Y4566550D01*
X45071450Y4528450D01*
X44919050Y4490350D01*
X44804750Y4490350D01*
X44652350Y4528450D01*
X44576150Y4566550D01*
X44499950Y4642750D01*
X44461850Y4757050D01*
X44461850Y4833250D01*
X44499950Y4947550D01*
X44538050Y4985650D01*
X45261950Y5747650D02*
X45261950Y5290450D01*
X45261950Y5519050D02*
X44461850Y5519050D01*
X44576150Y5442850D01*
X44652350Y5366650D01*
X44690450Y5290450D01*
X44461850Y6471550D02*
X44461850Y6090550D01*
X44842850Y6052450D01*
X44804750Y6090550D01*
X44766650Y6166750D01*
X44766650Y6357250D01*
X44804750Y6433450D01*
X44842850Y6471550D01*
X44919050Y6509650D01*
X45109550Y6509650D01*
X45185750Y6471550D01*
X45223850Y6433450D01*
X45261950Y6357250D01*
X45261950Y6166750D01*
X45223850Y6090550D01*
X45185750Y6052450D01*
X20585750Y15185650D02*
X20623850Y15147550D01*
X20661950Y15033250D01*
X20661950Y14957050D01*
X20623850Y14842750D01*
X20547650Y14766550D01*
X20471450Y14728450D01*
X20319050Y14690350D01*
X20204750Y14690350D01*
X20052350Y14728450D01*
X19976150Y14766550D01*
X19899950Y14842750D01*
X19861850Y14957050D01*
X19861850Y15033250D01*
X19899950Y15147550D01*
X19938050Y15185650D01*
X20661950Y15947650D02*
X20661950Y15490450D01*
X20661950Y15719050D02*
X19861850Y15719050D01*
X19976150Y15642850D01*
X20052350Y15566650D01*
X20090450Y15490450D01*
X20128550Y16633450D02*
X20661950Y16633450D01*
X19823750Y16442950D02*
X20395250Y16252450D01*
X20395250Y16747750D01*
X15285750Y10485650D02*
X15323850Y10447550D01*
X15361950Y10333250D01*
X15361950Y10257050D01*
X15323850Y10142750D01*
X15247650Y10066550D01*
X15171450Y10028450D01*
X15019050Y9990350D01*
X14904750Y9990350D01*
X14752350Y10028450D01*
X14676150Y10066550D01*
X14599950Y10142750D01*
X14561850Y10257050D01*
X14561850Y10333250D01*
X14599950Y10447550D01*
X14638050Y10485650D01*
X15361950Y11247650D02*
X15361950Y10790450D01*
X15361950Y11019050D02*
X14561850Y11019050D01*
X14676150Y10942850D01*
X14752350Y10866650D01*
X14790450Y10790450D01*
X15361950Y12009650D02*
X15361950Y11552450D01*
X15361950Y11781050D02*
X14561850Y11781050D01*
X14676150Y11704850D01*
X14752350Y11628650D01*
X14790450Y11552450D01*
X50866650Y30214250D02*
X50828550Y30176150D01*
X50714250Y30138050D01*
X50638050Y30138050D01*
X50523750Y30176150D01*
X50447550Y30252350D01*
X50409450Y30328550D01*
X50371350Y30480950D01*
X50371350Y30595250D01*
X50409450Y30747650D01*
X50447550Y30823850D01*
X50523750Y30900050D01*
X50638050Y30938150D01*
X50714250Y30938150D01*
X50828550Y30900050D01*
X50866650Y30861950D01*
X51247650Y30138050D02*
X51400050Y30138050D01*
X51476250Y30176150D01*
X51514350Y30214250D01*
X51590550Y30328550D01*
X51628650Y30480950D01*
X51628650Y30785750D01*
X51590550Y30861950D01*
X51552450Y30900050D01*
X51476250Y30938150D01*
X51323850Y30938150D01*
X51247650Y30900050D01*
X51209550Y30861950D01*
X51171450Y30785750D01*
X51171450Y30595250D01*
X51209550Y30519050D01*
X51247650Y30480950D01*
X51323850Y30442850D01*
X51476250Y30442850D01*
X51552450Y30480950D01*
X51590550Y30519050D01*
X51628650Y30595250D01*
X45066650Y21014250D02*
X45028550Y20976150D01*
X44914250Y20938050D01*
X44838050Y20938050D01*
X44723750Y20976150D01*
X44647550Y21052350D01*
X44609450Y21128550D01*
X44571350Y21280950D01*
X44571350Y21395250D01*
X44609450Y21547650D01*
X44647550Y21623850D01*
X44723750Y21700050D01*
X44838050Y21738150D01*
X44914250Y21738150D01*
X45028550Y21700050D01*
X45066650Y21661950D01*
X45752450Y21738150D02*
X45600050Y21738150D01*
X45523850Y21700050D01*
X45485750Y21661950D01*
X45409550Y21547650D01*
X45371450Y21395250D01*
X45371450Y21090450D01*
X45409550Y21014250D01*
X45447650Y20976150D01*
X45523850Y20938050D01*
X45676250Y20938050D01*
X45752450Y20976150D01*
X45790550Y21014250D01*
X45828650Y21090450D01*
X45828650Y21280950D01*
X45790550Y21357150D01*
X45752450Y21395250D01*
X45676250Y21433350D01*
X45523850Y21433350D01*
X45447650Y21395250D01*
X45409550Y21357150D01*
X45371450Y21280950D01*
X49285750Y30266650D02*
X49323850Y30228550D01*
X49361950Y30114250D01*
X49361950Y30038050D01*
X49323850Y29923750D01*
X49247650Y29847550D01*
X49171450Y29809450D01*
X49019050Y29771350D01*
X48904750Y29771350D01*
X48752350Y29809450D01*
X48676150Y29847550D01*
X48599950Y29923750D01*
X48561850Y30038050D01*
X48561850Y30114250D01*
X48599950Y30228550D01*
X48638050Y30266650D01*
X48561850Y30990550D02*
X48561850Y30609550D01*
X48942850Y30571450D01*
X48904750Y30609550D01*
X48866650Y30685750D01*
X48866650Y30876250D01*
X48904750Y30952450D01*
X48942850Y30990550D01*
X49019050Y31028650D01*
X49209550Y31028650D01*
X49285750Y30990550D01*
X49323850Y30952450D01*
X49361950Y30876250D01*
X49361950Y30685750D01*
X49323850Y30609550D01*
X49285750Y30571450D01*
X9585750Y17266650D02*
X9623850Y17228550D01*
X9661950Y17114250D01*
X9661950Y17038050D01*
X9623850Y16923750D01*
X9547650Y16847550D01*
X9471450Y16809450D01*
X9319050Y16771350D01*
X9204750Y16771350D01*
X9052350Y16809450D01*
X8976150Y16847550D01*
X8899950Y16923750D01*
X8861850Y17038050D01*
X8861850Y17114250D01*
X8899950Y17228550D01*
X8938050Y17266650D01*
X8938050Y17571450D02*
X8899950Y17609550D01*
X8861850Y17685750D01*
X8861850Y17876250D01*
X8899950Y17952450D01*
X8938050Y17990550D01*
X9014250Y18028650D01*
X9090450Y18028650D01*
X9204750Y17990550D01*
X9661950Y17533350D01*
X9661950Y18028650D01*
X13985750Y7266650D02*
X14023850Y7228550D01*
X14061950Y7114250D01*
X14061950Y7038050D01*
X14023850Y6923750D01*
X13947650Y6847550D01*
X13871450Y6809450D01*
X13719050Y6771350D01*
X13604750Y6771350D01*
X13452350Y6809450D01*
X13376150Y6847550D01*
X13299950Y6923750D01*
X13261850Y7038050D01*
X13261850Y7114250D01*
X13299950Y7228550D01*
X13338050Y7266650D01*
X13604750Y7723850D02*
X13566650Y7647650D01*
X13528550Y7609550D01*
X13452350Y7571450D01*
X13414250Y7571450D01*
X13338050Y7609550D01*
X13299950Y7647650D01*
X13261850Y7723850D01*
X13261850Y7876250D01*
X13299950Y7952450D01*
X13338050Y7990550D01*
X13414250Y8028650D01*
X13452350Y8028650D01*
X13528550Y7990550D01*
X13566650Y7952450D01*
X13604750Y7876250D01*
X13604750Y7723850D01*
X13642850Y7647650D01*
X13680950Y7609550D01*
X13757150Y7571450D01*
X13909550Y7571450D01*
X13985750Y7609550D01*
X14023850Y7647650D01*
X14061950Y7723850D01*
X14061950Y7876250D01*
X14023850Y7952450D01*
X13985750Y7990550D01*
X13909550Y8028650D01*
X13757150Y8028650D01*
X13680950Y7990550D01*
X13642850Y7952450D01*
X13604750Y7876250D01*
X49085650Y19814250D02*
X49047550Y19776150D01*
X48933250Y19738050D01*
X48857050Y19738050D01*
X48742750Y19776150D01*
X48666550Y19852350D01*
X48628450Y19928550D01*
X48590350Y20080950D01*
X48590350Y20195250D01*
X48628450Y20347650D01*
X48666550Y20423850D01*
X48742750Y20500050D01*
X48857050Y20538150D01*
X48933250Y20538150D01*
X49047550Y20500050D01*
X49085650Y20461950D01*
X49847650Y19738050D02*
X49390450Y19738050D01*
X49619050Y19738050D02*
X49619050Y20538150D01*
X49542850Y20423850D01*
X49466650Y20347650D01*
X49390450Y20309550D01*
X50342950Y20538150D02*
X50419150Y20538150D01*
X50495350Y20500050D01*
X50533450Y20461950D01*
X50571550Y20385750D01*
X50609650Y20233350D01*
X50609650Y20042850D01*
X50571550Y19890450D01*
X50533450Y19814250D01*
X50495350Y19776150D01*
X50419150Y19738050D01*
X50342950Y19738050D01*
X50266750Y19776150D01*
X50228650Y19814250D01*
X50190550Y19890450D01*
X50152450Y20042850D01*
X50152450Y20233350D01*
X50190550Y20385750D01*
X50228650Y20461950D01*
X50266750Y20500050D01*
X50342950Y20538150D01*
X18885750Y15185650D02*
X18923850Y15147550D01*
X18961950Y15033250D01*
X18961950Y14957050D01*
X18923850Y14842750D01*
X18847650Y14766550D01*
X18771450Y14728450D01*
X18619050Y14690350D01*
X18504750Y14690350D01*
X18352350Y14728450D01*
X18276150Y14766550D01*
X18199950Y14842750D01*
X18161850Y14957050D01*
X18161850Y15033250D01*
X18199950Y15147550D01*
X18238050Y15185650D01*
X18961950Y15947650D02*
X18961950Y15490450D01*
X18961950Y15719050D02*
X18161850Y15719050D01*
X18276150Y15642850D01*
X18352350Y15566650D01*
X18390450Y15490450D01*
X18161850Y16214350D02*
X18161850Y16709650D01*
X18466650Y16442950D01*
X18466650Y16557250D01*
X18504750Y16633450D01*
X18542850Y16671550D01*
X18619050Y16709650D01*
X18809550Y16709650D01*
X18885750Y16671550D01*
X18923850Y16633450D01*
X18961950Y16557250D01*
X18961950Y16328650D01*
X18923850Y16252450D01*
X18885750Y16214350D01*
X24685750Y10685650D02*
X24723850Y10647550D01*
X24761950Y10533250D01*
X24761950Y10457050D01*
X24723850Y10342750D01*
X24647650Y10266550D01*
X24571450Y10228450D01*
X24419050Y10190350D01*
X24304750Y10190350D01*
X24152350Y10228450D01*
X24076150Y10266550D01*
X23999950Y10342750D01*
X23961850Y10457050D01*
X23961850Y10533250D01*
X23999950Y10647550D01*
X24038050Y10685650D01*
X24761950Y11447650D02*
X24761950Y10990450D01*
X24761950Y11219050D02*
X23961850Y11219050D01*
X24076150Y11142850D01*
X24152350Y11066650D01*
X24190450Y10990450D01*
X23961850Y11714350D02*
X23961850Y12247750D01*
X24761950Y11904850D01*
X39085650Y31414250D02*
X39047550Y31376150D01*
X38933250Y31338050D01*
X38857050Y31338050D01*
X38742750Y31376150D01*
X38666550Y31452350D01*
X38628450Y31528550D01*
X38590350Y31680950D01*
X38590350Y31795250D01*
X38628450Y31947650D01*
X38666550Y32023850D01*
X38742750Y32100050D01*
X38857050Y32138150D01*
X38933250Y32138150D01*
X39047550Y32100050D01*
X39085650Y32061950D01*
X39390450Y32061950D02*
X39428550Y32100050D01*
X39504750Y32138150D01*
X39695250Y32138150D01*
X39771450Y32100050D01*
X39809550Y32061950D01*
X39847650Y31985750D01*
X39847650Y31909550D01*
X39809550Y31795250D01*
X39352350Y31338050D01*
X39847650Y31338050D01*
X40342950Y32138150D02*
X40419150Y32138150D01*
X40495350Y32100050D01*
X40533450Y32061950D01*
X40571550Y31985750D01*
X40609650Y31833350D01*
X40609650Y31642850D01*
X40571550Y31490450D01*
X40533450Y31414250D01*
X40495350Y31376150D01*
X40419150Y31338050D01*
X40342950Y31338050D01*
X40266750Y31376150D01*
X40228650Y31414250D01*
X40190550Y31490450D01*
X40152450Y31642850D01*
X40152450Y31833350D01*
X40190550Y31985750D01*
X40228650Y32061950D01*
X40266750Y32100050D01*
X40342950Y32138150D01*
X36385750Y27785650D02*
X36423850Y27747550D01*
X36461950Y27633250D01*
X36461950Y27557050D01*
X36423850Y27442750D01*
X36347650Y27366550D01*
X36271450Y27328450D01*
X36119050Y27290350D01*
X36004750Y27290350D01*
X35852350Y27328450D01*
X35776150Y27366550D01*
X35699950Y27442750D01*
X35661850Y27557050D01*
X35661850Y27633250D01*
X35699950Y27747550D01*
X35738050Y27785650D01*
X35738050Y28090450D02*
X35699950Y28128550D01*
X35661850Y28204750D01*
X35661850Y28395250D01*
X35699950Y28471450D01*
X35738050Y28509550D01*
X35814250Y28547650D01*
X35890450Y28547650D01*
X36004750Y28509550D01*
X36461950Y28052350D01*
X36461950Y28547650D01*
X36461950Y29309650D02*
X36461950Y28852450D01*
X36461950Y29081050D02*
X35661850Y29081050D01*
X35776150Y29004850D01*
X35852350Y28928650D01*
X35890450Y28852450D01*
X36485650Y15114250D02*
X36447550Y15076150D01*
X36333250Y15038050D01*
X36257050Y15038050D01*
X36142750Y15076150D01*
X36066550Y15152350D01*
X36028450Y15228550D01*
X35990350Y15380950D01*
X35990350Y15495250D01*
X36028450Y15647650D01*
X36066550Y15723850D01*
X36142750Y15800050D01*
X36257050Y15838150D01*
X36333250Y15838150D01*
X36447550Y15800050D01*
X36485650Y15761950D01*
X36790450Y15761950D02*
X36828550Y15800050D01*
X36904750Y15838150D01*
X37095250Y15838150D01*
X37171450Y15800050D01*
X37209550Y15761950D01*
X37247650Y15685750D01*
X37247650Y15609550D01*
X37209550Y15495250D01*
X36752350Y15038050D01*
X37247650Y15038050D01*
X37552450Y15761950D02*
X37590550Y15800050D01*
X37666750Y15838150D01*
X37857250Y15838150D01*
X37933450Y15800050D01*
X37971550Y15761950D01*
X38009650Y15685750D01*
X38009650Y15609550D01*
X37971550Y15495250D01*
X37514350Y15038050D01*
X38009650Y15038050D01*
X36485750Y30685650D02*
X36523850Y30647550D01*
X36561950Y30533250D01*
X36561950Y30457050D01*
X36523850Y30342750D01*
X36447650Y30266550D01*
X36371450Y30228450D01*
X36219050Y30190350D01*
X36104750Y30190350D01*
X35952350Y30228450D01*
X35876150Y30266550D01*
X35799950Y30342750D01*
X35761850Y30457050D01*
X35761850Y30533250D01*
X35799950Y30647550D01*
X35838050Y30685650D01*
X35838050Y30990450D02*
X35799950Y31028550D01*
X35761850Y31104750D01*
X35761850Y31295250D01*
X35799950Y31371450D01*
X35838050Y31409550D01*
X35914250Y31447650D01*
X35990450Y31447650D01*
X36104750Y31409550D01*
X36561950Y30952350D01*
X36561950Y31447650D01*
X35761850Y31714350D02*
X35761850Y32209650D01*
X36066650Y31942950D01*
X36066650Y32057250D01*
X36104750Y32133450D01*
X36142850Y32171550D01*
X36219050Y32209650D01*
X36409550Y32209650D01*
X36485750Y32171550D01*
X36523850Y32133450D01*
X36561950Y32057250D01*
X36561950Y31828650D01*
X36523850Y31752450D01*
X36485750Y31714350D01*
X33785650Y27914250D02*
X33747550Y27876150D01*
X33633250Y27838050D01*
X33557050Y27838050D01*
X33442750Y27876150D01*
X33366550Y27952350D01*
X33328450Y28028550D01*
X33290350Y28180950D01*
X33290350Y28295250D01*
X33328450Y28447650D01*
X33366550Y28523850D01*
X33442750Y28600050D01*
X33557050Y28638150D01*
X33633250Y28638150D01*
X33747550Y28600050D01*
X33785650Y28561950D01*
X34090450Y28561950D02*
X34128550Y28600050D01*
X34204750Y28638150D01*
X34395250Y28638150D01*
X34471450Y28600050D01*
X34509550Y28561950D01*
X34547650Y28485750D01*
X34547650Y28409550D01*
X34509550Y28295250D01*
X34052350Y27838050D01*
X34547650Y27838050D01*
X35004850Y28295250D02*
X34928650Y28333350D01*
X34890550Y28371450D01*
X34852450Y28447650D01*
X34852450Y28485750D01*
X34890550Y28561950D01*
X34928650Y28600050D01*
X35004850Y28638150D01*
X35157250Y28638150D01*
X35233450Y28600050D01*
X35271550Y28561950D01*
X35309650Y28485750D01*
X35309650Y28447650D01*
X35271550Y28371450D01*
X35233450Y28333350D01*
X35157250Y28295250D01*
X35004850Y28295250D01*
X34928650Y28257150D01*
X34890550Y28219050D01*
X34852450Y28142850D01*
X34852450Y27990450D01*
X34890550Y27914250D01*
X34928650Y27876150D01*
X35004850Y27838050D01*
X35157250Y27838050D01*
X35233450Y27876150D01*
X35271550Y27914250D01*
X35309650Y27990450D01*
X35309650Y28142850D01*
X35271550Y28219050D01*
X35233450Y28257150D01*
X35157250Y28295250D01*
X44785650Y32314250D02*
X44747550Y32276150D01*
X44633250Y32238050D01*
X44557050Y32238050D01*
X44442750Y32276150D01*
X44366550Y32352350D01*
X44328450Y32428550D01*
X44290350Y32580950D01*
X44290350Y32695250D01*
X44328450Y32847650D01*
X44366550Y32923850D01*
X44442750Y33000050D01*
X44557050Y33038150D01*
X44633250Y33038150D01*
X44747550Y33000050D01*
X44785650Y32961950D01*
X45090450Y32961950D02*
X45128550Y33000050D01*
X45204750Y33038150D01*
X45395250Y33038150D01*
X45471450Y33000050D01*
X45509550Y32961950D01*
X45547650Y32885750D01*
X45547650Y32809550D01*
X45509550Y32695250D01*
X45052350Y32238050D01*
X45547650Y32238050D01*
X45928650Y32238050D02*
X46081050Y32238050D01*
X46157250Y32276150D01*
X46195350Y32314250D01*
X46271550Y32428550D01*
X46309650Y32580950D01*
X46309650Y32885750D01*
X46271550Y32961950D01*
X46233450Y33000050D01*
X46157250Y33038150D01*
X46004850Y33038150D01*
X45928650Y33000050D01*
X45890550Y32961950D01*
X45852450Y32885750D01*
X45852450Y32695250D01*
X45890550Y32619050D01*
X45928650Y32580950D01*
X46004850Y32542850D01*
X46157250Y32542850D01*
X46233450Y32580950D01*
X46271550Y32619050D01*
X46309650Y32695250D01*
X23185650Y41314250D02*
X23147550Y41276150D01*
X23033250Y41238050D01*
X22957050Y41238050D01*
X22842750Y41276150D01*
X22766550Y41352350D01*
X22728450Y41428550D01*
X22690350Y41580950D01*
X22690350Y41695250D01*
X22728450Y41847650D01*
X22766550Y41923850D01*
X22842750Y42000050D01*
X22957050Y42038150D01*
X23033250Y42038150D01*
X23147550Y42000050D01*
X23185650Y41961950D01*
X23452350Y42038150D02*
X23947650Y42038150D01*
X23680950Y41733350D01*
X23795250Y41733350D01*
X23871450Y41695250D01*
X23909550Y41657150D01*
X23947650Y41580950D01*
X23947650Y41390450D01*
X23909550Y41314250D01*
X23871450Y41276150D01*
X23795250Y41238050D01*
X23566650Y41238050D01*
X23490450Y41276150D01*
X23452350Y41314250D01*
X24442950Y42038150D02*
X24519150Y42038150D01*
X24595350Y42000050D01*
X24633450Y41961950D01*
X24671550Y41885750D01*
X24709650Y41733350D01*
X24709650Y41542850D01*
X24671550Y41390450D01*
X24633450Y41314250D01*
X24595350Y41276150D01*
X24519150Y41238050D01*
X24442950Y41238050D01*
X24366750Y41276150D01*
X24328650Y41314250D01*
X24290550Y41390450D01*
X24252450Y41542850D01*
X24252450Y41733350D01*
X24290550Y41885750D01*
X24328650Y41961950D01*
X24366750Y42000050D01*
X24442950Y42038150D01*
X32385750Y31385650D02*
X32423850Y31347550D01*
X32461950Y31233250D01*
X32461950Y31157050D01*
X32423850Y31042750D01*
X32347650Y30966550D01*
X32271450Y30928450D01*
X32119050Y30890350D01*
X32004750Y30890350D01*
X31852350Y30928450D01*
X31776150Y30966550D01*
X31699950Y31042750D01*
X31661850Y31157050D01*
X31661850Y31233250D01*
X31699950Y31347550D01*
X31738050Y31385650D01*
X31661850Y31652350D02*
X31661850Y32147650D01*
X31966650Y31880950D01*
X31966650Y31995250D01*
X32004750Y32071450D01*
X32042850Y32109550D01*
X32119050Y32147650D01*
X32309550Y32147650D01*
X32385750Y32109550D01*
X32423850Y32071450D01*
X32461950Y31995250D01*
X32461950Y31766650D01*
X32423850Y31690450D01*
X32385750Y31652350D01*
X31738050Y32452450D02*
X31699950Y32490550D01*
X31661850Y32566750D01*
X31661850Y32757250D01*
X31699950Y32833450D01*
X31738050Y32871550D01*
X31814250Y32909650D01*
X31890450Y32909650D01*
X32004750Y32871550D01*
X32461950Y32414350D01*
X32461950Y32909650D01*
X15885750Y28685650D02*
X15923850Y28647550D01*
X15961950Y28533250D01*
X15961950Y28457050D01*
X15923850Y28342750D01*
X15847650Y28266550D01*
X15771450Y28228450D01*
X15619050Y28190350D01*
X15504750Y28190350D01*
X15352350Y28228450D01*
X15276150Y28266550D01*
X15199950Y28342750D01*
X15161850Y28457050D01*
X15161850Y28533250D01*
X15199950Y28647550D01*
X15238050Y28685650D01*
X15161850Y28952350D02*
X15161850Y29447650D01*
X15466650Y29180950D01*
X15466650Y29295250D01*
X15504750Y29371450D01*
X15542850Y29409550D01*
X15619050Y29447650D01*
X15809550Y29447650D01*
X15885750Y29409550D01*
X15923850Y29371450D01*
X15961950Y29295250D01*
X15961950Y29066650D01*
X15923850Y28990450D01*
X15885750Y28952350D01*
X15428550Y30133450D02*
X15961950Y30133450D01*
X15123750Y29942950D02*
X15695250Y29752450D01*
X15695250Y30247750D01*
X6885650Y37114250D02*
X6847550Y37076150D01*
X6733250Y37038050D01*
X6657050Y37038050D01*
X6542750Y37076150D01*
X6466550Y37152350D01*
X6428450Y37228550D01*
X6390350Y37380950D01*
X6390350Y37495250D01*
X6428450Y37647650D01*
X6466550Y37723850D01*
X6542750Y37800050D01*
X6657050Y37838150D01*
X6733250Y37838150D01*
X6847550Y37800050D01*
X6885650Y37761950D01*
X7152350Y37838150D02*
X7647650Y37838150D01*
X7380950Y37533350D01*
X7495250Y37533350D01*
X7571450Y37495250D01*
X7609550Y37457150D01*
X7647650Y37380950D01*
X7647650Y37190450D01*
X7609550Y37114250D01*
X7571450Y37076150D01*
X7495250Y37038050D01*
X7266650Y37038050D01*
X7190450Y37076150D01*
X7152350Y37114250D01*
X8333450Y37838150D02*
X8181050Y37838150D01*
X8104850Y37800050D01*
X8066750Y37761950D01*
X7990550Y37647650D01*
X7952450Y37495250D01*
X7952450Y37190450D01*
X7990550Y37114250D01*
X8028650Y37076150D01*
X8104850Y37038050D01*
X8257250Y37038050D01*
X8333450Y37076150D01*
X8371550Y37114250D01*
X8409650Y37190450D01*
X8409650Y37380950D01*
X8371550Y37457150D01*
X8333450Y37495250D01*
X8257250Y37533350D01*
X8104850Y37533350D01*
X8028650Y37495250D01*
X7990550Y37457150D01*
X7952450Y37380950D01*
X9385750Y25885650D02*
X9423850Y25847550D01*
X9461950Y25733250D01*
X9461950Y25657050D01*
X9423850Y25542750D01*
X9347650Y25466550D01*
X9271450Y25428450D01*
X9119050Y25390350D01*
X9004750Y25390350D01*
X8852350Y25428450D01*
X8776150Y25466550D01*
X8699950Y25542750D01*
X8661850Y25657050D01*
X8661850Y25733250D01*
X8699950Y25847550D01*
X8738050Y25885650D01*
X8661850Y26152350D02*
X8661850Y26647650D01*
X8966650Y26380950D01*
X8966650Y26495250D01*
X9004750Y26571450D01*
X9042850Y26609550D01*
X9119050Y26647650D01*
X9309550Y26647650D01*
X9385750Y26609550D01*
X9423850Y26571450D01*
X9461950Y26495250D01*
X9461950Y26266650D01*
X9423850Y26190450D01*
X9385750Y26152350D01*
X8661850Y26914350D02*
X8661850Y27447750D01*
X9461950Y27104850D01*
X10485650Y37214250D02*
X10447550Y37176150D01*
X10333250Y37138050D01*
X10257050Y37138050D01*
X10142750Y37176150D01*
X10066550Y37252350D01*
X10028450Y37328550D01*
X9990350Y37480950D01*
X9990350Y37595250D01*
X10028450Y37747650D01*
X10066550Y37823850D01*
X10142750Y37900050D01*
X10257050Y37938150D01*
X10333250Y37938150D01*
X10447550Y37900050D01*
X10485650Y37861950D01*
X10752350Y37938150D02*
X11247650Y37938150D01*
X10980950Y37633350D01*
X11095250Y37633350D01*
X11171450Y37595250D01*
X11209550Y37557150D01*
X11247650Y37480950D01*
X11247650Y37290450D01*
X11209550Y37214250D01*
X11171450Y37176150D01*
X11095250Y37138050D01*
X10866650Y37138050D01*
X10790450Y37176150D01*
X10752350Y37214250D01*
X11704850Y37595250D02*
X11628650Y37633350D01*
X11590550Y37671450D01*
X11552450Y37747650D01*
X11552450Y37785750D01*
X11590550Y37861950D01*
X11628650Y37900050D01*
X11704850Y37938150D01*
X11857250Y37938150D01*
X11933450Y37900050D01*
X11971550Y37861950D01*
X12009650Y37785750D01*
X12009650Y37747650D01*
X11971550Y37671450D01*
X11933450Y37633350D01*
X11857250Y37595250D01*
X11704850Y37595250D01*
X11628650Y37557150D01*
X11590550Y37519050D01*
X11552450Y37442850D01*
X11552450Y37290450D01*
X11590550Y37214250D01*
X11628650Y37176150D01*
X11704850Y37138050D01*
X11857250Y37138050D01*
X11933450Y37176150D01*
X11971550Y37214250D01*
X12009650Y37290450D01*
X12009650Y37442850D01*
X11971550Y37519050D01*
X11933450Y37557150D01*
X11857250Y37595250D01*
X18385650Y27714250D02*
X18347550Y27676150D01*
X18233250Y27638050D01*
X18157050Y27638050D01*
X18042750Y27676150D01*
X17966550Y27752350D01*
X17928450Y27828550D01*
X17890350Y27980950D01*
X17890350Y28095250D01*
X17928450Y28247650D01*
X17966550Y28323850D01*
X18042750Y28400050D01*
X18157050Y28438150D01*
X18233250Y28438150D01*
X18347550Y28400050D01*
X18385650Y28361950D01*
X18652350Y28438150D02*
X19147650Y28438150D01*
X18880950Y28133350D01*
X18995250Y28133350D01*
X19071450Y28095250D01*
X19109550Y28057150D01*
X19147650Y27980950D01*
X19147650Y27790450D01*
X19109550Y27714250D01*
X19071450Y27676150D01*
X18995250Y27638050D01*
X18766650Y27638050D01*
X18690450Y27676150D01*
X18652350Y27714250D01*
X19528650Y27638050D02*
X19681050Y27638050D01*
X19757250Y27676150D01*
X19795350Y27714250D01*
X19871550Y27828550D01*
X19909650Y27980950D01*
X19909650Y28285750D01*
X19871550Y28361950D01*
X19833450Y28400050D01*
X19757250Y28438150D01*
X19604850Y28438150D01*
X19528650Y28400050D01*
X19490550Y28361950D01*
X19452450Y28285750D01*
X19452450Y28095250D01*
X19490550Y28019050D01*
X19528650Y27980950D01*
X19604850Y27942850D01*
X19757250Y27942850D01*
X19833450Y27980950D01*
X19871550Y28019050D01*
X19909650Y28095250D01*
X34285650Y1514250D02*
X34247550Y1476150D01*
X34133250Y1438050D01*
X34057050Y1438050D01*
X33942750Y1476150D01*
X33866550Y1552350D01*
X33828450Y1628550D01*
X33790350Y1780950D01*
X33790350Y1895250D01*
X33828450Y2047650D01*
X33866550Y2123850D01*
X33942750Y2200050D01*
X34057050Y2238150D01*
X34133250Y2238150D01*
X34247550Y2200050D01*
X34285650Y2161950D01*
X34971450Y1971450D02*
X34971450Y1438050D01*
X34780950Y2276250D02*
X34590450Y1704750D01*
X35085750Y1704750D01*
X35809650Y1438050D02*
X35352450Y1438050D01*
X35581050Y1438050D02*
X35581050Y2238150D01*
X35504850Y2123850D01*
X35428650Y2047650D01*
X35352450Y2009550D01*
X36785650Y5414250D02*
X36747550Y5376150D01*
X36633250Y5338050D01*
X36557050Y5338050D01*
X36442750Y5376150D01*
X36366550Y5452350D01*
X36328450Y5528550D01*
X36290350Y5680950D01*
X36290350Y5795250D01*
X36328450Y5947650D01*
X36366550Y6023850D01*
X36442750Y6100050D01*
X36557050Y6138150D01*
X36633250Y6138150D01*
X36747550Y6100050D01*
X36785650Y6061950D01*
X37471450Y5871450D02*
X37471450Y5338050D01*
X37280950Y6176250D02*
X37090450Y5604750D01*
X37585750Y5604750D01*
X37814350Y6138150D02*
X38309650Y6138150D01*
X38042950Y5833350D01*
X38157250Y5833350D01*
X38233450Y5795250D01*
X38271550Y5757150D01*
X38309650Y5680950D01*
X38309650Y5490450D01*
X38271550Y5414250D01*
X38233450Y5376150D01*
X38157250Y5338050D01*
X37928650Y5338050D01*
X37852450Y5376150D01*
X37814350Y5414250D01*
X42685650Y6914250D02*
X42647550Y6876150D01*
X42533250Y6838050D01*
X42457050Y6838050D01*
X42342750Y6876150D01*
X42266550Y6952350D01*
X42228450Y7028550D01*
X42190350Y7180950D01*
X42190350Y7295250D01*
X42228450Y7447650D01*
X42266550Y7523850D01*
X42342750Y7600050D01*
X42457050Y7638150D01*
X42533250Y7638150D01*
X42647550Y7600050D01*
X42685650Y7561950D01*
X43371450Y7371450D02*
X43371450Y6838050D01*
X43180950Y7676250D02*
X42990450Y7104750D01*
X43485750Y7104750D01*
X44171550Y7638150D02*
X43790550Y7638150D01*
X43752450Y7257150D01*
X43790550Y7295250D01*
X43866750Y7333350D01*
X44057250Y7333350D01*
X44133450Y7295250D01*
X44171550Y7257150D01*
X44209650Y7180950D01*
X44209650Y6990450D01*
X44171550Y6914250D01*
X44133450Y6876150D01*
X44057250Y6838050D01*
X43866750Y6838050D01*
X43790550Y6876150D01*
X43752450Y6914250D01*
X14485650Y24814250D02*
X14447550Y24776150D01*
X14333250Y24738050D01*
X14257050Y24738050D01*
X14142750Y24776150D01*
X14066550Y24852350D01*
X14028450Y24928550D01*
X13990350Y25080950D01*
X13990350Y25195250D01*
X14028450Y25347650D01*
X14066550Y25423850D01*
X14142750Y25500050D01*
X14257050Y25538150D01*
X14333250Y25538150D01*
X14447550Y25500050D01*
X14485650Y25461950D01*
X15171450Y25271450D02*
X15171450Y24738050D01*
X14980950Y25576250D02*
X14790450Y25004750D01*
X15285750Y25004750D01*
X15514350Y25538150D02*
X16047750Y25538150D01*
X15704850Y24738050D01*
X14485650Y23514250D02*
X14447550Y23476150D01*
X14333250Y23438050D01*
X14257050Y23438050D01*
X14142750Y23476150D01*
X14066550Y23552350D01*
X14028450Y23628550D01*
X13990350Y23780950D01*
X13990350Y23895250D01*
X14028450Y24047650D01*
X14066550Y24123850D01*
X14142750Y24200050D01*
X14257050Y24238150D01*
X14333250Y24238150D01*
X14447550Y24200050D01*
X14485650Y24161950D01*
X15171450Y23971450D02*
X15171450Y23438050D01*
X14980950Y24276250D02*
X14790450Y23704750D01*
X15285750Y23704750D01*
X15704850Y23895250D02*
X15628650Y23933350D01*
X15590550Y23971450D01*
X15552450Y24047650D01*
X15552450Y24085750D01*
X15590550Y24161950D01*
X15628650Y24200050D01*
X15704850Y24238150D01*
X15857250Y24238150D01*
X15933450Y24200050D01*
X15971550Y24161950D01*
X16009650Y24085750D01*
X16009650Y24047650D01*
X15971550Y23971450D01*
X15933450Y23933350D01*
X15857250Y23895250D01*
X15704850Y23895250D01*
X15628650Y23857150D01*
X15590550Y23819050D01*
X15552450Y23742850D01*
X15552450Y23590450D01*
X15590550Y23514250D01*
X15628650Y23476150D01*
X15704850Y23438050D01*
X15857250Y23438050D01*
X15933450Y23476150D01*
X15971550Y23514250D01*
X16009650Y23590450D01*
X16009650Y23742850D01*
X15971550Y23819050D01*
X15933450Y23857150D01*
X15857250Y23895250D01*
X48666650Y9438050D02*
X48399950Y9819050D01*
X48209450Y9438050D02*
X48209450Y10238150D01*
X48514250Y10238150D01*
X48590450Y10200050D01*
X48628550Y10161950D01*
X48666650Y10085750D01*
X48666650Y9971450D01*
X48628550Y9895250D01*
X48590450Y9857150D01*
X48514250Y9819050D01*
X48209450Y9819050D01*
X49428650Y9438050D02*
X48971450Y9438050D01*
X49200050Y9438050D02*
X49200050Y10238150D01*
X49123850Y10123850D01*
X49047650Y10047650D01*
X48971450Y10009550D01*
X52961950Y27366650D02*
X52580950Y27099950D01*
X52961950Y26909450D02*
X52161850Y26909450D01*
X52161850Y27214250D01*
X52199950Y27290450D01*
X52238050Y27328550D01*
X52314250Y27366650D01*
X52428550Y27366650D01*
X52504750Y27328550D01*
X52542850Y27290450D01*
X52580950Y27214250D01*
X52580950Y26909450D01*
X52238050Y27671450D02*
X52199950Y27709550D01*
X52161850Y27785750D01*
X52161850Y27976250D01*
X52199950Y28052450D01*
X52238050Y28090550D01*
X52314250Y28128650D01*
X52390450Y28128650D01*
X52504750Y28090550D01*
X52961950Y27633350D01*
X52961950Y28128650D01*
X47761950Y30266650D02*
X47380950Y29999950D01*
X47761950Y29809450D02*
X46961850Y29809450D01*
X46961850Y30114250D01*
X46999950Y30190450D01*
X47038050Y30228550D01*
X47114250Y30266650D01*
X47228550Y30266650D01*
X47304750Y30228550D01*
X47342850Y30190450D01*
X47380950Y30114250D01*
X47380950Y29809450D01*
X46961850Y30533350D02*
X46961850Y31028650D01*
X47266650Y30761950D01*
X47266650Y30876250D01*
X47304750Y30952450D01*
X47342850Y30990550D01*
X47419050Y31028650D01*
X47609550Y31028650D01*
X47685750Y30990550D01*
X47723850Y30952450D01*
X47761950Y30876250D01*
X47761950Y30647650D01*
X47723850Y30571450D01*
X47685750Y30533350D01*
X49166650Y18538050D02*
X48899950Y18919050D01*
X48709450Y18538050D02*
X48709450Y19338150D01*
X49014250Y19338150D01*
X49090450Y19300050D01*
X49128550Y19261950D01*
X49166650Y19185750D01*
X49166650Y19071450D01*
X49128550Y18995250D01*
X49090450Y18957150D01*
X49014250Y18919050D01*
X48709450Y18919050D01*
X49852450Y19071450D02*
X49852450Y18538050D01*
X49661950Y19376250D02*
X49471450Y18804750D01*
X49966750Y18804750D01*
X42661950Y19666650D02*
X42280950Y19399950D01*
X42661950Y19209450D02*
X41861850Y19209450D01*
X41861850Y19514250D01*
X41899950Y19590450D01*
X41938050Y19628550D01*
X42014250Y19666650D01*
X42128550Y19666650D01*
X42204750Y19628550D01*
X42242850Y19590450D01*
X42280950Y19514250D01*
X42280950Y19209450D01*
X41861850Y20390550D02*
X41861850Y20009550D01*
X42242850Y19971450D01*
X42204750Y20009550D01*
X42166650Y20085750D01*
X42166650Y20276250D01*
X42204750Y20352450D01*
X42242850Y20390550D01*
X42319050Y20428650D01*
X42509550Y20428650D01*
X42585750Y20390550D01*
X42623850Y20352450D01*
X42661950Y20276250D01*
X42661950Y20085750D01*
X42623850Y20009550D01*
X42585750Y19971450D01*
X39266650Y32438050D02*
X38999950Y32819050D01*
X38809450Y32438050D02*
X38809450Y33238150D01*
X39114250Y33238150D01*
X39190450Y33200050D01*
X39228550Y33161950D01*
X39266650Y33085750D01*
X39266650Y32971450D01*
X39228550Y32895250D01*
X39190450Y32857150D01*
X39114250Y32819050D01*
X38809450Y32819050D01*
X39952450Y33238150D02*
X39800050Y33238150D01*
X39723850Y33200050D01*
X39685750Y33161950D01*
X39609550Y33047650D01*
X39571450Y32895250D01*
X39571450Y32590450D01*
X39609550Y32514250D01*
X39647650Y32476150D01*
X39723850Y32438050D01*
X39876250Y32438050D01*
X39952450Y32476150D01*
X39990550Y32514250D01*
X40028650Y32590450D01*
X40028650Y32780950D01*
X39990550Y32857150D01*
X39952450Y32895250D01*
X39876250Y32933350D01*
X39723850Y32933350D01*
X39647650Y32895250D01*
X39609550Y32857150D01*
X39571450Y32780950D01*
X39466650Y13838050D02*
X39199950Y14219050D01*
X39009450Y13838050D02*
X39009450Y14638150D01*
X39314250Y14638150D01*
X39390450Y14600050D01*
X39428550Y14561950D01*
X39466650Y14485750D01*
X39466650Y14371450D01*
X39428550Y14295250D01*
X39390450Y14257150D01*
X39314250Y14219050D01*
X39009450Y14219050D01*
X39733350Y14638150D02*
X40266750Y14638150D01*
X39923850Y13838050D01*
X48861950Y32266650D02*
X48480950Y31999950D01*
X48861950Y31809450D02*
X48061850Y31809450D01*
X48061850Y32114250D01*
X48099950Y32190450D01*
X48138050Y32228550D01*
X48214250Y32266650D01*
X48328550Y32266650D01*
X48404750Y32228550D01*
X48442850Y32190450D01*
X48480950Y32114250D01*
X48480950Y31809450D01*
X48404750Y32723850D02*
X48366650Y32647650D01*
X48328550Y32609550D01*
X48252350Y32571450D01*
X48214250Y32571450D01*
X48138050Y32609550D01*
X48099950Y32647650D01*
X48061850Y32723850D01*
X48061850Y32876250D01*
X48099950Y32952450D01*
X48138050Y32990550D01*
X48214250Y33028650D01*
X48252350Y33028650D01*
X48328550Y32990550D01*
X48366650Y32952450D01*
X48404750Y32876250D01*
X48404750Y32723850D01*
X48442850Y32647650D01*
X48480950Y32609550D01*
X48557150Y32571450D01*
X48709550Y32571450D01*
X48785750Y32609550D01*
X48823850Y32647650D01*
X48861950Y32723850D01*
X48861950Y32876250D01*
X48823850Y32952450D01*
X48785750Y32990550D01*
X48709550Y33028650D01*
X48557150Y33028650D01*
X48480950Y32990550D01*
X48442850Y32952450D01*
X48404750Y32876250D01*
X41066650Y17638050D02*
X40799950Y18019050D01*
X40609450Y17638050D02*
X40609450Y18438150D01*
X40914250Y18438150D01*
X40990450Y18400050D01*
X41028550Y18361950D01*
X41066650Y18285750D01*
X41066650Y18171450D01*
X41028550Y18095250D01*
X40990450Y18057150D01*
X40914250Y18019050D01*
X40609450Y18019050D01*
X41447650Y17638050D02*
X41600050Y17638050D01*
X41676250Y17676150D01*
X41714350Y17714250D01*
X41790550Y17828550D01*
X41828650Y17980950D01*
X41828650Y18285750D01*
X41790550Y18361950D01*
X41752450Y18400050D01*
X41676250Y18438150D01*
X41523850Y18438150D01*
X41447650Y18400050D01*
X41409550Y18361950D01*
X41371450Y18285750D01*
X41371450Y18095250D01*
X41409550Y18019050D01*
X41447650Y17980950D01*
X41523850Y17942850D01*
X41676250Y17942850D01*
X41752450Y17980950D01*
X41790550Y18019050D01*
X41828650Y18095250D01*
X40485650Y23138050D02*
X40218950Y23519050D01*
X40028450Y23138050D02*
X40028450Y23938150D01*
X40333250Y23938150D01*
X40409450Y23900050D01*
X40447550Y23861950D01*
X40485650Y23785750D01*
X40485650Y23671450D01*
X40447550Y23595250D01*
X40409450Y23557150D01*
X40333250Y23519050D01*
X40028450Y23519050D01*
X41247650Y23138050D02*
X40790450Y23138050D01*
X41019050Y23138050D02*
X41019050Y23938150D01*
X40942850Y23823850D01*
X40866650Y23747650D01*
X40790450Y23709550D01*
X41742950Y23938150D02*
X41819150Y23938150D01*
X41895350Y23900050D01*
X41933450Y23861950D01*
X41971550Y23785750D01*
X42009650Y23633350D01*
X42009650Y23442850D01*
X41971550Y23290450D01*
X41933450Y23214250D01*
X41895350Y23176150D01*
X41819150Y23138050D01*
X41742950Y23138050D01*
X41666750Y23176150D01*
X41628650Y23214250D01*
X41590550Y23290450D01*
X41552450Y23442850D01*
X41552450Y23633350D01*
X41590550Y23785750D01*
X41628650Y23861950D01*
X41666750Y23900050D01*
X41742950Y23938150D01*
X13685650Y37838050D02*
X13418950Y38219050D01*
X13228450Y37838050D02*
X13228450Y38638150D01*
X13533250Y38638150D01*
X13609450Y38600050D01*
X13647550Y38561950D01*
X13685650Y38485750D01*
X13685650Y38371450D01*
X13647550Y38295250D01*
X13609450Y38257150D01*
X13533250Y38219050D01*
X13228450Y38219050D01*
X14447650Y37838050D02*
X13990450Y37838050D01*
X14219050Y37838050D02*
X14219050Y38638150D01*
X14142850Y38523850D01*
X14066650Y38447650D01*
X13990450Y38409550D01*
X15209650Y37838050D02*
X14752450Y37838050D01*
X14981050Y37838050D02*
X14981050Y38638150D01*
X14904850Y38523850D01*
X14828650Y38447650D01*
X14752450Y38409550D01*
X27085650Y14938050D02*
X26818950Y15319050D01*
X26628450Y14938050D02*
X26628450Y15738150D01*
X26933250Y15738150D01*
X27009450Y15700050D01*
X27047550Y15661950D01*
X27085650Y15585750D01*
X27085650Y15471450D01*
X27047550Y15395250D01*
X27009450Y15357150D01*
X26933250Y15319050D01*
X26628450Y15319050D01*
X27847650Y14938050D02*
X27390450Y14938050D01*
X27619050Y14938050D02*
X27619050Y15738150D01*
X27542850Y15623850D01*
X27466650Y15547650D01*
X27390450Y15509550D01*
X28152450Y15661950D02*
X28190550Y15700050D01*
X28266750Y15738150D01*
X28457250Y15738150D01*
X28533450Y15700050D01*
X28571550Y15661950D01*
X28609650Y15585750D01*
X28609650Y15509550D01*
X28571550Y15395250D01*
X28114350Y14938050D01*
X28609650Y14938050D01*
X32461950Y28985650D02*
X32080950Y28718950D01*
X32461950Y28528450D02*
X31661850Y28528450D01*
X31661850Y28833250D01*
X31699950Y28909450D01*
X31738050Y28947550D01*
X31814250Y28985650D01*
X31928550Y28985650D01*
X32004750Y28947550D01*
X32042850Y28909450D01*
X32080950Y28833250D01*
X32080950Y28528450D01*
X32461950Y29747650D02*
X32461950Y29290450D01*
X32461950Y29519050D02*
X31661850Y29519050D01*
X31776150Y29442850D01*
X31852350Y29366650D01*
X31890450Y29290450D01*
X31661850Y30014350D02*
X31661850Y30509650D01*
X31966650Y30242950D01*
X31966650Y30357250D01*
X32004750Y30433450D01*
X32042850Y30471550D01*
X32119050Y30509650D01*
X32309550Y30509650D01*
X32385750Y30471550D01*
X32423850Y30433450D01*
X32461950Y30357250D01*
X32461950Y30128650D01*
X32423850Y30052450D01*
X32385750Y30014350D01*
X44785650Y33538050D02*
X44518950Y33919050D01*
X44328450Y33538050D02*
X44328450Y34338150D01*
X44633250Y34338150D01*
X44709450Y34300050D01*
X44747550Y34261950D01*
X44785650Y34185750D01*
X44785650Y34071450D01*
X44747550Y33995250D01*
X44709450Y33957150D01*
X44633250Y33919050D01*
X44328450Y33919050D01*
X45547650Y33538050D02*
X45090450Y33538050D01*
X45319050Y33538050D02*
X45319050Y34338150D01*
X45242850Y34223850D01*
X45166650Y34147650D01*
X45090450Y34109550D01*
X46233450Y34071450D02*
X46233450Y33538050D01*
X46042950Y34376250D02*
X45852450Y33804750D01*
X46347750Y33804750D01*
X42561950Y38185650D02*
X42180950Y37918950D01*
X42561950Y37728450D02*
X41761850Y37728450D01*
X41761850Y38033250D01*
X41799950Y38109450D01*
X41838050Y38147550D01*
X41914250Y38185650D01*
X42028550Y38185650D01*
X42104750Y38147550D01*
X42142850Y38109450D01*
X42180950Y38033250D01*
X42180950Y37728450D01*
X42561950Y38947650D02*
X42561950Y38490450D01*
X42561950Y38719050D02*
X41761850Y38719050D01*
X41876150Y38642850D01*
X41952350Y38566650D01*
X41990450Y38490450D01*
X41761850Y39671550D02*
X41761850Y39290550D01*
X42142850Y39252450D01*
X42104750Y39290550D01*
X42066650Y39366750D01*
X42066650Y39557250D01*
X42104750Y39633450D01*
X42142850Y39671550D01*
X42219050Y39709650D01*
X42409550Y39709650D01*
X42485750Y39671550D01*
X42523850Y39633450D01*
X42561950Y39557250D01*
X42561950Y39366750D01*
X42523850Y39290550D01*
X42485750Y39252450D01*
X34361950Y33685650D02*
X33980950Y33418950D01*
X34361950Y33228450D02*
X33561850Y33228450D01*
X33561850Y33533250D01*
X33599950Y33609450D01*
X33638050Y33647550D01*
X33714250Y33685650D01*
X33828550Y33685650D01*
X33904750Y33647550D01*
X33942850Y33609450D01*
X33980950Y33533250D01*
X33980950Y33228450D01*
X34361950Y34447650D02*
X34361950Y33990450D01*
X34361950Y34219050D02*
X33561850Y34219050D01*
X33676150Y34142850D01*
X33752350Y34066650D01*
X33790450Y33990450D01*
X33561850Y35133450D02*
X33561850Y34981050D01*
X33599950Y34904850D01*
X33638050Y34866750D01*
X33752350Y34790550D01*
X33904750Y34752450D01*
X34209550Y34752450D01*
X34285750Y34790550D01*
X34323850Y34828650D01*
X34361950Y34904850D01*
X34361950Y35057250D01*
X34323850Y35133450D01*
X34285750Y35171550D01*
X34209550Y35209650D01*
X34019050Y35209650D01*
X33942850Y35171550D01*
X33904750Y35133450D01*
X33866650Y35057250D01*
X33866650Y34904850D01*
X33904750Y34828650D01*
X33942850Y34790550D01*
X34019050Y34752450D01*
X34085650Y13238050D02*
X33818950Y13619050D01*
X33628450Y13238050D02*
X33628450Y14038150D01*
X33933250Y14038150D01*
X34009450Y14000050D01*
X34047550Y13961950D01*
X34085650Y13885750D01*
X34085650Y13771450D01*
X34047550Y13695250D01*
X34009450Y13657150D01*
X33933250Y13619050D01*
X33628450Y13619050D01*
X34847650Y13238050D02*
X34390450Y13238050D01*
X34619050Y13238050D02*
X34619050Y14038150D01*
X34542850Y13923850D01*
X34466650Y13847650D01*
X34390450Y13809550D01*
X35114350Y14038150D02*
X35647750Y14038150D01*
X35304850Y13238050D01*
X49061950Y36485650D02*
X48680950Y36218950D01*
X49061950Y36028450D02*
X48261850Y36028450D01*
X48261850Y36333250D01*
X48299950Y36409450D01*
X48338050Y36447550D01*
X48414250Y36485650D01*
X48528550Y36485650D01*
X48604750Y36447550D01*
X48642850Y36409450D01*
X48680950Y36333250D01*
X48680950Y36028450D01*
X49061950Y37247650D02*
X49061950Y36790450D01*
X49061950Y37019050D02*
X48261850Y37019050D01*
X48376150Y36942850D01*
X48452350Y36866650D01*
X48490450Y36790450D01*
X48604750Y37704850D02*
X48566650Y37628650D01*
X48528550Y37590550D01*
X48452350Y37552450D01*
X48414250Y37552450D01*
X48338050Y37590550D01*
X48299950Y37628650D01*
X48261850Y37704850D01*
X48261850Y37857250D01*
X48299950Y37933450D01*
X48338050Y37971550D01*
X48414250Y38009650D01*
X48452350Y38009650D01*
X48528550Y37971550D01*
X48566650Y37933450D01*
X48604750Y37857250D01*
X48604750Y37704850D01*
X48642850Y37628650D01*
X48680950Y37590550D01*
X48757150Y37552450D01*
X48909550Y37552450D01*
X48985750Y37590550D01*
X49023850Y37628650D01*
X49061950Y37704850D01*
X49061950Y37857250D01*
X49023850Y37933450D01*
X48985750Y37971550D01*
X48909550Y38009650D01*
X48757150Y38009650D01*
X48680950Y37971550D01*
X48642850Y37933450D01*
X48604750Y37857250D01*
X30061950Y34185650D02*
X29680950Y33918950D01*
X30061950Y33728450D02*
X29261850Y33728450D01*
X29261850Y34033250D01*
X29299950Y34109450D01*
X29338050Y34147550D01*
X29414250Y34185650D01*
X29528550Y34185650D01*
X29604750Y34147550D01*
X29642850Y34109450D01*
X29680950Y34033250D01*
X29680950Y33728450D01*
X30061950Y34947650D02*
X30061950Y34490450D01*
X30061950Y34719050D02*
X29261850Y34719050D01*
X29376150Y34642850D01*
X29452350Y34566650D01*
X29490450Y34490450D01*
X30061950Y35328650D02*
X30061950Y35481050D01*
X30023850Y35557250D01*
X29985750Y35595350D01*
X29871450Y35671550D01*
X29719050Y35709650D01*
X29414250Y35709650D01*
X29338050Y35671550D01*
X29299950Y35633450D01*
X29261850Y35557250D01*
X29261850Y35404850D01*
X29299950Y35328650D01*
X29338050Y35290550D01*
X29414250Y35252450D01*
X29604750Y35252450D01*
X29680950Y35290550D01*
X29719050Y35328650D01*
X29757150Y35404850D01*
X29757150Y35557250D01*
X29719050Y35633450D01*
X29680950Y35671550D01*
X29604750Y35709650D01*
X31685650Y3738050D02*
X31418950Y4119050D01*
X31228450Y3738050D02*
X31228450Y4538150D01*
X31533250Y4538150D01*
X31609450Y4500050D01*
X31647550Y4461950D01*
X31685650Y4385750D01*
X31685650Y4271450D01*
X31647550Y4195250D01*
X31609450Y4157150D01*
X31533250Y4119050D01*
X31228450Y4119050D01*
X31990450Y4461950D02*
X32028550Y4500050D01*
X32104750Y4538150D01*
X32295250Y4538150D01*
X32371450Y4500050D01*
X32409550Y4461950D01*
X32447650Y4385750D01*
X32447650Y4309550D01*
X32409550Y4195250D01*
X31952350Y3738050D01*
X32447650Y3738050D01*
X32942950Y4538150D02*
X33019150Y4538150D01*
X33095350Y4500050D01*
X33133450Y4461950D01*
X33171550Y4385750D01*
X33209650Y4233350D01*
X33209650Y4042850D01*
X33171550Y3890450D01*
X33133450Y3814250D01*
X33095350Y3776150D01*
X33019150Y3738050D01*
X32942950Y3738050D01*
X32866750Y3776150D01*
X32828650Y3814250D01*
X32790550Y3890450D01*
X32752450Y4042850D01*
X32752450Y4233350D01*
X32790550Y4385750D01*
X32828650Y4461950D01*
X32866750Y4500050D01*
X32942950Y4538150D01*
X31985650Y7538050D02*
X31718950Y7919050D01*
X31528450Y7538050D02*
X31528450Y8338150D01*
X31833250Y8338150D01*
X31909450Y8300050D01*
X31947550Y8261950D01*
X31985650Y8185750D01*
X31985650Y8071450D01*
X31947550Y7995250D01*
X31909450Y7957150D01*
X31833250Y7919050D01*
X31528450Y7919050D01*
X32290450Y8261950D02*
X32328550Y8300050D01*
X32404750Y8338150D01*
X32595250Y8338150D01*
X32671450Y8300050D01*
X32709550Y8261950D01*
X32747650Y8185750D01*
X32747650Y8109550D01*
X32709550Y7995250D01*
X32252350Y7538050D01*
X32747650Y7538050D01*
X33052450Y8261950D02*
X33090550Y8300050D01*
X33166750Y8338150D01*
X33357250Y8338150D01*
X33433450Y8300050D01*
X33471550Y8261950D01*
X33509650Y8185750D01*
X33509650Y8109550D01*
X33471550Y7995250D01*
X33014350Y7538050D01*
X33509650Y7538050D01*
X5085650Y28338050D02*
X4818950Y28719050D01*
X4628450Y28338050D02*
X4628450Y29138150D01*
X4933250Y29138150D01*
X5009450Y29100050D01*
X5047550Y29061950D01*
X5085650Y28985750D01*
X5085650Y28871450D01*
X5047550Y28795250D01*
X5009450Y28757150D01*
X4933250Y28719050D01*
X4628450Y28719050D01*
X5390450Y29061950D02*
X5428550Y29100050D01*
X5504750Y29138150D01*
X5695250Y29138150D01*
X5771450Y29100050D01*
X5809550Y29061950D01*
X5847650Y28985750D01*
X5847650Y28909550D01*
X5809550Y28795250D01*
X5352350Y28338050D01*
X5847650Y28338050D01*
X6114350Y29138150D02*
X6609650Y29138150D01*
X6342950Y28833350D01*
X6457250Y28833350D01*
X6533450Y28795250D01*
X6571550Y28757150D01*
X6609650Y28680950D01*
X6609650Y28490450D01*
X6571550Y28414250D01*
X6533450Y28376150D01*
X6457250Y28338050D01*
X6228650Y28338050D01*
X6152450Y28376150D01*
X6114350Y28414250D01*
X32785650Y19638050D02*
X32518950Y20019050D01*
X32328450Y19638050D02*
X32328450Y20438150D01*
X32633250Y20438150D01*
X32709450Y20400050D01*
X32747550Y20361950D01*
X32785650Y20285750D01*
X32785650Y20171450D01*
X32747550Y20095250D01*
X32709450Y20057150D01*
X32633250Y20019050D01*
X32328450Y20019050D01*
X33090450Y20361950D02*
X33128550Y20400050D01*
X33204750Y20438150D01*
X33395250Y20438150D01*
X33471450Y20400050D01*
X33509550Y20361950D01*
X33547650Y20285750D01*
X33547650Y20209550D01*
X33509550Y20095250D01*
X33052350Y19638050D01*
X33547650Y19638050D01*
X34233450Y20171450D02*
X34233450Y19638050D01*
X34042950Y20476250D02*
X33852450Y19904750D01*
X34347750Y19904750D01*
X16985650Y5238050D02*
X16718950Y5619050D01*
X16528450Y5238050D02*
X16528450Y6038150D01*
X16833250Y6038150D01*
X16909450Y6000050D01*
X16947550Y5961950D01*
X16985650Y5885750D01*
X16985650Y5771450D01*
X16947550Y5695250D01*
X16909450Y5657150D01*
X16833250Y5619050D01*
X16528450Y5619050D01*
X17290450Y5961950D02*
X17328550Y6000050D01*
X17404750Y6038150D01*
X17595250Y6038150D01*
X17671450Y6000050D01*
X17709550Y5961950D01*
X17747650Y5885750D01*
X17747650Y5809550D01*
X17709550Y5695250D01*
X17252350Y5238050D01*
X17747650Y5238050D01*
X18471550Y6038150D02*
X18090550Y6038150D01*
X18052450Y5657150D01*
X18090550Y5695250D01*
X18166750Y5733350D01*
X18357250Y5733350D01*
X18433450Y5695250D01*
X18471550Y5657150D01*
X18509650Y5580950D01*
X18509650Y5390450D01*
X18471550Y5314250D01*
X18433450Y5276150D01*
X18357250Y5238050D01*
X18166750Y5238050D01*
X18090550Y5276150D01*
X18052450Y5314250D01*
X21361950Y31385650D02*
X20980950Y31118950D01*
X21361950Y30928450D02*
X20561850Y30928450D01*
X20561850Y31233250D01*
X20599950Y31309450D01*
X20638050Y31347550D01*
X20714250Y31385650D01*
X20828550Y31385650D01*
X20904750Y31347550D01*
X20942850Y31309450D01*
X20980950Y31233250D01*
X20980950Y30928450D01*
X20638050Y31690450D02*
X20599950Y31728550D01*
X20561850Y31804750D01*
X20561850Y31995250D01*
X20599950Y32071450D01*
X20638050Y32109550D01*
X20714250Y32147650D01*
X20790450Y32147650D01*
X20904750Y32109550D01*
X21361950Y31652350D01*
X21361950Y32147650D01*
X20561850Y32833450D02*
X20561850Y32681050D01*
X20599950Y32604850D01*
X20638050Y32566750D01*
X20752350Y32490550D01*
X20904750Y32452450D01*
X21209550Y32452450D01*
X21285750Y32490550D01*
X21323850Y32528650D01*
X21361950Y32604850D01*
X21361950Y32757250D01*
X21323850Y32833450D01*
X21285750Y32871550D01*
X21209550Y32909650D01*
X21019050Y32909650D01*
X20942850Y32871550D01*
X20904750Y32833450D01*
X20866650Y32757250D01*
X20866650Y32604850D01*
X20904750Y32528650D01*
X20942850Y32490550D01*
X21019050Y32452450D01*
X10861950Y24485650D02*
X10480950Y24218950D01*
X10861950Y24028450D02*
X10061850Y24028450D01*
X10061850Y24333250D01*
X10099950Y24409450D01*
X10138050Y24447550D01*
X10214250Y24485650D01*
X10328550Y24485650D01*
X10404750Y24447550D01*
X10442850Y24409450D01*
X10480950Y24333250D01*
X10480950Y24028450D01*
X10138050Y24790450D02*
X10099950Y24828550D01*
X10061850Y24904750D01*
X10061850Y25095250D01*
X10099950Y25171450D01*
X10138050Y25209550D01*
X10214250Y25247650D01*
X10290450Y25247650D01*
X10404750Y25209550D01*
X10861950Y24752350D01*
X10861950Y25247650D01*
X10061850Y25514350D02*
X10061850Y26047750D01*
X10861950Y25704850D01*
X7561950Y18985650D02*
X7180950Y18718950D01*
X7561950Y18528450D02*
X6761850Y18528450D01*
X6761850Y18833250D01*
X6799950Y18909450D01*
X6838050Y18947550D01*
X6914250Y18985650D01*
X7028550Y18985650D01*
X7104750Y18947550D01*
X7142850Y18909450D01*
X7180950Y18833250D01*
X7180950Y18528450D01*
X6838050Y19290450D02*
X6799950Y19328550D01*
X6761850Y19404750D01*
X6761850Y19595250D01*
X6799950Y19671450D01*
X6838050Y19709550D01*
X6914250Y19747650D01*
X6990450Y19747650D01*
X7104750Y19709550D01*
X7561950Y19252350D01*
X7561950Y19747650D01*
X7104750Y20204850D02*
X7066650Y20128650D01*
X7028550Y20090550D01*
X6952350Y20052450D01*
X6914250Y20052450D01*
X6838050Y20090550D01*
X6799950Y20128650D01*
X6761850Y20204850D01*
X6761850Y20357250D01*
X6799950Y20433450D01*
X6838050Y20471550D01*
X6914250Y20509650D01*
X6952350Y20509650D01*
X7028550Y20471550D01*
X7066650Y20433450D01*
X7104750Y20357250D01*
X7104750Y20204850D01*
X7142850Y20128650D01*
X7180950Y20090550D01*
X7257150Y20052450D01*
X7409550Y20052450D01*
X7485750Y20090550D01*
X7523850Y20128650D01*
X7561950Y20204850D01*
X7561950Y20357250D01*
X7523850Y20433450D01*
X7485750Y20471550D01*
X7409550Y20509650D01*
X7257150Y20509650D01*
X7180950Y20471550D01*
X7142850Y20433450D01*
X7104750Y20357250D01*
X10185650Y15838050D02*
X9918950Y16219050D01*
X9728450Y15838050D02*
X9728450Y16638150D01*
X10033250Y16638150D01*
X10109450Y16600050D01*
X10147550Y16561950D01*
X10185650Y16485750D01*
X10185650Y16371450D01*
X10147550Y16295250D01*
X10109450Y16257150D01*
X10033250Y16219050D01*
X9728450Y16219050D01*
X10490450Y16561950D02*
X10528550Y16600050D01*
X10604750Y16638150D01*
X10795250Y16638150D01*
X10871450Y16600050D01*
X10909550Y16561950D01*
X10947650Y16485750D01*
X10947650Y16409550D01*
X10909550Y16295250D01*
X10452350Y15838050D01*
X10947650Y15838050D01*
X11328650Y15838050D02*
X11481050Y15838050D01*
X11557250Y15876150D01*
X11595350Y15914250D01*
X11671550Y16028550D01*
X11709650Y16180950D01*
X11709650Y16485750D01*
X11671550Y16561950D01*
X11633450Y16600050D01*
X11557250Y16638150D01*
X11404850Y16638150D01*
X11328650Y16600050D01*
X11290550Y16561950D01*
X11252450Y16485750D01*
X11252450Y16295250D01*
X11290550Y16219050D01*
X11328650Y16180950D01*
X11404850Y16142850D01*
X11557250Y16142850D01*
X11633450Y16180950D01*
X11671550Y16219050D01*
X11709650Y16295250D01*
X18961950Y33085650D02*
X18580950Y32818950D01*
X18961950Y32628450D02*
X18161850Y32628450D01*
X18161850Y32933250D01*
X18199950Y33009450D01*
X18238050Y33047550D01*
X18314250Y33085650D01*
X18428550Y33085650D01*
X18504750Y33047550D01*
X18542850Y33009450D01*
X18580950Y32933250D01*
X18580950Y32628450D01*
X18161850Y33352350D02*
X18161850Y33847650D01*
X18466650Y33580950D01*
X18466650Y33695250D01*
X18504750Y33771450D01*
X18542850Y33809550D01*
X18619050Y33847650D01*
X18809550Y33847650D01*
X18885750Y33809550D01*
X18923850Y33771450D01*
X18961950Y33695250D01*
X18961950Y33466650D01*
X18923850Y33390450D01*
X18885750Y33352350D01*
X18161850Y34342950D02*
X18161850Y34419150D01*
X18199950Y34495350D01*
X18238050Y34533450D01*
X18314250Y34571550D01*
X18466650Y34609650D01*
X18657150Y34609650D01*
X18809550Y34571550D01*
X18885750Y34533450D01*
X18923850Y34495350D01*
X18961950Y34419150D01*
X18961950Y34342950D01*
X18923850Y34266750D01*
X18885750Y34228650D01*
X18809550Y34190550D01*
X18657150Y34152450D01*
X18466650Y34152450D01*
X18314250Y34190550D01*
X18238050Y34228650D01*
X18199950Y34266750D01*
X18161850Y34342950D01*
X14685650Y14438050D02*
X14418950Y14819050D01*
X14228450Y14438050D02*
X14228450Y15238150D01*
X14533250Y15238150D01*
X14609450Y15200050D01*
X14647550Y15161950D01*
X14685650Y15085750D01*
X14685650Y14971450D01*
X14647550Y14895250D01*
X14609450Y14857150D01*
X14533250Y14819050D01*
X14228450Y14819050D01*
X14952350Y15238150D02*
X15447650Y15238150D01*
X15180950Y14933350D01*
X15295250Y14933350D01*
X15371450Y14895250D01*
X15409550Y14857150D01*
X15447650Y14780950D01*
X15447650Y14590450D01*
X15409550Y14514250D01*
X15371450Y14476150D01*
X15295250Y14438050D01*
X15066650Y14438050D01*
X14990450Y14476150D01*
X14952350Y14514250D01*
X16209650Y14438050D02*
X15752450Y14438050D01*
X15981050Y14438050D02*
X15981050Y15238150D01*
X15904850Y15123850D01*
X15828650Y15047650D01*
X15752450Y15009550D01*
X30961950Y9085650D02*
X30580950Y8818950D01*
X30961950Y8628450D02*
X30161850Y8628450D01*
X30161850Y8933250D01*
X30199950Y9009450D01*
X30238050Y9047550D01*
X30314250Y9085650D01*
X30428550Y9085650D01*
X30504750Y9047550D01*
X30542850Y9009450D01*
X30580950Y8933250D01*
X30580950Y8628450D01*
X30161850Y9352350D02*
X30161850Y9847650D01*
X30466650Y9580950D01*
X30466650Y9695250D01*
X30504750Y9771450D01*
X30542850Y9809550D01*
X30619050Y9847650D01*
X30809550Y9847650D01*
X30885750Y9809550D01*
X30923850Y9771450D01*
X30961950Y9695250D01*
X30961950Y9466650D01*
X30923850Y9390450D01*
X30885750Y9352350D01*
X30238050Y10152450D02*
X30199950Y10190550D01*
X30161850Y10266750D01*
X30161850Y10457250D01*
X30199950Y10533450D01*
X30238050Y10571550D01*
X30314250Y10609650D01*
X30390450Y10609650D01*
X30504750Y10571550D01*
X30961950Y10114350D01*
X30961950Y10609650D01*
X34385650Y7738050D02*
X34118950Y8119050D01*
X33928450Y7738050D02*
X33928450Y8538150D01*
X34233250Y8538150D01*
X34309450Y8500050D01*
X34347550Y8461950D01*
X34385650Y8385750D01*
X34385650Y8271450D01*
X34347550Y8195250D01*
X34309450Y8157150D01*
X34233250Y8119050D01*
X33928450Y8119050D01*
X34652350Y8538150D02*
X35147650Y8538150D01*
X34880950Y8233350D01*
X34995250Y8233350D01*
X35071450Y8195250D01*
X35109550Y8157150D01*
X35147650Y8080950D01*
X35147650Y7890450D01*
X35109550Y7814250D01*
X35071450Y7776150D01*
X34995250Y7738050D01*
X34766650Y7738050D01*
X34690450Y7776150D01*
X34652350Y7814250D01*
X35414350Y8538150D02*
X35909650Y8538150D01*
X35642950Y8233350D01*
X35757250Y8233350D01*
X35833450Y8195250D01*
X35871550Y8157150D01*
X35909650Y8080950D01*
X35909650Y7890450D01*
X35871550Y7814250D01*
X35833450Y7776150D01*
X35757250Y7738050D01*
X35528650Y7738050D01*
X35452450Y7776150D01*
X35414350Y7814250D01*
X34561950Y4485650D02*
X34180950Y4218950D01*
X34561950Y4028450D02*
X33761850Y4028450D01*
X33761850Y4333250D01*
X33799950Y4409450D01*
X33838050Y4447550D01*
X33914250Y4485650D01*
X34028550Y4485650D01*
X34104750Y4447550D01*
X34142850Y4409450D01*
X34180950Y4333250D01*
X34180950Y4028450D01*
X33761850Y4752350D02*
X33761850Y5247650D01*
X34066650Y4980950D01*
X34066650Y5095250D01*
X34104750Y5171450D01*
X34142850Y5209550D01*
X34219050Y5247650D01*
X34409550Y5247650D01*
X34485750Y5209550D01*
X34523850Y5171450D01*
X34561950Y5095250D01*
X34561950Y4866650D01*
X34523850Y4790450D01*
X34485750Y4752350D01*
X34028550Y5933450D02*
X34561950Y5933450D01*
X33723750Y5742950D02*
X34295250Y5552450D01*
X34295250Y6047750D01*
X42461950Y3785650D02*
X42080950Y3518950D01*
X42461950Y3328450D02*
X41661850Y3328450D01*
X41661850Y3633250D01*
X41699950Y3709450D01*
X41738050Y3747550D01*
X41814250Y3785650D01*
X41928550Y3785650D01*
X42004750Y3747550D01*
X42042850Y3709450D01*
X42080950Y3633250D01*
X42080950Y3328450D01*
X41661850Y4052350D02*
X41661850Y4547650D01*
X41966650Y4280950D01*
X41966650Y4395250D01*
X42004750Y4471450D01*
X42042850Y4509550D01*
X42119050Y4547650D01*
X42309550Y4547650D01*
X42385750Y4509550D01*
X42423850Y4471450D01*
X42461950Y4395250D01*
X42461950Y4166650D01*
X42423850Y4090450D01*
X42385750Y4052350D01*
X41661850Y5271550D02*
X41661850Y4890550D01*
X42042850Y4852450D01*
X42004750Y4890550D01*
X41966650Y4966750D01*
X41966650Y5157250D01*
X42004750Y5233450D01*
X42042850Y5271550D01*
X42119050Y5309650D01*
X42309550Y5309650D01*
X42385750Y5271550D01*
X42423850Y5233450D01*
X42461950Y5157250D01*
X42461950Y4966750D01*
X42423850Y4890550D01*
X42385750Y4852450D01*
X40385650Y11738050D02*
X40118950Y12119050D01*
X39928450Y11738050D02*
X39928450Y12538150D01*
X40233250Y12538150D01*
X40309450Y12500050D01*
X40347550Y12461950D01*
X40385650Y12385750D01*
X40385650Y12271450D01*
X40347550Y12195250D01*
X40309450Y12157150D01*
X40233250Y12119050D01*
X39928450Y12119050D01*
X40652350Y12538150D02*
X41147650Y12538150D01*
X40880950Y12233350D01*
X40995250Y12233350D01*
X41071450Y12195250D01*
X41109550Y12157150D01*
X41147650Y12080950D01*
X41147650Y11890450D01*
X41109550Y11814250D01*
X41071450Y11776150D01*
X40995250Y11738050D01*
X40766650Y11738050D01*
X40690450Y11776150D01*
X40652350Y11814250D01*
X41833450Y12538150D02*
X41681050Y12538150D01*
X41604850Y12500050D01*
X41566750Y12461950D01*
X41490550Y12347650D01*
X41452450Y12195250D01*
X41452450Y11890450D01*
X41490550Y11814250D01*
X41528650Y11776150D01*
X41604850Y11738050D01*
X41757250Y11738050D01*
X41833450Y11776150D01*
X41871550Y11814250D01*
X41909650Y11890450D01*
X41909650Y12080950D01*
X41871550Y12157150D01*
X41833450Y12195250D01*
X41757250Y12233350D01*
X41604850Y12233350D01*
X41528650Y12195250D01*
X41490550Y12157150D01*
X41452450Y12080950D01*
X39561950Y6485650D02*
X39180950Y6218950D01*
X39561950Y6028450D02*
X38761850Y6028450D01*
X38761850Y6333250D01*
X38799950Y6409450D01*
X38838050Y6447550D01*
X38914250Y6485650D01*
X39028550Y6485650D01*
X39104750Y6447550D01*
X39142850Y6409450D01*
X39180950Y6333250D01*
X39180950Y6028450D01*
X38761850Y6752350D02*
X38761850Y7247650D01*
X39066650Y6980950D01*
X39066650Y7095250D01*
X39104750Y7171450D01*
X39142850Y7209550D01*
X39219050Y7247650D01*
X39409550Y7247650D01*
X39485750Y7209550D01*
X39523850Y7171450D01*
X39561950Y7095250D01*
X39561950Y6866650D01*
X39523850Y6790450D01*
X39485750Y6752350D01*
X38761850Y7514350D02*
X38761850Y8047750D01*
X39561950Y7704850D01*
X36661950Y9485650D02*
X36280950Y9218950D01*
X36661950Y9028450D02*
X35861850Y9028450D01*
X35861850Y9333250D01*
X35899950Y9409450D01*
X35938050Y9447550D01*
X36014250Y9485650D01*
X36128550Y9485650D01*
X36204750Y9447550D01*
X36242850Y9409450D01*
X36280950Y9333250D01*
X36280950Y9028450D01*
X35861850Y9752350D02*
X35861850Y10247650D01*
X36166650Y9980950D01*
X36166650Y10095250D01*
X36204750Y10171450D01*
X36242850Y10209550D01*
X36319050Y10247650D01*
X36509550Y10247650D01*
X36585750Y10209550D01*
X36623850Y10171450D01*
X36661950Y10095250D01*
X36661950Y9866650D01*
X36623850Y9790450D01*
X36585750Y9752350D01*
X36204750Y10704850D02*
X36166650Y10628650D01*
X36128550Y10590550D01*
X36052350Y10552450D01*
X36014250Y10552450D01*
X35938050Y10590550D01*
X35899950Y10628650D01*
X35861850Y10704850D01*
X35861850Y10857250D01*
X35899950Y10933450D01*
X35938050Y10971550D01*
X36014250Y11009650D01*
X36052350Y11009650D01*
X36128550Y10971550D01*
X36166650Y10933450D01*
X36204750Y10857250D01*
X36204750Y10704850D01*
X36242850Y10628650D01*
X36280950Y10590550D01*
X36357150Y10552450D01*
X36509550Y10552450D01*
X36585750Y10590550D01*
X36623850Y10628650D01*
X36661950Y10704850D01*
X36661950Y10857250D01*
X36623850Y10933450D01*
X36585750Y10971550D01*
X36509550Y11009650D01*
X36357150Y11009650D01*
X36280950Y10971550D01*
X36242850Y10933450D01*
X36204750Y10857250D01*
X2366650Y13538050D02*
X1985650Y13538050D01*
X1985650Y14338150D01*
X3014350Y14338150D02*
X2633350Y14338150D01*
X2595250Y13957150D01*
X2633350Y13995250D01*
X2709550Y14033350D01*
X2900050Y14033350D01*
X2976250Y13995250D01*
X3014350Y13957150D01*
X3052450Y13880950D01*
X3052450Y13690450D01*
X3014350Y13614250D01*
X2976250Y13576150D01*
X2900050Y13538050D01*
X2709550Y13538050D01*
X2633350Y13576150D01*
X2595250Y13614250D01*
X32585650Y17338050D02*
X32318950Y17719050D01*
X32128450Y17338050D02*
X32128450Y18138150D01*
X32433250Y18138150D01*
X32509450Y18100050D01*
X32547550Y18061950D01*
X32585650Y17985750D01*
X32585650Y17871450D01*
X32547550Y17795250D01*
X32509450Y17757150D01*
X32433250Y17719050D01*
X32128450Y17719050D01*
X32890450Y18061950D02*
X32928550Y18100050D01*
X33004750Y18138150D01*
X33195250Y18138150D01*
X33271450Y18100050D01*
X33309550Y18061950D01*
X33347650Y17985750D01*
X33347650Y17909550D01*
X33309550Y17795250D01*
X32852350Y17338050D01*
X33347650Y17338050D01*
X34109650Y17338050D02*
X33652450Y17338050D01*
X33881050Y17338050D02*
X33881050Y18138150D01*
X33804850Y18023850D01*
X33728650Y17947650D01*
X33652450Y17909550D01*
X28285750Y8685650D02*
X28323850Y8647550D01*
X28361950Y8533250D01*
X28361950Y8457050D01*
X28323850Y8342750D01*
X28247650Y8266550D01*
X28171450Y8228450D01*
X28019050Y8190350D01*
X27904750Y8190350D01*
X27752350Y8228450D01*
X27676150Y8266550D01*
X27599950Y8342750D01*
X27561850Y8457050D01*
X27561850Y8533250D01*
X27599950Y8647550D01*
X27638050Y8685650D01*
X27828550Y9371450D02*
X28361950Y9371450D01*
X27523750Y9180950D02*
X28095250Y8990450D01*
X28095250Y9485750D01*
X27561850Y9942950D02*
X27561850Y10019150D01*
X27599950Y10095350D01*
X27638050Y10133450D01*
X27714250Y10171550D01*
X27866650Y10209650D01*
X28057150Y10209650D01*
X28209550Y10171550D01*
X28285750Y10133450D01*
X28323850Y10095350D01*
X28361950Y10019150D01*
X28361950Y9942950D01*
X28323850Y9866750D01*
X28285750Y9828650D01*
X28209550Y9790550D01*
X28057150Y9752450D01*
X27866650Y9752450D01*
X27714250Y9790550D01*
X27638050Y9828650D01*
X27599950Y9866750D01*
X27561850Y9942950D01*
X30785650Y21314250D02*
X30747550Y21276150D01*
X30633250Y21238050D01*
X30557050Y21238050D01*
X30442750Y21276150D01*
X30366550Y21352350D01*
X30328450Y21428550D01*
X30290350Y21580950D01*
X30290350Y21695250D01*
X30328450Y21847650D01*
X30366550Y21923850D01*
X30442750Y22000050D01*
X30557050Y22038150D01*
X30633250Y22038150D01*
X30747550Y22000050D01*
X30785650Y21961950D01*
X31547650Y21238050D02*
X31090450Y21238050D01*
X31319050Y21238050D02*
X31319050Y22038150D01*
X31242850Y21923850D01*
X31166650Y21847650D01*
X31090450Y21809550D01*
X31928650Y21238050D02*
X32081050Y21238050D01*
X32157250Y21276150D01*
X32195350Y21314250D01*
X32271550Y21428550D01*
X32309650Y21580950D01*
X32309650Y21885750D01*
X32271550Y21961950D01*
X32233450Y22000050D01*
X32157250Y22038150D01*
X32004850Y22038150D01*
X31928650Y22000050D01*
X31890550Y21961950D01*
X31852450Y21885750D01*
X31852450Y21695250D01*
X31890550Y21619050D01*
X31928650Y21580950D01*
X32004850Y21542850D01*
X32157250Y21542850D01*
X32233450Y21580950D01*
X32271550Y21619050D01*
X32309650Y21695250D01*
D14*
X40402381Y37238095D02*
X41211905Y37238095D01*
X41307143Y37285714D01*
X41354762Y37333333D01*
X41402381Y37428571D01*
X41402381Y37619048D01*
X41354762Y37714286D01*
X41307143Y37761905D01*
X41211905Y37809524D01*
X40402381Y37809524D01*
X40402381Y38190476D02*
X40402381Y38857143D01*
X41402381Y38428571D01*
D10*
X46007143Y39414286D02*
X46735714Y39414286D01*
X46821429Y39457143D01*
X46864286Y39500000D01*
X46907143Y39585714D01*
X46907143Y39757143D01*
X46864286Y39842857D01*
X46821429Y39885714D01*
X46735714Y39928571D01*
X46007143Y39928571D01*
X46907143Y40400000D02*
X46907143Y40571428D01*
X46864286Y40657143D01*
X46821429Y40700000D01*
X46692857Y40785714D01*
X46521429Y40828571D01*
X46178571Y40828571D01*
X46092857Y40785714D01*
X46050000Y40742857D01*
X46007143Y40657143D01*
X46007143Y40485714D01*
X46050000Y40400000D01*
X46092857Y40357143D01*
X46178571Y40314286D01*
X46392857Y40314286D01*
X46478571Y40357143D01*
X46521429Y40400000D01*
X46564286Y40485714D01*
X46564286Y40657143D01*
X46521429Y40742857D01*
X46478571Y40785714D01*
X46392857Y40828571D01*
D17*
X29401951Y12133454D02*
X29401951Y12943714D01*
X29594870Y12943714D01*
X29710622Y12905130D01*
X29787789Y12827962D01*
X29826373Y12750795D01*
X29864957Y12596460D01*
X29864957Y12480708D01*
X29826373Y12326373D01*
X29787789Y12249205D01*
X29710622Y12172038D01*
X29594870Y12133454D01*
X29401951Y12133454D01*
X30636633Y12133454D02*
X30173627Y12133454D01*
X30405130Y12133454D02*
X30405130Y12943714D01*
X30327962Y12827962D01*
X30250795Y12750795D01*
X30173627Y12712211D01*
D14*
X30509524Y23338095D02*
X30509524Y24138095D01*
X30700000Y24138095D01*
X30814286Y24100000D01*
X30890477Y24023810D01*
X30928572Y23947619D01*
X30966667Y23795238D01*
X30966667Y23680952D01*
X30928572Y23528571D01*
X30890477Y23452381D01*
X30814286Y23376190D01*
X30700000Y23338095D01*
X30509524Y23338095D01*
X31271429Y24061905D02*
X31309524Y24100000D01*
X31385715Y24138095D01*
X31576191Y24138095D01*
X31652381Y24100000D01*
X31690477Y24061905D01*
X31728572Y23985714D01*
X31728572Y23909524D01*
X31690477Y23795238D01*
X31233334Y23338095D01*
X31728572Y23338095D01*
X29809524Y26338095D02*
X29809524Y27138095D01*
X30000000Y27138095D01*
X30114286Y27100000D01*
X30190477Y27023810D01*
X30228572Y26947619D01*
X30266667Y26795238D01*
X30266667Y26680952D01*
X30228572Y26528571D01*
X30190477Y26452381D01*
X30114286Y26376190D01*
X30000000Y26338095D01*
X29809524Y26338095D01*
X30533334Y27138095D02*
X31028572Y27138095D01*
X30761905Y26833333D01*
X30876191Y26833333D01*
X30952381Y26795238D01*
X30990477Y26757143D01*
X31028572Y26680952D01*
X31028572Y26490476D01*
X30990477Y26414286D01*
X30952381Y26376190D01*
X30876191Y26338095D01*
X30647619Y26338095D01*
X30571429Y26376190D01*
X30533334Y26414286D01*
X45352381Y27638095D02*
X46161905Y27638095D01*
X46257143Y27685714D01*
X46304762Y27733333D01*
X46352381Y27828571D01*
X46352381Y28019048D01*
X46304762Y28114286D01*
X46257143Y28161905D01*
X46161905Y28209524D01*
X45352381Y28209524D01*
X45685714Y29114286D02*
X46352381Y29114286D01*
X45304762Y28876190D02*
X46019048Y28638095D01*
X46019048Y29257143D01*
X49152381Y14438095D02*
X49961905Y14438095D01*
X50057143Y14485714D01*
X50104762Y14533333D01*
X50152381Y14628571D01*
X50152381Y14819048D01*
X50104762Y14914286D01*
X50057143Y14961905D01*
X49961905Y15009524D01*
X49152381Y15009524D01*
X49247619Y15438095D02*
X49200000Y15485714D01*
X49152381Y15580952D01*
X49152381Y15819048D01*
X49200000Y15914286D01*
X49247619Y15961905D01*
X49342857Y16009524D01*
X49438095Y16009524D01*
X49580952Y15961905D01*
X50152381Y15390476D01*
X50152381Y16009524D01*
X18309524Y10888095D02*
X18309524Y10240476D01*
X18347619Y10164286D01*
X18385715Y10126190D01*
X18461905Y10088095D01*
X18614286Y10088095D01*
X18690477Y10126190D01*
X18728572Y10164286D01*
X18766667Y10240476D01*
X18766667Y10888095D01*
X19566667Y10088095D02*
X19109524Y10088095D01*
X19338095Y10088095D02*
X19338095Y10888095D01*
X19261905Y10773810D01*
X19185714Y10697619D01*
X19109524Y10659524D01*
X19833334Y10888095D02*
X20328572Y10888095D01*
X20061905Y10583333D01*
X20176191Y10583333D01*
X20252381Y10545238D01*
X20290477Y10507143D01*
X20328572Y10430952D01*
X20328572Y10240476D01*
X20290477Y10164286D01*
X20252381Y10126190D01*
X20176191Y10088095D01*
X19947619Y10088095D01*
X19871429Y10126190D01*
X19833334Y10164286D01*
X41852381Y14342857D02*
X41804762Y14295238D01*
X41661905Y14247619D01*
X41566667Y14247619D01*
X41423809Y14295238D01*
X41328571Y14390476D01*
X41280952Y14485714D01*
X41233333Y14676190D01*
X41233333Y14819048D01*
X41280952Y15009524D01*
X41328571Y15104762D01*
X41423809Y15200000D01*
X41566667Y15247619D01*
X41661905Y15247619D01*
X41804762Y15200000D01*
X41852381Y15152381D01*
X42138095Y15247619D02*
X42709524Y15247619D01*
X42423809Y14247619D02*
X42423809Y15247619D01*
X42995238Y15152381D02*
X43042857Y15200000D01*
X43138095Y15247619D01*
X43376191Y15247619D01*
X43471429Y15200000D01*
X43519048Y15152381D01*
X43566667Y15057143D01*
X43566667Y14961905D01*
X43519048Y14819048D01*
X42947619Y14247619D01*
X43566667Y14247619D01*
X44252381Y22842857D02*
X44204762Y22795238D01*
X44061905Y22747619D01*
X43966667Y22747619D01*
X43823809Y22795238D01*
X43728571Y22890476D01*
X43680952Y22985714D01*
X43633333Y23176190D01*
X43633333Y23319048D01*
X43680952Y23509524D01*
X43728571Y23604762D01*
X43823809Y23700000D01*
X43966667Y23747619D01*
X44061905Y23747619D01*
X44204762Y23700000D01*
X44252381Y23652381D01*
X44538095Y23747619D02*
X45109524Y23747619D01*
X44823809Y22747619D02*
X44823809Y23747619D01*
X45966667Y22747619D02*
X45395238Y22747619D01*
X45680952Y22747619D02*
X45680952Y23747619D01*
X45585714Y23604762D01*
X45490476Y23509524D01*
X45395238Y23461905D01*
X19738095Y41547619D02*
X19738095Y40738095D01*
X19785714Y40642857D01*
X19833333Y40595238D01*
X19928571Y40547619D01*
X20119048Y40547619D01*
X20214286Y40595238D01*
X20261905Y40642857D01*
X20309524Y40738095D01*
X20309524Y41547619D01*
X20928571Y41119048D02*
X20833333Y41166667D01*
X20785714Y41214286D01*
X20738095Y41309524D01*
X20738095Y41357143D01*
X20785714Y41452381D01*
X20833333Y41500000D01*
X20928571Y41547619D01*
X21119048Y41547619D01*
X21214286Y41500000D01*
X21261905Y41452381D01*
X21309524Y41357143D01*
X21309524Y41309524D01*
X21261905Y41214286D01*
X21214286Y41166667D01*
X21119048Y41119048D01*
X20928571Y41119048D01*
X20833333Y41071429D01*
X20785714Y41023810D01*
X20738095Y40928571D01*
X20738095Y40738095D01*
X20785714Y40642857D01*
X20833333Y40595238D01*
X20928571Y40547619D01*
X21119048Y40547619D01*
X21214286Y40595238D01*
X21261905Y40642857D01*
X21309524Y40738095D01*
X21309524Y40928571D01*
X21261905Y41023810D01*
X21214286Y41071429D01*
X21119048Y41119048D01*
X25738095Y19547619D02*
X25738095Y18738095D01*
X25785714Y18642857D01*
X25833333Y18595238D01*
X25928571Y18547619D01*
X26119048Y18547619D01*
X26214286Y18595238D01*
X26261905Y18642857D01*
X26309524Y18738095D01*
X26309524Y19547619D01*
X27309524Y18547619D02*
X26738095Y18547619D01*
X27023809Y18547619D02*
X27023809Y19547619D01*
X26928571Y19404762D01*
X26833333Y19309524D01*
X26738095Y19261905D01*
M02*
