G04 #@! TF.FileFunction,Copper,L3,Inr,Plane*
%FSLAX46Y46*%
G04 Gerber Fmt 4.6, Leading zero omitted, Abs format (unit mm)*
G04 Created by KiCad (PCBNEW 4.0.2-stable) date 2016/09/19 18:56:50*
%MOMM*%
G01*
G04 APERTURE LIST*
%ADD10C,0.100000*%
%ADD11O,1.600000X0.900000*%
%ADD12C,1.800000*%
%ADD13C,3.500000*%
%ADD14R,1.000000X1.000000*%
%ADD15C,1.000000*%
%ADD16R,2.000000X2.000000*%
%ADD17C,0.500000*%
%ADD18C,0.600000*%
%ADD19C,0.900000*%
%ADD20C,0.200000*%
G04 APERTURE END LIST*
D10*
D11*
X2450000Y24800000D03*
X2450000Y18200000D03*
D12*
X56700000Y21500000D03*
X56700000Y24040000D03*
D13*
X61780000Y16420000D03*
X61780000Y26580000D03*
D14*
X13565000Y41500000D03*
D15*
X14835000Y41500000D03*
D14*
X24490000Y1600000D03*
D15*
X23140000Y1600000D03*
X21870000Y1600000D03*
X20600000Y1600000D03*
X19330000Y1600000D03*
X18060000Y1600000D03*
X16790000Y1600000D03*
D16*
X31000000Y41500000D03*
D17*
X54500000Y41500000D03*
X57500000Y41500000D03*
X54500000Y38500000D03*
X57500000Y38500000D03*
X56000000Y40000000D03*
D18*
X17700000Y30100000D03*
X32000000Y24200000D03*
X33300000Y27000000D03*
X31700000Y12600000D03*
X55100000Y26600000D03*
D19*
X30600000Y21700000D03*
D18*
X29200000Y10700000D03*
D19*
X25400000Y13100000D03*
D18*
X15200000Y8600000D03*
X36900000Y31500000D03*
X41900000Y29600000D03*
X34100000Y41000000D03*
X12900000Y39500000D03*
D19*
X51600000Y2600000D03*
X52400000Y1800000D03*
X50400000Y7000000D03*
D18*
X34300000Y2300000D03*
X11500000Y23900000D03*
X11400000Y19700000D03*
X8300000Y24900000D03*
D19*
X5500000Y16700000D03*
X6700000Y19600000D03*
X6700000Y18500000D03*
X6600000Y20700000D03*
X8300000Y21800000D03*
D18*
X36900000Y8700000D03*
X38024410Y29575590D03*
X41551180Y7900000D03*
X39000000Y5800000D03*
D19*
X45600000Y2700000D03*
D18*
X36500000Y13000000D03*
X36500000Y16100000D03*
X28100000Y6700000D03*
X13900000Y11600000D03*
X33300000Y16400000D03*
X44000000Y39400000D03*
X54600000Y13000000D03*
X11800000Y14600000D03*
X19600000Y30100000D03*
X25400000Y41000000D03*
X18800000Y35100000D03*
X9900000Y36200000D03*
X9100000Y36200000D03*
X30300000Y24300000D03*
D19*
X22500000Y11000000D03*
D17*
X39900000Y31200000D03*
D18*
X11800000Y13000000D03*
D17*
X20100000Y23100000D03*
X19300000Y23100000D03*
X18500000Y23100000D03*
X23300000Y23900000D03*
X17700000Y21500000D03*
X22500000Y19900000D03*
D18*
X18600000Y12100000D03*
X20300000Y12100000D03*
X44400000Y19248820D03*
X48200000Y28951180D03*
X40700000Y15600000D03*
D17*
X19300000Y19100000D03*
X21700000Y18300000D03*
D18*
X10200000Y18000000D03*
X6900000Y27400000D03*
X1600000Y28200000D03*
X7800000Y27500000D03*
X11500000Y25500000D03*
X10400000Y27200000D03*
D19*
X10500000Y5400000D03*
X8502000Y9298000D03*
X8500000Y7200000D03*
D18*
X34800000Y12100000D03*
D19*
X36700000Y29700000D03*
D18*
X45700000Y34600000D03*
X39628755Y33971245D03*
D19*
X36700000Y28000000D03*
D18*
X26100000Y5300000D03*
D19*
X14500000Y5000000D03*
D18*
X35800000Y39500000D03*
X44700000Y37500000D03*
D19*
X44200000Y9400000D03*
X37400000Y18400000D03*
X37400000Y15200000D03*
D18*
X36100000Y6900000D03*
X36000000Y8700000D03*
X11800000Y15800000D03*
X8900000Y15400000D03*
D19*
X27100000Y21100000D03*
D17*
X17700000Y23900000D03*
D18*
X23400000Y9000000D03*
D19*
X24200000Y15200000D03*
D18*
X20300000Y34600000D03*
X24700000Y39600000D03*
D19*
X10200000Y9900000D03*
X10200000Y11400000D03*
D18*
X16600000Y22900000D03*
X13900000Y18000000D03*
X13900000Y19700000D03*
D17*
X17700000Y23100000D03*
D18*
X13800000Y23900000D03*
X13800000Y25500000D03*
X13800000Y27200000D03*
X16200000Y29100000D03*
X35900000Y9700000D03*
X41100000Y36200000D03*
X43700000Y36300000D03*
D17*
X19300000Y23900000D03*
X19300000Y24700000D03*
D18*
X49100000Y10800000D03*
X26100000Y22700000D03*
X31100000Y23500000D03*
X48100000Y33000000D03*
X36400000Y22400000D03*
X44900000Y32900000D03*
D17*
X21700000Y23900000D03*
D18*
X28300000Y31900000D03*
X25400000Y23700000D03*
X24600000Y6100000D03*
X23400000Y6300000D03*
D17*
X20900000Y21500000D03*
X20300000Y11100000D03*
D18*
X23375000Y7575000D03*
X30500000Y6200000D03*
D17*
X20900000Y22300000D03*
D18*
X22400000Y27500000D03*
D17*
X21700000Y22300000D03*
D18*
X27100000Y27900000D03*
X43700000Y35400000D03*
X15600000Y20600000D03*
D17*
X19300000Y22300000D03*
D18*
X15800000Y14500000D03*
D19*
X22500000Y14400000D03*
D18*
X20300000Y14500000D03*
X18600000Y14500000D03*
X16900000Y14500000D03*
D17*
X20100000Y22300000D03*
X20100000Y20700000D03*
X20100000Y21500000D03*
D18*
X43700000Y31900000D03*
X39700000Y18600000D03*
X38700000Y18600000D03*
X42500000Y28700000D03*
X35900000Y30800000D03*
X38400000Y33500000D03*
X38600000Y32700000D03*
X36400000Y33400000D03*
D19*
X10500000Y21800000D03*
X6800000Y25400000D03*
X6800000Y24400000D03*
X2200000Y16500000D03*
X1300000Y14000000D03*
X6800000Y23300000D03*
X800000Y15300000D03*
D18*
X19200000Y31900000D03*
X28900000Y29200000D03*
D17*
X18500000Y21500000D03*
D18*
X16500000Y20500000D03*
D20*
G36*
X29592164Y42500000D02*
X29592164Y40500000D01*
X29620056Y40351769D01*
X29707660Y40215628D01*
X29841329Y40124296D01*
X30000000Y40092164D01*
X32000000Y40092164D01*
X32148231Y40120056D01*
X32284372Y40207660D01*
X32375704Y40341329D01*
X32394003Y40431694D01*
X55639016Y40431694D01*
X56000000Y40070711D01*
X56360984Y40431694D01*
X56347984Y40564024D01*
X56105653Y40654258D01*
X55847237Y40644887D01*
X55652016Y40564024D01*
X55639016Y40431694D01*
X32394003Y40431694D01*
X32407836Y40500000D01*
X32407836Y41068306D01*
X54139016Y41068306D01*
X54152016Y40935976D01*
X54394347Y40845742D01*
X54652763Y40855113D01*
X54847984Y40935976D01*
X54860984Y41068306D01*
X57139016Y41068306D01*
X57152016Y40935976D01*
X57394347Y40845742D01*
X57652763Y40855113D01*
X57847984Y40935976D01*
X57860984Y41068306D01*
X57500000Y41429289D01*
X57139016Y41068306D01*
X54860984Y41068306D01*
X54500000Y41429289D01*
X54139016Y41068306D01*
X32407836Y41068306D01*
X32407836Y41605653D01*
X53845742Y41605653D01*
X53855113Y41347237D01*
X53935976Y41152016D01*
X54068306Y41139016D01*
X54429289Y41500000D01*
X54570711Y41500000D01*
X54931694Y41139016D01*
X55064024Y41152016D01*
X55154258Y41394347D01*
X55146596Y41605653D01*
X56845742Y41605653D01*
X56855113Y41347237D01*
X56935976Y41152016D01*
X57068306Y41139016D01*
X57429289Y41500000D01*
X57570711Y41500000D01*
X57931694Y41139016D01*
X58064024Y41152016D01*
X58154258Y41394347D01*
X58144887Y41652763D01*
X58064024Y41847984D01*
X57931694Y41860984D01*
X57570711Y41500000D01*
X57429289Y41500000D01*
X57068306Y41860984D01*
X56935976Y41847984D01*
X56845742Y41605653D01*
X55146596Y41605653D01*
X55144887Y41652763D01*
X55064024Y41847984D01*
X54931694Y41860984D01*
X54570711Y41500000D01*
X54429289Y41500000D01*
X54068306Y41860984D01*
X53935976Y41847984D01*
X53845742Y41605653D01*
X32407836Y41605653D01*
X32407836Y41931694D01*
X54139016Y41931694D01*
X54500000Y41570711D01*
X54860984Y41931694D01*
X57139016Y41931694D01*
X57500000Y41570711D01*
X57860984Y41931694D01*
X57847984Y42064024D01*
X57605653Y42154258D01*
X57347237Y42144887D01*
X57152016Y42064024D01*
X57139016Y41931694D01*
X54860984Y41931694D01*
X54847984Y42064024D01*
X54605653Y42154258D01*
X54347237Y42144887D01*
X54152016Y42064024D01*
X54139016Y41931694D01*
X32407836Y41931694D01*
X32407836Y42500000D01*
X32403132Y42525000D01*
X65953217Y42525000D01*
X67345398Y42248078D01*
X68485971Y41485971D01*
X69248078Y40345398D01*
X69525000Y38953217D01*
X69525000Y4046783D01*
X69248078Y2654602D01*
X68485971Y1514029D01*
X67345398Y751922D01*
X65953217Y475000D01*
X59300000Y475000D01*
X59300000Y3103921D01*
X64499654Y3103921D01*
X64803494Y2368571D01*
X65365612Y1805471D01*
X66100430Y1500348D01*
X66896079Y1499654D01*
X67631429Y1803494D01*
X68194529Y2365612D01*
X68499652Y3100430D01*
X68500346Y3896079D01*
X68196506Y4631429D01*
X67634388Y5194529D01*
X66899570Y5499652D01*
X66103921Y5500346D01*
X65368571Y5196506D01*
X64805471Y4634388D01*
X64500348Y3899570D01*
X64499654Y3103921D01*
X59300000Y3103921D01*
X59300000Y5600000D01*
X59293161Y5636346D01*
X59271681Y5669727D01*
X59238906Y5692121D01*
X59200000Y5700000D01*
X55000000Y5700000D01*
X54963654Y5693161D01*
X54930273Y5671681D01*
X54907879Y5638906D01*
X54900000Y5600000D01*
X54900000Y475000D01*
X14700000Y475000D01*
X14700000Y1765281D01*
X15887375Y1765281D01*
X15892834Y1407280D01*
X16019334Y1101881D01*
X16177573Y1058284D01*
X16719289Y1600000D01*
X16177573Y2141716D01*
X16019334Y2098119D01*
X15887375Y1765281D01*
X14700000Y1765281D01*
X14700000Y2212427D01*
X16248284Y2212427D01*
X16790000Y1670711D01*
X16804142Y1684853D01*
X16874853Y1614142D01*
X16860711Y1600000D01*
X16874853Y1585858D01*
X16804142Y1515147D01*
X16790000Y1529289D01*
X16248284Y987573D01*
X16291881Y829334D01*
X16624719Y697375D01*
X16982720Y702834D01*
X17288119Y829334D01*
X17331716Y987571D01*
X17402122Y917165D01*
X17436071Y951114D01*
X17549525Y837462D01*
X17880194Y700157D01*
X18238236Y699844D01*
X18569143Y836572D01*
X18694998Y962207D01*
X18819525Y837462D01*
X19150194Y700157D01*
X19508236Y699844D01*
X19839143Y836572D01*
X19964998Y962207D01*
X20089525Y837462D01*
X20420194Y700157D01*
X20778236Y699844D01*
X21109143Y836572D01*
X21234998Y962207D01*
X21359525Y837462D01*
X21690194Y700157D01*
X22048236Y699844D01*
X22379143Y836572D01*
X22504998Y962207D01*
X22629525Y837462D01*
X22960194Y700157D01*
X23318236Y699844D01*
X23649143Y836572D01*
X23670478Y857870D01*
X23697660Y815628D01*
X23831329Y724296D01*
X23990000Y692164D01*
X24990000Y692164D01*
X25138231Y720056D01*
X25274372Y807660D01*
X25365704Y941329D01*
X25397836Y1100000D01*
X25397836Y2100000D01*
X25369944Y2248231D01*
X25282340Y2384372D01*
X25148671Y2475704D01*
X24990000Y2507836D01*
X23990000Y2507836D01*
X23841769Y2479944D01*
X23705628Y2392340D01*
X23671129Y2341848D01*
X23650475Y2362538D01*
X23319806Y2499843D01*
X22961764Y2500156D01*
X22630857Y2363428D01*
X22505002Y2237793D01*
X22380475Y2362538D01*
X22049806Y2499843D01*
X21691764Y2500156D01*
X21360857Y2363428D01*
X21235002Y2237793D01*
X21110475Y2362538D01*
X20779806Y2499843D01*
X20421764Y2500156D01*
X20090857Y2363428D01*
X19965002Y2237793D01*
X19840475Y2362538D01*
X19509806Y2499843D01*
X19151764Y2500156D01*
X18820857Y2363428D01*
X18695002Y2237793D01*
X18570475Y2362538D01*
X18239806Y2499843D01*
X17881764Y2500156D01*
X17550857Y2363428D01*
X17436093Y2248864D01*
X17402122Y2282835D01*
X17331716Y2212429D01*
X17288119Y2370666D01*
X16955281Y2502625D01*
X16597280Y2497166D01*
X16291881Y2370666D01*
X16248284Y2212427D01*
X14700000Y2212427D01*
X14700000Y3000000D01*
X14693161Y3036346D01*
X14671681Y3069727D01*
X14638906Y3092121D01*
X14600000Y3100000D01*
X8600000Y3100000D01*
X8563654Y3093161D01*
X8530273Y3071681D01*
X8507879Y3038906D01*
X8500000Y3000000D01*
X8500000Y475000D01*
X4046783Y475000D01*
X2654602Y751922D01*
X1514029Y1514029D01*
X751922Y2654602D01*
X662547Y3103921D01*
X1499654Y3103921D01*
X1803494Y2368571D01*
X2365612Y1805471D01*
X3100430Y1500348D01*
X3896079Y1499654D01*
X4631429Y1803494D01*
X5194529Y2365612D01*
X5499652Y3100430D01*
X5500346Y3896079D01*
X5196506Y4631429D01*
X4996619Y4831666D01*
X13649853Y4831666D01*
X13778985Y4519143D01*
X14017885Y4279826D01*
X14330183Y4150148D01*
X14668334Y4149853D01*
X14980857Y4278985D01*
X15220174Y4517885D01*
X15349852Y4830183D01*
X15350140Y5161372D01*
X25399879Y5161372D01*
X25506223Y4904000D01*
X25702964Y4706915D01*
X25960150Y4600122D01*
X26238628Y4599879D01*
X26496000Y4706223D01*
X26693085Y4902964D01*
X26799878Y5160150D01*
X26800121Y5438628D01*
X26693777Y5696000D01*
X26497036Y5893085D01*
X26239850Y5999878D01*
X25961372Y6000121D01*
X25704000Y5893777D01*
X25506915Y5697036D01*
X25400122Y5439850D01*
X25399879Y5161372D01*
X15350140Y5161372D01*
X15350147Y5168334D01*
X15221015Y5480857D01*
X14982115Y5720174D01*
X14669817Y5849852D01*
X14331666Y5850147D01*
X14019143Y5721015D01*
X13779826Y5482115D01*
X13650148Y5169817D01*
X13649853Y4831666D01*
X4996619Y4831666D01*
X4634388Y5194529D01*
X3899570Y5499652D01*
X3103921Y5500346D01*
X2368571Y5196506D01*
X1805471Y4634388D01*
X1500348Y3899570D01*
X1499654Y3103921D01*
X662547Y3103921D01*
X475000Y4046783D01*
X475000Y7436372D01*
X22674879Y7436372D01*
X22781223Y7179000D01*
X22977964Y6981915D01*
X23097342Y6932345D01*
X23004000Y6893777D01*
X22806915Y6697036D01*
X22700122Y6439850D01*
X22699879Y6161372D01*
X22806223Y5904000D01*
X23002964Y5706915D01*
X23260150Y5600122D01*
X23538628Y5599879D01*
X23796000Y5706223D01*
X23944183Y5854148D01*
X24006223Y5704000D01*
X24202964Y5506915D01*
X24460150Y5400122D01*
X24738628Y5399879D01*
X24996000Y5506223D01*
X25193085Y5702964D01*
X25299878Y5960150D01*
X25299966Y6061372D01*
X29799879Y6061372D01*
X29906223Y5804000D01*
X30102964Y5606915D01*
X30360150Y5500122D01*
X30638628Y5499879D01*
X30896000Y5606223D01*
X31093085Y5802964D01*
X31199878Y6060150D01*
X31200121Y6338628D01*
X31093777Y6596000D01*
X30928694Y6761372D01*
X35399879Y6761372D01*
X35506223Y6504000D01*
X35702964Y6306915D01*
X35960150Y6200122D01*
X36238628Y6199879D01*
X36496000Y6306223D01*
X36693085Y6502964D01*
X36799878Y6760150D01*
X36800121Y7038628D01*
X36693777Y7296000D01*
X36497036Y7493085D01*
X36239850Y7599878D01*
X35961372Y7600121D01*
X35704000Y7493777D01*
X35506915Y7297036D01*
X35400122Y7039850D01*
X35399879Y6761372D01*
X30928694Y6761372D01*
X30897036Y6793085D01*
X30639850Y6899878D01*
X30361372Y6900121D01*
X30104000Y6793777D01*
X29906915Y6597036D01*
X29800122Y6339850D01*
X29799879Y6061372D01*
X25299966Y6061372D01*
X25300121Y6238628D01*
X25193777Y6496000D01*
X24997036Y6693085D01*
X24739850Y6799878D01*
X24461372Y6800121D01*
X24204000Y6693777D01*
X24055817Y6545852D01*
X23993777Y6696000D01*
X23797036Y6893085D01*
X23677658Y6942655D01*
X23771000Y6981223D01*
X23968085Y7177964D01*
X24074878Y7435150D01*
X24075121Y7713628D01*
X23968777Y7971000D01*
X23772036Y8168085D01*
X23514850Y8274878D01*
X23236372Y8275121D01*
X22979000Y8168777D01*
X22781915Y7972036D01*
X22675122Y7714850D01*
X22674879Y7436372D01*
X475000Y7436372D01*
X475000Y8861372D01*
X22699879Y8861372D01*
X22806223Y8604000D01*
X23002964Y8406915D01*
X23260150Y8300122D01*
X23538628Y8299879D01*
X23796000Y8406223D01*
X23993085Y8602964D01*
X24099878Y8860150D01*
X24100121Y9138628D01*
X23993777Y9396000D01*
X23828694Y9561372D01*
X35199879Y9561372D01*
X35306223Y9304000D01*
X35459963Y9149991D01*
X35406915Y9097036D01*
X35300122Y8839850D01*
X35299879Y8561372D01*
X35406223Y8304000D01*
X35602964Y8106915D01*
X35860150Y8000122D01*
X36138628Y7999879D01*
X36396000Y8106223D01*
X36593085Y8302964D01*
X36699878Y8560150D01*
X36700121Y8838628D01*
X36593777Y9096000D01*
X36458348Y9231666D01*
X43349853Y9231666D01*
X43478985Y8919143D01*
X43717885Y8679826D01*
X44030183Y8550148D01*
X44368334Y8549853D01*
X44680857Y8678985D01*
X44920174Y8917885D01*
X45049852Y9230183D01*
X45050147Y9568334D01*
X44921015Y9880857D01*
X44682115Y10120174D01*
X44369817Y10249852D01*
X44031666Y10250147D01*
X43719143Y10121015D01*
X43479826Y9882115D01*
X43350148Y9569817D01*
X43349853Y9231666D01*
X36458348Y9231666D01*
X36440037Y9250009D01*
X36493085Y9302964D01*
X36599878Y9560150D01*
X36600121Y9838628D01*
X36493777Y10096000D01*
X36297036Y10293085D01*
X36039850Y10399878D01*
X35761372Y10400121D01*
X35504000Y10293777D01*
X35306915Y10097036D01*
X35200122Y9839850D01*
X35199879Y9561372D01*
X23828694Y9561372D01*
X23797036Y9593085D01*
X23539850Y9699878D01*
X23261372Y9700121D01*
X23004000Y9593777D01*
X22806915Y9397036D01*
X22700122Y9139850D01*
X22699879Y8861372D01*
X475000Y8861372D01*
X475000Y11231666D01*
X9349853Y11231666D01*
X9478985Y10919143D01*
X9717885Y10679826D01*
X9789503Y10650087D01*
X9719143Y10621015D01*
X9479826Y10382115D01*
X9350148Y10069817D01*
X9349853Y9731666D01*
X9478985Y9419143D01*
X9717885Y9179826D01*
X10030183Y9050148D01*
X10368334Y9049853D01*
X10680857Y9178985D01*
X10920174Y9417885D01*
X11049852Y9730183D01*
X11050147Y10068334D01*
X10921015Y10380857D01*
X10682115Y10620174D01*
X10610497Y10649913D01*
X10680857Y10678985D01*
X10920174Y10917885D01*
X10942343Y10971274D01*
X19649888Y10971274D01*
X19748636Y10732286D01*
X19931324Y10549278D01*
X20170140Y10450113D01*
X20428726Y10449888D01*
X20667714Y10548636D01*
X20780647Y10661372D01*
X48399879Y10661372D01*
X48506223Y10404000D01*
X48702964Y10206915D01*
X48960150Y10100122D01*
X49238628Y10099879D01*
X49496000Y10206223D01*
X49693085Y10402964D01*
X49799878Y10660150D01*
X49800121Y10938628D01*
X49693777Y11196000D01*
X49497036Y11393085D01*
X49239850Y11499878D01*
X48961372Y11500121D01*
X48704000Y11393777D01*
X48506915Y11197036D01*
X48400122Y10939850D01*
X48399879Y10661372D01*
X20780647Y10661372D01*
X20850722Y10731324D01*
X20949887Y10970140D01*
X20950112Y11228726D01*
X20851364Y11467714D01*
X20668676Y11650722D01*
X20429860Y11749887D01*
X20171274Y11750112D01*
X19932286Y11651364D01*
X19749278Y11468676D01*
X19650113Y11229860D01*
X19649888Y10971274D01*
X10942343Y10971274D01*
X11049852Y11230183D01*
X11050147Y11568334D01*
X10921015Y11880857D01*
X10840641Y11961372D01*
X34099879Y11961372D01*
X34206223Y11704000D01*
X34402964Y11506915D01*
X34660150Y11400122D01*
X34938628Y11399879D01*
X35196000Y11506223D01*
X35393085Y11702964D01*
X35499878Y11960150D01*
X35500121Y12238628D01*
X35393777Y12496000D01*
X35197036Y12693085D01*
X34939850Y12799878D01*
X34661372Y12800121D01*
X34404000Y12693777D01*
X34206915Y12497036D01*
X34100122Y12239850D01*
X34099879Y11961372D01*
X10840641Y11961372D01*
X10682115Y12120174D01*
X10369817Y12249852D01*
X10031666Y12250147D01*
X9719143Y12121015D01*
X9479826Y11882115D01*
X9350148Y11569817D01*
X9349853Y11231666D01*
X475000Y11231666D01*
X475000Y13770806D01*
X578985Y13519143D01*
X817885Y13279826D01*
X1130183Y13150148D01*
X1468334Y13149853D01*
X1780857Y13278985D01*
X2020174Y13517885D01*
X2149852Y13830183D01*
X2150147Y14168334D01*
X2070386Y14361372D01*
X15099879Y14361372D01*
X15206223Y14104000D01*
X15402964Y13906915D01*
X15660150Y13800122D01*
X15938628Y13799879D01*
X16196000Y13906223D01*
X16350096Y14060050D01*
X16502964Y13906915D01*
X16760150Y13800122D01*
X17038628Y13799879D01*
X17296000Y13906223D01*
X17493085Y14102964D01*
X17599878Y14360150D01*
X17599879Y14361372D01*
X17899879Y14361372D01*
X18006223Y14104000D01*
X18202964Y13906915D01*
X18460150Y13800122D01*
X18738628Y13799879D01*
X18996000Y13906223D01*
X19193085Y14102964D01*
X19299878Y14360150D01*
X19299879Y14361372D01*
X19599879Y14361372D01*
X19706223Y14104000D01*
X19902964Y13906915D01*
X20160150Y13800122D01*
X20438628Y13799879D01*
X20696000Y13906223D01*
X20893085Y14102964D01*
X20946526Y14231666D01*
X21649853Y14231666D01*
X21778985Y13919143D01*
X22017885Y13679826D01*
X22330183Y13550148D01*
X22668334Y13549853D01*
X22980857Y13678985D01*
X23220174Y13917885D01*
X23349852Y14230183D01*
X23350147Y14568334D01*
X23221015Y14880857D01*
X23070469Y15031666D01*
X23349853Y15031666D01*
X23478985Y14719143D01*
X23717885Y14479826D01*
X24030183Y14350148D01*
X24368334Y14349853D01*
X24680857Y14478985D01*
X24920174Y14717885D01*
X25049852Y15030183D01*
X25049853Y15031666D01*
X36549853Y15031666D01*
X36678985Y14719143D01*
X36917885Y14479826D01*
X37230183Y14350148D01*
X37568334Y14349853D01*
X37880857Y14478985D01*
X38120174Y14717885D01*
X38249852Y15030183D01*
X38250147Y15368334D01*
X38121015Y15680857D01*
X37882115Y15920174D01*
X37703806Y15994215D01*
X59629628Y15994215D01*
X59956256Y15203714D01*
X60560533Y14598381D01*
X61350462Y14270374D01*
X62205785Y14269628D01*
X62996286Y14596256D01*
X63601619Y15200533D01*
X63929626Y15990462D01*
X63930372Y16845785D01*
X63603744Y17636286D01*
X62999467Y18241619D01*
X62209538Y18569626D01*
X61354215Y18570372D01*
X60563714Y18243744D01*
X59958381Y17639467D01*
X59630374Y16849538D01*
X59629628Y15994215D01*
X37703806Y15994215D01*
X37569817Y16049852D01*
X37231666Y16050147D01*
X36919143Y15921015D01*
X36679826Y15682115D01*
X36550148Y15369817D01*
X36549853Y15031666D01*
X25049853Y15031666D01*
X25050147Y15368334D01*
X24921015Y15680857D01*
X24682115Y15920174D01*
X24369817Y16049852D01*
X24031666Y16050147D01*
X23719143Y15921015D01*
X23479826Y15682115D01*
X23350148Y15369817D01*
X23349853Y15031666D01*
X23070469Y15031666D01*
X22982115Y15120174D01*
X22669817Y15249852D01*
X22331666Y15250147D01*
X22019143Y15121015D01*
X21779826Y14882115D01*
X21650148Y14569817D01*
X21649853Y14231666D01*
X20946526Y14231666D01*
X20999878Y14360150D01*
X21000121Y14638628D01*
X20893777Y14896000D01*
X20697036Y15093085D01*
X20439850Y15199878D01*
X20161372Y15200121D01*
X19904000Y15093777D01*
X19706915Y14897036D01*
X19600122Y14639850D01*
X19599879Y14361372D01*
X19299879Y14361372D01*
X19300121Y14638628D01*
X19193777Y14896000D01*
X18997036Y15093085D01*
X18739850Y15199878D01*
X18461372Y15200121D01*
X18204000Y15093777D01*
X18006915Y14897036D01*
X17900122Y14639850D01*
X17899879Y14361372D01*
X17599879Y14361372D01*
X17600121Y14638628D01*
X17493777Y14896000D01*
X17297036Y15093085D01*
X17039850Y15199878D01*
X16761372Y15200121D01*
X16504000Y15093777D01*
X16349904Y14939950D01*
X16197036Y15093085D01*
X15939850Y15199878D01*
X15661372Y15200121D01*
X15404000Y15093777D01*
X15206915Y14897036D01*
X15100122Y14639850D01*
X15099879Y14361372D01*
X2070386Y14361372D01*
X2021015Y14480857D01*
X1782115Y14720174D01*
X1524090Y14827316D01*
X1649852Y15130183D01*
X1649966Y15261372D01*
X8199879Y15261372D01*
X8306223Y15004000D01*
X8502964Y14806915D01*
X8760150Y14700122D01*
X9038628Y14699879D01*
X9296000Y14806223D01*
X9493085Y15002964D01*
X9599878Y15260150D01*
X9600121Y15538628D01*
X9549405Y15661372D01*
X11099879Y15661372D01*
X11206223Y15404000D01*
X11402964Y15206915D01*
X11660150Y15100122D01*
X11938628Y15099879D01*
X12196000Y15206223D01*
X12393085Y15402964D01*
X12499878Y15660150D01*
X12500121Y15938628D01*
X12393777Y16196000D01*
X12197036Y16393085D01*
X11939850Y16499878D01*
X11661372Y16500121D01*
X11404000Y16393777D01*
X11206915Y16197036D01*
X11100122Y15939850D01*
X11099879Y15661372D01*
X9549405Y15661372D01*
X9493777Y15796000D01*
X9297036Y15993085D01*
X9039850Y16099878D01*
X8761372Y16100121D01*
X8504000Y15993777D01*
X8306915Y15797036D01*
X8200122Y15539850D01*
X8199879Y15261372D01*
X1649966Y15261372D01*
X1650147Y15468334D01*
X1521015Y15780857D01*
X1282115Y16020174D01*
X969817Y16149852D01*
X631666Y16150147D01*
X475000Y16085414D01*
X475000Y16110177D01*
X475350Y16110247D01*
X475351Y16110247D01*
X646579Y16181172D01*
X971000Y16397944D01*
X971003Y16397945D01*
X1102055Y16528997D01*
X1318828Y16853421D01*
X1389753Y17024649D01*
X1389753Y17024650D01*
X1465873Y17407332D01*
X1465873Y17454115D01*
X1475000Y17500000D01*
X1475000Y17599632D01*
X1475450Y17598959D01*
X1751210Y17414702D01*
X2075946Y17350108D01*
X2031666Y17350147D01*
X1719143Y17221015D01*
X1479826Y16982115D01*
X1350148Y16669817D01*
X1349853Y16331666D01*
X1478985Y16019143D01*
X1717885Y15779826D01*
X2030183Y15650148D01*
X2368334Y15649853D01*
X2680857Y15778985D01*
X2920174Y16017885D01*
X3049852Y16330183D01*
X3050147Y16668334D01*
X2921015Y16980857D01*
X2682115Y17220174D01*
X2369817Y17349852D01*
X2200168Y17350000D01*
X2823509Y17350000D01*
X3148790Y17414702D01*
X3424550Y17598959D01*
X3599888Y17861372D01*
X13199879Y17861372D01*
X13306223Y17604000D01*
X13502964Y17406915D01*
X13760150Y17300122D01*
X14038628Y17299879D01*
X14296000Y17406223D01*
X14493085Y17602964D01*
X14599878Y17860150D01*
X14600121Y18138628D01*
X14561679Y18231666D01*
X36549853Y18231666D01*
X36678985Y17919143D01*
X36917885Y17679826D01*
X37230183Y17550148D01*
X37568334Y17549853D01*
X37880857Y17678985D01*
X38120174Y17917885D01*
X38199980Y18110079D01*
X38302964Y18006915D01*
X38560150Y17900122D01*
X38838628Y17899879D01*
X39096000Y18006223D01*
X39200009Y18110050D01*
X39302964Y18006915D01*
X39560150Y17900122D01*
X39838628Y17899879D01*
X40096000Y18006223D01*
X40293085Y18202964D01*
X40399878Y18460150D01*
X40400121Y18738628D01*
X40293777Y18996000D01*
X40097036Y19193085D01*
X39839850Y19299878D01*
X39561372Y19300121D01*
X39304000Y19193777D01*
X39199991Y19089950D01*
X39097036Y19193085D01*
X38839850Y19299878D01*
X38561372Y19300121D01*
X38304000Y19193777D01*
X38106915Y18997036D01*
X38076987Y18924962D01*
X37882115Y19120174D01*
X37569817Y19249852D01*
X37231666Y19250147D01*
X36919143Y19121015D01*
X36679826Y18882115D01*
X36550148Y18569817D01*
X36549853Y18231666D01*
X14561679Y18231666D01*
X14493777Y18396000D01*
X14297036Y18593085D01*
X14039850Y18699878D01*
X13761372Y18700121D01*
X13504000Y18593777D01*
X13306915Y18397036D01*
X13200122Y18139850D01*
X13199879Y17861372D01*
X3599888Y17861372D01*
X3608807Y17874719D01*
X3673509Y18200000D01*
X3608807Y18525281D01*
X3424550Y18801041D01*
X3148790Y18985298D01*
X2823509Y19050000D01*
X2076491Y19050000D01*
X1751210Y18985298D01*
X1475450Y18801041D01*
X1475000Y18800368D01*
X1475000Y19561372D01*
X13199879Y19561372D01*
X13306223Y19304000D01*
X13502964Y19106915D01*
X13760150Y19000122D01*
X14038628Y18999879D01*
X14296000Y19106223D01*
X14493085Y19302964D01*
X14599878Y19560150D01*
X14600121Y19838628D01*
X14493777Y20096000D01*
X14297036Y20293085D01*
X14039850Y20399878D01*
X13761372Y20400121D01*
X13504000Y20293777D01*
X13306915Y20097036D01*
X13200122Y19839850D01*
X13199879Y19561372D01*
X1475000Y19561372D01*
X1475000Y20461372D01*
X14899879Y20461372D01*
X15006223Y20204000D01*
X15202964Y20006915D01*
X15460150Y19900122D01*
X15738628Y19899879D01*
X15996000Y20006223D01*
X15999922Y20010138D01*
X16102964Y19906915D01*
X16360150Y19800122D01*
X16638628Y19799879D01*
X16896000Y19906223D01*
X17093085Y20102964D01*
X17199878Y20360150D01*
X17200121Y20638628D01*
X17093777Y20896000D01*
X16897036Y21093085D01*
X16639850Y21199878D01*
X16361372Y21200121D01*
X16104000Y21093777D01*
X16100078Y21089862D01*
X15997036Y21193085D01*
X15739850Y21299878D01*
X15461372Y21300121D01*
X15204000Y21193777D01*
X15006915Y20997036D01*
X14900122Y20739850D01*
X14899879Y20461372D01*
X1475000Y20461372D01*
X1475000Y21631666D01*
X9649853Y21631666D01*
X9778985Y21319143D01*
X10017885Y21079826D01*
X10330183Y20950148D01*
X10668334Y20949853D01*
X10980857Y21078985D01*
X11220174Y21317885D01*
X11242343Y21371274D01*
X17849888Y21371274D01*
X17948636Y21132286D01*
X18131324Y20949278D01*
X18370140Y20850113D01*
X18628726Y20849888D01*
X18867714Y20948636D01*
X19050722Y21131324D01*
X19149887Y21370140D01*
X19150112Y21628726D01*
X19135297Y21664581D01*
X19170140Y21650113D01*
X19428726Y21649888D01*
X19464581Y21664703D01*
X19450113Y21629860D01*
X19449888Y21371274D01*
X19548636Y21132286D01*
X19580761Y21100104D01*
X19549278Y21068676D01*
X19450113Y20829860D01*
X19449888Y20571274D01*
X19548636Y20332286D01*
X19731324Y20149278D01*
X19970140Y20050113D01*
X20228726Y20049888D01*
X20467714Y20148636D01*
X20650722Y20331324D01*
X20749887Y20570140D01*
X20750112Y20828726D01*
X20735297Y20864581D01*
X20770140Y20850113D01*
X21028726Y20849888D01*
X21226643Y20931666D01*
X26249853Y20931666D01*
X26378985Y20619143D01*
X26617885Y20379826D01*
X26930183Y20250148D01*
X27268334Y20249853D01*
X27580857Y20378985D01*
X27820174Y20617885D01*
X27949852Y20930183D01*
X27950147Y21268334D01*
X27821015Y21580857D01*
X27582115Y21820174D01*
X27269817Y21949852D01*
X26931666Y21950147D01*
X26619143Y21821015D01*
X26379826Y21582115D01*
X26250148Y21269817D01*
X26249853Y20931666D01*
X21226643Y20931666D01*
X21267714Y20948636D01*
X21450722Y21131324D01*
X21549887Y21370140D01*
X21550112Y21628726D01*
X21535297Y21664581D01*
X21570140Y21650113D01*
X21828726Y21649888D01*
X22067714Y21748636D01*
X22250722Y21931324D01*
X22349887Y22170140D01*
X22350112Y22428726D01*
X22251364Y22667714D01*
X22068676Y22850722D01*
X21829860Y22949887D01*
X21571274Y22950112D01*
X21332286Y22851364D01*
X21300104Y22819239D01*
X21268676Y22850722D01*
X21029860Y22949887D01*
X20771274Y22950112D01*
X20532286Y22851364D01*
X20500104Y22819239D01*
X20468676Y22850722D01*
X20229860Y22949887D01*
X19971274Y22950112D01*
X19732286Y22851364D01*
X19700104Y22819239D01*
X19668676Y22850722D01*
X19429860Y22949887D01*
X19171274Y22950112D01*
X18932286Y22851364D01*
X18749278Y22668676D01*
X18650113Y22429860D01*
X18649888Y22171274D01*
X18664703Y22135419D01*
X18629860Y22149887D01*
X18371274Y22150112D01*
X18132286Y22051364D01*
X17949278Y21868676D01*
X17850113Y21629860D01*
X17849888Y21371274D01*
X11242343Y21371274D01*
X11349852Y21630183D01*
X11350147Y21968334D01*
X11221015Y22280857D01*
X10982115Y22520174D01*
X10669817Y22649852D01*
X10331666Y22650147D01*
X10019143Y22521015D01*
X9779826Y22282115D01*
X9650148Y21969817D01*
X9649853Y21631666D01*
X1475000Y21631666D01*
X1475000Y24199632D01*
X1475450Y24198959D01*
X1751210Y24014702D01*
X2076491Y23950000D01*
X2823509Y23950000D01*
X3148790Y24014702D01*
X3424550Y24198959D01*
X3608807Y24474719D01*
X3673509Y24800000D01*
X3608807Y25125281D01*
X3537723Y25231666D01*
X5949853Y25231666D01*
X6078985Y24919143D01*
X6097919Y24900176D01*
X6079826Y24882115D01*
X5950148Y24569817D01*
X5949853Y24231666D01*
X6078985Y23919143D01*
X6147919Y23850089D01*
X6079826Y23782115D01*
X5950148Y23469817D01*
X5949853Y23131666D01*
X6078985Y22819143D01*
X6317885Y22579826D01*
X6630183Y22450148D01*
X6968334Y22449853D01*
X7280857Y22578985D01*
X7463562Y22761372D01*
X15899879Y22761372D01*
X16006223Y22504000D01*
X16202964Y22306915D01*
X16460150Y22200122D01*
X16738628Y22199879D01*
X16996000Y22306223D01*
X17193085Y22502964D01*
X17247277Y22633472D01*
X17331324Y22549278D01*
X17570140Y22450113D01*
X17828726Y22449888D01*
X18067714Y22548636D01*
X18250722Y22731324D01*
X18349887Y22970140D01*
X18350112Y23228726D01*
X18251364Y23467714D01*
X18219239Y23499896D01*
X18250722Y23531324D01*
X18349887Y23770140D01*
X18350112Y24028726D01*
X18251364Y24267714D01*
X18068676Y24450722D01*
X17829860Y24549887D01*
X17571274Y24550112D01*
X17332286Y24451364D01*
X17149278Y24268676D01*
X17050113Y24029860D01*
X17049888Y23771274D01*
X17148636Y23532286D01*
X17180761Y23500104D01*
X17149278Y23468676D01*
X17111712Y23378208D01*
X16997036Y23493085D01*
X16739850Y23599878D01*
X16461372Y23600121D01*
X16204000Y23493777D01*
X16006915Y23297036D01*
X15900122Y23039850D01*
X15899879Y22761372D01*
X7463562Y22761372D01*
X7520174Y22817885D01*
X7649852Y23130183D01*
X7650147Y23468334D01*
X7529067Y23761372D01*
X13099879Y23761372D01*
X13206223Y23504000D01*
X13402964Y23306915D01*
X13660150Y23200122D01*
X13938628Y23199879D01*
X14196000Y23306223D01*
X14393085Y23502964D01*
X14499878Y23760150D01*
X14500121Y24038628D01*
X14393777Y24296000D01*
X14197036Y24493085D01*
X14008737Y24571274D01*
X18649888Y24571274D01*
X18748636Y24332286D01*
X18780761Y24300104D01*
X18749278Y24268676D01*
X18650113Y24029860D01*
X18649888Y23771274D01*
X18748636Y23532286D01*
X18931324Y23349278D01*
X19170140Y23250113D01*
X19428726Y23249888D01*
X19667714Y23348636D01*
X19850722Y23531324D01*
X19949887Y23770140D01*
X19949887Y23771274D01*
X21049888Y23771274D01*
X21148636Y23532286D01*
X21331324Y23349278D01*
X21570140Y23250113D01*
X21828726Y23249888D01*
X22067714Y23348636D01*
X22250722Y23531324D01*
X22263199Y23561372D01*
X24699879Y23561372D01*
X24806223Y23304000D01*
X25002964Y23106915D01*
X25260150Y23000122D01*
X25466598Y22999942D01*
X25400122Y22839850D01*
X25399879Y22561372D01*
X25506223Y22304000D01*
X25702964Y22106915D01*
X25960150Y22000122D01*
X26238628Y21999879D01*
X26496000Y22106223D01*
X26651420Y22261372D01*
X35699879Y22261372D01*
X35806223Y22004000D01*
X36002964Y21806915D01*
X36260150Y21700122D01*
X36538628Y21699879D01*
X36796000Y21806223D01*
X36993085Y22002964D01*
X37099878Y22260150D01*
X37100121Y22538628D01*
X36993777Y22796000D01*
X36797036Y22993085D01*
X36539850Y23099878D01*
X36261372Y23100121D01*
X36004000Y22993777D01*
X35806915Y22797036D01*
X35700122Y22539850D01*
X35699879Y22261372D01*
X26651420Y22261372D01*
X26693085Y22302964D01*
X26799878Y22560150D01*
X26800121Y22838628D01*
X26693777Y23096000D01*
X26497036Y23293085D01*
X26332583Y23361372D01*
X30399879Y23361372D01*
X30506223Y23104000D01*
X30702964Y22906915D01*
X30960150Y22800122D01*
X31238628Y22799879D01*
X31496000Y22906223D01*
X31693085Y23102964D01*
X31799878Y23360150D01*
X31800121Y23638628D01*
X31740655Y23782548D01*
X55399774Y23782548D01*
X55597271Y23304571D01*
X55962647Y22938556D01*
X56368985Y22769830D01*
X55964571Y22602729D01*
X55598556Y22237353D01*
X55400226Y21759721D01*
X55399774Y21242548D01*
X55597271Y20764571D01*
X55962647Y20398556D01*
X56440279Y20200226D01*
X56957452Y20199774D01*
X57435429Y20397271D01*
X57801444Y20762647D01*
X57999774Y21240279D01*
X58000226Y21757452D01*
X57802729Y22235429D01*
X57437353Y22601444D01*
X57031015Y22770170D01*
X57435429Y22937271D01*
X57801444Y23302647D01*
X57999774Y23780279D01*
X58000226Y24297452D01*
X57802729Y24775429D01*
X57437353Y25141444D01*
X56959721Y25339774D01*
X56442548Y25340226D01*
X55964571Y25142729D01*
X55598556Y24777353D01*
X55400226Y24299721D01*
X55399774Y23782548D01*
X31740655Y23782548D01*
X31693777Y23896000D01*
X31497036Y24093085D01*
X31239850Y24199878D01*
X30961372Y24200121D01*
X30704000Y24093777D01*
X30506915Y23897036D01*
X30400122Y23639850D01*
X30399879Y23361372D01*
X26332583Y23361372D01*
X26239850Y23399878D01*
X26033402Y23400058D01*
X26099878Y23560150D01*
X26100121Y23838628D01*
X25993777Y24096000D01*
X25797036Y24293085D01*
X25539850Y24399878D01*
X25261372Y24400121D01*
X25004000Y24293777D01*
X24806915Y24097036D01*
X24700122Y23839850D01*
X24699879Y23561372D01*
X22263199Y23561372D01*
X22349887Y23770140D01*
X22350112Y24028726D01*
X22251364Y24267714D01*
X22068676Y24450722D01*
X21829860Y24549887D01*
X21571274Y24550112D01*
X21332286Y24451364D01*
X21149278Y24268676D01*
X21050113Y24029860D01*
X21049888Y23771274D01*
X19949887Y23771274D01*
X19950112Y24028726D01*
X19851364Y24267714D01*
X19819239Y24299896D01*
X19850722Y24331324D01*
X19949887Y24570140D01*
X19950112Y24828726D01*
X19851364Y25067714D01*
X19668676Y25250722D01*
X19429860Y25349887D01*
X19171274Y25350112D01*
X18932286Y25251364D01*
X18749278Y25068676D01*
X18650113Y24829860D01*
X18649888Y24571274D01*
X14008737Y24571274D01*
X13939850Y24599878D01*
X13661372Y24600121D01*
X13404000Y24493777D01*
X13206915Y24297036D01*
X13100122Y24039850D01*
X13099879Y23761372D01*
X7529067Y23761372D01*
X7521015Y23780857D01*
X7452081Y23849911D01*
X7520174Y23917885D01*
X7649852Y24230183D01*
X7650147Y24568334D01*
X7521015Y24880857D01*
X7502081Y24899824D01*
X7520174Y24917885D01*
X7649852Y25230183D01*
X7649966Y25361372D01*
X13099879Y25361372D01*
X13206223Y25104000D01*
X13402964Y24906915D01*
X13660150Y24800122D01*
X13938628Y24799879D01*
X14196000Y24906223D01*
X14393085Y25102964D01*
X14499878Y25360150D01*
X14500121Y25638628D01*
X14393777Y25896000D01*
X14197036Y26093085D01*
X14049819Y26154215D01*
X59629628Y26154215D01*
X59956256Y25363714D01*
X60560533Y24758381D01*
X61350462Y24430374D01*
X62205785Y24429628D01*
X62996286Y24756256D01*
X63601619Y25360533D01*
X63929626Y26150462D01*
X63930372Y27005785D01*
X63603744Y27796286D01*
X62999467Y28401619D01*
X62209538Y28729626D01*
X61354215Y28730372D01*
X60563714Y28403744D01*
X59958381Y27799467D01*
X59630374Y27009538D01*
X59629628Y26154215D01*
X14049819Y26154215D01*
X13939850Y26199878D01*
X13661372Y26200121D01*
X13404000Y26093777D01*
X13206915Y25897036D01*
X13100122Y25639850D01*
X13099879Y25361372D01*
X7649966Y25361372D01*
X7650147Y25568334D01*
X7521015Y25880857D01*
X7282115Y26120174D01*
X6969817Y26249852D01*
X6631666Y26250147D01*
X6319143Y26121015D01*
X6079826Y25882115D01*
X5950148Y25569817D01*
X5949853Y25231666D01*
X3537723Y25231666D01*
X3424550Y25401041D01*
X3148790Y25585298D01*
X2823509Y25650000D01*
X2076491Y25650000D01*
X1751210Y25585298D01*
X1475450Y25401041D01*
X1475000Y25400368D01*
X1475000Y25500000D01*
X1465873Y25545885D01*
X1465873Y25592668D01*
X1389753Y25975350D01*
X1389753Y25975352D01*
X1318828Y26146579D01*
X1102055Y26471003D01*
X971003Y26602055D01*
X971000Y26602056D01*
X646579Y26818828D01*
X475351Y26889753D01*
X475350Y26889753D01*
X475000Y26889823D01*
X475000Y27061372D01*
X13099879Y27061372D01*
X13206223Y26804000D01*
X13402964Y26606915D01*
X13660150Y26500122D01*
X13938628Y26499879D01*
X14196000Y26606223D01*
X14393085Y26802964D01*
X14499878Y27060150D01*
X14500121Y27338628D01*
X14490724Y27361372D01*
X21699879Y27361372D01*
X21806223Y27104000D01*
X22002964Y26906915D01*
X22260150Y26800122D01*
X22538628Y26799879D01*
X22796000Y26906223D01*
X22993085Y27102964D01*
X23099878Y27360150D01*
X23100121Y27638628D01*
X23049405Y27761372D01*
X26399879Y27761372D01*
X26506223Y27504000D01*
X26702964Y27306915D01*
X26960150Y27200122D01*
X27238628Y27199879D01*
X27496000Y27306223D01*
X27693085Y27502964D01*
X27799878Y27760150D01*
X27800121Y28038628D01*
X27693777Y28296000D01*
X27497036Y28493085D01*
X27239850Y28599878D01*
X26961372Y28600121D01*
X26704000Y28493777D01*
X26506915Y28297036D01*
X26400122Y28039850D01*
X26399879Y27761372D01*
X23049405Y27761372D01*
X22993777Y27896000D01*
X22797036Y28093085D01*
X22539850Y28199878D01*
X22261372Y28200121D01*
X22004000Y28093777D01*
X21806915Y27897036D01*
X21700122Y27639850D01*
X21699879Y27361372D01*
X14490724Y27361372D01*
X14393777Y27596000D01*
X14197036Y27793085D01*
X13939850Y27899878D01*
X13661372Y27900121D01*
X13404000Y27793777D01*
X13206915Y27597036D01*
X13100122Y27339850D01*
X13099879Y27061372D01*
X475000Y27061372D01*
X475000Y28961372D01*
X15499879Y28961372D01*
X15606223Y28704000D01*
X15802964Y28506915D01*
X16060150Y28400122D01*
X16338628Y28399879D01*
X16596000Y28506223D01*
X16793085Y28702964D01*
X16899878Y28960150D01*
X16899966Y29061372D01*
X28199879Y29061372D01*
X28306223Y28804000D01*
X28502964Y28606915D01*
X28760150Y28500122D01*
X29038628Y28499879D01*
X29296000Y28606223D01*
X29493085Y28802964D01*
X29599878Y29060150D01*
X29600121Y29338628D01*
X29493777Y29596000D01*
X29297036Y29793085D01*
X29039850Y29899878D01*
X28761372Y29900121D01*
X28504000Y29793777D01*
X28306915Y29597036D01*
X28200122Y29339850D01*
X28199879Y29061372D01*
X16899966Y29061372D01*
X16900121Y29238628D01*
X16793777Y29496000D01*
X16597036Y29693085D01*
X16339850Y29799878D01*
X16061372Y29800121D01*
X15804000Y29693777D01*
X15606915Y29497036D01*
X15500122Y29239850D01*
X15499879Y28961372D01*
X475000Y28961372D01*
X475000Y30661372D01*
X35199879Y30661372D01*
X35306223Y30404000D01*
X35502964Y30206915D01*
X35760150Y30100122D01*
X35945712Y30099960D01*
X35850148Y29869817D01*
X35849853Y29531666D01*
X35978985Y29219143D01*
X36217885Y28979826D01*
X36530183Y28850148D01*
X36531665Y28850147D01*
X36219143Y28721015D01*
X35979826Y28482115D01*
X35850148Y28169817D01*
X35849853Y27831666D01*
X35978985Y27519143D01*
X36217885Y27279826D01*
X36530183Y27150148D01*
X36868334Y27149853D01*
X37180857Y27278985D01*
X37420174Y27517885D01*
X37549852Y27830183D01*
X37550147Y28168334D01*
X37421015Y28480857D01*
X37340641Y28561372D01*
X41799879Y28561372D01*
X41906223Y28304000D01*
X42102964Y28106915D01*
X42360150Y28000122D01*
X42638628Y27999879D01*
X42896000Y28106223D01*
X43093085Y28302964D01*
X43199878Y28560150D01*
X43200121Y28838628D01*
X43093777Y29096000D01*
X42897036Y29293085D01*
X42639850Y29399878D01*
X42361372Y29400121D01*
X42104000Y29293777D01*
X41906915Y29097036D01*
X41800122Y28839850D01*
X41799879Y28561372D01*
X37340641Y28561372D01*
X37182115Y28720174D01*
X36869817Y28849852D01*
X36868335Y28849853D01*
X37180857Y28978985D01*
X37420174Y29217885D01*
X37549852Y29530183D01*
X37550147Y29868334D01*
X37421015Y30180857D01*
X37182115Y30420174D01*
X36869817Y30549852D01*
X36554193Y30550127D01*
X36599878Y30660150D01*
X36600121Y30938628D01*
X36493777Y31196000D01*
X36297036Y31393085D01*
X36039850Y31499878D01*
X35761372Y31500121D01*
X35504000Y31393777D01*
X35306915Y31197036D01*
X35200122Y30939850D01*
X35199879Y30661372D01*
X475000Y30661372D01*
X475000Y30800000D01*
X16600000Y30800000D01*
X16636346Y30806839D01*
X16669727Y30828319D01*
X16692121Y30861094D01*
X16700000Y30900000D01*
X16700000Y31761372D01*
X18499879Y31761372D01*
X18606223Y31504000D01*
X18802964Y31306915D01*
X19060150Y31200122D01*
X19338628Y31199879D01*
X19596000Y31306223D01*
X19793085Y31502964D01*
X19899878Y31760150D01*
X19899879Y31761372D01*
X27599879Y31761372D01*
X27706223Y31504000D01*
X27902964Y31306915D01*
X28160150Y31200122D01*
X28438628Y31199879D01*
X28696000Y31306223D01*
X28893085Y31502964D01*
X28999878Y31760150D01*
X28999879Y31761372D01*
X42999879Y31761372D01*
X43106223Y31504000D01*
X43302964Y31306915D01*
X43560150Y31200122D01*
X43838628Y31199879D01*
X44096000Y31306223D01*
X44293085Y31502964D01*
X44399878Y31760150D01*
X44400121Y32038628D01*
X44293777Y32296000D01*
X44097036Y32493085D01*
X43839850Y32599878D01*
X43561372Y32600121D01*
X43304000Y32493777D01*
X43106915Y32297036D01*
X43000122Y32039850D01*
X42999879Y31761372D01*
X28999879Y31761372D01*
X29000121Y32038628D01*
X28893777Y32296000D01*
X28697036Y32493085D01*
X28439850Y32599878D01*
X28161372Y32600121D01*
X27904000Y32493777D01*
X27706915Y32297036D01*
X27600122Y32039850D01*
X27599879Y31761372D01*
X19899879Y31761372D01*
X19900121Y32038628D01*
X19793777Y32296000D01*
X19597036Y32493085D01*
X19339850Y32599878D01*
X19061372Y32600121D01*
X18804000Y32493777D01*
X18606915Y32297036D01*
X18500122Y32039850D01*
X18499879Y31761372D01*
X16700000Y31761372D01*
X16700000Y33261372D01*
X35699879Y33261372D01*
X35806223Y33004000D01*
X36002964Y32806915D01*
X36260150Y32700122D01*
X36538628Y32699879D01*
X36796000Y32806223D01*
X36993085Y33002964D01*
X37099878Y33260150D01*
X37099966Y33361372D01*
X37699879Y33361372D01*
X37806223Y33104000D01*
X37950001Y32959971D01*
X37900122Y32839850D01*
X37899879Y32561372D01*
X38006223Y32304000D01*
X38202964Y32106915D01*
X38460150Y32000122D01*
X38738628Y31999879D01*
X38996000Y32106223D01*
X39193085Y32302964D01*
X39299878Y32560150D01*
X39300053Y32761372D01*
X44199879Y32761372D01*
X44306223Y32504000D01*
X44502964Y32306915D01*
X44760150Y32200122D01*
X45038628Y32199879D01*
X45296000Y32306223D01*
X45493085Y32502964D01*
X45599878Y32760150D01*
X45599966Y32861372D01*
X47399879Y32861372D01*
X47506223Y32604000D01*
X47702964Y32406915D01*
X47960150Y32300122D01*
X48238628Y32299879D01*
X48496000Y32406223D01*
X48693085Y32602964D01*
X48799878Y32860150D01*
X48800121Y33138628D01*
X48693777Y33396000D01*
X48497036Y33593085D01*
X48239850Y33699878D01*
X47961372Y33700121D01*
X47704000Y33593777D01*
X47506915Y33397036D01*
X47400122Y33139850D01*
X47399879Y32861372D01*
X45599966Y32861372D01*
X45600121Y33038628D01*
X45493777Y33296000D01*
X45297036Y33493085D01*
X45039850Y33599878D01*
X44761372Y33600121D01*
X44504000Y33493777D01*
X44306915Y33297036D01*
X44200122Y33039850D01*
X44199879Y32761372D01*
X39300053Y32761372D01*
X39300121Y32838628D01*
X39193777Y33096000D01*
X39049999Y33240029D01*
X39099878Y33360150D01*
X39100009Y33510100D01*
X39231719Y33378160D01*
X39488905Y33271367D01*
X39767383Y33271124D01*
X40024755Y33377468D01*
X40221840Y33574209D01*
X40328633Y33831395D01*
X40328876Y34109873D01*
X40222532Y34367245D01*
X40128570Y34461372D01*
X44999879Y34461372D01*
X45106223Y34204000D01*
X45302964Y34006915D01*
X45560150Y33900122D01*
X45838628Y33899879D01*
X46096000Y34006223D01*
X46293085Y34202964D01*
X46399878Y34460150D01*
X46400121Y34738628D01*
X46293777Y34996000D01*
X46097036Y35193085D01*
X45839850Y35299878D01*
X45561372Y35300121D01*
X45304000Y35193777D01*
X45106915Y34997036D01*
X45000122Y34739850D01*
X44999879Y34461372D01*
X40128570Y34461372D01*
X40025791Y34564330D01*
X39768605Y34671123D01*
X39490127Y34671366D01*
X39232755Y34565022D01*
X39035670Y34368281D01*
X38928877Y34111095D01*
X38928746Y33961145D01*
X38797036Y34093085D01*
X38539850Y34199878D01*
X38261372Y34200121D01*
X38004000Y34093777D01*
X37806915Y33897036D01*
X37700122Y33639850D01*
X37699879Y33361372D01*
X37099966Y33361372D01*
X37100121Y33538628D01*
X36993777Y33796000D01*
X36797036Y33993085D01*
X36539850Y34099878D01*
X36261372Y34100121D01*
X36004000Y33993777D01*
X35806915Y33797036D01*
X35700122Y33539850D01*
X35699879Y33261372D01*
X16700000Y33261372D01*
X16700000Y34000000D01*
X16693161Y34036346D01*
X16671681Y34069727D01*
X16638906Y34092121D01*
X16600000Y34100000D01*
X475000Y34100000D01*
X475000Y34461372D01*
X19599879Y34461372D01*
X19706223Y34204000D01*
X19902964Y34006915D01*
X20160150Y33900122D01*
X20438628Y33899879D01*
X20696000Y34006223D01*
X20893085Y34202964D01*
X20999878Y34460150D01*
X21000121Y34738628D01*
X20893777Y34996000D01*
X20697036Y35193085D01*
X20439850Y35299878D01*
X20161372Y35300121D01*
X19904000Y35193777D01*
X19706915Y34997036D01*
X19600122Y34739850D01*
X19599879Y34461372D01*
X475000Y34461372D01*
X475000Y36061372D01*
X40399879Y36061372D01*
X40506223Y35804000D01*
X40702964Y35606915D01*
X40960150Y35500122D01*
X41238628Y35499879D01*
X41496000Y35606223D01*
X41693085Y35802964D01*
X41799878Y36060150D01*
X41799966Y36161372D01*
X42999879Y36161372D01*
X43106223Y35904000D01*
X43160050Y35850079D01*
X43106915Y35797036D01*
X43000122Y35539850D01*
X42999879Y35261372D01*
X43106223Y35004000D01*
X43302964Y34806915D01*
X43560150Y34700122D01*
X43838628Y34699879D01*
X44096000Y34806223D01*
X44293085Y35002964D01*
X44399878Y35260150D01*
X44400121Y35538628D01*
X44293777Y35796000D01*
X44239950Y35849921D01*
X44293085Y35902964D01*
X44399878Y36160150D01*
X44400121Y36438628D01*
X44293777Y36696000D01*
X44097036Y36893085D01*
X43839850Y36999878D01*
X43561372Y37000121D01*
X43304000Y36893777D01*
X43106915Y36697036D01*
X43000122Y36439850D01*
X42999879Y36161372D01*
X41799966Y36161372D01*
X41800121Y36338628D01*
X41693777Y36596000D01*
X41497036Y36793085D01*
X41239850Y36899878D01*
X40961372Y36900121D01*
X40704000Y36793777D01*
X40506915Y36597036D01*
X40400122Y36339850D01*
X40399879Y36061372D01*
X475000Y36061372D01*
X475000Y37361372D01*
X43999879Y37361372D01*
X44106223Y37104000D01*
X44302964Y36906915D01*
X44560150Y36800122D01*
X44838628Y36799879D01*
X45096000Y36906223D01*
X45293085Y37102964D01*
X45399878Y37360150D01*
X45400121Y37638628D01*
X45293777Y37896000D01*
X45121772Y38068306D01*
X54139016Y38068306D01*
X54152016Y37935976D01*
X54394347Y37845742D01*
X54652763Y37855113D01*
X54847984Y37935976D01*
X54860984Y38068306D01*
X57139016Y38068306D01*
X57152016Y37935976D01*
X57394347Y37845742D01*
X57652763Y37855113D01*
X57847984Y37935976D01*
X57860984Y38068306D01*
X57500000Y38429289D01*
X57139016Y38068306D01*
X54860984Y38068306D01*
X54500000Y38429289D01*
X54139016Y38068306D01*
X45121772Y38068306D01*
X45097036Y38093085D01*
X44839850Y38199878D01*
X44561372Y38200121D01*
X44304000Y38093777D01*
X44106915Y37897036D01*
X44000122Y37639850D01*
X43999879Y37361372D01*
X475000Y37361372D01*
X475000Y38953217D01*
X504976Y39103921D01*
X1499654Y39103921D01*
X1803494Y38368571D01*
X2365612Y37805471D01*
X3100430Y37500348D01*
X3896079Y37499654D01*
X4631429Y37803494D01*
X5194529Y38365612D01*
X5294202Y38605653D01*
X53845742Y38605653D01*
X53855113Y38347237D01*
X53935976Y38152016D01*
X54068306Y38139016D01*
X54429289Y38500000D01*
X54570711Y38500000D01*
X54931694Y38139016D01*
X55064024Y38152016D01*
X55154258Y38394347D01*
X55146596Y38605653D01*
X56845742Y38605653D01*
X56855113Y38347237D01*
X56935976Y38152016D01*
X57068306Y38139016D01*
X57429289Y38500000D01*
X57570711Y38500000D01*
X57931694Y38139016D01*
X58064024Y38152016D01*
X58154258Y38394347D01*
X58144887Y38652763D01*
X58064024Y38847984D01*
X57931694Y38860984D01*
X57570711Y38500000D01*
X57429289Y38500000D01*
X57068306Y38860984D01*
X56935976Y38847984D01*
X56845742Y38605653D01*
X55146596Y38605653D01*
X55144887Y38652763D01*
X55064024Y38847984D01*
X54931694Y38860984D01*
X54570711Y38500000D01*
X54429289Y38500000D01*
X54068306Y38860984D01*
X53935976Y38847984D01*
X53845742Y38605653D01*
X5294202Y38605653D01*
X5499652Y39100430D01*
X5499966Y39461372D01*
X23999879Y39461372D01*
X24106223Y39204000D01*
X24302964Y39006915D01*
X24560150Y38900122D01*
X24838628Y38899879D01*
X25096000Y39006223D01*
X25293085Y39202964D01*
X25358861Y39361372D01*
X35099879Y39361372D01*
X35206223Y39104000D01*
X35402964Y38906915D01*
X35660150Y38800122D01*
X35938628Y38799879D01*
X36196000Y38906223D01*
X36221515Y38931694D01*
X54139016Y38931694D01*
X54500000Y38570711D01*
X54860984Y38931694D01*
X57139016Y38931694D01*
X57500000Y38570711D01*
X57860984Y38931694D01*
X57847984Y39064024D01*
X57740838Y39103921D01*
X64499654Y39103921D01*
X64803494Y38368571D01*
X65365612Y37805471D01*
X66100430Y37500348D01*
X66896079Y37499654D01*
X67631429Y37803494D01*
X68194529Y38365612D01*
X68499652Y39100430D01*
X68500346Y39896079D01*
X68196506Y40631429D01*
X67634388Y41194529D01*
X66899570Y41499652D01*
X66103921Y41500346D01*
X65368571Y41196506D01*
X64805471Y40634388D01*
X64500348Y39899570D01*
X64499654Y39103921D01*
X57740838Y39103921D01*
X57605653Y39154258D01*
X57347237Y39144887D01*
X57152016Y39064024D01*
X57139016Y38931694D01*
X54860984Y38931694D01*
X54847984Y39064024D01*
X54605653Y39154258D01*
X54347237Y39144887D01*
X54152016Y39064024D01*
X54139016Y38931694D01*
X36221515Y38931694D01*
X36393085Y39102964D01*
X36499878Y39360150D01*
X36500059Y39568306D01*
X55639016Y39568306D01*
X55652016Y39435976D01*
X55894347Y39345742D01*
X56152763Y39355113D01*
X56347984Y39435976D01*
X56360984Y39568306D01*
X56000000Y39929289D01*
X55639016Y39568306D01*
X36500059Y39568306D01*
X36500121Y39638628D01*
X36393777Y39896000D01*
X36197036Y40093085D01*
X36166769Y40105653D01*
X55345742Y40105653D01*
X55355113Y39847237D01*
X55435976Y39652016D01*
X55568306Y39639016D01*
X55929289Y40000000D01*
X56070711Y40000000D01*
X56431694Y39639016D01*
X56564024Y39652016D01*
X56654258Y39894347D01*
X56644887Y40152763D01*
X56564024Y40347984D01*
X56431694Y40360984D01*
X56070711Y40000000D01*
X55929289Y40000000D01*
X55568306Y40360984D01*
X55435976Y40347984D01*
X55345742Y40105653D01*
X36166769Y40105653D01*
X35939850Y40199878D01*
X35661372Y40200121D01*
X35404000Y40093777D01*
X35206915Y39897036D01*
X35100122Y39639850D01*
X35099879Y39361372D01*
X25358861Y39361372D01*
X25399878Y39460150D01*
X25400121Y39738628D01*
X25293777Y39996000D01*
X25097036Y40193085D01*
X24839850Y40299878D01*
X24561372Y40300121D01*
X24304000Y40193777D01*
X24106915Y39997036D01*
X24000122Y39739850D01*
X23999879Y39461372D01*
X5499966Y39461372D01*
X5500346Y39896079D01*
X5196506Y40631429D01*
X4634388Y41194529D01*
X3899570Y41499652D01*
X3103921Y41500346D01*
X2368571Y41196506D01*
X1805471Y40634388D01*
X1500348Y39899570D01*
X1499654Y39103921D01*
X504976Y39103921D01*
X751922Y40345398D01*
X1514029Y41485971D01*
X2283327Y42000000D01*
X12657164Y42000000D01*
X12657164Y41000000D01*
X12685056Y40851769D01*
X12772660Y40715628D01*
X12906329Y40624296D01*
X13065000Y40592164D01*
X14065000Y40592164D01*
X14213231Y40620056D01*
X14349372Y40707660D01*
X14359743Y40722838D01*
X14655194Y40600157D01*
X15013236Y40599844D01*
X15344143Y40736572D01*
X15597538Y40989525D01*
X15734843Y41320194D01*
X15735156Y41678236D01*
X15598428Y42009143D01*
X15345475Y42262538D01*
X15014806Y42399843D01*
X14656764Y42400156D01*
X14361374Y42278103D01*
X14357340Y42284372D01*
X14223671Y42375704D01*
X14065000Y42407836D01*
X13065000Y42407836D01*
X12916769Y42379944D01*
X12780628Y42292340D01*
X12689296Y42158671D01*
X12657164Y42000000D01*
X2283327Y42000000D01*
X2654602Y42248078D01*
X4046783Y42525000D01*
X29597227Y42525000D01*
X29592164Y42500000D01*
X29592164Y42500000D01*
G37*
X29592164Y42500000D02*
X29592164Y40500000D01*
X29620056Y40351769D01*
X29707660Y40215628D01*
X29841329Y40124296D01*
X30000000Y40092164D01*
X32000000Y40092164D01*
X32148231Y40120056D01*
X32284372Y40207660D01*
X32375704Y40341329D01*
X32394003Y40431694D01*
X55639016Y40431694D01*
X56000000Y40070711D01*
X56360984Y40431694D01*
X56347984Y40564024D01*
X56105653Y40654258D01*
X55847237Y40644887D01*
X55652016Y40564024D01*
X55639016Y40431694D01*
X32394003Y40431694D01*
X32407836Y40500000D01*
X32407836Y41068306D01*
X54139016Y41068306D01*
X54152016Y40935976D01*
X54394347Y40845742D01*
X54652763Y40855113D01*
X54847984Y40935976D01*
X54860984Y41068306D01*
X57139016Y41068306D01*
X57152016Y40935976D01*
X57394347Y40845742D01*
X57652763Y40855113D01*
X57847984Y40935976D01*
X57860984Y41068306D01*
X57500000Y41429289D01*
X57139016Y41068306D01*
X54860984Y41068306D01*
X54500000Y41429289D01*
X54139016Y41068306D01*
X32407836Y41068306D01*
X32407836Y41605653D01*
X53845742Y41605653D01*
X53855113Y41347237D01*
X53935976Y41152016D01*
X54068306Y41139016D01*
X54429289Y41500000D01*
X54570711Y41500000D01*
X54931694Y41139016D01*
X55064024Y41152016D01*
X55154258Y41394347D01*
X55146596Y41605653D01*
X56845742Y41605653D01*
X56855113Y41347237D01*
X56935976Y41152016D01*
X57068306Y41139016D01*
X57429289Y41500000D01*
X57570711Y41500000D01*
X57931694Y41139016D01*
X58064024Y41152016D01*
X58154258Y41394347D01*
X58144887Y41652763D01*
X58064024Y41847984D01*
X57931694Y41860984D01*
X57570711Y41500000D01*
X57429289Y41500000D01*
X57068306Y41860984D01*
X56935976Y41847984D01*
X56845742Y41605653D01*
X55146596Y41605653D01*
X55144887Y41652763D01*
X55064024Y41847984D01*
X54931694Y41860984D01*
X54570711Y41500000D01*
X54429289Y41500000D01*
X54068306Y41860984D01*
X53935976Y41847984D01*
X53845742Y41605653D01*
X32407836Y41605653D01*
X32407836Y41931694D01*
X54139016Y41931694D01*
X54500000Y41570711D01*
X54860984Y41931694D01*
X57139016Y41931694D01*
X57500000Y41570711D01*
X57860984Y41931694D01*
X57847984Y42064024D01*
X57605653Y42154258D01*
X57347237Y42144887D01*
X57152016Y42064024D01*
X57139016Y41931694D01*
X54860984Y41931694D01*
X54847984Y42064024D01*
X54605653Y42154258D01*
X54347237Y42144887D01*
X54152016Y42064024D01*
X54139016Y41931694D01*
X32407836Y41931694D01*
X32407836Y42500000D01*
X32403132Y42525000D01*
X65953217Y42525000D01*
X67345398Y42248078D01*
X68485971Y41485971D01*
X69248078Y40345398D01*
X69525000Y38953217D01*
X69525000Y4046783D01*
X69248078Y2654602D01*
X68485971Y1514029D01*
X67345398Y751922D01*
X65953217Y475000D01*
X59300000Y475000D01*
X59300000Y3103921D01*
X64499654Y3103921D01*
X64803494Y2368571D01*
X65365612Y1805471D01*
X66100430Y1500348D01*
X66896079Y1499654D01*
X67631429Y1803494D01*
X68194529Y2365612D01*
X68499652Y3100430D01*
X68500346Y3896079D01*
X68196506Y4631429D01*
X67634388Y5194529D01*
X66899570Y5499652D01*
X66103921Y5500346D01*
X65368571Y5196506D01*
X64805471Y4634388D01*
X64500348Y3899570D01*
X64499654Y3103921D01*
X59300000Y3103921D01*
X59300000Y5600000D01*
X59293161Y5636346D01*
X59271681Y5669727D01*
X59238906Y5692121D01*
X59200000Y5700000D01*
X55000000Y5700000D01*
X54963654Y5693161D01*
X54930273Y5671681D01*
X54907879Y5638906D01*
X54900000Y5600000D01*
X54900000Y475000D01*
X14700000Y475000D01*
X14700000Y1765281D01*
X15887375Y1765281D01*
X15892834Y1407280D01*
X16019334Y1101881D01*
X16177573Y1058284D01*
X16719289Y1600000D01*
X16177573Y2141716D01*
X16019334Y2098119D01*
X15887375Y1765281D01*
X14700000Y1765281D01*
X14700000Y2212427D01*
X16248284Y2212427D01*
X16790000Y1670711D01*
X16804142Y1684853D01*
X16874853Y1614142D01*
X16860711Y1600000D01*
X16874853Y1585858D01*
X16804142Y1515147D01*
X16790000Y1529289D01*
X16248284Y987573D01*
X16291881Y829334D01*
X16624719Y697375D01*
X16982720Y702834D01*
X17288119Y829334D01*
X17331716Y987571D01*
X17402122Y917165D01*
X17436071Y951114D01*
X17549525Y837462D01*
X17880194Y700157D01*
X18238236Y699844D01*
X18569143Y836572D01*
X18694998Y962207D01*
X18819525Y837462D01*
X19150194Y700157D01*
X19508236Y699844D01*
X19839143Y836572D01*
X19964998Y962207D01*
X20089525Y837462D01*
X20420194Y700157D01*
X20778236Y699844D01*
X21109143Y836572D01*
X21234998Y962207D01*
X21359525Y837462D01*
X21690194Y700157D01*
X22048236Y699844D01*
X22379143Y836572D01*
X22504998Y962207D01*
X22629525Y837462D01*
X22960194Y700157D01*
X23318236Y699844D01*
X23649143Y836572D01*
X23670478Y857870D01*
X23697660Y815628D01*
X23831329Y724296D01*
X23990000Y692164D01*
X24990000Y692164D01*
X25138231Y720056D01*
X25274372Y807660D01*
X25365704Y941329D01*
X25397836Y1100000D01*
X25397836Y2100000D01*
X25369944Y2248231D01*
X25282340Y2384372D01*
X25148671Y2475704D01*
X24990000Y2507836D01*
X23990000Y2507836D01*
X23841769Y2479944D01*
X23705628Y2392340D01*
X23671129Y2341848D01*
X23650475Y2362538D01*
X23319806Y2499843D01*
X22961764Y2500156D01*
X22630857Y2363428D01*
X22505002Y2237793D01*
X22380475Y2362538D01*
X22049806Y2499843D01*
X21691764Y2500156D01*
X21360857Y2363428D01*
X21235002Y2237793D01*
X21110475Y2362538D01*
X20779806Y2499843D01*
X20421764Y2500156D01*
X20090857Y2363428D01*
X19965002Y2237793D01*
X19840475Y2362538D01*
X19509806Y2499843D01*
X19151764Y2500156D01*
X18820857Y2363428D01*
X18695002Y2237793D01*
X18570475Y2362538D01*
X18239806Y2499843D01*
X17881764Y2500156D01*
X17550857Y2363428D01*
X17436093Y2248864D01*
X17402122Y2282835D01*
X17331716Y2212429D01*
X17288119Y2370666D01*
X16955281Y2502625D01*
X16597280Y2497166D01*
X16291881Y2370666D01*
X16248284Y2212427D01*
X14700000Y2212427D01*
X14700000Y3000000D01*
X14693161Y3036346D01*
X14671681Y3069727D01*
X14638906Y3092121D01*
X14600000Y3100000D01*
X8600000Y3100000D01*
X8563654Y3093161D01*
X8530273Y3071681D01*
X8507879Y3038906D01*
X8500000Y3000000D01*
X8500000Y475000D01*
X4046783Y475000D01*
X2654602Y751922D01*
X1514029Y1514029D01*
X751922Y2654602D01*
X662547Y3103921D01*
X1499654Y3103921D01*
X1803494Y2368571D01*
X2365612Y1805471D01*
X3100430Y1500348D01*
X3896079Y1499654D01*
X4631429Y1803494D01*
X5194529Y2365612D01*
X5499652Y3100430D01*
X5500346Y3896079D01*
X5196506Y4631429D01*
X4996619Y4831666D01*
X13649853Y4831666D01*
X13778985Y4519143D01*
X14017885Y4279826D01*
X14330183Y4150148D01*
X14668334Y4149853D01*
X14980857Y4278985D01*
X15220174Y4517885D01*
X15349852Y4830183D01*
X15350140Y5161372D01*
X25399879Y5161372D01*
X25506223Y4904000D01*
X25702964Y4706915D01*
X25960150Y4600122D01*
X26238628Y4599879D01*
X26496000Y4706223D01*
X26693085Y4902964D01*
X26799878Y5160150D01*
X26800121Y5438628D01*
X26693777Y5696000D01*
X26497036Y5893085D01*
X26239850Y5999878D01*
X25961372Y6000121D01*
X25704000Y5893777D01*
X25506915Y5697036D01*
X25400122Y5439850D01*
X25399879Y5161372D01*
X15350140Y5161372D01*
X15350147Y5168334D01*
X15221015Y5480857D01*
X14982115Y5720174D01*
X14669817Y5849852D01*
X14331666Y5850147D01*
X14019143Y5721015D01*
X13779826Y5482115D01*
X13650148Y5169817D01*
X13649853Y4831666D01*
X4996619Y4831666D01*
X4634388Y5194529D01*
X3899570Y5499652D01*
X3103921Y5500346D01*
X2368571Y5196506D01*
X1805471Y4634388D01*
X1500348Y3899570D01*
X1499654Y3103921D01*
X662547Y3103921D01*
X475000Y4046783D01*
X475000Y7436372D01*
X22674879Y7436372D01*
X22781223Y7179000D01*
X22977964Y6981915D01*
X23097342Y6932345D01*
X23004000Y6893777D01*
X22806915Y6697036D01*
X22700122Y6439850D01*
X22699879Y6161372D01*
X22806223Y5904000D01*
X23002964Y5706915D01*
X23260150Y5600122D01*
X23538628Y5599879D01*
X23796000Y5706223D01*
X23944183Y5854148D01*
X24006223Y5704000D01*
X24202964Y5506915D01*
X24460150Y5400122D01*
X24738628Y5399879D01*
X24996000Y5506223D01*
X25193085Y5702964D01*
X25299878Y5960150D01*
X25299966Y6061372D01*
X29799879Y6061372D01*
X29906223Y5804000D01*
X30102964Y5606915D01*
X30360150Y5500122D01*
X30638628Y5499879D01*
X30896000Y5606223D01*
X31093085Y5802964D01*
X31199878Y6060150D01*
X31200121Y6338628D01*
X31093777Y6596000D01*
X30928694Y6761372D01*
X35399879Y6761372D01*
X35506223Y6504000D01*
X35702964Y6306915D01*
X35960150Y6200122D01*
X36238628Y6199879D01*
X36496000Y6306223D01*
X36693085Y6502964D01*
X36799878Y6760150D01*
X36800121Y7038628D01*
X36693777Y7296000D01*
X36497036Y7493085D01*
X36239850Y7599878D01*
X35961372Y7600121D01*
X35704000Y7493777D01*
X35506915Y7297036D01*
X35400122Y7039850D01*
X35399879Y6761372D01*
X30928694Y6761372D01*
X30897036Y6793085D01*
X30639850Y6899878D01*
X30361372Y6900121D01*
X30104000Y6793777D01*
X29906915Y6597036D01*
X29800122Y6339850D01*
X29799879Y6061372D01*
X25299966Y6061372D01*
X25300121Y6238628D01*
X25193777Y6496000D01*
X24997036Y6693085D01*
X24739850Y6799878D01*
X24461372Y6800121D01*
X24204000Y6693777D01*
X24055817Y6545852D01*
X23993777Y6696000D01*
X23797036Y6893085D01*
X23677658Y6942655D01*
X23771000Y6981223D01*
X23968085Y7177964D01*
X24074878Y7435150D01*
X24075121Y7713628D01*
X23968777Y7971000D01*
X23772036Y8168085D01*
X23514850Y8274878D01*
X23236372Y8275121D01*
X22979000Y8168777D01*
X22781915Y7972036D01*
X22675122Y7714850D01*
X22674879Y7436372D01*
X475000Y7436372D01*
X475000Y8861372D01*
X22699879Y8861372D01*
X22806223Y8604000D01*
X23002964Y8406915D01*
X23260150Y8300122D01*
X23538628Y8299879D01*
X23796000Y8406223D01*
X23993085Y8602964D01*
X24099878Y8860150D01*
X24100121Y9138628D01*
X23993777Y9396000D01*
X23828694Y9561372D01*
X35199879Y9561372D01*
X35306223Y9304000D01*
X35459963Y9149991D01*
X35406915Y9097036D01*
X35300122Y8839850D01*
X35299879Y8561372D01*
X35406223Y8304000D01*
X35602964Y8106915D01*
X35860150Y8000122D01*
X36138628Y7999879D01*
X36396000Y8106223D01*
X36593085Y8302964D01*
X36699878Y8560150D01*
X36700121Y8838628D01*
X36593777Y9096000D01*
X36458348Y9231666D01*
X43349853Y9231666D01*
X43478985Y8919143D01*
X43717885Y8679826D01*
X44030183Y8550148D01*
X44368334Y8549853D01*
X44680857Y8678985D01*
X44920174Y8917885D01*
X45049852Y9230183D01*
X45050147Y9568334D01*
X44921015Y9880857D01*
X44682115Y10120174D01*
X44369817Y10249852D01*
X44031666Y10250147D01*
X43719143Y10121015D01*
X43479826Y9882115D01*
X43350148Y9569817D01*
X43349853Y9231666D01*
X36458348Y9231666D01*
X36440037Y9250009D01*
X36493085Y9302964D01*
X36599878Y9560150D01*
X36600121Y9838628D01*
X36493777Y10096000D01*
X36297036Y10293085D01*
X36039850Y10399878D01*
X35761372Y10400121D01*
X35504000Y10293777D01*
X35306915Y10097036D01*
X35200122Y9839850D01*
X35199879Y9561372D01*
X23828694Y9561372D01*
X23797036Y9593085D01*
X23539850Y9699878D01*
X23261372Y9700121D01*
X23004000Y9593777D01*
X22806915Y9397036D01*
X22700122Y9139850D01*
X22699879Y8861372D01*
X475000Y8861372D01*
X475000Y11231666D01*
X9349853Y11231666D01*
X9478985Y10919143D01*
X9717885Y10679826D01*
X9789503Y10650087D01*
X9719143Y10621015D01*
X9479826Y10382115D01*
X9350148Y10069817D01*
X9349853Y9731666D01*
X9478985Y9419143D01*
X9717885Y9179826D01*
X10030183Y9050148D01*
X10368334Y9049853D01*
X10680857Y9178985D01*
X10920174Y9417885D01*
X11049852Y9730183D01*
X11050147Y10068334D01*
X10921015Y10380857D01*
X10682115Y10620174D01*
X10610497Y10649913D01*
X10680857Y10678985D01*
X10920174Y10917885D01*
X10942343Y10971274D01*
X19649888Y10971274D01*
X19748636Y10732286D01*
X19931324Y10549278D01*
X20170140Y10450113D01*
X20428726Y10449888D01*
X20667714Y10548636D01*
X20780647Y10661372D01*
X48399879Y10661372D01*
X48506223Y10404000D01*
X48702964Y10206915D01*
X48960150Y10100122D01*
X49238628Y10099879D01*
X49496000Y10206223D01*
X49693085Y10402964D01*
X49799878Y10660150D01*
X49800121Y10938628D01*
X49693777Y11196000D01*
X49497036Y11393085D01*
X49239850Y11499878D01*
X48961372Y11500121D01*
X48704000Y11393777D01*
X48506915Y11197036D01*
X48400122Y10939850D01*
X48399879Y10661372D01*
X20780647Y10661372D01*
X20850722Y10731324D01*
X20949887Y10970140D01*
X20950112Y11228726D01*
X20851364Y11467714D01*
X20668676Y11650722D01*
X20429860Y11749887D01*
X20171274Y11750112D01*
X19932286Y11651364D01*
X19749278Y11468676D01*
X19650113Y11229860D01*
X19649888Y10971274D01*
X10942343Y10971274D01*
X11049852Y11230183D01*
X11050147Y11568334D01*
X10921015Y11880857D01*
X10840641Y11961372D01*
X34099879Y11961372D01*
X34206223Y11704000D01*
X34402964Y11506915D01*
X34660150Y11400122D01*
X34938628Y11399879D01*
X35196000Y11506223D01*
X35393085Y11702964D01*
X35499878Y11960150D01*
X35500121Y12238628D01*
X35393777Y12496000D01*
X35197036Y12693085D01*
X34939850Y12799878D01*
X34661372Y12800121D01*
X34404000Y12693777D01*
X34206915Y12497036D01*
X34100122Y12239850D01*
X34099879Y11961372D01*
X10840641Y11961372D01*
X10682115Y12120174D01*
X10369817Y12249852D01*
X10031666Y12250147D01*
X9719143Y12121015D01*
X9479826Y11882115D01*
X9350148Y11569817D01*
X9349853Y11231666D01*
X475000Y11231666D01*
X475000Y13770806D01*
X578985Y13519143D01*
X817885Y13279826D01*
X1130183Y13150148D01*
X1468334Y13149853D01*
X1780857Y13278985D01*
X2020174Y13517885D01*
X2149852Y13830183D01*
X2150147Y14168334D01*
X2070386Y14361372D01*
X15099879Y14361372D01*
X15206223Y14104000D01*
X15402964Y13906915D01*
X15660150Y13800122D01*
X15938628Y13799879D01*
X16196000Y13906223D01*
X16350096Y14060050D01*
X16502964Y13906915D01*
X16760150Y13800122D01*
X17038628Y13799879D01*
X17296000Y13906223D01*
X17493085Y14102964D01*
X17599878Y14360150D01*
X17599879Y14361372D01*
X17899879Y14361372D01*
X18006223Y14104000D01*
X18202964Y13906915D01*
X18460150Y13800122D01*
X18738628Y13799879D01*
X18996000Y13906223D01*
X19193085Y14102964D01*
X19299878Y14360150D01*
X19299879Y14361372D01*
X19599879Y14361372D01*
X19706223Y14104000D01*
X19902964Y13906915D01*
X20160150Y13800122D01*
X20438628Y13799879D01*
X20696000Y13906223D01*
X20893085Y14102964D01*
X20946526Y14231666D01*
X21649853Y14231666D01*
X21778985Y13919143D01*
X22017885Y13679826D01*
X22330183Y13550148D01*
X22668334Y13549853D01*
X22980857Y13678985D01*
X23220174Y13917885D01*
X23349852Y14230183D01*
X23350147Y14568334D01*
X23221015Y14880857D01*
X23070469Y15031666D01*
X23349853Y15031666D01*
X23478985Y14719143D01*
X23717885Y14479826D01*
X24030183Y14350148D01*
X24368334Y14349853D01*
X24680857Y14478985D01*
X24920174Y14717885D01*
X25049852Y15030183D01*
X25049853Y15031666D01*
X36549853Y15031666D01*
X36678985Y14719143D01*
X36917885Y14479826D01*
X37230183Y14350148D01*
X37568334Y14349853D01*
X37880857Y14478985D01*
X38120174Y14717885D01*
X38249852Y15030183D01*
X38250147Y15368334D01*
X38121015Y15680857D01*
X37882115Y15920174D01*
X37703806Y15994215D01*
X59629628Y15994215D01*
X59956256Y15203714D01*
X60560533Y14598381D01*
X61350462Y14270374D01*
X62205785Y14269628D01*
X62996286Y14596256D01*
X63601619Y15200533D01*
X63929626Y15990462D01*
X63930372Y16845785D01*
X63603744Y17636286D01*
X62999467Y18241619D01*
X62209538Y18569626D01*
X61354215Y18570372D01*
X60563714Y18243744D01*
X59958381Y17639467D01*
X59630374Y16849538D01*
X59629628Y15994215D01*
X37703806Y15994215D01*
X37569817Y16049852D01*
X37231666Y16050147D01*
X36919143Y15921015D01*
X36679826Y15682115D01*
X36550148Y15369817D01*
X36549853Y15031666D01*
X25049853Y15031666D01*
X25050147Y15368334D01*
X24921015Y15680857D01*
X24682115Y15920174D01*
X24369817Y16049852D01*
X24031666Y16050147D01*
X23719143Y15921015D01*
X23479826Y15682115D01*
X23350148Y15369817D01*
X23349853Y15031666D01*
X23070469Y15031666D01*
X22982115Y15120174D01*
X22669817Y15249852D01*
X22331666Y15250147D01*
X22019143Y15121015D01*
X21779826Y14882115D01*
X21650148Y14569817D01*
X21649853Y14231666D01*
X20946526Y14231666D01*
X20999878Y14360150D01*
X21000121Y14638628D01*
X20893777Y14896000D01*
X20697036Y15093085D01*
X20439850Y15199878D01*
X20161372Y15200121D01*
X19904000Y15093777D01*
X19706915Y14897036D01*
X19600122Y14639850D01*
X19599879Y14361372D01*
X19299879Y14361372D01*
X19300121Y14638628D01*
X19193777Y14896000D01*
X18997036Y15093085D01*
X18739850Y15199878D01*
X18461372Y15200121D01*
X18204000Y15093777D01*
X18006915Y14897036D01*
X17900122Y14639850D01*
X17899879Y14361372D01*
X17599879Y14361372D01*
X17600121Y14638628D01*
X17493777Y14896000D01*
X17297036Y15093085D01*
X17039850Y15199878D01*
X16761372Y15200121D01*
X16504000Y15093777D01*
X16349904Y14939950D01*
X16197036Y15093085D01*
X15939850Y15199878D01*
X15661372Y15200121D01*
X15404000Y15093777D01*
X15206915Y14897036D01*
X15100122Y14639850D01*
X15099879Y14361372D01*
X2070386Y14361372D01*
X2021015Y14480857D01*
X1782115Y14720174D01*
X1524090Y14827316D01*
X1649852Y15130183D01*
X1649966Y15261372D01*
X8199879Y15261372D01*
X8306223Y15004000D01*
X8502964Y14806915D01*
X8760150Y14700122D01*
X9038628Y14699879D01*
X9296000Y14806223D01*
X9493085Y15002964D01*
X9599878Y15260150D01*
X9600121Y15538628D01*
X9549405Y15661372D01*
X11099879Y15661372D01*
X11206223Y15404000D01*
X11402964Y15206915D01*
X11660150Y15100122D01*
X11938628Y15099879D01*
X12196000Y15206223D01*
X12393085Y15402964D01*
X12499878Y15660150D01*
X12500121Y15938628D01*
X12393777Y16196000D01*
X12197036Y16393085D01*
X11939850Y16499878D01*
X11661372Y16500121D01*
X11404000Y16393777D01*
X11206915Y16197036D01*
X11100122Y15939850D01*
X11099879Y15661372D01*
X9549405Y15661372D01*
X9493777Y15796000D01*
X9297036Y15993085D01*
X9039850Y16099878D01*
X8761372Y16100121D01*
X8504000Y15993777D01*
X8306915Y15797036D01*
X8200122Y15539850D01*
X8199879Y15261372D01*
X1649966Y15261372D01*
X1650147Y15468334D01*
X1521015Y15780857D01*
X1282115Y16020174D01*
X969817Y16149852D01*
X631666Y16150147D01*
X475000Y16085414D01*
X475000Y16110177D01*
X475350Y16110247D01*
X475351Y16110247D01*
X646579Y16181172D01*
X971000Y16397944D01*
X971003Y16397945D01*
X1102055Y16528997D01*
X1318828Y16853421D01*
X1389753Y17024649D01*
X1389753Y17024650D01*
X1465873Y17407332D01*
X1465873Y17454115D01*
X1475000Y17500000D01*
X1475000Y17599632D01*
X1475450Y17598959D01*
X1751210Y17414702D01*
X2075946Y17350108D01*
X2031666Y17350147D01*
X1719143Y17221015D01*
X1479826Y16982115D01*
X1350148Y16669817D01*
X1349853Y16331666D01*
X1478985Y16019143D01*
X1717885Y15779826D01*
X2030183Y15650148D01*
X2368334Y15649853D01*
X2680857Y15778985D01*
X2920174Y16017885D01*
X3049852Y16330183D01*
X3050147Y16668334D01*
X2921015Y16980857D01*
X2682115Y17220174D01*
X2369817Y17349852D01*
X2200168Y17350000D01*
X2823509Y17350000D01*
X3148790Y17414702D01*
X3424550Y17598959D01*
X3599888Y17861372D01*
X13199879Y17861372D01*
X13306223Y17604000D01*
X13502964Y17406915D01*
X13760150Y17300122D01*
X14038628Y17299879D01*
X14296000Y17406223D01*
X14493085Y17602964D01*
X14599878Y17860150D01*
X14600121Y18138628D01*
X14561679Y18231666D01*
X36549853Y18231666D01*
X36678985Y17919143D01*
X36917885Y17679826D01*
X37230183Y17550148D01*
X37568334Y17549853D01*
X37880857Y17678985D01*
X38120174Y17917885D01*
X38199980Y18110079D01*
X38302964Y18006915D01*
X38560150Y17900122D01*
X38838628Y17899879D01*
X39096000Y18006223D01*
X39200009Y18110050D01*
X39302964Y18006915D01*
X39560150Y17900122D01*
X39838628Y17899879D01*
X40096000Y18006223D01*
X40293085Y18202964D01*
X40399878Y18460150D01*
X40400121Y18738628D01*
X40293777Y18996000D01*
X40097036Y19193085D01*
X39839850Y19299878D01*
X39561372Y19300121D01*
X39304000Y19193777D01*
X39199991Y19089950D01*
X39097036Y19193085D01*
X38839850Y19299878D01*
X38561372Y19300121D01*
X38304000Y19193777D01*
X38106915Y18997036D01*
X38076987Y18924962D01*
X37882115Y19120174D01*
X37569817Y19249852D01*
X37231666Y19250147D01*
X36919143Y19121015D01*
X36679826Y18882115D01*
X36550148Y18569817D01*
X36549853Y18231666D01*
X14561679Y18231666D01*
X14493777Y18396000D01*
X14297036Y18593085D01*
X14039850Y18699878D01*
X13761372Y18700121D01*
X13504000Y18593777D01*
X13306915Y18397036D01*
X13200122Y18139850D01*
X13199879Y17861372D01*
X3599888Y17861372D01*
X3608807Y17874719D01*
X3673509Y18200000D01*
X3608807Y18525281D01*
X3424550Y18801041D01*
X3148790Y18985298D01*
X2823509Y19050000D01*
X2076491Y19050000D01*
X1751210Y18985298D01*
X1475450Y18801041D01*
X1475000Y18800368D01*
X1475000Y19561372D01*
X13199879Y19561372D01*
X13306223Y19304000D01*
X13502964Y19106915D01*
X13760150Y19000122D01*
X14038628Y18999879D01*
X14296000Y19106223D01*
X14493085Y19302964D01*
X14599878Y19560150D01*
X14600121Y19838628D01*
X14493777Y20096000D01*
X14297036Y20293085D01*
X14039850Y20399878D01*
X13761372Y20400121D01*
X13504000Y20293777D01*
X13306915Y20097036D01*
X13200122Y19839850D01*
X13199879Y19561372D01*
X1475000Y19561372D01*
X1475000Y20461372D01*
X14899879Y20461372D01*
X15006223Y20204000D01*
X15202964Y20006915D01*
X15460150Y19900122D01*
X15738628Y19899879D01*
X15996000Y20006223D01*
X15999922Y20010138D01*
X16102964Y19906915D01*
X16360150Y19800122D01*
X16638628Y19799879D01*
X16896000Y19906223D01*
X17093085Y20102964D01*
X17199878Y20360150D01*
X17200121Y20638628D01*
X17093777Y20896000D01*
X16897036Y21093085D01*
X16639850Y21199878D01*
X16361372Y21200121D01*
X16104000Y21093777D01*
X16100078Y21089862D01*
X15997036Y21193085D01*
X15739850Y21299878D01*
X15461372Y21300121D01*
X15204000Y21193777D01*
X15006915Y20997036D01*
X14900122Y20739850D01*
X14899879Y20461372D01*
X1475000Y20461372D01*
X1475000Y21631666D01*
X9649853Y21631666D01*
X9778985Y21319143D01*
X10017885Y21079826D01*
X10330183Y20950148D01*
X10668334Y20949853D01*
X10980857Y21078985D01*
X11220174Y21317885D01*
X11242343Y21371274D01*
X17849888Y21371274D01*
X17948636Y21132286D01*
X18131324Y20949278D01*
X18370140Y20850113D01*
X18628726Y20849888D01*
X18867714Y20948636D01*
X19050722Y21131324D01*
X19149887Y21370140D01*
X19150112Y21628726D01*
X19135297Y21664581D01*
X19170140Y21650113D01*
X19428726Y21649888D01*
X19464581Y21664703D01*
X19450113Y21629860D01*
X19449888Y21371274D01*
X19548636Y21132286D01*
X19580761Y21100104D01*
X19549278Y21068676D01*
X19450113Y20829860D01*
X19449888Y20571274D01*
X19548636Y20332286D01*
X19731324Y20149278D01*
X19970140Y20050113D01*
X20228726Y20049888D01*
X20467714Y20148636D01*
X20650722Y20331324D01*
X20749887Y20570140D01*
X20750112Y20828726D01*
X20735297Y20864581D01*
X20770140Y20850113D01*
X21028726Y20849888D01*
X21226643Y20931666D01*
X26249853Y20931666D01*
X26378985Y20619143D01*
X26617885Y20379826D01*
X26930183Y20250148D01*
X27268334Y20249853D01*
X27580857Y20378985D01*
X27820174Y20617885D01*
X27949852Y20930183D01*
X27950147Y21268334D01*
X27821015Y21580857D01*
X27582115Y21820174D01*
X27269817Y21949852D01*
X26931666Y21950147D01*
X26619143Y21821015D01*
X26379826Y21582115D01*
X26250148Y21269817D01*
X26249853Y20931666D01*
X21226643Y20931666D01*
X21267714Y20948636D01*
X21450722Y21131324D01*
X21549887Y21370140D01*
X21550112Y21628726D01*
X21535297Y21664581D01*
X21570140Y21650113D01*
X21828726Y21649888D01*
X22067714Y21748636D01*
X22250722Y21931324D01*
X22349887Y22170140D01*
X22350112Y22428726D01*
X22251364Y22667714D01*
X22068676Y22850722D01*
X21829860Y22949887D01*
X21571274Y22950112D01*
X21332286Y22851364D01*
X21300104Y22819239D01*
X21268676Y22850722D01*
X21029860Y22949887D01*
X20771274Y22950112D01*
X20532286Y22851364D01*
X20500104Y22819239D01*
X20468676Y22850722D01*
X20229860Y22949887D01*
X19971274Y22950112D01*
X19732286Y22851364D01*
X19700104Y22819239D01*
X19668676Y22850722D01*
X19429860Y22949887D01*
X19171274Y22950112D01*
X18932286Y22851364D01*
X18749278Y22668676D01*
X18650113Y22429860D01*
X18649888Y22171274D01*
X18664703Y22135419D01*
X18629860Y22149887D01*
X18371274Y22150112D01*
X18132286Y22051364D01*
X17949278Y21868676D01*
X17850113Y21629860D01*
X17849888Y21371274D01*
X11242343Y21371274D01*
X11349852Y21630183D01*
X11350147Y21968334D01*
X11221015Y22280857D01*
X10982115Y22520174D01*
X10669817Y22649852D01*
X10331666Y22650147D01*
X10019143Y22521015D01*
X9779826Y22282115D01*
X9650148Y21969817D01*
X9649853Y21631666D01*
X1475000Y21631666D01*
X1475000Y24199632D01*
X1475450Y24198959D01*
X1751210Y24014702D01*
X2076491Y23950000D01*
X2823509Y23950000D01*
X3148790Y24014702D01*
X3424550Y24198959D01*
X3608807Y24474719D01*
X3673509Y24800000D01*
X3608807Y25125281D01*
X3537723Y25231666D01*
X5949853Y25231666D01*
X6078985Y24919143D01*
X6097919Y24900176D01*
X6079826Y24882115D01*
X5950148Y24569817D01*
X5949853Y24231666D01*
X6078985Y23919143D01*
X6147919Y23850089D01*
X6079826Y23782115D01*
X5950148Y23469817D01*
X5949853Y23131666D01*
X6078985Y22819143D01*
X6317885Y22579826D01*
X6630183Y22450148D01*
X6968334Y22449853D01*
X7280857Y22578985D01*
X7463562Y22761372D01*
X15899879Y22761372D01*
X16006223Y22504000D01*
X16202964Y22306915D01*
X16460150Y22200122D01*
X16738628Y22199879D01*
X16996000Y22306223D01*
X17193085Y22502964D01*
X17247277Y22633472D01*
X17331324Y22549278D01*
X17570140Y22450113D01*
X17828726Y22449888D01*
X18067714Y22548636D01*
X18250722Y22731324D01*
X18349887Y22970140D01*
X18350112Y23228726D01*
X18251364Y23467714D01*
X18219239Y23499896D01*
X18250722Y23531324D01*
X18349887Y23770140D01*
X18350112Y24028726D01*
X18251364Y24267714D01*
X18068676Y24450722D01*
X17829860Y24549887D01*
X17571274Y24550112D01*
X17332286Y24451364D01*
X17149278Y24268676D01*
X17050113Y24029860D01*
X17049888Y23771274D01*
X17148636Y23532286D01*
X17180761Y23500104D01*
X17149278Y23468676D01*
X17111712Y23378208D01*
X16997036Y23493085D01*
X16739850Y23599878D01*
X16461372Y23600121D01*
X16204000Y23493777D01*
X16006915Y23297036D01*
X15900122Y23039850D01*
X15899879Y22761372D01*
X7463562Y22761372D01*
X7520174Y22817885D01*
X7649852Y23130183D01*
X7650147Y23468334D01*
X7529067Y23761372D01*
X13099879Y23761372D01*
X13206223Y23504000D01*
X13402964Y23306915D01*
X13660150Y23200122D01*
X13938628Y23199879D01*
X14196000Y23306223D01*
X14393085Y23502964D01*
X14499878Y23760150D01*
X14500121Y24038628D01*
X14393777Y24296000D01*
X14197036Y24493085D01*
X14008737Y24571274D01*
X18649888Y24571274D01*
X18748636Y24332286D01*
X18780761Y24300104D01*
X18749278Y24268676D01*
X18650113Y24029860D01*
X18649888Y23771274D01*
X18748636Y23532286D01*
X18931324Y23349278D01*
X19170140Y23250113D01*
X19428726Y23249888D01*
X19667714Y23348636D01*
X19850722Y23531324D01*
X19949887Y23770140D01*
X19949887Y23771274D01*
X21049888Y23771274D01*
X21148636Y23532286D01*
X21331324Y23349278D01*
X21570140Y23250113D01*
X21828726Y23249888D01*
X22067714Y23348636D01*
X22250722Y23531324D01*
X22263199Y23561372D01*
X24699879Y23561372D01*
X24806223Y23304000D01*
X25002964Y23106915D01*
X25260150Y23000122D01*
X25466598Y22999942D01*
X25400122Y22839850D01*
X25399879Y22561372D01*
X25506223Y22304000D01*
X25702964Y22106915D01*
X25960150Y22000122D01*
X26238628Y21999879D01*
X26496000Y22106223D01*
X26651420Y22261372D01*
X35699879Y22261372D01*
X35806223Y22004000D01*
X36002964Y21806915D01*
X36260150Y21700122D01*
X36538628Y21699879D01*
X36796000Y21806223D01*
X36993085Y22002964D01*
X37099878Y22260150D01*
X37100121Y22538628D01*
X36993777Y22796000D01*
X36797036Y22993085D01*
X36539850Y23099878D01*
X36261372Y23100121D01*
X36004000Y22993777D01*
X35806915Y22797036D01*
X35700122Y22539850D01*
X35699879Y22261372D01*
X26651420Y22261372D01*
X26693085Y22302964D01*
X26799878Y22560150D01*
X26800121Y22838628D01*
X26693777Y23096000D01*
X26497036Y23293085D01*
X26332583Y23361372D01*
X30399879Y23361372D01*
X30506223Y23104000D01*
X30702964Y22906915D01*
X30960150Y22800122D01*
X31238628Y22799879D01*
X31496000Y22906223D01*
X31693085Y23102964D01*
X31799878Y23360150D01*
X31800121Y23638628D01*
X31740655Y23782548D01*
X55399774Y23782548D01*
X55597271Y23304571D01*
X55962647Y22938556D01*
X56368985Y22769830D01*
X55964571Y22602729D01*
X55598556Y22237353D01*
X55400226Y21759721D01*
X55399774Y21242548D01*
X55597271Y20764571D01*
X55962647Y20398556D01*
X56440279Y20200226D01*
X56957452Y20199774D01*
X57435429Y20397271D01*
X57801444Y20762647D01*
X57999774Y21240279D01*
X58000226Y21757452D01*
X57802729Y22235429D01*
X57437353Y22601444D01*
X57031015Y22770170D01*
X57435429Y22937271D01*
X57801444Y23302647D01*
X57999774Y23780279D01*
X58000226Y24297452D01*
X57802729Y24775429D01*
X57437353Y25141444D01*
X56959721Y25339774D01*
X56442548Y25340226D01*
X55964571Y25142729D01*
X55598556Y24777353D01*
X55400226Y24299721D01*
X55399774Y23782548D01*
X31740655Y23782548D01*
X31693777Y23896000D01*
X31497036Y24093085D01*
X31239850Y24199878D01*
X30961372Y24200121D01*
X30704000Y24093777D01*
X30506915Y23897036D01*
X30400122Y23639850D01*
X30399879Y23361372D01*
X26332583Y23361372D01*
X26239850Y23399878D01*
X26033402Y23400058D01*
X26099878Y23560150D01*
X26100121Y23838628D01*
X25993777Y24096000D01*
X25797036Y24293085D01*
X25539850Y24399878D01*
X25261372Y24400121D01*
X25004000Y24293777D01*
X24806915Y24097036D01*
X24700122Y23839850D01*
X24699879Y23561372D01*
X22263199Y23561372D01*
X22349887Y23770140D01*
X22350112Y24028726D01*
X22251364Y24267714D01*
X22068676Y24450722D01*
X21829860Y24549887D01*
X21571274Y24550112D01*
X21332286Y24451364D01*
X21149278Y24268676D01*
X21050113Y24029860D01*
X21049888Y23771274D01*
X19949887Y23771274D01*
X19950112Y24028726D01*
X19851364Y24267714D01*
X19819239Y24299896D01*
X19850722Y24331324D01*
X19949887Y24570140D01*
X19950112Y24828726D01*
X19851364Y25067714D01*
X19668676Y25250722D01*
X19429860Y25349887D01*
X19171274Y25350112D01*
X18932286Y25251364D01*
X18749278Y25068676D01*
X18650113Y24829860D01*
X18649888Y24571274D01*
X14008737Y24571274D01*
X13939850Y24599878D01*
X13661372Y24600121D01*
X13404000Y24493777D01*
X13206915Y24297036D01*
X13100122Y24039850D01*
X13099879Y23761372D01*
X7529067Y23761372D01*
X7521015Y23780857D01*
X7452081Y23849911D01*
X7520174Y23917885D01*
X7649852Y24230183D01*
X7650147Y24568334D01*
X7521015Y24880857D01*
X7502081Y24899824D01*
X7520174Y24917885D01*
X7649852Y25230183D01*
X7649966Y25361372D01*
X13099879Y25361372D01*
X13206223Y25104000D01*
X13402964Y24906915D01*
X13660150Y24800122D01*
X13938628Y24799879D01*
X14196000Y24906223D01*
X14393085Y25102964D01*
X14499878Y25360150D01*
X14500121Y25638628D01*
X14393777Y25896000D01*
X14197036Y26093085D01*
X14049819Y26154215D01*
X59629628Y26154215D01*
X59956256Y25363714D01*
X60560533Y24758381D01*
X61350462Y24430374D01*
X62205785Y24429628D01*
X62996286Y24756256D01*
X63601619Y25360533D01*
X63929626Y26150462D01*
X63930372Y27005785D01*
X63603744Y27796286D01*
X62999467Y28401619D01*
X62209538Y28729626D01*
X61354215Y28730372D01*
X60563714Y28403744D01*
X59958381Y27799467D01*
X59630374Y27009538D01*
X59629628Y26154215D01*
X14049819Y26154215D01*
X13939850Y26199878D01*
X13661372Y26200121D01*
X13404000Y26093777D01*
X13206915Y25897036D01*
X13100122Y25639850D01*
X13099879Y25361372D01*
X7649966Y25361372D01*
X7650147Y25568334D01*
X7521015Y25880857D01*
X7282115Y26120174D01*
X6969817Y26249852D01*
X6631666Y26250147D01*
X6319143Y26121015D01*
X6079826Y25882115D01*
X5950148Y25569817D01*
X5949853Y25231666D01*
X3537723Y25231666D01*
X3424550Y25401041D01*
X3148790Y25585298D01*
X2823509Y25650000D01*
X2076491Y25650000D01*
X1751210Y25585298D01*
X1475450Y25401041D01*
X1475000Y25400368D01*
X1475000Y25500000D01*
X1465873Y25545885D01*
X1465873Y25592668D01*
X1389753Y25975350D01*
X1389753Y25975352D01*
X1318828Y26146579D01*
X1102055Y26471003D01*
X971003Y26602055D01*
X971000Y26602056D01*
X646579Y26818828D01*
X475351Y26889753D01*
X475350Y26889753D01*
X475000Y26889823D01*
X475000Y27061372D01*
X13099879Y27061372D01*
X13206223Y26804000D01*
X13402964Y26606915D01*
X13660150Y26500122D01*
X13938628Y26499879D01*
X14196000Y26606223D01*
X14393085Y26802964D01*
X14499878Y27060150D01*
X14500121Y27338628D01*
X14490724Y27361372D01*
X21699879Y27361372D01*
X21806223Y27104000D01*
X22002964Y26906915D01*
X22260150Y26800122D01*
X22538628Y26799879D01*
X22796000Y26906223D01*
X22993085Y27102964D01*
X23099878Y27360150D01*
X23100121Y27638628D01*
X23049405Y27761372D01*
X26399879Y27761372D01*
X26506223Y27504000D01*
X26702964Y27306915D01*
X26960150Y27200122D01*
X27238628Y27199879D01*
X27496000Y27306223D01*
X27693085Y27502964D01*
X27799878Y27760150D01*
X27800121Y28038628D01*
X27693777Y28296000D01*
X27497036Y28493085D01*
X27239850Y28599878D01*
X26961372Y28600121D01*
X26704000Y28493777D01*
X26506915Y28297036D01*
X26400122Y28039850D01*
X26399879Y27761372D01*
X23049405Y27761372D01*
X22993777Y27896000D01*
X22797036Y28093085D01*
X22539850Y28199878D01*
X22261372Y28200121D01*
X22004000Y28093777D01*
X21806915Y27897036D01*
X21700122Y27639850D01*
X21699879Y27361372D01*
X14490724Y27361372D01*
X14393777Y27596000D01*
X14197036Y27793085D01*
X13939850Y27899878D01*
X13661372Y27900121D01*
X13404000Y27793777D01*
X13206915Y27597036D01*
X13100122Y27339850D01*
X13099879Y27061372D01*
X475000Y27061372D01*
X475000Y28961372D01*
X15499879Y28961372D01*
X15606223Y28704000D01*
X15802964Y28506915D01*
X16060150Y28400122D01*
X16338628Y28399879D01*
X16596000Y28506223D01*
X16793085Y28702964D01*
X16899878Y28960150D01*
X16899966Y29061372D01*
X28199879Y29061372D01*
X28306223Y28804000D01*
X28502964Y28606915D01*
X28760150Y28500122D01*
X29038628Y28499879D01*
X29296000Y28606223D01*
X29493085Y28802964D01*
X29599878Y29060150D01*
X29600121Y29338628D01*
X29493777Y29596000D01*
X29297036Y29793085D01*
X29039850Y29899878D01*
X28761372Y29900121D01*
X28504000Y29793777D01*
X28306915Y29597036D01*
X28200122Y29339850D01*
X28199879Y29061372D01*
X16899966Y29061372D01*
X16900121Y29238628D01*
X16793777Y29496000D01*
X16597036Y29693085D01*
X16339850Y29799878D01*
X16061372Y29800121D01*
X15804000Y29693777D01*
X15606915Y29497036D01*
X15500122Y29239850D01*
X15499879Y28961372D01*
X475000Y28961372D01*
X475000Y30661372D01*
X35199879Y30661372D01*
X35306223Y30404000D01*
X35502964Y30206915D01*
X35760150Y30100122D01*
X35945712Y30099960D01*
X35850148Y29869817D01*
X35849853Y29531666D01*
X35978985Y29219143D01*
X36217885Y28979826D01*
X36530183Y28850148D01*
X36531665Y28850147D01*
X36219143Y28721015D01*
X35979826Y28482115D01*
X35850148Y28169817D01*
X35849853Y27831666D01*
X35978985Y27519143D01*
X36217885Y27279826D01*
X36530183Y27150148D01*
X36868334Y27149853D01*
X37180857Y27278985D01*
X37420174Y27517885D01*
X37549852Y27830183D01*
X37550147Y28168334D01*
X37421015Y28480857D01*
X37340641Y28561372D01*
X41799879Y28561372D01*
X41906223Y28304000D01*
X42102964Y28106915D01*
X42360150Y28000122D01*
X42638628Y27999879D01*
X42896000Y28106223D01*
X43093085Y28302964D01*
X43199878Y28560150D01*
X43200121Y28838628D01*
X43093777Y29096000D01*
X42897036Y29293085D01*
X42639850Y29399878D01*
X42361372Y29400121D01*
X42104000Y29293777D01*
X41906915Y29097036D01*
X41800122Y28839850D01*
X41799879Y28561372D01*
X37340641Y28561372D01*
X37182115Y28720174D01*
X36869817Y28849852D01*
X36868335Y28849853D01*
X37180857Y28978985D01*
X37420174Y29217885D01*
X37549852Y29530183D01*
X37550147Y29868334D01*
X37421015Y30180857D01*
X37182115Y30420174D01*
X36869817Y30549852D01*
X36554193Y30550127D01*
X36599878Y30660150D01*
X36600121Y30938628D01*
X36493777Y31196000D01*
X36297036Y31393085D01*
X36039850Y31499878D01*
X35761372Y31500121D01*
X35504000Y31393777D01*
X35306915Y31197036D01*
X35200122Y30939850D01*
X35199879Y30661372D01*
X475000Y30661372D01*
X475000Y30800000D01*
X16600000Y30800000D01*
X16636346Y30806839D01*
X16669727Y30828319D01*
X16692121Y30861094D01*
X16700000Y30900000D01*
X16700000Y31761372D01*
X18499879Y31761372D01*
X18606223Y31504000D01*
X18802964Y31306915D01*
X19060150Y31200122D01*
X19338628Y31199879D01*
X19596000Y31306223D01*
X19793085Y31502964D01*
X19899878Y31760150D01*
X19899879Y31761372D01*
X27599879Y31761372D01*
X27706223Y31504000D01*
X27902964Y31306915D01*
X28160150Y31200122D01*
X28438628Y31199879D01*
X28696000Y31306223D01*
X28893085Y31502964D01*
X28999878Y31760150D01*
X28999879Y31761372D01*
X42999879Y31761372D01*
X43106223Y31504000D01*
X43302964Y31306915D01*
X43560150Y31200122D01*
X43838628Y31199879D01*
X44096000Y31306223D01*
X44293085Y31502964D01*
X44399878Y31760150D01*
X44400121Y32038628D01*
X44293777Y32296000D01*
X44097036Y32493085D01*
X43839850Y32599878D01*
X43561372Y32600121D01*
X43304000Y32493777D01*
X43106915Y32297036D01*
X43000122Y32039850D01*
X42999879Y31761372D01*
X28999879Y31761372D01*
X29000121Y32038628D01*
X28893777Y32296000D01*
X28697036Y32493085D01*
X28439850Y32599878D01*
X28161372Y32600121D01*
X27904000Y32493777D01*
X27706915Y32297036D01*
X27600122Y32039850D01*
X27599879Y31761372D01*
X19899879Y31761372D01*
X19900121Y32038628D01*
X19793777Y32296000D01*
X19597036Y32493085D01*
X19339850Y32599878D01*
X19061372Y32600121D01*
X18804000Y32493777D01*
X18606915Y32297036D01*
X18500122Y32039850D01*
X18499879Y31761372D01*
X16700000Y31761372D01*
X16700000Y33261372D01*
X35699879Y33261372D01*
X35806223Y33004000D01*
X36002964Y32806915D01*
X36260150Y32700122D01*
X36538628Y32699879D01*
X36796000Y32806223D01*
X36993085Y33002964D01*
X37099878Y33260150D01*
X37099966Y33361372D01*
X37699879Y33361372D01*
X37806223Y33104000D01*
X37950001Y32959971D01*
X37900122Y32839850D01*
X37899879Y32561372D01*
X38006223Y32304000D01*
X38202964Y32106915D01*
X38460150Y32000122D01*
X38738628Y31999879D01*
X38996000Y32106223D01*
X39193085Y32302964D01*
X39299878Y32560150D01*
X39300053Y32761372D01*
X44199879Y32761372D01*
X44306223Y32504000D01*
X44502964Y32306915D01*
X44760150Y32200122D01*
X45038628Y32199879D01*
X45296000Y32306223D01*
X45493085Y32502964D01*
X45599878Y32760150D01*
X45599966Y32861372D01*
X47399879Y32861372D01*
X47506223Y32604000D01*
X47702964Y32406915D01*
X47960150Y32300122D01*
X48238628Y32299879D01*
X48496000Y32406223D01*
X48693085Y32602964D01*
X48799878Y32860150D01*
X48800121Y33138628D01*
X48693777Y33396000D01*
X48497036Y33593085D01*
X48239850Y33699878D01*
X47961372Y33700121D01*
X47704000Y33593777D01*
X47506915Y33397036D01*
X47400122Y33139850D01*
X47399879Y32861372D01*
X45599966Y32861372D01*
X45600121Y33038628D01*
X45493777Y33296000D01*
X45297036Y33493085D01*
X45039850Y33599878D01*
X44761372Y33600121D01*
X44504000Y33493777D01*
X44306915Y33297036D01*
X44200122Y33039850D01*
X44199879Y32761372D01*
X39300053Y32761372D01*
X39300121Y32838628D01*
X39193777Y33096000D01*
X39049999Y33240029D01*
X39099878Y33360150D01*
X39100009Y33510100D01*
X39231719Y33378160D01*
X39488905Y33271367D01*
X39767383Y33271124D01*
X40024755Y33377468D01*
X40221840Y33574209D01*
X40328633Y33831395D01*
X40328876Y34109873D01*
X40222532Y34367245D01*
X40128570Y34461372D01*
X44999879Y34461372D01*
X45106223Y34204000D01*
X45302964Y34006915D01*
X45560150Y33900122D01*
X45838628Y33899879D01*
X46096000Y34006223D01*
X46293085Y34202964D01*
X46399878Y34460150D01*
X46400121Y34738628D01*
X46293777Y34996000D01*
X46097036Y35193085D01*
X45839850Y35299878D01*
X45561372Y35300121D01*
X45304000Y35193777D01*
X45106915Y34997036D01*
X45000122Y34739850D01*
X44999879Y34461372D01*
X40128570Y34461372D01*
X40025791Y34564330D01*
X39768605Y34671123D01*
X39490127Y34671366D01*
X39232755Y34565022D01*
X39035670Y34368281D01*
X38928877Y34111095D01*
X38928746Y33961145D01*
X38797036Y34093085D01*
X38539850Y34199878D01*
X38261372Y34200121D01*
X38004000Y34093777D01*
X37806915Y33897036D01*
X37700122Y33639850D01*
X37699879Y33361372D01*
X37099966Y33361372D01*
X37100121Y33538628D01*
X36993777Y33796000D01*
X36797036Y33993085D01*
X36539850Y34099878D01*
X36261372Y34100121D01*
X36004000Y33993777D01*
X35806915Y33797036D01*
X35700122Y33539850D01*
X35699879Y33261372D01*
X16700000Y33261372D01*
X16700000Y34000000D01*
X16693161Y34036346D01*
X16671681Y34069727D01*
X16638906Y34092121D01*
X16600000Y34100000D01*
X475000Y34100000D01*
X475000Y34461372D01*
X19599879Y34461372D01*
X19706223Y34204000D01*
X19902964Y34006915D01*
X20160150Y33900122D01*
X20438628Y33899879D01*
X20696000Y34006223D01*
X20893085Y34202964D01*
X20999878Y34460150D01*
X21000121Y34738628D01*
X20893777Y34996000D01*
X20697036Y35193085D01*
X20439850Y35299878D01*
X20161372Y35300121D01*
X19904000Y35193777D01*
X19706915Y34997036D01*
X19600122Y34739850D01*
X19599879Y34461372D01*
X475000Y34461372D01*
X475000Y36061372D01*
X40399879Y36061372D01*
X40506223Y35804000D01*
X40702964Y35606915D01*
X40960150Y35500122D01*
X41238628Y35499879D01*
X41496000Y35606223D01*
X41693085Y35802964D01*
X41799878Y36060150D01*
X41799966Y36161372D01*
X42999879Y36161372D01*
X43106223Y35904000D01*
X43160050Y35850079D01*
X43106915Y35797036D01*
X43000122Y35539850D01*
X42999879Y35261372D01*
X43106223Y35004000D01*
X43302964Y34806915D01*
X43560150Y34700122D01*
X43838628Y34699879D01*
X44096000Y34806223D01*
X44293085Y35002964D01*
X44399878Y35260150D01*
X44400121Y35538628D01*
X44293777Y35796000D01*
X44239950Y35849921D01*
X44293085Y35902964D01*
X44399878Y36160150D01*
X44400121Y36438628D01*
X44293777Y36696000D01*
X44097036Y36893085D01*
X43839850Y36999878D01*
X43561372Y37000121D01*
X43304000Y36893777D01*
X43106915Y36697036D01*
X43000122Y36439850D01*
X42999879Y36161372D01*
X41799966Y36161372D01*
X41800121Y36338628D01*
X41693777Y36596000D01*
X41497036Y36793085D01*
X41239850Y36899878D01*
X40961372Y36900121D01*
X40704000Y36793777D01*
X40506915Y36597036D01*
X40400122Y36339850D01*
X40399879Y36061372D01*
X475000Y36061372D01*
X475000Y37361372D01*
X43999879Y37361372D01*
X44106223Y37104000D01*
X44302964Y36906915D01*
X44560150Y36800122D01*
X44838628Y36799879D01*
X45096000Y36906223D01*
X45293085Y37102964D01*
X45399878Y37360150D01*
X45400121Y37638628D01*
X45293777Y37896000D01*
X45121772Y38068306D01*
X54139016Y38068306D01*
X54152016Y37935976D01*
X54394347Y37845742D01*
X54652763Y37855113D01*
X54847984Y37935976D01*
X54860984Y38068306D01*
X57139016Y38068306D01*
X57152016Y37935976D01*
X57394347Y37845742D01*
X57652763Y37855113D01*
X57847984Y37935976D01*
X57860984Y38068306D01*
X57500000Y38429289D01*
X57139016Y38068306D01*
X54860984Y38068306D01*
X54500000Y38429289D01*
X54139016Y38068306D01*
X45121772Y38068306D01*
X45097036Y38093085D01*
X44839850Y38199878D01*
X44561372Y38200121D01*
X44304000Y38093777D01*
X44106915Y37897036D01*
X44000122Y37639850D01*
X43999879Y37361372D01*
X475000Y37361372D01*
X475000Y38953217D01*
X504976Y39103921D01*
X1499654Y39103921D01*
X1803494Y38368571D01*
X2365612Y37805471D01*
X3100430Y37500348D01*
X3896079Y37499654D01*
X4631429Y37803494D01*
X5194529Y38365612D01*
X5294202Y38605653D01*
X53845742Y38605653D01*
X53855113Y38347237D01*
X53935976Y38152016D01*
X54068306Y38139016D01*
X54429289Y38500000D01*
X54570711Y38500000D01*
X54931694Y38139016D01*
X55064024Y38152016D01*
X55154258Y38394347D01*
X55146596Y38605653D01*
X56845742Y38605653D01*
X56855113Y38347237D01*
X56935976Y38152016D01*
X57068306Y38139016D01*
X57429289Y38500000D01*
X57570711Y38500000D01*
X57931694Y38139016D01*
X58064024Y38152016D01*
X58154258Y38394347D01*
X58144887Y38652763D01*
X58064024Y38847984D01*
X57931694Y38860984D01*
X57570711Y38500000D01*
X57429289Y38500000D01*
X57068306Y38860984D01*
X56935976Y38847984D01*
X56845742Y38605653D01*
X55146596Y38605653D01*
X55144887Y38652763D01*
X55064024Y38847984D01*
X54931694Y38860984D01*
X54570711Y38500000D01*
X54429289Y38500000D01*
X54068306Y38860984D01*
X53935976Y38847984D01*
X53845742Y38605653D01*
X5294202Y38605653D01*
X5499652Y39100430D01*
X5499966Y39461372D01*
X23999879Y39461372D01*
X24106223Y39204000D01*
X24302964Y39006915D01*
X24560150Y38900122D01*
X24838628Y38899879D01*
X25096000Y39006223D01*
X25293085Y39202964D01*
X25358861Y39361372D01*
X35099879Y39361372D01*
X35206223Y39104000D01*
X35402964Y38906915D01*
X35660150Y38800122D01*
X35938628Y38799879D01*
X36196000Y38906223D01*
X36221515Y38931694D01*
X54139016Y38931694D01*
X54500000Y38570711D01*
X54860984Y38931694D01*
X57139016Y38931694D01*
X57500000Y38570711D01*
X57860984Y38931694D01*
X57847984Y39064024D01*
X57740838Y39103921D01*
X64499654Y39103921D01*
X64803494Y38368571D01*
X65365612Y37805471D01*
X66100430Y37500348D01*
X66896079Y37499654D01*
X67631429Y37803494D01*
X68194529Y38365612D01*
X68499652Y39100430D01*
X68500346Y39896079D01*
X68196506Y40631429D01*
X67634388Y41194529D01*
X66899570Y41499652D01*
X66103921Y41500346D01*
X65368571Y41196506D01*
X64805471Y40634388D01*
X64500348Y39899570D01*
X64499654Y39103921D01*
X57740838Y39103921D01*
X57605653Y39154258D01*
X57347237Y39144887D01*
X57152016Y39064024D01*
X57139016Y38931694D01*
X54860984Y38931694D01*
X54847984Y39064024D01*
X54605653Y39154258D01*
X54347237Y39144887D01*
X54152016Y39064024D01*
X54139016Y38931694D01*
X36221515Y38931694D01*
X36393085Y39102964D01*
X36499878Y39360150D01*
X36500059Y39568306D01*
X55639016Y39568306D01*
X55652016Y39435976D01*
X55894347Y39345742D01*
X56152763Y39355113D01*
X56347984Y39435976D01*
X56360984Y39568306D01*
X56000000Y39929289D01*
X55639016Y39568306D01*
X36500059Y39568306D01*
X36500121Y39638628D01*
X36393777Y39896000D01*
X36197036Y40093085D01*
X36166769Y40105653D01*
X55345742Y40105653D01*
X55355113Y39847237D01*
X55435976Y39652016D01*
X55568306Y39639016D01*
X55929289Y40000000D01*
X56070711Y40000000D01*
X56431694Y39639016D01*
X56564024Y39652016D01*
X56654258Y39894347D01*
X56644887Y40152763D01*
X56564024Y40347984D01*
X56431694Y40360984D01*
X56070711Y40000000D01*
X55929289Y40000000D01*
X55568306Y40360984D01*
X55435976Y40347984D01*
X55345742Y40105653D01*
X36166769Y40105653D01*
X35939850Y40199878D01*
X35661372Y40200121D01*
X35404000Y40093777D01*
X35206915Y39897036D01*
X35100122Y39639850D01*
X35099879Y39361372D01*
X25358861Y39361372D01*
X25399878Y39460150D01*
X25400121Y39738628D01*
X25293777Y39996000D01*
X25097036Y40193085D01*
X24839850Y40299878D01*
X24561372Y40300121D01*
X24304000Y40193777D01*
X24106915Y39997036D01*
X24000122Y39739850D01*
X23999879Y39461372D01*
X5499966Y39461372D01*
X5500346Y39896079D01*
X5196506Y40631429D01*
X4634388Y41194529D01*
X3899570Y41499652D01*
X3103921Y41500346D01*
X2368571Y41196506D01*
X1805471Y40634388D01*
X1500348Y39899570D01*
X1499654Y39103921D01*
X504976Y39103921D01*
X751922Y40345398D01*
X1514029Y41485971D01*
X2283327Y42000000D01*
X12657164Y42000000D01*
X12657164Y41000000D01*
X12685056Y40851769D01*
X12772660Y40715628D01*
X12906329Y40624296D01*
X13065000Y40592164D01*
X14065000Y40592164D01*
X14213231Y40620056D01*
X14349372Y40707660D01*
X14359743Y40722838D01*
X14655194Y40600157D01*
X15013236Y40599844D01*
X15344143Y40736572D01*
X15597538Y40989525D01*
X15734843Y41320194D01*
X15735156Y41678236D01*
X15598428Y42009143D01*
X15345475Y42262538D01*
X15014806Y42399843D01*
X14656764Y42400156D01*
X14361374Y42278103D01*
X14357340Y42284372D01*
X14223671Y42375704D01*
X14065000Y42407836D01*
X13065000Y42407836D01*
X12916769Y42379944D01*
X12780628Y42292340D01*
X12689296Y42158671D01*
X12657164Y42000000D01*
X2283327Y42000000D01*
X2654602Y42248078D01*
X4046783Y42525000D01*
X29597227Y42525000D01*
X29592164Y42500000D01*
M02*
